<svg width="24" height="24" viewBox="0 0 24 24" fill="#ADB5BD" xmlns="http://www.w3.org/2000/svg">
<path d="M12 2C6.47715 2 2 6.47715 2 12C2 17.5228 6.47715 22 12 22C17.5228 22 22 17.5228 22 12C22 9.34784 20.9464 6.8043 19.0711 4.92893C17.1957 3.05357 14.6522 2 12 2ZM12 5C13.6569 5 15 6.34315 15 8C15 9.65686 13.6569 11 12 11C10.3431 11 9 9.65686 9 8C9 6.34315 10.3431 5 12 5ZM17.62 16.16C16.2994 17.9384 14.2151 18.9868 12 18.9868C9.78493 18.9868 7.70056 17.9384 6.38 16.16C6.17921 15.8633 6.15251 15.4818 6.31 15.16L6.52 14.72C7.01488 13.671 8.07012 13.0012 9.23 13H14.77C15.9136 13.0015 16.9568 13.6531 17.46 14.68L17.69 15.15C17.8514 15.4745 17.8246 15.8609 17.62 16.16Z" fill="#1E2128"/>
</svg>
