<svg width="24" height="24" viewBox="0 0 24 24" fill="#ADB5BD" xmlns="http://www.w3.org/2000/svg">
<path d="M12 2C6.47715 2 2 6.47715 2 12C2 17.5228 6.47715 22 12 22C17.5228 22 22 17.5228 22 12C22 9.34784 20.9464 6.8043 19.0711 4.92893C17.1957 3.05357 14.6522 2 12 2ZM16 12.5C16 12.7761 15.7761 13 15.5 13H13V15.5C13 15.7761 12.7761 16 12.5 16H11.5C11.2239 16 11 15.7761 11 15.5V13H8.5C8.22386 13 8 12.7761 8 12.5V11.5C8 11.2239 8.22386 11 8.5 11H11V8.5C11 8.22386 11.2239 8 11.5 8H12.5C12.7761 8 13 8.22386 13 8.5V11H15.5C15.7761 11 16 11.2239 16 11.5V12.5Z" fill="#1E2128"/>
</svg>
