<?xml version="1.0" encoding="UTF-8"?>
<svg width="24px" height="24px" viewBox="0 0 24 24" version="1.1" xmlns="http://www.w3.org/2000/svg" xmlns:xlink="http://www.w3.org/1999/xlink">
    <!-- Generator: Sketch 52 (66869) - http://www.bohemiancoding.com/sketch -->
    <title>add</title>
    <desc>Created with Sketch.</desc>
    <g id="add" stroke="none" stroke-width="1" fill="none" fill-rule="evenodd">
        <path d="M13.2375,10.7625 L19.875,10.7625 C20.4963203,10.7625 21,11.2661797 21,11.8875 L21,12.1125 C21,12.7338203 20.4963203,13.2375 19.875,13.2375 L13.2375,13.2375 L13.2375,19.875 C13.2375,20.4963203 12.7338203,21 12.1125,21 L11.8875,21 C11.2661797,21 10.7625,20.4963203 10.7625,19.875 L10.7625,13.2375 L4.125,13.2375 C3.50367966,13.2375 3,12.7338203 3,12.1125 L3,11.8875 C3,11.2661797 3.50367966,10.7625 4.125,10.7625 L10.7625,10.7625 L10.7625,4.125 C10.7625,3.50367966 11.2661797,3 11.8875,3 L12.1125,3 C12.7338203,3 13.2375,3.50367966 13.2375,4.125 L13.2375,10.7625 Z" id="shape" fill="#ADB5BD" fill-rule="nonzero"></path>
    </g>
</svg>