<?xml version="1.0" encoding="UTF-8"?>
<svg width="24px" height="24px" viewBox="0 0 24 24" version="1.1" xmlns="http://www.w3.org/2000/svg" xmlns:xlink="http://www.w3.org/1999/xlink">
    <!-- Generator: Sketch 51.2 (57519) - http://www.bohemiancoding.com/sketch -->
    <title>add_media</title>
    <desc>Created with Sketch.</desc>
    <defs></defs>
    <g id="add_media" stroke="none" stroke-width="1" fill="none" fill-rule="evenodd">
        <path d="M4.10227083,3.52 L3.49822917,2.686375 C4.1173125,2.2375 4.84960417,2 5.6159375,2 L6.0505625,2 L6.0505625,3.02995833 L5.6159375,3.02995833 C5.06810417,3.02995833 4.5448125,3.199375 4.10227083,3.52 Z M3.0295625,7.43479167 L2.00039583,7.43479167 L2.00039583,5.61554167 C2.00039583,5.401 2.01939583,5.18408333 2.05739583,4.97270833 L3.07072917,5.15320833 C3.0438125,5.303625 3.0295625,5.458 3.0295625,5.61554167 L3.0295625,7.43479167 Z M2.33052083,12.35975 C2.11122917,11.8839583 2.00039583,11.3772917 2.00039583,10.8508333 L2.00039583,9.80979167 L3.0295625,9.80979167 L3.0295625,10.8508333 C3.0295625,11.226875 3.10872917,11.5894583 3.2646875,11.9282917 L2.33052083,12.35975 Z M13.8928125,12.8015 L13.0275208,12.2449583 C13.2958958,11.8293333 13.4368125,11.3472083 13.4368125,10.8508333 L13.4368125,10.2444167 L14.4659792,10.2444167 L14.4659792,10.8508333 C14.4659792,11.545125 14.2680625,12.219625 13.8928125,12.8015 Z M6.82877083,14.466375 L5.6159375,14.466375 C5.1599375,14.466375 4.71502083,14.3816667 4.29227083,14.2154167 L4.66989583,13.2582917 C4.97152083,13.37625 5.28977083,13.4364167 5.6159375,13.4364167 L6.82877083,13.4364167 L6.82877083,14.466375 Z M10.8599375,14.466375 L10.8488542,14.466375 L9.20377083,14.466375 L9.20377083,13.4364167 L10.8504375,13.4364167 C11.0863542,13.4577917 11.2557708,13.41425 11.4513125,13.36675 L11.6919792,14.3674167 C11.4196458,14.433125 11.1401875,14.466375 10.8599375,14.466375 Z" id="Fill-1" fill="#ADB5BD" transform="translate(8.233188, 8.233187) rotate(-270.000000) translate(-8.233188, -8.233187) "></path>
        <path d="M16.2056667,5.1670625 C18.6075833,5.1670625 20.5614167,7.12089583 20.5614167,9.5228125 L20.5614167,16.2060625 C20.5614167,18.6087708 18.6075833,20.5618125 16.2056667,20.5618125 L9.52241667,20.5618125 C7.1205,20.5618125 5.16666667,18.6087708 5.16666667,16.2060625 L5.16666667,9.5228125 C5.16666667,7.12089583 7.1205,5.1670625 9.52241667,5.1670625 L16.2056667,5.1670625 Z M9.5213875,6.40522917 C7.80347083,6.40522917 6.40459583,7.80410417 6.40459583,9.5228125 L6.40459583,13.5579375 L7.1511375,12.8121875 C8.2246375,11.7394792 9.96392917,11.7394792 11.0374292,12.8121875 L11.7063875,13.4803542 L14.7891375,10.3976042 C15.8626375,9.32410417 17.6027208,9.32410417 18.6770125,10.3976042 L19.3230125,11.0436042 L19.3230125,9.5228125 C19.3230125,7.80410417 17.9241375,6.40522917 16.2054292,6.40522917 L9.5213875,6.40522917 Z" id="Combined-Shape" fill="#ADB5BD"></path>
    </g>
</svg>