<?xml version="1.0" encoding="UTF-8"?>
<svg width="24px" height="24px" viewBox="0 0 24 24" version="1.1" xmlns="http://www.w3.org/2000/svg" xmlns:xlink="http://www.w3.org/1999/xlink">
    <!-- Generator: Sketch 51.2 (57519) - http://www.bohemiancoding.com/sketch -->
    <title>add_schedule</title>
    <desc>Created with Sketch.</desc>
    <defs></defs>
    <g id="add_schedule" stroke="none" stroke-width="1" fill="none" fill-rule="evenodd">
        <path d="M17.2213451,5.38621639 L16.3144932,5.38621639 L16.3144932,4.7506587 C16.3144932,4.33608074 15.9752078,4 15.5566782,4 C15.1381486,4 14.7988632,4.33608074 14.7988632,4.7506587 L14.7988632,5.38621639 L9.20113671,5.38621639 L9.20113671,4.7506587 C9.20113671,4.33608074 8.86185139,4 8.44332175,4 C8.0247921,4 7.68550678,4.33608074 7.68550678,4.7506587 L7.68550678,5.38621639 L6.77865487,5.38621639 C5.24404616,5.38621639 4,6.6185147 4,8.13863163 L4,17.3567223 C4,18.8768392 5.24404616,20.1091375 6.77865487,20.1091375 L17.2213451,20.1091375 C18.7559538,20.1091375 20,18.8768392 20,17.3567223 L20,8.13863163 C20,6.6185147 18.7559538,5.38621639 17.2213451,5.38621639 Z M6.78118092,6.88753379 L7.68803283,6.88753379 L7.68803283,8.02353062 C7.68803283,8.43810858 8.02731815,8.77418932 8.4458478,8.77418932 C8.86437744,8.77418932 9.20366276,8.43810858 9.20366276,8.02353062 L9.20366276,6.88753379 L14.7988632,6.88753379 L14.7988632,8.02353062 C14.7988632,8.43810858 15.1381486,8.77418932 15.5566782,8.77418932 C15.9752078,8.77418932 16.3144932,8.43810858 16.3144932,8.02353062 L16.3144932,6.88753379 L17.2213451,6.88753379 C17.9188945,6.88753379 18.4843701,7.44766978 18.4843701,8.13863163 L18.4843701,10.4156303 L5.51562993,10.4156303 L5.51562993,8.13863163 C5.51562993,7.80681985 5.64869825,7.48859844 5.88556137,7.25397244 C6.1224245,7.01934559 6.44367983,6.88753379 6.77865487,6.88753379 L6.78118092,6.88753379 Z" id="Shape" fill="#ADB5BD" fill-rule="nonzero"></path>
    </g>
</svg>