<svg xmlns="http://www.w3.org/2000/svg" viewBox="0 0 16 16" fill="none" role="img" aria-label="AI star"><title>AI star</title><path fillRule="evenodd" clipRule="evenodd" d="M7.76 4.97C7.7 4.86 7.64 4.75 7.58 4.64C7.55 4.58 7.54 4.5 7.56 4.44C7.57 4.37 7.62 4.31 7.68 4.27C7.74 4.24 7.81 4.23 7.88 4.24C7.95 4.26 8.01 4.31 8.05 4.37L8.06 4.4C8.17 4.19 8.27 3.99 8.36 3.78L7.47 1.88C7.42 1.77 7.33 1.67 7.22 1.6C7.11 1.53 6.98 1.49 6.85 1.49C6.72 1.49 6.6 1.53 6.49 1.6C6.38 1.67 6.29 1.77 6.23 1.88L4.66 5.23C4.47 5.64 4.15 5.96 3.74 6.15L0.61 7.62L3.74 8.81C4.06 8.92 4.33 9.12 4.54 9.38C5.74 7.98 6.87 6.54 7.76 4.97ZM7.64 3.63C7.56 3.45 7.46 3.27 7.36 3.09C7.32 3.03 7.27 2.99 7.2 2.97C7.13 2.95 7.05 2.96 6.99 3C6.93 3.03 6.89 3.09 6.87 3.16C6.85 3.23 6.86 3.3 6.89 3.37C7 3.54 7.09 3.72 7.18 3.9C7.21 3.97 7.27 4.01 7.34 4.03C7.41 4.05 7.48 4.04 7.55 4C7.61 3.97 7.65 3.91 7.67 3.84L7.68 3.77C7.68 3.72 7.67 3.67 7.64 3.63Z" fill="url(#paint0_linear_741_7448)" /><path d="M10.11 6.22C9.43 8.67 8.26 10.93 6.38 12.43C6.5 12.53 6.67 12.58 6.85 12.58C7.13 12.58 7.36 12.46 7.47 12.26L9.05 9.55C9.26 9.21 9.58 8.95 9.96 8.81L13.09 7.62L10.11 6.22Z" fill="url(#paint1_linear_741_7448)" /><path d="M6.85 12.58C6.67 12.58 6.5 12.53 6.38 12.43C6.08 12.66 5.76 12.88 5.42 13.08L6.23 14.8C6.29 14.92 6.37 15.02 6.48 15.09C6.59 15.16 6.72 15.2 6.85 15.19C6.98 15.2 7.11 15.16 7.22 15.09C7.33 15.02 7.42 14.92 7.47 14.8L9.05 11.45C9.24 11.05 9.56 10.73 9.96 10.54L13.31 8.96C13.43 8.91 13.53 8.82 13.6 8.71C13.67 8.6 13.71 8.47 13.71 8.34C13.71 8.21 13.67 8.08 13.6 7.97C13.53 7.87 13.43 7.78 13.31 7.72L13.09 7.62L9.96 8.81C9.58 8.95 9.26 9.21 9.05 9.55L7.47 12.26C7.36 12.46 7.13 12.58 6.85 12.58Z" fill="url(#paint2_linear_741_7448)" /><path d="M6.38 12.43C6.32 12.38 6.27 12.33 6.23 12.26L4.66 9.55C4.62 9.49 4.58 9.44 4.54 9.38C4.33 9.12 4.06 8.92 3.74 8.81L0.61 7.62L0.39 7.72C0.28 7.78 0.18 7.87 0.11 7.97C0.04 8.08 1.29e-5 8.21 3.34e-9 8.34C-1.28e-5 8.47 0.04 8.6 0.11 8.71C0.18 8.82 0.28 8.91 0.39 8.96L3.74 10.54C4.15 10.73 4.47 11.05 4.66 11.45L5.42 13.08C5.76 12.88 6.08 12.66 6.38 12.43Z" fill="url(#paint3_linear_741_7448)" /><path d="M8.06 4.4C8.29 4.83 8.51 5.26 8.72 5.7C8.75 5.76 8.76 5.84 8.74 5.91C8.72 5.97 8.68 6.03 8.62 6.07C8.51 6.14 8.31 6.1 8.25 5.97C8.09 5.64 7.93 5.3 7.76 4.97C6.87 6.54 5.74 7.98 4.54 9.38C4.58 9.44 4.62 9.49 4.66 9.55L6.23 12.26C6.27 12.33 6.32 12.38 6.38 12.43C8.26 10.93 9.43 8.67 10.11 6.22L9.96 6.15C9.56 5.96 9.24 5.64 9.05 5.23L8.36 3.78C8.27 3.99 8.17 4.19 8.06 4.4Z" fill="url(#paint4_linear_741_7448)" /><path d="M8.72 5.7C8.51 5.26 8.29 4.83 8.06 4.4L8.05 4.37C8.01 4.31 7.95 4.26 7.88 4.24C7.81 4.23 7.74 4.24 7.68 4.27C7.62 4.31 7.57 4.37 7.56 4.44C7.54 4.5 7.55 4.58 7.58 4.64C7.64 4.75 7.7 4.86 7.76 4.97C7.93 5.3 8.09 5.64 8.25 5.97C8.31 6.1 8.51 6.14 8.62 6.07C8.68 6.03 8.72 5.97 8.74 5.91C8.76 5.84 8.75 5.76 8.72 5.7Z" fill="white" /><path d="M7.36 3.09C7.46 3.27 7.56 3.45 7.64 3.63C7.67 3.67 7.68 3.72 7.68 3.77L7.67 3.84C7.65 3.91 7.61 3.97 7.55 4C7.48 4.04 7.41 4.05 7.34 4.03C7.27 4.01 7.21 3.97 7.18 3.9C7.09 3.72 7 3.54 6.89 3.37C6.86 3.3 6.85 3.23 6.87 3.16C6.89 3.09 6.93 3.03 6.99 3C7.05 2.96 7.13 2.95 7.2 2.97C7.27 2.99 7.32 3.03 7.36 3.09Z" fill="white" /><path fillRule="evenodd" clipRule="evenodd" d="M11.53 0.67C11.52 0.65 11.51 0.63 11.5 0.6C11.49 0.59 11.49 0.58 11.49 0.57C11.49 0.55 11.5 0.54 11.51 0.53C11.53 0.53 11.54 0.52 11.55 0.53C11.57 0.53 11.58 0.54 11.58 0.55L11.59 0.56C11.61 0.52 11.63 0.48 11.65 0.44L11.47 0.08C11.46 0.05 11.45 0.03 11.43 0.02C11.4 0.01 11.38 2.22e-6 11.36 5.2e-10C11.33 -2.22e-6 11.31 0.01 11.28 0.02C11.26 0.03 11.25 0.05 11.24 0.08L10.93 0.72C10.9 0.8 10.84 0.86 10.76 0.89L10.16 1.18L10.76 1.41C10.82 1.43 10.87 1.46 10.91 1.51C11.14 1.24 11.36 0.97 11.53 0.67ZM11.51 0.41C11.49 0.38 11.47 0.34 11.45 0.31C11.45 0.3 11.43 0.29 11.42 0.28C11.41 0.28 11.39 0.28 11.38 0.29C11.37 0.3 11.36 0.31 11.36 0.32C11.35 0.33 11.36 0.35 11.36 0.36C11.38 0.39 11.4 0.43 11.42 0.46C11.42 0.48 11.44 0.48 11.45 0.49C11.46 0.49 11.48 0.49 11.49 0.48C11.5 0.48 11.51 0.46 11.51 0.45L11.51 0.44C11.51 0.43 11.51 0.42 11.51 0.41Z" fill="url(#paint5_linear_741_7448)" /><path d="M11.98 0.91C11.85 1.38 11.62 1.81 11.26 2.1C11.29 2.12 11.32 2.13 11.36 2.13C11.41 2.13 11.45 2.11 11.47 2.07L11.78 1.55C11.82 1.48 11.88 1.43 11.95 1.41L12.55 1.18L11.98 0.91Z" fill="url(#paint6_linear_741_7448)" /><path d="M11.36 2.13C11.32 2.13 11.29 2.12 11.26 2.1C11.21 2.14 11.15 2.19 11.08 2.22L11.24 2.55C11.25 2.58 11.26 2.6 11.28 2.61C11.31 2.62 11.33 2.63 11.36 2.63C11.38 2.63 11.4 2.62 11.43 2.61C11.45 2.6 11.46 2.58 11.47 2.55L11.78 1.91C11.81 1.83 11.87 1.77 11.95 1.74L12.59 1.43C12.62 1.42 12.64 1.41 12.65 1.39C12.66 1.36 12.67 1.34 12.67 1.31C12.67 1.29 12.66 1.27 12.65 1.24C12.64 1.22 12.62 1.21 12.59 1.2L12.55 1.18L11.95 1.41C11.88 1.43 11.82 1.48 11.78 1.55L11.47 2.07C11.45 2.11 11.41 2.13 11.36 2.13Z" fill="url(#paint7_linear_741_7448)" /><path d="M11.26 2.1C11.25 2.09 11.24 2.08 11.24 2.07L10.93 1.55C10.93 1.54 10.92 1.52 10.91 1.51C10.87 1.46 10.82 1.43 10.76 1.41L10.16 1.18L10.12 1.2C10.09 1.21 10.07 1.22 10.06 1.24C10.05 1.27 10.04 1.29 10.04 1.31C10.04 1.34 10.05 1.36 10.06 1.39C10.07 1.41 10.09 1.42 10.12 1.43L10.76 1.74C10.84 1.77 10.9 1.83 10.93 1.91L11.08 2.22C11.15 2.19 11.21 2.14 11.26 2.1Z" fill="url(#paint8_linear_741_7448)" /><path d="M11.59 0.56C11.63 0.64 11.67 0.72 11.71 0.81C11.72 0.82 11.72 0.83 11.72 0.85C11.71 0.86 11.71 0.87 11.69 0.88C11.67 0.89 11.64 0.89 11.62 0.86C11.59 0.8 11.56 0.73 11.53 0.67C11.36 0.97 11.14 1.24 10.91 1.51C10.92 1.52 10.93 1.54 10.93 1.55L11.24 2.07C11.24 2.08 11.25 2.09 11.26 2.1C11.62 1.81 11.85 1.38 11.98 0.91L11.95 0.89C11.87 0.86 11.81 0.8 11.78 0.72L11.65 0.44C11.63 0.48 11.61 0.52 11.59 0.56Z" fill="url(#paint9_linear_741_7448)" /><path d="M11.71 0.81C11.67 0.72 11.63 0.64 11.59 0.56L11.58 0.55C11.58 0.54 11.57 0.53 11.55 0.53C11.54 0.52 11.53 0.53 11.51 0.53C11.5 0.54 11.49 0.55 11.49 0.57C11.49 0.58 11.49 0.59 11.5 0.6C11.51 0.63 11.52 0.65 11.53 0.67C11.56 0.73 11.59 0.8 11.62 0.86C11.64 0.89 11.67 0.89 11.69 0.88C11.71 0.87 11.71 0.86 11.72 0.85C11.72 0.83 11.72 0.82 11.71 0.81Z" fill="white" /><path d="M11.45 0.31C11.47 0.34 11.49 0.38 11.51 0.41C11.51 0.42 11.51 0.43 11.51 0.44L11.51 0.45C11.51 0.46 11.5 0.48 11.49 0.48C11.48 0.49 11.46 0.49 11.45 0.49C11.44 0.48 11.42 0.48 11.42 0.46C11.4 0.43 11.38 0.39 11.36 0.36C11.36 0.35 11.35 0.33 11.36 0.32C11.36 0.31 11.37 0.3 11.38 0.29C11.39 0.28 11.41 0.28 11.42 0.28C11.43 0.29 11.45 0.3 11.45 0.31Z" fill="white" /><path fillRule="evenodd" clipRule="evenodd" d="M14 2.35C13.98 2.31 13.96 2.28 13.94 2.24C13.93 2.22 13.93 2.19 13.93 2.17C13.94 2.15 13.95 2.13 13.97 2.12C13.99 2.1 14.02 2.1 14.04 2.11C14.06 2.11 14.08 2.13 14.1 2.15L14.1 2.16C14.14 2.09 14.17 2.02 14.2 1.95L13.9 1.31C13.88 1.27 13.86 1.24 13.82 1.22C13.78 1.19 13.74 1.18 13.69 1.18C13.65 1.18 13.61 1.19 13.57 1.22C13.53 1.24 13.5 1.27 13.49 1.31L12.96 2.44C12.89 2.57 12.78 2.68 12.65 2.75L11.6 3.24L12.65 3.64C12.75 3.68 12.85 3.75 12.92 3.83C13.32 3.36 13.7 2.88 14 2.35ZM13.96 1.9C13.93 1.84 13.9 1.78 13.87 1.72C13.85 1.7 13.83 1.68 13.81 1.68C13.79 1.67 13.76 1.67 13.74 1.69C13.72 1.7 13.71 1.72 13.7 1.74C13.69 1.76 13.7 1.79 13.71 1.81C13.74 1.87 13.77 1.93 13.8 1.99C13.82 2.01 13.84 2.03 13.86 2.03C13.88 2.04 13.91 2.04 13.93 2.02C13.95 2.01 13.96 1.99 13.97 1.97L13.97 1.95C13.97 1.93 13.97 1.91 13.96 1.9Z" fill="url(#paint10_linear_741_7448)" /><path d="M14.79 2.77C14.56 3.59 14.17 4.36 13.53 4.86C13.58 4.89 13.63 4.91 13.69 4.91C13.79 4.91 13.86 4.87 13.9 4.8L14.43 3.89C14.5 3.78 14.61 3.69 14.74 3.64L15.79 3.24L14.79 2.77Z" fill="url(#paint11_linear_741_7448)" /><path d="M13.69 4.91C13.63 4.91 13.58 4.89 13.53 4.86C13.43 4.94 13.33 5.01 13.21 5.08L13.49 5.66C13.5 5.7 13.53 5.73 13.57 5.75C13.61 5.78 13.65 5.79 13.69 5.79C13.74 5.79 13.78 5.78 13.82 5.75C13.86 5.73 13.88 5.7 13.9 5.66L14.43 4.53C14.5 4.4 14.61 4.29 14.74 4.22L15.87 3.69C15.91 3.67 15.94 3.65 15.96 3.61C15.99 3.57 16 3.53 16 3.48C16 3.44 15.99 3.4 15.96 3.36C15.94 3.32 15.91 3.29 15.87 3.28L15.79 3.24L14.74 3.64C14.61 3.69 14.5 3.78 14.43 3.89L13.9 4.8C13.86 4.87 13.79 4.91 13.69 4.91Z" fill="url(#paint12_linear_741_7448)" /><path d="M13.53 4.86C13.51 4.84 13.5 4.82 13.49 4.8L12.96 3.89C12.94 3.87 12.93 3.85 12.92 3.83C12.85 3.75 12.75 3.68 12.65 3.64L11.6 3.24L11.52 3.28C11.48 3.29 11.45 3.32 11.43 3.36C11.4 3.4 11.39 3.44 11.39 3.48C11.39 3.53 11.4 3.57 11.43 3.61C11.45 3.65 11.48 3.67 11.52 3.69L12.65 4.22C12.78 4.29 12.89 4.4 12.96 4.53L13.21 5.08C13.33 5.01 13.43 4.94 13.53 4.86Z" fill="url(#paint13_linear_741_7448)" /><path d="M14.1 2.16C14.18 2.3 14.25 2.45 14.32 2.6C14.33 2.62 14.34 2.64 14.33 2.67C14.32 2.69 14.31 2.71 14.29 2.72C14.25 2.75 14.19 2.73 14.17 2.69C14.11 2.57 14.06 2.46 14 2.35C13.7 2.88 13.32 3.36 12.92 3.83C12.93 3.85 12.94 3.87 12.96 3.89L13.49 4.8C13.5 4.82 13.51 4.84 13.53 4.86C14.17 4.36 14.56 3.59 14.79 2.77L14.74 2.75C14.61 2.68 14.5 2.57 14.43 2.44L14.2 1.95C14.17 2.02 14.14 2.09 14.1 2.16Z" fill="url(#paint14_linear_741_7448)" /><path d="M14.32 2.6C14.25 2.45 14.18 2.3 14.1 2.16L14.1 2.15C14.08 2.13 14.06 2.11 14.04 2.11C14.02 2.1 13.99 2.1 13.97 2.12C13.95 2.13 13.94 2.15 13.93 2.17C13.93 2.19 13.93 2.22 13.94 2.24C13.96 2.28 13.98 2.31 14 2.35C14.06 2.46 14.11 2.57 14.17 2.69C14.19 2.73 14.25 2.75 14.29 2.72C14.31 2.71 14.32 2.69 14.33 2.67C14.34 2.64 14.33 2.62 14.32 2.6Z" fill="white" /><path d="M13.87 1.72C13.9 1.78 13.93 1.84 13.96 1.9C13.97 1.91 13.97 1.93 13.97 1.95L13.97 1.97C13.96 1.99 13.95 2.01 13.93 2.02C13.91 2.04 13.88 2.04 13.86 2.03C13.84 2.03 13.82 2.01 13.8 1.99C13.77 1.93 13.74 1.87 13.71 1.81C13.7 1.79 13.69 1.76 13.7 1.74C13.71 1.72 13.72 1.7 13.74 1.69C13.76 1.67 13.79 1.67 13.81 1.68C13.83 1.68 13.85 1.7 13.87 1.72Z" fill="white" /><defs><linearGradient id="paint0_linear_741_7448" x1="-5.96e-8" y1="7.6" x2="7.01" y2="7.61" gradientUnits="userSpaceOnUse"><stop stopColor="#D78CE8" /><stop offset="1" stopColor="#BC57CD" /></linearGradient><linearGradient id="paint1_linear_741_7448" x1="16" y1="7.6" x2="-2.78e-7" y2="7.6" gradientUnits="userSpaceOnUse"><stop stopColor="#F4ADF9" /><stop offset="1" stopColor="#DE96E9" /></linearGradient><linearGradient id="paint2_linear_741_7448" x1="1.19e-7" y1="7.6" x2="16" y2="7.6" gradientUnits="userSpaceOnUse"><stop stopColor="#C268D3" /><stop offset="1" stopColor="#DC7BE7" /></linearGradient><linearGradient id="paint3_linear_741_7448" x1="-5.96e-8" y1="7.6" x2="16" y2="7.6" gradientUnits="userSpaceOnUse"><stop stopColor="#BB5FD2" /><stop offset="1" stopColor="#B64FC7" /></linearGradient><linearGradient id="paint4_linear_741_7448" x1="-5.96e-8" y1="7.6" x2="16" y2="7.6" gradientUnits="userSpaceOnUse"><stop stopColor="#B343C6" /><stop offset="1" stopColor="#F194FF" /></linearGradient><linearGradient id="paint5_linear_741_7448" x1="-5.96e-8" y1="7.6" x2="7.01" y2="7.61" gradientUnits="userSpaceOnUse"><stop stopColor="#D78CE8" /><stop offset="1" stopColor="#BC57CD" /></linearGradient><linearGradient id="paint6_linear_741_7448" x1="16" y1="7.6" x2="-2.78e-7" y2="7.6" gradientUnits="userSpaceOnUse"><stop stopColor="#FDE0FF" /><stop offset="1" stopColor="#DE96E9" /></linearGradient><linearGradient id="paint7_linear_741_7448" x1="11.39" y1="3.48" x2="16" y2="3.48" gradientUnits="userSpaceOnUse"><stop stopColor="#D995E6" /><stop offset="1" stopColor="#E09EE7" /></linearGradient><linearGradient id="paint8_linear_741_7448" x1="-5.96e-8" y1="7.6" x2="16" y2="7.6" gradientUnits="userSpaceOnUse"><stop stopColor="#BB5FD2" /><stop offset="1" stopColor="#B64FC7" /></linearGradient><linearGradient id="paint9_linear_741_7448" x1="-5.96e-8" y1="7.6" x2="16" y2="7.6" gradientUnits="userSpaceOnUse"><stop stopColor="#B343C6" /><stop offset="1" stopColor="#F194FF" /></linearGradient><linearGradient id="paint10_linear_741_7448" x1="-5.96e-8" y1="7.6" x2="7.01" y2="7.61" gradientUnits="userSpaceOnUse"><stop stopColor="#D78CE8" /><stop offset="1" stopColor="#BC57CD" /></linearGradient><linearGradient id="paint11_linear_741_7448" x1="16" y1="7.6" x2="-2.78e-7" y2="7.6" gradientUnits="userSpaceOnUse"><stop stopColor="#FDE0FF" /><stop offset="1" stopColor="#DE96E9" /></linearGradient><linearGradient id="paint12_linear_741_7448" x1="11.39" y1="3.48" x2="16" y2="3.48" gradientUnits="userSpaceOnUse"><stop stopColor="#D995E6" /><stop offset="1" stopColor="#E09EE7" /></linearGradient><linearGradient id="paint13_linear_741_7448" x1="-5.96e-8" y1="7.6" x2="16" y2="7.6" gradientUnits="userSpaceOnUse"><stop stopColor="#BB5FD2" /><stop offset="1" stopColor="#B64FC7" /></linearGradient><linearGradient id="paint14_linear_741_7448" x1="-5.96e-8" y1="7.6" x2="16" y2="7.6" gradientUnits="userSpaceOnUse"><stop stopColor="#B343C6" /><stop offset="1" stopColor="#F194FF" /></linearGradient></defs></svg>
