<svg width="16" height="16" viewBox="0 0 16 16" fill="none" xmlns="http://www.w3.org/2000/svg">
<path fill-rule="evenodd" clip-rule="evenodd" d="M7.75608 4.97079C7.69876 4.85997 7.64076 4.74949 7.58207 4.63937C7.54753 4.57733 7.53831 4.50434 7.55632 4.43566C7.57433 4.36698 7.61818 4.30792 7.67872 4.2708C7.74055 4.23534 7.81385 4.2256 7.8828 4.24368C7.95176 4.26176 8.01084 4.30621 8.04732 4.36744L8.06379 4.39838C8.16844 4.19388 8.26852 3.98716 8.36363 3.77801L7.47277 1.88354C7.41748 1.76588 7.32983 1.6664 7.22007 1.59671C7.11032 1.52702 6.98299 1.49 6.85298 1.48999C6.72297 1.48998 6.59563 1.52697 6.48587 1.59664C6.3761 1.66631 6.28843 1.76578 6.23312 1.88343L4.65791 5.2336C4.46875 5.63504 4.14565 5.95807 3.74414 6.14716L0.611553 7.61985L3.74426 8.81187C4.05854 8.92392 4.33342 9.12189 4.53875 9.38135C5.7376 7.97678 6.87444 6.53631 7.75608 4.97079ZM7.64331 3.63289C7.55636 3.44913 7.46183 3.26927 7.35973 3.0933C7.32356 3.03324 7.26606 2.98903 7.19872 2.9695C7.12865 2.95087 7.05405 2.96063 6.99113 2.99666C6.93061 3.03232 6.88624 3.09001 6.86732 3.15765C6.84939 3.22776 6.85912 3.30208 6.89448 3.36522C6.9965 3.54105 7.09103 3.72092 7.17806 3.90481C7.21368 3.96536 7.27139 4.00973 7.33906 4.02861C7.40914 4.04724 7.48374 4.03748 7.54666 4.00145C7.60718 3.96579 7.65154 3.9081 7.67047 3.84046L7.68009 3.76885C7.68017 3.72106 7.66747 3.67412 7.64331 3.63289Z" fill="url(#paint0_linear_741_7448)"/>
<path d="M10.1126 6.21806C9.43088 8.66727 8.25857 10.9342 6.3755 12.4271C6.49963 12.526 6.66681 12.5816 6.85294 12.5816C7.1252 12.5816 7.35691 12.4626 7.47277 12.2632L9.04798 9.55143C9.25944 9.20805 9.58181 8.94714 9.96175 8.81187L13.0942 7.61978L10.1126 6.21806Z" fill="url(#paint1_linear_741_7448)"/>
<path d="M6.85294 12.5816C6.66681 12.5816 6.49963 12.526 6.3755 12.4271C6.07633 12.6643 5.75921 12.8819 5.42326 13.0777L6.23324 14.8009C6.28705 14.9196 6.37435 15.0201 6.48442 15.09C6.5945 15.1598 6.72257 15.1961 6.85294 15.1943C6.98333 15.1961 7.11142 15.1598 7.22151 15.0899C7.3316 15.0201 7.41892 14.9196 7.47277 14.8009L9.04798 11.4507C9.23704 11.0491 9.56017 10.726 9.96175 10.537L13.3123 8.96172C13.4299 8.90642 13.5294 8.81878 13.5991 8.70904C13.6688 8.5993 13.7058 8.472 13.7058 8.34202C13.7058 8.21203 13.6688 8.08473 13.5991 7.975C13.5294 7.86526 13.4299 7.77762 13.3123 7.72232L13.0942 7.61978L9.96175 8.81187C9.58181 8.94714 9.25944 9.20805 9.04798 9.55143L7.47277 12.2632C7.35691 12.4626 7.1252 12.5816 6.85294 12.5816Z" fill="url(#paint2_linear_741_7448)"/>
<path d="M6.3755 12.4271C6.31807 12.3813 6.26985 12.3263 6.23324 12.2632L4.65778 9.55134C4.62131 9.49215 4.58154 9.43541 4.53875 9.38135C4.33342 9.12189 4.05854 8.92392 3.74426 8.81187L0.611553 7.61985L0.393592 7.72232C0.275924 7.77761 0.176427 7.86525 0.106729 7.97499C0.0370314 8.08473 1.28512e-05 8.21204 3.34148e-09 8.34204C-1.28378e-05 8.47204 0.0369806 8.59936 0.106657 8.70911C0.176333 8.81887 0.275813 8.90653 0.393469 8.96184L3.74426 10.537C4.14565 10.7262 4.46865 11.0492 4.65778 11.4506L5.42326 13.0777C5.75921 12.8819 6.07633 12.6643 6.3755 12.4271Z" fill="url(#paint3_linear_741_7448)"/>
<path d="M8.06379 4.39838C8.29202 4.82782 8.50976 5.26244 8.71701 5.70225C8.75118 5.76437 8.76021 5.83723 8.74223 5.90581C8.72424 5.97439 8.68062 6.03345 8.62036 6.07082C8.50555 6.14483 8.312 6.10201 8.25176 5.97417C8.09267 5.63658 7.92745 5.30212 7.75608 4.97079C6.87444 6.53631 5.7376 7.97678 4.53875 9.38135C4.58154 9.43541 4.62131 9.49215 4.65778 9.55134L6.23324 12.2632C6.26985 12.3263 6.31807 12.3813 6.3755 12.4271C8.25857 10.9342 9.43088 8.66727 10.1126 6.21806L9.96175 6.14728C9.56022 5.9582 9.23715 5.63511 9.0481 5.2336L8.36363 3.77801C8.26852 3.98716 8.16844 4.19388 8.06379 4.39838Z" fill="url(#paint4_linear_741_7448)"/>
<path d="M8.71701 5.70225C8.50976 5.26244 8.29202 4.82782 8.06379 4.39838L8.04732 4.36744C8.01084 4.30621 7.95176 4.26176 7.8828 4.24368C7.81385 4.2256 7.74055 4.23534 7.67872 4.2708C7.61818 4.30792 7.57433 4.36698 7.55632 4.43566C7.53831 4.50434 7.54753 4.57733 7.58207 4.63937C7.64076 4.74949 7.69876 4.85997 7.75608 4.97079C7.92745 5.30212 8.09267 5.63658 8.25176 5.97417C8.312 6.10201 8.50555 6.14483 8.62036 6.07082C8.68062 6.03345 8.72424 5.97439 8.74223 5.90581C8.76021 5.83723 8.75118 5.76437 8.71701 5.70225Z" fill="white"/>
<path d="M7.35973 3.0933C7.46183 3.26927 7.55636 3.44913 7.64331 3.63289C7.66747 3.67412 7.68017 3.72106 7.68009 3.76885L7.67047 3.84046C7.65154 3.9081 7.60718 3.96579 7.54666 4.00145C7.48374 4.03748 7.40914 4.04724 7.33906 4.02861C7.27139 4.00973 7.21368 3.96536 7.17806 3.90481C7.09103 3.72092 6.9965 3.54105 6.89448 3.36522C6.85912 3.30208 6.84939 3.22776 6.86732 3.15765C6.88624 3.09001 6.93061 3.03232 6.99113 2.99666C7.05405 2.96063 7.12865 2.95087 7.19872 2.9695C7.26606 2.98903 7.32356 3.03324 7.35973 3.0933Z" fill="white"/>
<path fill-rule="evenodd" clip-rule="evenodd" d="M11.5285 0.668C11.5175 0.646731 11.5064 0.62553 11.4951 0.604396C11.4885 0.59249 11.4867 0.578484 11.4902 0.565304C11.4936 0.552123 11.502 0.540788 11.5137 0.533665C11.5255 0.52686 11.5396 0.52499 11.5528 0.52846C11.5661 0.531929 11.5774 0.540459 11.5844 0.552211L11.5876 0.558149C11.6076 0.518904 11.6268 0.47923 11.6451 0.439094L11.4741 0.075526C11.4635 0.0529467 11.4467 0.0338541 11.4256 0.0204799C11.4046 0.0071056 11.3801 2.2193e-06 11.3552 5.19549e-10C11.3302 -2.21722e-06 11.3058 0.00709681 11.2847 0.0204673C11.2637 0.0338378 11.2469 0.0529275 11.2362 0.0755049L10.9339 0.718435C10.8976 0.795476 10.8356 0.857468 10.7586 0.893757L10.1574 1.17638L10.7586 1.40514C10.8189 1.42664 10.8717 1.46464 10.9111 1.51443C11.1411 1.24488 11.3593 0.968438 11.5285 0.668ZM11.5069 0.411243C11.4902 0.375979 11.472 0.341461 11.4524 0.307691C11.4455 0.296164 11.4345 0.28768 11.4215 0.283933C11.4081 0.280357 11.3938 0.282229 11.3817 0.289144C11.3701 0.295988 11.3616 0.307059 11.3579 0.32004C11.3545 0.333495 11.3564 0.347758 11.3632 0.359875C11.3827 0.393619 11.4009 0.428136 11.4176 0.463427C11.4244 0.475047 11.4355 0.483563 11.4485 0.487185C11.4619 0.490761 11.4762 0.488888 11.4883 0.481974C11.4999 0.47513 11.5084 0.464059 11.5121 0.451078L11.5139 0.437335C11.5139 0.428164 11.5115 0.419156 11.5069 0.411243Z" fill="url(#paint5_linear_741_7448)"/>
<path d="M11.9807 0.907363C11.8499 1.37739 11.6249 1.81244 11.2636 2.09893C11.2874 2.11792 11.3195 2.1286 11.3552 2.1286C11.4074 2.1286 11.4519 2.10575 11.4741 2.06748L11.7764 1.54707C11.817 1.48117 11.8789 1.4311 11.9518 1.40514L12.5529 1.17637L11.9807 0.907363Z" fill="url(#paint6_linear_741_7448)"/>
<path d="M11.3552 2.1286C11.3195 2.1286 11.2874 2.11792 11.2636 2.09893C11.2061 2.14445 11.1453 2.18622 11.0808 2.22379L11.2363 2.55449C11.2466 2.57728 11.2633 2.59656 11.2845 2.60997C11.3056 2.62338 11.3302 2.63034 11.3552 2.62999C11.3802 2.63033 11.4048 2.62338 11.4259 2.60996C11.447 2.59655 11.4638 2.57727 11.4741 2.55449L11.7764 1.91155C11.8127 1.83449 11.8747 1.77249 11.9518 1.73621L12.5948 1.4339C12.6174 1.42329 12.6365 1.40647 12.6498 1.38541C12.6632 1.36435 12.6703 1.33992 12.6703 1.31497C12.6703 1.29003 12.6632 1.2656 12.6498 1.24454C12.6365 1.22348 12.6174 1.20666 12.5948 1.19605L12.5529 1.17637L11.9518 1.40514C11.8789 1.4311 11.817 1.48117 11.7764 1.54707L11.4741 2.06748C11.4519 2.10575 11.4074 2.1286 11.3552 2.1286Z" fill="url(#paint7_linear_741_7448)"/>
<path d="M11.2636 2.09893C11.2525 2.09015 11.2433 2.07959 11.2363 2.06748L10.9339 1.54705C10.9269 1.53569 10.9193 1.5248 10.9111 1.51443C10.8717 1.46464 10.8189 1.42664 10.7586 1.40514L10.1574 1.17638L10.1156 1.19605C10.093 1.20666 10.0739 1.22347 10.0605 1.24454C10.0471 1.2656 10.04 1.29003 10.04 1.31498C10.04 1.33992 10.0471 1.36436 10.0605 1.38542C10.0739 1.40648 10.093 1.42331 10.1156 1.43392L10.7586 1.73621C10.8356 1.77251 10.8976 1.8345 10.9339 1.91153L11.0808 2.22379C11.1453 2.18622 11.2061 2.14445 11.2636 2.09893Z" fill="url(#paint8_linear_741_7448)"/>
<path d="M11.5876 0.558149C11.6314 0.640563 11.6731 0.72397 11.7129 0.808374C11.7195 0.820295 11.7212 0.834279 11.7178 0.84744C11.7143 0.860601 11.7059 0.871935 11.6944 0.879105C11.6723 0.893309 11.6352 0.885092 11.6236 0.860559C11.5931 0.795772 11.5614 0.731586 11.5285 0.668C11.3593 0.968438 11.1411 1.24488 10.9111 1.51443C10.9193 1.5248 10.9269 1.53569 10.9339 1.54705L11.2363 2.06748C11.2433 2.07959 11.2525 2.09015 11.2636 2.09893C11.6249 1.81244 11.8499 1.37739 11.9807 0.907363L11.9518 0.89378C11.8747 0.857494 11.8127 0.79549 11.7765 0.718435L11.6451 0.439094C11.6268 0.47923 11.6076 0.518904 11.5876 0.558149Z" fill="url(#paint9_linear_741_7448)"/>
<path d="M11.7129 0.808374C11.6731 0.72397 11.6314 0.640563 11.5876 0.558149L11.5844 0.552211C11.5774 0.540459 11.5661 0.531929 11.5528 0.52846C11.5396 0.52499 11.5255 0.52686 11.5137 0.533665C11.502 0.540788 11.4936 0.552123 11.4902 0.565304C11.4867 0.578484 11.4885 0.59249 11.4951 0.604396C11.5064 0.62553 11.5175 0.646731 11.5285 0.668C11.5614 0.731586 11.5931 0.795772 11.6236 0.860559C11.6352 0.885092 11.6723 0.893309 11.6944 0.879105C11.7059 0.871935 11.7143 0.860601 11.7178 0.84744C11.7212 0.834279 11.7195 0.820295 11.7129 0.808374Z" fill="white"/>
<path d="M11.4524 0.307691C11.472 0.341461 11.4902 0.375979 11.5069 0.411243C11.5115 0.419156 11.5139 0.428164 11.5139 0.437335L11.5121 0.451078C11.5084 0.464059 11.4999 0.47513 11.4883 0.481974C11.4762 0.488888 11.4619 0.490761 11.4485 0.487185C11.4355 0.483563 11.4244 0.475047 11.4176 0.463427C11.4009 0.428136 11.3827 0.393619 11.3632 0.359875C11.3564 0.347758 11.3545 0.333495 11.3579 0.32004C11.3616 0.307059 11.3701 0.295988 11.3817 0.289144C11.3938 0.282229 11.4081 0.280357 11.4215 0.283933C11.4345 0.28768 11.4455 0.296164 11.4524 0.307691Z" fill="white"/>
<path fill-rule="evenodd" clip-rule="evenodd" d="M13.9984 2.35071C13.9792 2.31344 13.9597 2.27628 13.9399 2.23924C13.9283 2.21837 13.9252 2.19382 13.9312 2.17072C13.9373 2.14762 13.9521 2.12775 13.9724 2.11527C13.9932 2.10334 14.0179 2.10007 14.0411 2.10615C14.0643 2.11223 14.0841 2.12718 14.0964 2.14778L14.1019 2.15818C14.1371 2.0894 14.1708 2.01986 14.2028 1.94952L13.9031 1.3123C13.8845 1.27273 13.8551 1.23927 13.8182 1.21583C13.7812 1.19239 13.7384 1.17994 13.6947 1.17993C13.6509 1.17993 13.6081 1.19237 13.5712 1.2158C13.5343 1.23924 13.5048 1.2727 13.4862 1.31227L12.9564 2.43911C12.8927 2.57414 12.7841 2.68279 12.649 2.74639L11.5953 3.24174L12.649 3.64268C12.7548 3.68037 12.8472 3.74695 12.9163 3.83422C13.3195 3.36179 13.7019 2.87728 13.9984 2.35071ZM13.9605 1.9007C13.9313 1.8389 13.8995 1.7784 13.8651 1.71921C13.853 1.69901 13.8336 1.68414 13.811 1.67757C13.7874 1.6713 13.7623 1.67459 13.7411 1.68671C13.7208 1.6987 13.7059 1.71811 13.6995 1.74086C13.6935 1.76444 13.6967 1.78944 13.7086 1.81067C13.743 1.86982 13.7747 1.93031 13.804 1.99217C13.816 2.01253 13.8354 2.02746 13.8582 2.03381C13.8817 2.04007 13.9068 2.03679 13.928 2.02467C13.9484 2.01268 13.9633 1.99327 13.9696 1.97052L13.9729 1.94644C13.9729 1.93036 13.9686 1.91457 13.9605 1.9007Z" fill="url(#paint10_linear_741_7448)"/>
<path d="M14.7911 2.77024C14.5618 3.59404 14.1675 4.35653 13.5341 4.85867C13.5758 4.89194 13.6321 4.91066 13.6947 4.91066C13.7862 4.91066 13.8642 4.87062 13.9031 4.80355L14.433 3.89143C14.5041 3.77593 14.6125 3.68818 14.7403 3.64268L15.7939 3.24171L14.7911 2.77024Z" fill="url(#paint11_linear_741_7448)"/>
<path d="M13.6947 4.91066C13.6321 4.91066 13.5758 4.89194 13.5341 4.85867C13.4334 4.93845 13.3268 5.01166 13.2138 5.0775L13.4862 5.6571C13.5043 5.69704 13.5337 5.73084 13.5707 5.75434C13.6077 5.77785 13.6508 5.79004 13.6947 5.78943C13.7385 5.79004 13.7816 5.77784 13.8186 5.75434C13.8557 5.73083 13.885 5.69704 13.9031 5.6571L14.433 4.53025C14.4966 4.39519 14.6053 4.28652 14.7403 4.22293L15.8673 3.69308C15.9069 3.67448 15.9403 3.645 15.9638 3.60809C15.9872 3.57118 15.9996 3.52836 15.9996 3.48464C15.9996 3.44092 15.9872 3.3981 15.9638 3.36119C15.9403 3.32428 15.9069 3.2948 15.8673 3.2762L15.7939 3.24171L14.7403 3.64268C14.6125 3.68818 14.5041 3.77593 14.433 3.89143L13.9031 4.80355C13.8642 4.87062 13.7862 4.91066 13.6947 4.91066Z" fill="url(#paint12_linear_741_7448)"/>
<path d="M13.5341 4.85867C13.5148 4.84328 13.4985 4.82476 13.4862 4.80355L12.9563 3.8914C12.944 3.87149 12.9307 3.85241 12.9163 3.83422C12.8472 3.74695 12.7548 3.68037 12.649 3.64268L11.5953 3.24174L11.522 3.2762C11.4825 3.2948 11.449 3.32428 11.4255 3.36119C11.4021 3.3981 11.3897 3.44092 11.3896 3.48465C11.3896 3.52838 11.4021 3.5712 11.4255 3.60812C11.449 3.64503 11.4824 3.67452 11.522 3.69312L12.649 4.22293C12.7841 4.28656 12.8927 4.39521 12.9563 4.53021L13.2138 5.0775C13.3268 5.01166 13.4334 4.93845 13.5341 4.85867Z" fill="url(#paint13_linear_741_7448)"/>
<path d="M14.1019 2.15818C14.1787 2.30263 14.2519 2.44881 14.3217 2.59674C14.3331 2.61764 14.3362 2.64215 14.3301 2.66521C14.3241 2.68828 14.3094 2.70815 14.2891 2.72071C14.2505 2.74561 14.1854 2.73121 14.1652 2.68821C14.1117 2.57466 14.0561 2.46216 13.9984 2.35071C13.7019 2.87728 13.3195 3.36179 12.9163 3.83422C12.9307 3.85241 12.944 3.87149 12.9563 3.8914L13.4862 4.80355C13.4985 4.82476 13.5148 4.84328 13.5341 4.85867C14.1675 4.35653 14.5618 3.59404 14.7911 2.77024L14.7403 2.74643C14.6053 2.68283 14.4966 2.57416 14.433 2.43911L14.2028 1.94952C14.1708 2.01986 14.1371 2.0894 14.1019 2.15818Z" fill="url(#paint14_linear_741_7448)"/>
<path d="M14.3217 2.59674C14.2519 2.44881 14.1787 2.30263 14.1019 2.15818L14.0964 2.14778C14.0841 2.12718 14.0643 2.11223 14.0411 2.10615C14.0179 2.10007 13.9932 2.10334 13.9724 2.11527C13.9521 2.12775 13.9373 2.14762 13.9312 2.17072C13.9252 2.19382 13.9283 2.21837 13.9399 2.23924C13.9597 2.27628 13.9792 2.31344 13.9984 2.35071C14.0561 2.46216 14.1117 2.57466 14.1652 2.68821C14.1854 2.73121 14.2505 2.74561 14.2891 2.72071C14.3094 2.70815 14.3241 2.68828 14.3301 2.66521C14.3362 2.64215 14.3331 2.61764 14.3217 2.59674Z" fill="white"/>
<path d="M13.8651 1.71921C13.8995 1.7784 13.9313 1.8389 13.9605 1.9007C13.9686 1.91457 13.9729 1.93036 13.9729 1.94644L13.9696 1.97052C13.9633 1.99327 13.9484 2.01268 13.928 2.02467C13.9068 2.03679 13.8817 2.04007 13.8582 2.03381C13.8354 2.02746 13.816 2.01253 13.804 1.99217C13.7747 1.93031 13.743 1.86982 13.7086 1.81067C13.6967 1.78944 13.6935 1.76444 13.6995 1.74086C13.7059 1.71811 13.7208 1.6987 13.7411 1.68671C13.7623 1.67459 13.7874 1.6713 13.811 1.67757C13.8336 1.68414 13.853 1.69901 13.8651 1.71921Z" fill="white"/>
<defs>
<linearGradient id="paint0_linear_741_7448" x1="-5.95628e-08" y1="7.59717" x2="7.00877" y2="7.60634" gradientUnits="userSpaceOnUse">
<stop stopColor="#D78CE8"/>
<stop offset="1" stopColor="#BC57CD"/>
</linearGradient>
<linearGradient id="paint1_linear_741_7448" x1="15.9996" y1="7.59717" x2="-2.77994e-07" y2="7.59717" gradientUnits="userSpaceOnUse">
<stop stopColor="#F4ADF9"/>
<stop offset="1" stopColor="#DE96E9"/>
</linearGradient>
<linearGradient id="paint2_linear_741_7448" x1="1.19207e-07" y1="7.59717" x2="15.9996" y2="7.59717" gradientUnits="userSpaceOnUse">
<stop stopColor="#C268D3"/>
<stop offset="1" stopColor="#DC7BE7"/>
</linearGradient>
<linearGradient id="paint3_linear_741_7448" x1="-5.96033e-08" y1="7.59717" x2="15.9996" y2="7.59717" gradientUnits="userSpaceOnUse">
<stop stopColor="#BB5FD2"/>
<stop offset="1" stopColor="#B64FC7"/>
</linearGradient>
<linearGradient id="paint4_linear_741_7448" x1="-5.96033e-08" y1="7.59717" x2="15.9996" y2="7.59717" gradientUnits="userSpaceOnUse">
<stop stopColor="#B343C6"/>
<stop offset="1" stopColor="#F194FF"/>
</linearGradient>
<linearGradient id="paint5_linear_741_7448" x1="-5.95628e-08" y1="7.59717" x2="7.00877" y2="7.60634" gradientUnits="userSpaceOnUse">
<stop stopColor="#D78CE8"/>
<stop offset="1" stopColor="#BC57CD"/>
</linearGradient>
<linearGradient id="paint6_linear_741_7448" x1="15.9996" y1="7.59717" x2="-2.77994e-07" y2="7.59717" gradientUnits="userSpaceOnUse">
<stop stopColor="#FDE0FF"/>
<stop offset="1" stopColor="#DE96E9"/>
</linearGradient>
<linearGradient id="paint7_linear_741_7448" x1="11.3896" y1="3.48469" x2="15.9996" y2="3.48469" gradientUnits="userSpaceOnUse">
<stop stopColor="#D995E6"/>
<stop offset="1" stopColor="#E09EE7"/>
</linearGradient>
<linearGradient id="paint8_linear_741_7448" x1="-5.96033e-08" y1="7.59717" x2="15.9996" y2="7.59717" gradientUnits="userSpaceOnUse">
<stop stopColor="#BB5FD2"/>
<stop offset="1" stopColor="#B64FC7"/>
</linearGradient>
<linearGradient id="paint9_linear_741_7448" x1="-5.96033e-08" y1="7.59717" x2="15.9996" y2="7.59717" gradientUnits="userSpaceOnUse">
<stop stopColor="#B343C6"/>
<stop offset="1" stopColor="#F194FF"/>
</linearGradient>
<linearGradient id="paint10_linear_741_7448" x1="-5.95628e-08" y1="7.59717" x2="7.00877" y2="7.60634" gradientUnits="userSpaceOnUse">
<stop stopColor="#D78CE8"/>
<stop offset="1" stopColor="#BC57CD"/>
</linearGradient>
<linearGradient id="paint11_linear_741_7448" x1="15.9996" y1="7.59717" x2="-2.77994e-07" y2="7.59717" gradientUnits="userSpaceOnUse">
<stop stopColor="#FDE0FF"/>
<stop offset="1" stopColor="#DE96E9"/>
</linearGradient>
<linearGradient id="paint12_linear_741_7448" x1="11.3896" y1="3.48469" x2="15.9996" y2="3.48469" gradientUnits="userSpaceOnUse">
<stop stopColor="#D995E6"/>
<stop offset="1" stopColor="#E09EE7"/>
</linearGradient>
<linearGradient id="paint13_linear_741_7448" x1="-5.96033e-08" y1="7.59717" x2="15.9996" y2="7.59717" gradientUnits="userSpaceOnUse">
<stop stopColor="#BB5FD2"/>
<stop offset="1" stopColor="#B64FC7"/>
</linearGradient>
<linearGradient id="paint14_linear_741_7448" x1="-5.96033e-08" y1="7.59717" x2="15.9996" y2="7.59717" gradientUnits="userSpaceOnUse">
<stop stopColor="#B343C6"/>
<stop offset="1" stopColor="#F194FF"/>
</linearGradient>
</defs>
</svg>
