<?xml version="1.0" encoding="UTF-8"?>
<svg width="24px" height="24px" viewBox="0 0 24 24" version="1.1" xmlns="http://www.w3.org/2000/svg" xmlns:xlink="http://www.w3.org/1999/xlink">
    <!-- Generator: Sketch 52.4 (67378) - http://www.bohemiancoding.com/sketch -->
    <title>alert</title>
    <desc>Created with Sketch.</desc>
    <g id="alert" stroke="none" stroke-width="1" fill="none" fill-rule="evenodd">
        <path d="M20.1845344,21.804688 L4.70432064,21.804688 C3.72703514,21.804688 2.85342469,21.2998985 2.36563214,20.4534839 C1.87783959,19.6087678 1.87783959,18.5991889 2.36733253,17.7544746 L10.1074403,4.34950724 C10.5935325,3.50478949 11.4688398,3 12.4444267,3 C13.4200135,3 14.2953226,3.50478949 14.7831152,4.3495055 L22.5215225,17.7544729 C23.0093151,18.6008875 23.0093151,19.6104665 22.5215225,20.4551825 C22.03373,21.2998985 21.1601213,21.804688 20.1845344,21.804688 Z M12.5922944,15.1489433 C13.0732889,15.1489433 13.4625041,14.7597281 13.4625041,14.2787336 L13.4625041,9.48748098 C13.4625041,9.00648651 13.0732889,8.61727131 12.5922944,8.61727131 C12.1113,8.61727131 11.7220848,9.00648651 11.7220848,9.48748098 L11.7220848,14.2787336 C11.7220848,14.7597281 12.1113,15.1489433 12.5922944,15.1489433 Z M12.5919411,18.2225917 C13.1686654,18.2225917 13.6361927,17.7550643 13.6361927,17.1783401 C13.6361927,16.6016159 13.1686654,16.1340885 12.5919411,16.1340885 C12.0152169,16.1340885 11.5476895,16.6016159 11.5476895,17.1783401 C11.5476895,17.7550643 12.0152169,18.2225917 12.5919411,18.2225917 Z" id="Combined-Shape" fill="#ADB5BD" fill-rule="nonzero"></path>
    </g>
</svg>
