

<?xml version="1.0" encoding="UTF-8"?>
<svg width="24px" height="24px" viewBox="0 0 24 24" version="1.1" xmlns="http://www.w3.org/2000/svg" xmlns:xlink="http://www.w3.org/1999/xlink">
    <title>alert</title>
    <g id="alert" stroke="none" stroke-width="1" fill="none" fill-rule="evenodd">
        <g id="icon/green/error-exclamation-mark" transform="translate(-5.000000, -5.000000)" >
            <path d="M12.5,5 C16.6421356,5 20,8.35786438 20,12.5 C20,16.6421356 16.6421356,20 12.5,20 C8.35786438,20 5,16.6421356 5,12.5 C5,8.35786438 8.35786438,5 12.5,5 Z M13.28,15.212 L12.08,15.212 C11.804,15.404 11.636,15.716 11.636,16.052 C11.636,16.628 12.104,17.096 12.668,17.096 C13.256,17.096 13.712,16.628 13.712,16.052 C13.712,15.716 13.544,15.404 13.28,15.212 Z M13.352,8.48 L12.02,8.48 L12.02,11.9 L12.272,14.204 L13.1,14.204 L13.352,11.9 L13.352,8.48 Z" id="Combined-Shape" fill="#ADB5BD" fill-rule="nonzero"></path>
        </g>
    </g>
</svg>