<?xml version="1.0" encoding="UTF-8"?>
<svg width="24px" height="24px" viewBox="0 0 24 24" version="1.1" xmlns="http://www.w3.org/2000/svg" xmlns:xlink="http://www.w3.org/1999/xlink">
    <!-- Generator: Sketch 52 (66869) - http://www.bohemiancoding.com/sketch -->
    <title>analytics</title>
    <desc>Created with Sketch.</desc>
    <g id="analytics" stroke="none" stroke-width="1" fill="none" fill-rule="evenodd">
        <path d="M7.12949938,19 L3.77513446,19 C3.34691767,19 3,18.6665246 3,18.2549003 L3,5.74509971 C3,5.33347537 3.34691767,5 3.77513446,5 L7.12949938,5 C7.55771618,5 7.90463384,5.33347537 7.90463384,5.74509971 L7.90463384,18.2549003 C7.90401324,18.6665246 7.55709557,19 7.12949938,19 Z M13.6768722,19 L10.3225072,19 C9.89429044,19 9.54737278,18.6665246 9.54737278,18.2549003 L9.54737278,8.43139594 C9.54737278,8.0197716 9.89429044,7.68629623 10.3225072,7.68629623 L13.6768722,7.68629623 C14.105089,7.68629623 14.4520066,8.0197716 14.4520066,8.43139594 L14.4520066,18.2549003 C14.4520066,18.6665246 14.105089,19 13.6768722,19 Z M20.2248655,19 L16.8705006,19 C16.4422838,19 16.0953662,18.6665246 16.0953662,18.2549003 L16.0953662,10.8408897 C16.0953662,10.4292654 16.4422838,10.09579 16.8705006,10.09579 L20.2248655,10.09579 C20.6530823,10.09579 21,10.4292654 21,10.8408897 L21,18.2549003 C21,18.6665246 20.6530823,19 20.2248655,19 Z" id="shape" fill="#ADB5BD" fill-rule="nonzero"></path>
    </g>
</svg>