<svg width="24" height="24" viewBox="0 0 24 24" fill="#ADB5BD" xmlns="http://www.w3.org/2000/svg">
<path d="M7 16H5C4.44772 16 4 15.5523 4 15V13C4 12.4477 4.44772 12 5 12H7C7.55228 12 8 12.4477 8 13V15C8 15.5523 7.55228 16 7 16ZM14 15V9C14 8.44772 13.5523 8 13 8H11C10.4477 8 10 8.44772 10 9V15C10 15.5523 10.4477 16 11 16H13C13.5523 16 14 15.5523 14 15ZM22 19.5V18.5C22 18.2239 21.7761 18 21.5 18H2.5C2.22386 18 2 18.2239 2 18.5V19.5C2 19.7761 2.22386 20 2.5 20H21.5C21.7761 20 22 19.7761 22 19.5ZM20 15V5C20 4.44772 19.5523 4 19 4H17C16.4477 4 16 4.44772 16 5V15C16 15.5523 16.4477 16 17 16H19C19.5523 16 20 15.5523 20 15Z" fill="#1E2128"/>
</svg>
