<?xml version="1.0" encoding="UTF-8"?>
<svg width="20px" height="15px" viewBox="0 0 24 24" version="1.1" xmlns="http://www.w3.org/2000/svg" xmlns:xlink="http://www.w3.org/1999/xlink">
    <!-- Generator: Sketch 51.2 (57519) - http://www.bohemiancoding.com/sketch -->
    <title>analytics</title>
    <desc>Created with Sketch.</desc>
    <defs></defs>
    <g id="Components" stroke="none" stroke-width="1" fill="none" fill-rule="evenodd">
        <g id="Icon-Set" transform="translate(-357.000000, -516.000000)" fill-rule="nonzero">
            <g id="analytics" transform="translate(355.000000, 511.000000)">
                <rect id="Rectangle" x="0" y="0" width="24" height="24"></rect>
                <path d="M6.58833264,20 L2.86126052,20 C2.38546407,20 2,19.642705 2,19.2016789 L2,5.79832112 C2,5.35729504 2.38546407,5 2.86126052,5 L6.58833264,5 C7.06412909,5 7.44959316,5.35729504 7.44959316,5.79832112 L7.44959316,19.2016789 C7.4489036,19.642705 7.06343953,20 6.58833264,20 Z M13.8631913,20 L10.1361192,20 C9.66032271,20 9.27485864,19.642705 9.27485864,19.2016789 L9.27485864,8.67649565 C9.27485864,8.23546958 9.66032271,7.87817454 10.1361192,7.87817454 L13.8631913,7.87817454 C14.3389877,7.87817454 14.7244518,8.23546958 14.7244518,8.67649565 L14.7244518,19.2016789 C14.7244518,19.642705 14.3389877,20 13.8631913,20 Z M21.1387395,20 L17.4116674,20 C16.9358709,20 16.5504068,19.642705 16.5504068,19.2016789 L16.5504068,11.2580961 C16.5504068,10.8170701 16.9358709,10.459775 17.4116674,10.459775 L21.1387395,10.459775 C21.6145359,10.459775 22,10.8170701 22,11.2580961 L22,19.2016789 C22,19.642705 21.6145359,20 21.1387395,20 Z" id="shape" fill="#ADB5BD"></path>
            </g>
        </g>
    </g>
</svg>
