<?xml version="1.0" encoding="UTF-8"?>
<svg width="24px" height="24px" viewBox="0 0 24 24" version="1.1" xmlns="http://www.w3.org/2000/svg" xmlns:xlink="http://www.w3.org/1999/xlink">
    <!-- Generator: Sketch 58 (84663) - https://sketch.com -->
    <title>icon/green/approval tick</title>
    <desc>Created with Sketch.</desc>
    <g id="icon/green/approval-tick" stroke="none" stroke-width="1" fill="#ADB5BD" fill-rule="evenodd">
        <path d="M12.5,4 C17.1944204,4 21,7.80557963 21,12.5 C21,17.1944204 17.1944204,21 12.5,21 C7.80557963,21 4,17.1944204 4,12.5 C4,7.80557963 7.80557963,4 12.5,4 Z M16.2992126,10.1973214 C16.0314961,9.93422619 15.6076115,9.93422619 15.339895,10.1973214 L15.339895,10.1973214 L11.0564304,14.4945437 L9.16010499,12.5651786 C8.89238845,12.3020833 8.46850394,12.3020833 8.2007874,12.5651786 C7.93307087,12.8282738 7.93307087,13.2667659 8.2007874,13.5298611 L8.2007874,13.5298611 L10.5879265,15.9415675 C10.855643,16.2046627 11.2795276,16.2046627 11.5472441,15.9415675 L11.5472441,15.9415675 L16.2992126,11.162004 C16.5669291,10.8989087 16.5669291,10.4604167 16.2992126,10.1973214 Z" id="Combined-Shape" fill="#ADB5BD"></path>
    </g>
</svg>