<svg width="24" height="24" viewBox="0 0 24 24" fill="#ADB5BD" xmlns="http://www.w3.org/2000/svg">
<path d="M12 2C6.47715 2 2 6.47715 2 12C2 17.5228 6.47715 22 12 22C17.5228 22 22 17.5228 22 12C22 9.34784 20.9464 6.8043 19.0711 4.92893C17.1957 3.05357 14.6522 2 12 2ZM16.35 9.73L10.73 15.35C10.6393 15.4467 10.5126 15.5015 10.38 15.5015C10.2474 15.5015 10.1207 15.4467 10.03 15.35L7.65 13C7.55534 12.9061 7.5021 12.7783 7.5021 12.645C7.5021 12.5117 7.55534 12.3839 7.65 12.29L8.18 11.76C8.27073 11.6633 8.39741 11.6085 8.53 11.6085C8.66259 11.6085 8.78927 11.6633 8.88 11.76L10.38 13.25L15.12 8.51C15.3144 8.31943 15.6256 8.31943 15.82 8.51L16.35 9.04C16.5341 9.23315 16.5341 9.53685 16.35 9.73Z" fill="#1E2128"/>
</svg>
