<?xml version="1.0" encoding="UTF-8"?>
<svg width="24px" height="24px" viewBox="0 0 24 24" version="1.1" xmlns="http://www.w3.org/2000/svg" xmlns:xlink="http://www.w3.org/1999/xlink">
    <!-- Generator: Sketch 52 (66869) - http://www.bohemiancoding.com/sketch -->
    <title>arrow_growth</title>
    <desc>Created with Sketch.</desc>
    <g id="arrow_growth" stroke="none" stroke-width="1" fill="#ADB5BD" fill-rule="evenodd">
        <path d="M3.96340115,18 C4.23375204,17.9999129 4.49163417,17.8847427 4.67412102,17.6825922 L8.48791611,13.4732763 L12.3426679,16.2054251 C12.729951,16.4798294 13.2564295,16.4291625 13.5858254,16.0857867 L19.0716191,10.3748877 L19.0716191,12.6895231 C19.0716191,13.2289062 19.5030769,13.6661625 20.0353071,13.6661625 C20.5675372,13.6661625 20.998995,13.2289062 20.998995,12.6895231 L20.998995,8.02118666 C21.0133312,7.70292427 20.8735889,7.39758054 20.624591,7.20309556 C20.3755932,7.00861057 20.0486426,6.94943411 19.7486099,7.04454723 L15.4361063,7.04454723 C14.9038761,7.04454723 14.4724183,7.4818036 14.4724183,8.02118666 C14.4724183,8.56056972 14.9038761,8.99782608 15.4361063,8.99782608 L17.7031822,8.99782608 L12.7763275,14.1251831 L8.90230193,11.3808263 C8.50656278,11.0999491 7.9667626,11.159457 7.6398707,11.5199974 L3.25268128,16.364129 C2.99487208,16.649718 2.92781709,17.0626602 3.0817263,17.4169146 C3.23563551,17.7711689 3.58146164,17.999877 3.96340115,18 Z" id="Shape" fill="#ADB5BD" fill-rule="nonzero"></path>
    </g>
</svg>