<?xml version="1.0" encoding="UTF-8"?>
<svg width="24px" height="24px" viewBox="0 0 24 24" version="1.1" xmlns="http://www.w3.org/2000/svg" xmlns:xlink="http://www.w3.org/1999/xlink">
    <!-- Generator: Sketch 51.2 (57519) - http://www.bohemiancoding.com/sketch -->
    <title>arrow_growth</title>
    <desc>Created with Sketch.</desc>
    <defs></defs>
    <g id="arrow_growth" stroke="none" stroke-width="1" fill="none" fill-rule="evenodd">
        <path d="M3.94708647,17.1088236 C4.21285911,17.1087356 4.46637415,16.992426 4.64577068,16.7882756 L8.3949812,12.5373167 L12.1844549,15.2964948 C12.5651795,15.5736139 13.0827424,15.5224456 13.4065602,15.1756729 L18.7994549,9.40827561 L18.7994549,11.7458099 C18.7994549,12.2905291 19.2236062,12.7321112 19.7468233,12.7321112 C20.2700404,12.7321112 20.6941917,12.2905291 20.6941917,11.7458099 L20.6941917,7.03128931 C20.7082851,6.70987833 20.5709093,6.40151382 20.3261281,6.20510479 C20.0813469,6.00869576 19.759933,5.94893386 19.4649812,6.04498794 L15.2255075,6.04498794 C14.7022904,6.04498794 14.2781391,6.4865701 14.2781391,7.03128931 C14.2781391,7.57600851 14.7022904,8.01759068 15.2255075,8.01759068 L17.4541917,8.01759068 L12.6107707,13.1956729 L8.80234963,10.424166 C8.41331211,10.1405101 7.88265315,10.2006067 7.56129699,10.564714 L3.24840226,15.4567688 C2.99495892,15.7451831 2.92903947,16.1622106 3.08034231,16.5199696 C3.23164515,16.8777287 3.5716149,17.1086994 3.94708647,17.1088236 Z" id="Shape" fill="#ADB5BD" fill-rule="nonzero"></path>
    </g>
</svg>