<svg width="24" height="24" viewBox="0 0 24 24" fill="#ADB5BD" xmlns="http://www.w3.org/2000/svg">
<path d="M10.15 9.44C10.2407 9.34333 10.3674 9.28849 10.5 9.28849C10.6326 9.28849 10.7592 9.34333 10.85 9.44L13.5 12.09L20.44 5.15C20.5339 5.05535 20.6617 5.00211 20.795 5.00211C20.9283 5.00211 21.0561 5.05535 21.15 5.15L21.85 5.85C21.9446 5.94389 21.9979 6.07169 21.9979 6.205C21.9979 6.33832 21.9446 6.46612 21.85 6.56L13.85 14.56C13.7592 14.6567 13.6326 14.7115 13.5 14.7115C13.3674 14.7115 13.2407 14.6567 13.15 14.56L10.5 11.91L3.55997 18.85C3.46609 18.9447 3.33829 18.9979 3.20497 18.9979C3.07166 18.9979 2.94386 18.9447 2.84997 18.85L2.14997 18.15C2.05532 18.0561 2.00208 17.9283 2.00208 17.795C2.00208 17.6617 2.05532 17.5339 2.14997 17.44L10.15 9.44Z" fill="#1E2128"/>
</svg>
