<svg width="24" height="24" viewBox="0 0 24 24" fill="#ADB5BD" xmlns="http://www.w3.org/2000/svg">
<path d="M18 9.5V17C18 20.3137 15.3137 23 12 23C8.68629 23 6 20.3137 6 17V5.5C6 3.01472 8.01472 1 10.5 1C12.9853 1 15 3.01472 15 5.5V16C15 17.6569 13.6569 19 12 19C10.3431 19 9 17.6569 9 16V9.5C9 9.36739 9.05268 9.24021 9.14645 9.14645C9.24021 9.05268 9.36739 9 9.5 9H10.25C10.5261 9 10.75 9.22386 10.75 9.5V16C10.75 16.6904 11.3096 17.25 12 17.25C12.6904 17.25 13.25 16.6904 13.25 16V5.5C13.25 3.98122 12.0188 2.75 10.5 2.75C8.98122 2.75 7.75 3.98122 7.75 5.5V17C7.75 19.3472 9.65279 21.25 12 21.25C14.3472 21.25 16.25 19.3472 16.25 17V9.5C16.25 9.22386 16.4739 9 16.75 9H17.5C17.7761 9 18 9.22386 18 9.5Z" fill="#1E2128"/>
</svg>
