<svg width="24" height="24" viewBox="0 0 24 24" fill="#ADB5BD" xmlns="http://www.w3.org/2000/svg">
<path fill-rule="evenodd" clip-rule="evenodd" d="M18 4H19C20.1046 4 21 4.89543 21 6V19C21 20.1046 20.1046 21 19 21H5C3.89543 21 3 20.1046 3 19V6C3 4.89543 3.89543 4 5 4H6V2.5C6 2.22386 6.22386 2 6.5 2H7.5C7.77614 2 8 2.22386 8 2.5V4H16V2.5C16 2.22386 16.2239 2 16.5 2H17.5C17.7761 2 18 2.22386 18 2.5V4ZM5 19H19V8H5V19ZM8.00864 12.0799C7.9841 12.164 8.01299 12.2553 8.08057 12.3071L10.0067 14.0486L9.43127 16.6779C9.41178 16.7615 9.44168 16.8493 9.50719 16.9008L9.59511 16.9639C9.6627 17.012 9.75129 17.012 9.81889 16.9639L12.0048 15.5631L14.1787 16.9513C14.2463 16.9994 14.3349 16.9994 14.4025 16.9513L14.5183 16.884C14.5839 16.8324 14.6138 16.7447 14.5943 16.661L14.0028 14.0486L15.929 12.3071C15.9922 12.252 16.0161 12.1614 15.9889 12.0799L15.957 11.9747C15.9336 11.8916 15.8633 11.8328 15.7811 11.8275L13.2276 11.6129L12.2445 9.13516C12.2156 9.05273 12.1402 8.99868 12.0567 9.00054H11.9528C11.8643 8.99391 11.7819 9.04836 11.749 9.13516L10.77 11.6129L8.21644 11.8275C8.13425 11.8328 8.06398 11.8916 8.04061 11.9747L8.00864 12.0799Z" fill="#1E2128"/>
</svg>
