<?xml version="1.0" encoding="UTF-8"?>
<svg width="24px" height="24px" viewBox="0 0 24 24" version="1.1" xmlns="http://www.w3.org/2000/svg" xmlns:xlink="http://www.w3.org/1999/xlink">
    <!-- Generator: Sketch 52.2 (67145) - http://www.bohemiancoding.com/sketch -->
    <title>awareness</title>
    <desc>Created with Sketch.</desc>
    <g id="awareness" stroke="none" stroke-width="1" fill="none" fill-rule="evenodd">
        <path d="M17.8740133,4.54892824 C19.6004481,4.54892824 21,5.92587169 21,7.62441752 L21,17.9245107 C21,19.6230565 19.6004481,21 17.8740133,21 L6.12598674,21 C4.39955193,21 3,19.6230565 3,17.9245107 L3,7.62441752 C3,5.92587169 4.39955193,4.54892824 6.12598674,4.54892824 L7.14619514,4.54892824 L7.14619514,3.8387698 C7.14619514,3.37553003 7.52789112,3 7.99873698,3 C8.46958283,3 8.85127881,3.37553003 8.85127881,3.8387698 L8.85127881,4.54892824 L15.1487212,4.54892824 L15.1487212,3.8387698 C15.1487212,3.37553003 15.5304172,3 16.001263,3 C16.4721089,3 16.8538049,3.37553003 16.8538049,3.8387698 L16.8538049,4.54892824 L17.8740133,4.54892824 Z M6.01625989,6.13043478 L6.01336359,6.13043478 C5.62929134,6.13043478 5.26094969,6.27662836 4.98936959,6.53685461 C4.7177895,6.79708085 4.56521739,7.15002337 4.56521739,7.51803885 L4.56521739,10.0434783 L19.4347826,10.0434783 L19.4347826,7.51803885 C19.4347826,6.75168629 18.7864255,6.13043478 17.9866364,6.13043478 L16.9468674,6.13043478 L16.9468674,7.39037928 C16.9468674,7.85019082 16.5578531,8.22294172 16.0779797,8.22294172 C15.5981063,8.22294172 15.209092,7.85019082 15.209092,7.39037928 L15.209092,6.13043478 L8.79380431,6.13043478 L8.79380431,7.39037928 C8.79380431,7.85019082 8.40479002,8.22294172 7.92491658,8.22294172 C7.44504315,8.22294172 7.05602886,7.85019082 7.05602886,7.39037928 L7.05602886,6.13043478 L6.01625989,6.13043478 Z M12,16.6875832 L13.9865378,17.7857143 L13.6071429,15.4598353 L15.2142857,13.8126386 L12.9932689,13.4732975 L12,11.3571429 L11.0067311,13.4732975 L8.78571429,13.8126386 L10.3928571,15.4598353 L10.0134622,17.7857143 L12,16.6875832 Z" id="Combined-Shape" fill="#ADB5BD" fill-rule="nonzero"></path>
    </g>
</svg>
