<svg width="24" height="24" viewBox="0 0 24 24" fill="#ADB5BD" xmlns="http://www.w3.org/2000/svg">
<path d="M6.18 21.85C6.27028 21.9471 6.3974 22.0016 6.53 22H6.82C6.9526 22.0016 7.07972 21.9471 7.17 21.85L9 20C9.19781 19.8082 9.51219 19.8082 9.71 20L11.52 21.81C11.6103 21.9071 11.7374 21.9616 11.87 21.96H12.16C12.2926 21.9616 12.4197 21.9071 12.51 21.81L14.32 20C14.5136 19.8268 14.8064 19.8268 15 20L16.81 21.81C16.9003 21.9071 17.0274 21.9616 17.16 21.96H17.45C17.5826 21.9616 17.7097 21.9071 17.8 21.81L19.71 20C19.8947 19.8137 19.9989 19.5623 20 19.3V3C20 2.44772 19.5523 2 19 2H5C4.44772 2 4 2.44772 4 3V19.26C4.00368 19.5248 4.10727 19.7784 4.29 19.97L6.18 21.85ZM13 13.5C13 13.7761 12.7761 14 12.5 14H8.5C8.22386 14 8 13.7761 8 13.5V12.5C8 12.2239 8.22386 12 8.5 12H12.5C12.7761 12 13 12.2239 13 12.5V13.5ZM16 9.5C16 9.77614 15.7761 10 15.5 10H8.5C8.22386 10 8 9.77614 8 9.5V8.5C8 8.22386 8.22386 8 8.5 8H15.5C15.7761 8 16 8.22386 16 8.5V9.5Z" fill="#1E2128"/>
</svg>
