<?xml version="1.0" encoding="UTF-8"?>
<svg width="24px" height="24px" viewBox="0 0 24 24" version="1.1" xmlns="http://www.w3.org/2000/svg" xmlns:xlink="http://www.w3.org/1999/xlink">
    <!-- Generator: Sketch 54.1 (76490) - https://sketchapp.com -->
    <title>icon/grey/billing</title>
    <desc>Created with Sketch.</desc>
    <g id="icon/grey/billing" stroke="none" stroke-width="1" fill="none" fill-rule="evenodd">
        <path d="M3.0117743,17.025974 C3.00399646,16.9578442 3,16.888566 3,16.8183543 L3,4.81058824 C3,3.81062796 3.81062796,3 4.81058824,3 L19.1894118,3 C20.189372,3 21,3.81062796 21,4.81058824 L21,16.8183543 C21,16.888566 20.9960035,16.9578442 20.9882257,17.025974 L21,17.025974 L21,20.6163646 C21,20.657465 20.9898668,20.6979314 20.9704976,20.7341815 C20.9054291,20.855959 20.7539606,20.9019307 20.6321831,20.8368622 L18.1178169,19.493379 C18.0441974,19.4540424 17.9558026,19.4540424 17.8821831,19.493379 L15.1178169,20.9704429 C15.0441974,21.0097795 14.9558026,21.0097795 14.8821831,20.9704429 L12.1178169,19.493379 C12.0441974,19.4540424 11.9558026,19.4540424 11.8821831,19.493379 L9.11781689,20.9704429 C9.04419741,21.0097795 8.95580259,21.0097795 8.88218311,20.9704429 L6.11781689,19.493379 C6.04419741,19.4540424 5.95580259,19.4540424 5.88218311,19.493379 L3.36781689,20.8368622 C3.33156677,20.8562315 3.29110035,20.8663646 3.25,20.8663646 C3.11192881,20.8663646 3,20.7544358 3,20.6163646 L3,17.025974 L3.0117743,17.025974 Z M15.9609093,13.1530699 C16.2586,13.1530699 16.5,12.8986412 16.5,12.5848838 C16.5,12.2711263 16.2586,12.0166976 15.9609093,12.0166976 L8.03909069,12.0166976 C7.74140005,12.0166976 7.5,12.2711263 7.5,12.5848838 C7.5,12.8986412 7.74140005,13.1530699 8.03909069,13.1530699 L15.9609093,13.1530699 Z M15.9609093,16.1586358 C16.2586,16.1586358 16.5,15.9042071 16.5,15.5904496 C16.5,15.2766922 16.2586,15.0222635 15.9609093,15.0222635 L8.03909069,15.0222635 C7.74140005,15.0222635 7.5,15.2766922 7.5,15.5904496 C7.5,15.9042071 7.74140005,16.1586358 8.03909069,16.1586358 L15.9609093,16.1586358 Z M8.03909069,10.1475041 L15.9609093,10.1475041 C16.2586,10.1475041 16.5,9.89307533 16.5,9.5793179 C16.5,9.26556047 16.2586,9.01113173 15.9609093,9.01113173 L8.03909069,9.01113173 C7.74140005,9.01113173 7.5,9.26556047 7.5,9.5793179 C7.5,9.89307533 7.74140005,10.1475041 8.03909069,10.1475041 Z M15.9609093,7.14193821 C16.2586,7.14193821 16.5,6.88750946 16.5,6.57375204 C16.5,6.25999461 16.2586,6.00556586 15.9609093,6.00556586 L8.03909069,6.00556586 C7.74140005,6.00556586 7.5,6.25999461 7.5,6.57375204 C7.5,6.88750946 7.74140005,7.14193821 8.03909069,7.14193821 L15.9609093,7.14193821 Z" id="icon/colour/billing" fill="#ADB5BD"></path>
    </g>
</svg>