<?xml version="1.0" encoding="utf-8"?>
<!-- Generator: Adobe Illustrator 28.0.0, SVG Export Plug-In . SVG Version: 6.00 Build 0)  -->
<svg version="1.1" id="briefcase" xmlns="http://www.w3.org/2000/svg" xmlns:xlink="http://www.w3.org/1999/xlink" x="0px" y="0px"
	 width="24px" height="24px" viewBox="0 0 24 24" style="enable-background:new 0 0 24 24;" xml:space="preserve">
<path d="M21.502,16.699v1.909c0,0.83-0.673,1.502-1.502,1.502H4c-0.83,0-1.502-0.673-1.502-1.502v-1.909
	c0.418,0.427,0.999,0.693,1.644,0.693h15.716C20.503,17.392,21.084,17.126,21.502,16.699z M21.502,6.654v8.22
	c0,0.826-0.669,1.495-1.495,1.495H3.993c-0.826,0-1.495-0.669-1.495-1.495v-8.22c0-0.826,0.669-1.495,1.495-1.495h5.074
	C9.181,4.44,9.798,3.89,10.548,3.89h2.904c0.75,0,1.367,0.551,1.481,1.269h5.074C20.833,5.159,21.502,5.828,21.502,6.654z
	 M13,13.388c0-0.553-0.448-1-1-1s-1,0.448-1,1c0,0.552,0.448,1,1,1S13,13.941,13,13.388z"/>
</svg>
