<?xml version="1.0" encoding="UTF-8"?>
<svg width="24px" height="24px" viewBox="0 0 24 24" version="1.1" xmlns="http://www.w3.org/2000/svg" xmlns:xlink="http://www.w3.org/1999/xlink">
    <!-- Generator: Sketch 52.4 (67378) - http://www.bohemiancoding.com/sketch -->
    <title>menu</title>
    <desc>Created with Sketch.</desc>
    <g id="menu" stroke="none" stroke-width="1" fill="none" fill-rule="evenodd">
        <path d="M16.2857143,13.4117647 L2.95238095,13.4117647 C2.41904762,13.4117647 2,12.7905882 2,12 C2,11.2094118 2.41904762,10.5882353 2.95238095,10.5882353 L16.2857143,10.5882353 C16.8190476,10.5882353 17.2380952,11.2094118 17.2380952,12 C17.2380952,12.7905882 16.8190476,13.4117647 16.2857143,13.4117647 Z M20.75,6.82352941 L3.25,6.82352941 C2.55,6.82352941 2,6.20235294 2,5.41176471 C2,4.62117647 2.55,4 3.25,4 L20.75,4 C21.45,4 22,4.62117647 22,5.41176471 C22,6.20235294 21.45,6.82352941 20.75,6.82352941 Z M3.25,17.1764706 L20.75,17.1764706 C21.45,17.1764706 22,17.7976471 22,18.5882353 C22,19.3788235 21.45,20 20.75,20 L3.25,20 C2.55,20 2,19.3788235 2,18.5882353 C2,17.7976471 2.55,17.1764706 3.25,17.1764706 Z" id="Shape" fill="#ADB5BD" fill-rule="nonzero"></path>
    </g>
</svg>
