<svg xmlns="http://www.w3.org/2000/svg" width="24" height="24" viewBox="0 0 24 24" fill="none">
  <g clip-path="url(#clip0_38:760)">
    <path d="M19 4H18V2.5C18 2.22386 17.7761 2 17.5 2H16.5C16.2239 2 16 2.22386 16 2.5V4H8V2.5C8 2.22386 7.77614 2 7.5 2H6.5C6.22386 2 6 2.22386 6 2.5V4H5C3.89543 4 3 4.89543 3 6V19C3 20.1046 3.89543 21 5 21H19C20.1046 21 21 20.1046 21 19V6C21 4.89543 20.1046 4 19 4ZM19 19H5V8H19V19ZM11.5 12H12.5C12.7761 12 13 11.7761 13 11.5V10.5C13 10.2239 12.7761 10 12.5 10H11.5C11.2239 10 11 10.2239 11 10.5V11.5C11 11.7761 11.2239 12 11.5 12ZM15.5 12H16.5C16.7761 12 17 11.7761 17 11.5V10.5C17 10.2239 16.7761 10 16.5 10H15.5C15.2239 10 15 10.2239 15 10.5V11.5C15 11.7761 15.2239 12 15.5 12ZM7.5 12H8.5C8.77614 12 9 11.7761 9 11.5V10.5C9 10.2239 8.77614 10 8.5 10H7.5C7.22386 10 7 10.2239 7 10.5V11.5C7 11.7761 7.22386 12 7.5 12ZM11.5 16H12.5C12.7761 16 13 15.7761 13 15.5V14.5C13 14.2239 12.7761 14 12.5 14H11.5C11.2239 14 11 14.2239 11 14.5V15.5C11 15.7761 11.2239 16 11.5 16ZM7.5 16H8.5C8.77614 16 9 15.7761 9 15.5V14.5C9 14.2239 8.77614 14 8.5 14H7.5C7.22386 14 7 14.2239 7 14.5V15.5C7 15.7761 7.22386 16 7.5 16Z" fill="#1E2128"></path>
  <defs>
    <clipPath id="clip0_38:760">
      <rect width="24" height="24" fill="white"></rect>
    </clipPath>
  </defs>
  </g>
</svg>
