<?xml version="1.0" encoding="UTF-8"?>
<svg width="24px" height="24px" viewBox="0 0 24 24" version="1.1" xmlns="http://www.w3.org/2000/svg" xmlns:xlink="http://www.w3.org/1999/xlink">
    <!-- Generator: Sketch 52 (66869) - http://www.bohemiancoding.com/sketch -->
    <title>calendar</title>
    <desc>Created with Sketch.</desc>
    <g id="calendar" stroke="none" stroke-width="1" fill="none" fill-rule="evenodd">
        <path d="M17.8740133,4.54892805 L16.8538048,4.54892805 L16.8538048,3.83876971 C16.8538048,3.37552931 16.4721088,3 16.001263,3 C15.5304172,3 15.1487211,3.37552931 15.1487211,3.83876971 L15.1487211,4.54892805 L8.8512788,4.54892805 L8.8512788,3.83876971 C8.8512788,3.37552931 8.46958282,3 7.99873697,3 C7.52789111,3 7.14619513,3.37552931 7.14619513,3.83876971 L7.14619513,4.54892805 L6.12598673,4.54892805 C4.39955193,4.54892805 3,5.9258714 3,7.624417 L3,17.9245111 C3,19.6230567 4.39955193,21 6.12598673,21 L17.8740133,21 C19.6004481,21 21,19.6230567 21,17.9245111 L21,7.624417 C21,5.9258714 19.6004481,4.54892805 17.8740133,4.54892805 Z M6.12882854,6.22646748 L7.14903694,6.22646748 L7.14903694,7.49580563 C7.14903694,7.95904602 7.53073292,8.33457534 8.00157877,8.33457534 C8.47242462,8.33457534 8.85412061,7.95904602 8.85412061,7.49580563 L8.85412061,6.22646748 L15.1487211,6.22646748 L15.1487211,7.49580563 C15.1487211,7.95904602 15.5304172,8.33457534 16.001263,8.33457534 C16.4721088,8.33457534 16.8538048,7.95904602 16.8538048,7.49580563 L16.8538048,6.22646748 L17.8740133,6.22646748 C18.6587563,6.22646748 19.2949163,6.85235125 19.2949163,7.624417 L19.2949163,10.1686858 L4.70508367,10.1686858 L4.70508367,7.624417 C4.70508367,7.25365773 4.85478553,6.89808405 5.12125655,6.63591806 C5.38772756,6.37375112 5.74913981,6.22646748 6.12598673,6.22646748 L6.12882854,6.22646748 Z" id="Shape" fill="#ADB5BD" fill-rule="nonzero"></path>
    </g>
</svg>