<svg width="24" height="24" viewBox="0 0 24 24" fill="#ADB5BD" xmlns="http://www.w3.org/2000/svg">
<path d="M22 6C22 4.89543 21.1046 4 20 4H4C2.89543 4 2 4.89543 2 6V18C2 19.1046 2.89543 20 4 20H20C21.1046 20 22 19.1046 22 18V6ZM10 16.5C10 16.7761 9.77614 17 9.5 17H6.5C6.22386 17 6 16.7761 6 16.5V15.5C6 15.2239 6.22386 15 6.5 15H9.5C9.77614 15 10 15.2239 10 15.5V16.5ZM20 11.5C20 11.7761 19.7761 12 19.5 12H4.5C4.22386 12 4 11.7761 4 11.5V9.5C4 9.22386 4.22386 9 4.5 9H19.5C19.7761 9 20 9.22386 20 9.5V11.5Z" fill="#1E2128"/>
</svg>
