<svg width="24" height="24" viewBox="0 0 24 24" fill="#ADB5BD" xmlns="http://www.w3.org/2000/svg">
<path d="M2 12.5V11.5C2 11.2239 2.22386 11 2.5 11H18.67L14.22 6.56C14.1253 6.46612 14.0721 6.33832 14.0721 6.205C14.0721 6.07169 14.1253 5.94389 14.22 5.85L14.93 5.15C15.0239 5.05535 15.1517 5.00211 15.285 5.00211C15.4183 5.00211 15.5461 5.05535 15.64 5.15L21.78 11.28C21.9207 11.4205 21.9998 11.6112 22 11.81V12.19C21.9977 12.3884 21.9189 12.5783 21.78 12.72L15.64 18.85C15.5461 18.9447 15.4183 18.9979 15.285 18.9979C15.1517 18.9979 15.0239 18.9447 14.93 18.85L14.22 18.14C14.1259 18.0478 14.0729 17.9217 14.0729 17.79C14.0729 17.6583 14.1259 17.5322 14.22 17.44L18.67 13H2.5C2.22386 13 2 12.7761 2 12.5Z" fill="#1E2128"/>
</svg>
