<svg width="24" height="24" viewBox="0 0 24 24" fill="#ADB5BD" xmlns="http://www.w3.org/2000/svg">
<path d="M22 11.5V12.5C22 12.7761 21.7761 13 21.5 13H5.33L9.78 17.44C9.87466 17.5339 9.9279 17.6617 9.9279 17.795C9.9279 17.9283 9.87466 18.0561 9.78 18.15L9.07 18.85C8.97612 18.9446 8.84832 18.9979 8.715 18.9979C8.58168 18.9979 8.45388 18.9446 8.36 18.85L2.22 12.72C2.07931 12.5795 2.00018 12.3888 2 12.19V11.81C2.0023 11.6116 2.08112 11.4217 2.22 11.28L8.36 5.14997C8.45388 5.05532 8.58168 5.00208 8.715 5.00208C8.84832 5.00208 8.97612 5.05532 9.07 5.14997L9.78 5.85997C9.87406 5.95214 9.92707 6.07828 9.92707 6.20997C9.92707 6.34166 9.87406 6.46781 9.78 6.55997L5.33 11H21.5C21.7761 11 22 11.2238 22 11.5Z" fill="#1E2128"/>
</svg>
