<?xml version="1.0" encoding="UTF-8"?>
<svg width="24px" height="24px" viewBox="0 0 24 24" version="1.1" xmlns="http://www.w3.org/2000/svg" xmlns:xlink="http://www.w3.org/1999/xlink">
    <!-- Generator: Sketch 52 (66869) - http://www.bohemiancoding.com/sketch -->
    <title>multiple_social_provider</title>
    <desc>Created with Sketch.</desc>
    <g id="multiple_social_provider" stroke="none" stroke-width="1" fill="none" fill-rule="evenodd">
        <path d="M15.7119526,4.01798941 C18.5040616,4.28423264 20.7603895,6.73438995 20.9783582,9.6054994 C21.1822644,12.3218999 19.9377333,14.6137505 17.5646867,15.8514217 C17.3221086,15.9773476 17.2447649,16.1212628 17.2553118,16.3875061 C17.2728899,16.8840137 17.2693743,17.3805214 17.2447649,17.8734311 C17.2301078,18.1331141 17.1816326,18.3896313 17.1006243,18.636182 C16.8791399,19.305388 16.3377338,19.5896206 15.7014057,19.3377689 C15.3603901,19.2010494 15.033437,18.9887744 14.7381246,18.7549121 C13.8803122,18.0713146 13.0435935,17.3553362 12.1857812,16.6717387 C12.0280007,16.554209 11.8394139,16.4877872 11.644375,16.481051 C10.811172,16.4594637 9.97796894,16.4738552 9.14476591,16.4702573 C6.05804755,16.4522679 3.61117286,14.32592 3.0873448,11.2137524 C2.5283605,7.90010356 4.71156335,4.64761867 7.94242232,4.06835975 C8.0549223,4.04677246 8.37484414,4.02158729 8.81429721,4 C10.5158595,4.00359788 12.0099999,4.00359788 12.280703,4.00359788 C13.3494529,4.00479718 14.4182028,4.00359788 15.4869526,4 C15.5642964,4.00359788 15.6381245,4.01079364 15.7119526,4.01798941 Z M8.14285714,11.7142857 C8.85293754,11.7142857 9.42857143,11.1386518 9.42857143,10.4285714 C9.42857143,9.71849104 8.85293754,9.14285714 8.14285714,9.14285714 C7.43277675,9.14285714 6.85714286,9.71849104 6.85714286,10.4285714 C6.85714286,11.1386518 7.43277675,11.7142857 8.14285714,11.7142857 Z M12,11.7142857 C12.7100804,11.7142857 13.2857143,11.1386518 13.2857143,10.4285714 C13.2857143,9.71849104 12.7100804,9.14285714 12,9.14285714 C11.2899196,9.14285714 10.7142857,9.71849104 10.7142857,10.4285714 C10.7142857,11.1386518 11.2899196,11.7142857 12,11.7142857 Z M15.8571429,11.7142857 C16.5672232,11.7142857 17.1428571,11.1386518 17.1428571,10.4285714 C17.1428571,9.71849104 16.5672232,9.14285714 15.8571429,9.14285714 C15.1470625,9.14285714 14.5714286,9.71849104 14.5714286,10.4285714 C14.5714286,11.1386518 15.1470625,11.7142857 15.8571429,11.7142857 Z" id="Combined-Shape" fill="#ADB5BD" fill-rule="nonzero"></path>
    </g>
</svg>