<?xml version="1.0" encoding="UTF-8"?>
<svg width="24px" height="24px" viewBox="0 0 24 24" version="1.1" xmlns="http://www.w3.org/2000/svg" xmlns:xlink="http://www.w3.org/1999/xlink">
    <!-- Generator: Sketch 52 (66869) - http://www.bohemiancoding.com/sketch -->
    <title>character_count</title>
    <desc>Created with Sketch.</desc>
    <g id="character_count" stroke="none" stroke-width="1" fill="none" fill-rule="evenodd">
        <path d="M16.1243918,4.01982166 C19.2267351,4.31318226 21.7337661,7.01289263 21.9759535,10.1764299 C22.202516,13.1695009 20.8197037,15.6947806 18.1829853,17.058511 C17.913454,17.1972626 17.8275166,17.3558359 17.8392353,17.6491965 C17.8587665,18.1962744 17.8548603,18.7433522 17.8275166,19.2864658 C17.8112309,19.572598 17.7573695,19.8552419 17.6673603,20.1269043 C17.4212666,20.8642701 16.8197042,21.1774523 16.112673,20.8999491 C15.7337668,20.7493044 15.3704856,20.5154088 15.0423607,20.2577272 C14.0892358,19.5045041 13.1595484,18.7156019 12.2064235,17.9623788 C12.0311118,17.8328784 11.8215711,17.7596915 11.6048611,17.7522691 C10.67908,17.7284831 9.75329882,17.7443405 8.82751768,17.7403761 C5.39783062,17.7205545 2.67908096,15.377634 2.09704978,11.9484865 C1.47595611,8.29733633 3.90173705,4.71357983 7.49158035,4.07532232 C7.61658034,4.05153632 7.97204904,4.02378599 8.46033023,4 C10.350955,4.00396433 12.011111,4.00396433 12.3118922,4.00396433 C13.4993921,4.00528578 14.6868919,4.00396433 15.8743918,4 C15.9603293,4.00396433 16.0423605,4.011893 16.1243918,4.01982166 Z M7.71428571,12.5 C8.50326393,12.5 9.14285714,11.8657367 9.14285714,11.0833333 C9.14285714,10.3009299 8.50326393,9.66666667 7.71428571,9.66666667 C6.9253075,9.66666667 6.28571429,10.3009299 6.28571429,11.0833333 C6.28571429,11.8657367 6.9253075,12.5 7.71428571,12.5 Z M12,12.5 C12.7889782,12.5 13.4285714,11.8657367 13.4285714,11.0833333 C13.4285714,10.3009299 12.7889782,9.66666667 12,9.66666667 C11.2110218,9.66666667 10.5714286,10.3009299 10.5714286,11.0833333 C10.5714286,11.8657367 11.2110218,12.5 12,12.5 Z M16.2857143,12.5 C17.0746925,12.5 17.7142857,11.8657367 17.7142857,11.0833333 C17.7142857,10.3009299 17.0746925,9.66666667 16.2857143,9.66666667 C15.4967361,9.66666667 14.8571429,10.3009299 14.8571429,11.0833333 C14.8571429,11.8657367 15.4967361,12.5 16.2857143,12.5 Z" id="Combined-Shape" fill="#ADB5BD" fill-rule="nonzero"></path>
    </g>
</svg>