<svg width="24" height="24" viewBox="0 0 24 24" fill="#ADB5BD" xmlns="http://www.w3.org/2000/svg">
<path d="M15.0127 15.98C17.2239 15.98 19.0164 14.1917 19.0164 11.9857V5.99429C19.0164 3.78831 17.2239 2 15.0127 2H5.00364C2.79249 2 1 3.78831 1 5.99429V18.4765C1 18.7522 1.22406 18.9757 1.50045 18.9757C1.63269 18.975 1.75902 18.921 1.85077 18.826L3.85259 16.8288C4.42744 16.2704 5.20238 15.9648 6.00455 15.98H15.0127ZM13.0109 8.49073C13.0109 8.21498 13.235 7.99144 13.5114 7.99144H14.5123C14.7887 7.99144 15.0127 8.21498 15.0127 8.49073V9.4893C15.0127 9.76505 14.7887 9.98859 14.5123 9.98859H13.5114C13.235 9.98859 13.0109 9.76505 13.0109 9.4893V8.49073ZM9.00728 8.49073C9.00728 8.21498 9.23134 7.99144 9.50773 7.99144H10.5086C10.785 7.99144 11.0091 8.21498 11.0091 8.49073V9.4893C11.0091 9.76505 10.785 9.98859 10.5086 9.98859H9.50773C9.23134 9.98859 9.00728 9.76505 9.00728 9.4893V8.49073ZM5.00364 9.4893V8.49073C5.00364 8.21498 5.2277 7.99144 5.50409 7.99144H6.505C6.7814 7.99144 7.00546 8.21498 7.00546 8.49073V9.4893C7.00546 9.76505 6.7814 9.98859 6.505 9.98859H5.50409C5.2277 9.98859 5.00364 9.76505 5.00364 9.4893ZM21.0182 5.99429V13.9829C21.0182 16.1889 19.2257 17.9772 17.0146 17.9772H5.00364C5.00364 19.0802 5.89988 19.9743 7.00546 19.9743H18.0155C18.815 19.9724 19.5824 20.2886 20.1474 20.8531L22.1492 22.8502C22.241 22.9452 22.3673 22.9992 22.4995 23C22.7759 23 23 22.7765 23 22.5007V7.99144C23.0001 6.8962 22.1159 6.00525 21.0182 5.99429Z" fill="#1E2128"/>
</svg>
