<?xml version="1.0" encoding="UTF-8"?>
<svg width="24px" height="24px" viewBox="0 0 24 24" version="1.1" xmlns="http://www.w3.org/2000/svg" xmlns:xlink="http://www.w3.org/1999/xlink">
    <!-- Generator: Sketch 52 (66869) - http://www.bohemiancoding.com/sketch -->
    <title>chat</title>
    <desc>Created with Sketch.</desc>
    <g id="chat" stroke="none" stroke-width="1" fill="none" fill-rule="evenodd">
        <path d="M15.75,16 L12,21 L8.25,16 L4.81058824,16 C3.81062796,16 3,15.189372 3,14.1894118 L3,4.81058824 C3,3.81062796 3.81062796,3 4.81058824,3 L19.1894118,3 C20.189372,3 21,3.81062796 21,4.81058824 L21,14.1894118 C21,15.189372 20.189372,16 19.1894118,16 L15.75,16 Z M15.9172203,12.3674931 C16.2178394,12.3674931 16.4616142,12.1135356 16.4616142,11.8003592 C16.4616142,11.4871828 16.2178394,11.2332252 15.9172203,11.2332252 L7.91747264,11.2332252 C7.61685354,11.2332252 7.37307877,11.4871828 7.37307877,11.8003592 C7.37307877,12.1135356 7.61685354,12.3674931 7.91747264,12.3674931 L15.9172203,12.3674931 Z M15.9172203,7.55084021 C16.2178394,7.55084021 16.4616142,7.29688262 16.4616142,6.98370623 C16.4616142,6.67052983 16.2178394,6.41657225 15.9172203,6.41657225 L7.91747264,6.41657225 C7.61685354,6.41657225 7.37307877,6.67052983 7.37307877,6.98370623 C7.37307877,7.29688262 7.61685354,7.55084021 7.91747264,7.55084021 L15.9172203,7.55084021 Z" id="shape" fill="#ADB5BD"></path>
    </g>
</svg>