<?xml version="1.0" encoding="UTF-8"?>
<svg width="24px" height="24px" viewBox="0 0 24 24" version="1.1" xmlns="http://www.w3.org/2000/svg" xmlns:xlink="http://www.w3.org/1999/xlink">
    <title>icon/grey/checkin</title>
    <g id="icon/grey/checkin" stroke="none" stroke-width="1" fill="#ADB5BD" fill-rule="evenodd">
        <path d="M14.3375,2.03125 L14.3375,4.09375 C14.8875,4.23125 15.4375,4.50625 15.91875,4.78125 L17.43125,3.26875 C18.39375,2.30625 21.69375,5.60625 20.73125,6.56875 L19.21875,8.08125 C19.49375,8.5625 19.76875,9.1125 19.90625,9.6625 L21.96875,9.6625 C23.34375,9.6625 23.34375,14.3375 21.96875,14.3375 L19.90625,14.3375 C19.76875,14.8875 19.49375,15.4375 19.21875,15.91875 L20.73125,17.43125 C21.69375,18.39375 18.39375,21.69375 17.43125,20.73125 L15.91875,19.21875 C15.4375,19.49375 14.8875,19.76875 14.3375,19.90625 L14.3375,21.96875 C14.3375,23.34375 9.6625,23.34375 9.6625,21.96875 L9.6625,19.90625 C9.1125,19.76875 8.5625,19.49375 8.08125,19.21875 L6.56875,20.73125 C5.60625,21.69375 2.30625,18.39375 3.26875,17.43125 L4.78125,15.91875 C4.50625,15.4375 4.23125,14.8875 4.09375,14.3375 L2.03125,14.3375 C0.65625,14.3375 0.65625,9.6625 2.03125,9.6625 L4.09375,9.6625 C4.23125,9.1125 4.50625,8.5625 4.78125,8.08125 L3.26875,6.56875 C2.30625,5.60625 5.60625,2.30625 6.56875,3.26875 L8.08125,4.78125 C8.5625,4.50625 9.1125,4.23125 9.6625,4.09375 L9.6625,2.03125 C9.6625,0.65625 14.3375,0.65625 14.3375,2.03125 Z M12,6.01875 C8.7,6.01875 6.01875,8.7 6.01875,12 C6.01875,15.3 8.7,17.98125 12,17.98125 C15.3,17.98125 17.98125,15.3 17.98125,12 C17.98125,8.7 15.3,6.01875 12,6.01875 Z M12,6.9125 C14.81875,6.9125 17.0875,9.18125 17.0875,12 C17.0875,14.81875 14.81875,17.0875 12,17.0875 C10.625,17.0875 9.31875,16.46875 8.425,15.575 L8.425,15.575 L8.26072845,15.4026718 C7.45632324,14.5177002 6.9125,13.2890625 6.9125,12 C6.9125,9.18125 9.18125,6.9125 12,6.9125 Z M14.475,9.18125 L10.96875,12.6875 L9.525,11.175 L8.425,12.275 L10.96875,14.81875 L15.575,10.2125 L14.475,9.18125 Z" id="Shape" fill="#ACB4BD"></path>
    </g>
</svg>