<svg width="24" height="24" viewBox="0 0 24 24" fill="#ADB5BD" xmlns="http://www.w3.org/2000/svg">
<path d="M19.85 7.24999L9.24997 17.85C9.15609 17.9447 9.02829 17.9979 8.89497 17.9979C8.76166 17.9979 8.63386 17.9447 8.53997 17.85L3.14997 12.46C3.05532 12.3661 3.00208 12.2383 3.00208 12.105C3.00208 11.9717 3.05532 11.8439 3.14997 11.75L3.84997 11.05C3.94386 10.9553 4.07166 10.9021 4.20497 10.9021C4.33829 10.9021 4.46609 10.9553 4.55997 11.05L8.88997 15.38L18.44 5.82999C18.6378 5.63821 18.9522 5.63821 19.15 5.82999L19.85 6.53999C19.9446 6.63388 19.9979 6.76168 19.9979 6.89499C19.9979 7.02831 19.9446 7.15611 19.85 7.24999Z" fill="#1E2128"/>
</svg>
