<svg width="24" height="24" viewBox="0 0 24 24" fill="#ADB5BD" xmlns="http://www.w3.org/2000/svg">
<path d="M15.78 11.28C15.9207 11.4205 15.9999 11.6111 16 11.81V12.19C15.9977 12.3884 15.9189 12.5783 15.78 12.72L10.64 17.85C10.5462 17.9446 10.4184 17.9979 10.285 17.9979C10.1517 17.9979 10.0239 17.9446 9.93004 17.85L9.22004 17.14C9.12598 17.0478 9.07297 16.9217 9.07297 16.79C9.07297 16.6583 9.12598 16.5321 9.22004 16.44L13.67 12L9.22004 7.55997C9.12539 7.46609 9.07214 7.33829 9.07214 7.20497C9.07214 7.07166 9.12539 6.94386 9.22004 6.84997L9.93004 6.14997C10.0239 6.05532 10.1517 6.00208 10.285 6.00208C10.4184 6.00208 10.5462 6.05532 10.64 6.14997L15.78 11.28Z" fill="#1E2128"/>
</svg>
