<svg width="24" height="24" viewBox="0 0 24 24" fill="#ADB5BD" xmlns="http://www.w3.org/2000/svg">
<path d="M11.28 8.22C11.4205 8.07931 11.6111 8.00018 11.81 8H12.19C12.3884 8.0023 12.5783 8.08112 12.72 8.22L17.85 13.36C17.9446 13.4539 17.9979 13.5817 17.9979 13.715C17.9979 13.8483 17.9446 13.9761 17.85 14.07L17.14 14.78C17.0478 14.8741 16.9217 14.9271 16.79 14.9271C16.6583 14.9271 16.5321 14.8741 16.44 14.78L12 10.33L7.55997 14.78C7.46609 14.8747 7.33829 14.9279 7.20497 14.9279C7.07166 14.9279 6.94386 14.8747 6.84997 14.78L6.14997 14.07C6.05532 13.9761 6.00208 13.8483 6.00208 13.715C6.00208 13.5817 6.05532 13.4539 6.14997 13.36L11.28 8.22Z" fill="#1E2128"/>
</svg>
