<svg width="24" height="24" viewBox="0 0 24 24" fill="#ADB5BD" xmlns="http://www.w3.org/2000/svg">
<path d="M18.7927 9.22002L6.27395 2.10001C6.15806 2.0335 6.02648 1.99898 5.89277 2.00001C5.76206 1.99774 5.63338 2.03241 5.52162 2.10001L5.40124 2.17001C5.16161 2.30071 5.00905 2.54786 5 2.82001V17.16C5.00009 17.3705 5.13244 17.5584 5.33103 17.63C5.52134 17.6998 5.73511 17.6485 5.8727 17.5L8.94221 14.12L13.2355 21.53C13.3379 21.702 13.5034 21.8275 13.6969 21.88L14.028 22H14.2186C14.3523 22.001 14.4839 21.9665 14.5997 21.9L18.0404 19.9C18.2123 19.8019 18.3384 19.6402 18.3915 19.45L18.4918 19.08C18.5452 18.8883 18.5199 18.6832 18.4216 18.51L14.1283 11.1L18.6021 10.1C18.8035 10.0611 18.9594 9.90166 18.9933 9.70001C19.0242 9.51492 18.9463 9.32853 18.7927 9.22002Z" fill="#1E2128"/>
</svg>
