<?xml version="1.0" encoding="UTF-8"?>
<svg width="24px" height="24px" viewBox="0 0 24 24" version="1.1" xmlns="http://www.w3.org/2000/svg" xmlns:xlink="http://www.w3.org/1999/xlink">
    <!-- Generator: Sketch 51.2 (57519) - http://www.bohemiancoding.com/sketch -->
    <title>click</title>
    <desc>Created with Sketch.</desc>
    <defs></defs>
    <g id="click" stroke="none" stroke-width="1" fill="none" fill-rule="evenodd">
        <path d="M8.48368531,8.53797656 C8.45014631,8.34303114 8.56334043,8.20573087 8.74361253,8.20573087 C8.76457441,8.20573087 8.78658437,8.20782706 8.80964243,8.21097134 L18.2980343,11.1592588 C18.5149896,11.1969902 18.5652981,11.3552523 18.4091322,11.5114182 L15.1044929,13.1642619 L18.3693046,16.4290737 C18.5432882,16.6041053 18.5432882,16.8902349 18.3693046,17.0642184 L17.3358843,18.0965907 C17.1619007,18.2716223 16.8757712,18.2716223 16.7017876,18.0965907 L13.4055331,14.8003361 L11.7830841,18.1374663 C11.6279663,18.2936323 11.468656,18.2433238 11.4309247,18.0263684 L8.48368531,8.53797656 Z M7.85614279,6.84294355 C8.06079581,7.04759657 8.06079581,7.37940466 7.85614279,7.58405768 C7.65148977,7.78871069 7.31968168,7.78871069 7.11502866,7.58405768 L5.32383661,5.79286563 C5.1191836,5.58821261 5.1191836,5.25640452 5.32383661,5.0517515 C5.52848963,4.84709849 5.86029773,4.84709849 6.06495074,5.0517515 L7.85614279,6.84294355 Z M6.55728918,9.90898787 C6.84671225,9.90898787 7.081336,10.1436116 7.081336,10.4330347 C7.081336,10.7224578 6.84671225,10.9570815 6.55728918,10.9570815 L4.02404683,10.9570815 C3.73462376,10.9570815 3.5,10.7224578 3.5,10.4330347 C3.5,10.1436116 3.73462376,9.90898787 4.02404683,9.90898787 L6.55728918,9.90898787 Z M11.3504311,6.56357774 C11.3504311,6.85300081 11.1158073,7.08762457 10.8263842,7.08762457 C10.5369612,7.08762457 10.3023374,6.85300081 10.3023374,6.56357774 L10.3023374,4.02404683 C10.3023374,3.73462376 10.5369612,3.5 10.8263842,3.5 C11.1158073,3.5 11.3504311,3.73462376 11.3504311,4.02404683 L11.3504311,6.56357774 Z M13.8596232,8.0196454 C13.6549702,8.22429841 13.3231621,8.22429841 13.1185091,8.0196454 C12.9138561,7.81499238 12.9138561,7.48318429 13.1185091,7.27853127 L14.9138935,5.48314685 C15.1185465,5.27849383 15.4503546,5.27849383 15.6550076,5.48314685 C15.8596607,5.68779986 15.8596607,6.01960796 15.6550076,6.22426098 L13.8596232,8.0196454 Z M6.06442669,15.8148419 C5.85977368,16.0194949 5.52796558,16.0194949 5.32331257,15.8148419 C5.11865955,15.6101889 5.11865955,15.2783808 5.32331257,15.0737278 L7.11869699,13.2783434 C7.32335001,13.0736904 7.6551581,13.0736904 7.85981112,13.2783434 C8.06446413,13.4829964 8.06446413,13.8148045 7.85981112,14.0194575 L6.06442669,15.8148419 Z" id="Clip-2" fill="#ADB5BD"></path>
    </g>
</svg>