<?xml version="1.0" encoding="UTF-8"?>
<svg width="24px" height="24px" viewBox="0 0 24 24" version="1.1" xmlns="http://www.w3.org/2000/svg" xmlns:xlink="http://www.w3.org/1999/xlink">
    <!-- Generator: Sketch 52 (66869) - http://www.bohemiancoding.com/sketch -->
    <title>click</title>
    <desc>Created with Sketch.</desc>
    <g id="click" stroke="none" stroke-width="1" fill="none" fill-rule="evenodd">
        <path d="M8.98042237,9.15708316 C8.94017558,8.91883371 9.07600851,8.75103437 9.29233504,8.75103437 C9.31748929,8.75103437 9.34390125,8.75359619 9.37157092,8.75743892 L20.7576411,12.3606417 C21.0179876,12.4067545 21.0783578,12.600172 20.8909586,12.7910278 L16.9253915,14.8110245 L20.8431655,18.8010623 C21.0519458,19.0149745 21.0519458,19.3646632 20.8431655,19.5772944 L19.6030611,20.8389918 C19.3942809,21.052904 19.0509254,21.052904 18.8421452,20.8389918 L14.8866397,16.8105266 L12.9397009,20.8889473 C12.7535595,21.0798031 12.5623872,21.0183194 12.5171096,20.7531708 L8.98042237,9.15708316 Z M8.22737135,7.08552545 C8.47295497,7.33563889 8.47295497,7.74115289 8.22737135,7.99126633 C7.98178773,8.24137977 7.58361801,8.24137977 7.33803439,7.99126633 L5.18860394,5.80218937 C4.94302032,5.55207593 4.94302032,5.14656193 5.18860394,4.89644849 C5.43418755,4.64633505 5.83235727,4.64633505 6.07794089,4.89644849 L8.22737135,7.08552545 Z M6.66874702,10.8326429 C7.0160547,10.8326429 7.29760321,11.1193846 7.29760321,11.4730984 C7.29760321,11.8268122 7.0160547,12.1135539 6.66874702,12.1135539 L3.62885619,12.1135539 C3.28154851,12.1135539 3,11.8268122 3,11.4730984 C3,11.1193846 3.28154851,10.8326429 3.62885619,10.8326429 L6.66874702,10.8326429 Z M12.4205173,6.74410296 C12.4205173,7.09781677 12.1389688,7.38455847 11.7916611,7.38455847 C11.4443534,7.38455847 11.1628049,7.09781677 11.1628049,6.74410296 L11.1628049,3.64045552 C11.1628049,3.2867417 11.4443534,3 11.7916611,3 C12.1389688,3 12.4205173,3.2867417 12.4205173,3.64045552 L12.4205173,6.74410296 Z M15.4315479,8.52361296 C15.1859642,8.77372639 14.7877945,8.77372639 14.5422109,8.52361296 C14.2966273,8.27349952 14.2966273,7.86798551 14.5422109,7.61787208 L16.6966722,5.42367147 C16.9422558,5.17355804 17.3404256,5.17355804 17.5860092,5.42367147 C17.8315928,5.67378491 17.8315928,6.07929891 17.5860092,6.32941235 L15.4315479,8.52361296 Z M6.07731203,18.0503888 C5.83172841,18.3005022 5.4335587,18.3005022 5.18797508,18.0503888 C4.94239146,17.8002753 4.94239146,17.3947613 5.18797508,17.1446479 L7.34243639,14.9504473 C7.58802001,14.7003339 7.98618972,14.7003339 8.23177334,14.9504473 C8.47735696,15.2005607 8.47735696,15.6060747 8.23177334,15.8561882 L6.07731203,18.0503888 Z" id="Clip-2" fill="#ADB5BD"></path>
    </g>
</svg>