<?xml version="1.0" encoding="UTF-8"?>
<svg width="24px" height="24px" viewBox="0 0 24 24" version="1.1" xmlns="http://www.w3.org/2000/svg" xmlns:xlink="http://www.w3.org/1999/xlink">
    <!-- Generator: Sketch 52 (66869) - http://www.bohemiancoding.com/sketch -->
    <title>close</title>
    <desc>Created with Sketch.</desc>
    <g id="close" stroke="none" stroke-width="1" fill="none" fill-rule="evenodd">
        <path d="M14.3255231,12 L20.5621531,18.23663 C21.145949,18.8204259 21.145949,19.766946 20.5621531,20.3507419 L20.3507419,20.5621531 C19.766946,21.145949 18.8204259,21.145949 18.23663,20.5621531 L12,14.3255231 L5.76336997,20.5621531 C5.17957409,21.145949 4.23305397,21.145949 3.64925809,20.5621531 L3.43784691,20.3507419 C2.85405103,19.766946 2.85405103,18.8204259 3.43784691,18.23663 L9.67447694,12 L3.43784691,5.76336997 C2.85405103,5.17957409 2.85405103,4.23305397 3.43784691,3.64925809 L3.64925809,3.43784691 C4.23305397,2.85405103 5.17957409,2.85405103 5.76336997,3.43784691 L12,9.67447694 L18.23663,3.43784691 C18.8204259,2.85405103 19.766946,2.85405103 20.3507419,3.43784691 L20.5621531,3.64925809 C21.145949,4.23305397 21.145949,5.17957409 20.5621531,5.76336997 L14.3255231,12 Z" id="shape" fill="#ADB5BD" fill-rule="nonzero"></path>
    </g>
</svg>