<?xml version="1.0" encoding="UTF-8"?>
<svg width="24px" height="24px" viewBox="0 0 24 24" version="1.1" xmlns="http://www.w3.org/2000/svg" xmlns:xlink="http://www.w3.org/1999/xlink">
    <!-- Generator: Sketch 51.2 (57519) - http://www.bohemiancoding.com/sketch -->
    <title>comment</title>
    <desc>Created with Sketch.</desc>
    <defs></defs>
    <g id="comment" stroke="none" stroke-width="1" fill="none" fill-rule="evenodd">
        <path d="M15.2995134,5.01599058 C15.2338884,5.00959435 15.1682634,5.00319812 15.0995134,5 C14.1495136,5.00319812 13.1995137,5.00426416 12.2495138,5.00319812 C12.0088888,5.00319812 10.680764,5.00319812 9.16826418,5 C8.77763923,5.0191887 8.49326427,5.04157552 8.39326428,5.06076422 C5.52138964,5.57566104 3.58076489,8.46675872 4.07763982,11.4122244 C4.54326477,14.1785955 6.71826449,16.0686826 9.46201415,16.0846732 C10.2026391,16.0878713 10.943264,16.0750788 11.6838889,16.0942675 C11.8572568,16.1002553 12.0248895,16.1592969 12.1651388,16.2637677 C12.9276387,16.8714099 13.6713886,17.5078352 14.4338885,18.1154774 C14.6963885,18.323355 14.9870135,18.5120439 15.2901384,18.6335724 C15.8557633,18.8574405 16.3370133,18.6047893 16.5338883,18.0099396 C16.6058956,17.7907834 16.6489847,17.5627681 16.6620132,17.3319388 C16.6838882,16.8937968 16.6870132,16.4524566 16.6713882,16.0111165 C16.6620132,15.7744558 16.7307632,15.6465312 16.9463882,15.5345971 C19.0557629,14.4344449 20.1620128,12.3972444 19.9807628,9.98266614 C19.7870128,7.43056885 17.7813881,5.25265124 15.2995134,5.01599058 Z" id="Shape" fill="#ADB5BD" fill-rule="nonzero"></path>
    </g>
</svg>