<?xml version="1.0" encoding="UTF-8"?>
<svg width="24px" height="24px" viewBox="0 0 24 24" version="1.1" xmlns="http://www.w3.org/2000/svg" xmlns:xlink="http://www.w3.org/1999/xlink">
    <!-- Generator: Sketch 52 (66869) - http://www.bohemiancoding.com/sketch -->
    <title>comment</title>
    <desc>Created with Sketch.</desc>
    <g id="comment" stroke="none" stroke-width="1" fill="none" fill-rule="evenodd">
        <path d="M15.7119526,5.0174897 C15.6381245,5.01049382 15.5642964,5.00349794 15.4869526,5 C14.4182028,5.00349794 13.3494529,5.00466392 12.280703,5.00349794 C12.0099999,5.00349794 10.5158595,5.00349794 8.81429721,5 C8.37484414,5.02098764 8.0549223,5.04547322 7.94242232,5.06646087 C4.71156335,5.62962927 2.5283605,8.79176735 3.0873448,12.0133704 C3.61117286,15.0390888 6.05804755,17.1063716 9.14476591,17.1238613 C9.97796894,17.1273592 10.811172,17.1133675 11.644375,17.1343551 C11.8394139,17.1409042 12.0280007,17.205481 12.1857812,17.319746 C13.0435935,17.9843546 13.8803122,18.6804448 14.7381246,19.3450534 C15.033437,19.5724196 15.3603901,19.778798 15.7014057,19.9117198 C16.3377338,20.1565756 16.8791399,19.8802383 17.1006243,19.2296214 C17.1816326,18.9899193 17.2301078,18.7405276 17.2447649,18.488058 C17.2693743,18.0088402 17.2728899,17.5261244 17.2553118,17.0434087 C17.2447649,16.7845611 17.3221086,16.6446435 17.5646867,16.5222156 C19.9377333,15.3189241 21.1822644,13.0907361 20.9783582,10.4497911 C20.7603895,7.65843468 18.5040616,5.27633729 15.7119526,5.0174897 Z" id="Shape" fill="#ADB5BD" fill-rule="nonzero"></path>
    </g>
</svg>