<svg width="24" height="24" viewBox="0 0 24 24" fill="#ADB5BD" xmlns="http://www.w3.org/2000/svg">
<path d="M18 2H6C3.79086 2 2 3.79086 2 6V21.5C2 21.7761 2.22386 22 2.5 22C2.63212 21.9992 2.75833 21.9451 2.85 21.85L5.85 18.85C6.42433 18.2908 7.19856 17.9847 8 18H18C20.2091 18 22 16.2091 22 14V6C22 3.79086 20.2091 2 18 2ZM9 10.5C9 10.7761 8.77614 11 8.5 11H7.5C7.22386 11 7 10.7761 7 10.5V9.5C7 9.22386 7.22386 9 7.5 9H8.5C8.77614 9 9 9.22386 9 9.5V10.5ZM13 10.5C13 10.7761 12.7761 11 12.5 11H11.5C11.2239 11 11 10.7761 11 10.5V9.5C11 9.22386 11.2239 9 11.5 9H12.5C12.7761 9 13 9.22386 13 9.5V10.5ZM17 10.5C17 10.7761 16.7761 11 16.5 11H15.5C15.2239 11 15 10.7761 15 10.5V9.5C15 9.22386 15.2239 9 15.5 9H16.5C16.7761 9 17 9.22386 17 9.5V10.5Z" fill="#1E2128"/>
</svg>
