
<svg width="11px" height="13px" viewBox="0 0 11 13" version="1.1" xmlns="http://www.w3.org/2000/svg" xmlns:xlink="http://www.w3.org/1999/xlink">
    <g id="Report-Insights" stroke="none" stroke-width="1" fill="none" fill-rule="evenodd">
        <g id="v2_ir_9" transform="translate(-447.000000, -405.000000)" fill="#FFFFFF">
            <g id="Popup-Copy-8" transform="translate(333.000000, 50.000000)">
                <g id="Group-100-Copy" transform="translate(60.000000, 311.000000)">
                    <g id="Group-100-Copy-2" transform="translate(30.000000, 22.000000)">
                        <g id="v">
                            <path d="M32.9249943,22 C32.0551479,22 31.3500018,22.7178899 31.3499973,23.60344 C31.3507854,23.7222539 31.364543,23.8406105 31.3910168,23.95633 L28.2779317,26.34061 C27.8107764,25.9537658 27.2271783,25.7422004 26.6249978,25.74139 C25.1752569,25.7413863 24,26.9378463 24,28.41376 C24,29.8896737 25.1752569,31.0861337 26.6249978,31.08613 C27.2898395,31.0855196 27.9296869,30.8281033 28.415338,30.36586 L31.3910168,32.64574 C31.3661753,32.75887 31.3499973,32.87587 31.3499973,32.99656 C31.3500062,33.88216 32.0551519,34.6 32.9250031,34.6 C33.7948543,34.6 34.5,33.88216 34.5,32.99656 C34.5,32.11105 33.7948543,31.39312 32.9250031,31.39312 C32.557543,31.39312 32.2249671,31.52704 31.9570323,31.74178 L29.0244151,29.49322 C29.1725678,29.1532989 29.2494024,28.7856402 29.2500044,28.41376 C29.2498444,27.9793509 29.1456643,27.5515301 28.946487,27.16735 L31.9529303,24.86452 C32.2301886,25.0861754 32.5724749,25.2067272 32.9250031,25.20688 C33.7948495,25.2068705 34.5,24.4889901 34.5,23.60344 C34.5,22.7178899 33.7948495,22 32.9250031,22 L32.9249943,22 Z" id="Combined-Shape"></path>
                        </g>
                    </g>
                </g>
            </g>
        </g>
    </g>
</svg>
