<?xml version="1.0" encoding="UTF-8"?>
<svg width="24px" height="24px" viewBox="0 0 24 24" version="1.1" xmlns="http://www.w3.org/2000/svg" xmlns:xlink="http://www.w3.org/1999/xlink">
    <!-- Generator: Sketch 60 (88103) - https://sketch.com -->
    <title>icon/grey/socials</title>
    <desc>Created with Sketch.</desc>
    <g id="icon/grey/socials" stroke="none" stroke-width="1" fill="none" fill-rule="evenodd">
        <path d="M18.1666575,2 C16.785949,2 15.6666695,3.13950782 15.6666625,4.54514286 C15.6679134,4.73373636 15.6897509,4.92160403 15.7317727,5.10528571 L10.7903677,8.88985714 C10.0488514,8.27581876 9.12250527,7.94000065 8.16666316,7.93871429 C5.86548719,7.93870837 4,9.83785134 4,12.1805714 C4,14.5232915 5.86548719,16.4224345 8.16666316,16.4224286 C9.22196749,16.4214597 10.2375983,16.0128623 11.008473,15.2791429 L15.7317727,18.898 C15.6923417,19.0775714 15.6666625,19.2632857 15.6666625,19.4548571 C15.6666765,20.8605714 16.7859554,22 18.1666716,22 C19.5473878,22 20.6666667,20.8605714 20.6666667,19.4548571 C20.6666667,18.0492857 19.5473878,16.9097143 18.1666716,16.9097143 C17.5834016,16.9097143 17.0555034,17.1222857 16.63021,17.4631429 L11.975262,13.894 C12.210425,13.3544427 12.3323847,12.7708574 12.3333403,12.1805714 C12.3330863,11.4910331 12.1677212,10.8119526 11.8515666,10.2021429 L16.623699,6.54685714 C17.0637914,6.89869114 17.6071029,7.09004323 18.1666716,7.09028571 C19.5473801,7.09027064 20.6666667,5.95077789 20.6666667,4.54514286 C20.6666667,3.13950782 19.5473801,2 18.1666716,2 L18.1666575,2 Z" id="Path" fill="#ADB5BD"></path>
    </g>
</svg>