<?xml version="1.0" encoding="UTF-8"?>
<svg width="24px" height="24px" viewBox="0 0 24 24" version="1.1" xmlns="http://www.w3.org/2000/svg" xmlns:xlink="http://www.w3.org/1999/xlink">
    <!-- Generator: Sketch 53 (72520) - https://sketchapp.com -->
    <title>copy</title>
    <desc>Created with Sketch.</desc>
    <g id="copy" stroke="none" stroke-width="1" fill="none" fill-rule="evenodd">
        <path d="M15.5524514,18.1004 L15.5524514,19.2233 C15.5524514,19.8413 15.0325086,20.3468 14.3968514,20.3468 L5.15513714,20.3468 C4.51948,20.3468 3.99953714,19.8413 3.99953714,19.2233 L3.99953714,7.9928 C3.99953714,7.3748 4.51948,6.8693 5.15513714,6.8693 L6.31089143,6.8693 L6.31089143,16.9769 C6.31089143,17.5949 6.83083429,18.1004 7.46494857,18.1004 L15.5524514,18.1004 Z M9.11428571,3 L18.4285714,3 C18.9808562,3 19.4285714,3.44771525 19.4285714,4 L19.4285714,15 C19.4285714,15.5522847 18.9808562,16 18.4285714,16 L9.11428571,16 C8.56200096,16 8.11428571,15.5522847 8.11428571,15 L8.11428571,4 C8.11428571,3.44771525 8.56200096,3 9.11428571,3 Z" id="Combined-Shape" fill="#ADB5BD"></path>
    </g>
</svg>
