<svg width="24" height="24" viewBox="0 0 24 24" fill="#ADB5BD" xmlns="http://www.w3.org/2000/svg">
<path d="M11.59 18.41L16.41 13.59C16.788 13.2142 17.0004 12.703 17 12.17V3C17 1.89543 16.1046 1 15 1H4C2.89543 1 2 1.89543 2 3V17C2 18.1046 2.89543 19 4 19H10.17C10.703 19.0004 11.2142 18.788 11.59 18.41ZM10 13C10 12.4477 10.4477 12 11 12H15.18L10 17.18V13ZM19 5V19C19 20.1046 18.1046 21 17 21H6C6 22.1046 6.89543 23 8 23H17C19.2091 23 21 21.2091 21 19V7C21 5.89543 20.1046 5 19 5Z" fill="#1E2128"/>
</svg>
