<?xml version="1.0" encoding="UTF-8"?>
<svg width="24px" height="24px" viewBox="0 0 24 24" version="1.1" xmlns="http://www.w3.org/2000/svg" xmlns:xlink="http://www.w3.org/1999/xlink">
    <!-- Generator: Sketch 52 (66869) - http://www.bohemiancoding.com/sketch -->
    <title>create</title>
    <desc>Created with Sketch.</desc>
    <g id="create" stroke="none" stroke-width="1" fill="none" fill-rule="evenodd">
        <path d="M8.89192865,15.7335951 L12.294399,15.51403 C12.4507799,15.5077115 12.6008425,15.4445273 12.7145741,15.3386938 L20.3614445,7.68234571 C21.2128518,6.83093833 21.2128518,5.4519427 20.3614445,4.60053531 L19.3978851,3.63855554 C18.5464777,2.78714815 17.1674821,2.78714815 16.3160747,3.63855554 L8.66920427,11.2854259 C8.56021149,11.3928391 8.49386806,11.5381628 8.47965161,11.6913846 L8.19848182,15.0275115 C8.18426537,15.2091661 8.24586999,15.3892411 8.36907922,15.5250872 C8.49386806,15.6593537 8.66920427,15.7351747 8.85243852,15.7351747 L8.89192865,15.7335951 Z M18.4832935,4.56262478 L19.4373752,5.52934337 C19.6016542,5.69362234 19.6932713,5.91476712 19.6932713,6.14696913 C19.6932713,6.37759154 19.6016542,6.60031592 19.4373752,6.76301529 L18.7834185,7.41697198 L16.5972445,5.20710384 L17.2512012,4.55314714 C17.592396,4.22142998 18.1373599,4.2261688 18.4738158,4.56262478 L18.4832935,4.56262478 Z M17.6776947,20.9984204 L5.11667142,20.9984204 C3.95092253,20.9984204 3,20.0490775 3,18.881749 L3,6.32230535 C3,5.15497685 3.95092253,4.20563393 5.11667142,4.20563393 L11.8220969,4.20563393 C12.4349839,4.20563393 12.9136044,4.6842544 12.9136044,5.29714135 C12.9136044,5.9084487 12.4349839,6.38864878 11.8220969,6.38864878 L5.11667142,6.38864878 L5.18459446,18.881749 L17.6776947,18.8154055 L17.6113512,12.4401176 C17.6113512,11.8272306 18.0899717,11.3501898 18.701279,11.3501898 C19.314166,11.3501898 19.7943661,11.8272306 19.7943661,12.4401176 L19.7943661,18.881749 C19.7943661,20.0490775 18.8450231,20.9984204 17.6776947,20.9984204 Z" id="Shape" fill="#ADB5BD"></path>
    </g>
</svg>