<svg width="24" height="24" viewBox="0 0 24 24" fill="#ADB5BD" xmlns="http://www.w3.org/2000/svg">
<path d="M20.8312 9.50815L14.4887 3.14996C14.3951 3.05533 14.2677 3.00211 14.1347 3.00211C14.0018 3.00211 13.8743 3.05533 13.7807 3.14996L11.0882 5.84919C10.9938 5.94305 10.9407 6.07081 10.9407 6.20409C10.9407 6.33737 10.9938 6.46514 11.0882 6.55899L11.6765 7.15882L6.26153 9.3282C5.65106 9.55505 5.18945 10.0663 5.02495 10.6978L3.03048 18.7555C2.94461 19.0958 3.04302 19.4562 3.28976 19.7053L4.287 20.705C4.48247 20.8997 4.74958 21.0046 5.02495 20.9949C5.10444 21.0045 5.1848 21.0045 5.26429 20.9949L13.302 18.9955C13.9232 18.8387 14.4314 18.3924 14.6683 17.7958L16.8323 12.3673L17.4306 12.9572C17.5242 13.0518 17.6517 13.105 17.7846 13.105C17.9176 13.105 18.045 13.0518 18.1386 12.9572L20.8312 10.2579C20.9385 10.163 21 10.0265 21 9.88305C21 9.73959 20.9385 9.60304 20.8312 9.50815ZM12.8533 17.016L6.71029 18.5456L9.56239 15.6864C9.68104 15.5661 9.84239 15.4978 10.0111 15.4964C10.8373 15.4964 11.507 14.8251 11.507 13.9969C11.507 13.1687 10.8373 12.4973 10.0111 12.4973C9.18501 12.4973 8.51529 13.1687 8.51529 13.9969C8.51394 14.166 8.44582 14.3278 8.32581 14.4467L5.47371 17.3059L7.01943 11.1777L13.2322 8.68839L15.3264 10.7878L12.8533 17.016Z" fill="#1E2128"/>
</svg>
