<?xml version="1.0" encoding="UTF-8"?>
<svg width="24px" height="24px" viewBox="0 0 24 24" version="1.1" xmlns="http://www.w3.org/2000/svg" xmlns:xlink="http://www.w3.org/1999/xlink">
    <!-- Generator: Sketch 51.2 (57519) - http://www.bohemiancoding.com/sketch -->
    <title>create</title>
    <desc>Created with Sketch.</desc>
    <defs></defs>
    <g id="create" stroke="none" stroke-width="1" fill="none" fill-rule="evenodd">
        <path d="M9.23726992,15.3187512 L12.261688,15.1235822 C12.4006933,15.1179658 12.5340822,15.0618021 12.6351769,14.9677278 L19.4323951,8.16208508 C20.1892016,7.40527852 20.1892016,6.17950462 19.4323951,5.42269805 L18.5758979,4.56760492 C17.8190913,3.81079836 16.5933174,3.81079836 15.8365108,4.56760492 L9.03929269,11.3648231 C8.94241021,11.4603014 8.88343827,11.5894781 8.87080143,11.7256752 L8.62087273,14.6911213 C8.60823589,14.8525921 8.66299555,15.0126588 8.77251486,15.1334109 C8.88343827,15.2527588 9.03929269,15.3201553 9.20216757,15.3201553 L9.23726992,15.3187512 Z M17.7629275,5.3889998 L18.6110002,6.24830521 C18.757026,6.39433097 18.8384634,6.5909041 18.8384634,6.79730589 C18.8384634,7.00230359 18.757026,7.20028082 18.6110002,7.34490248 L18.0297054,7.92619732 L16.0864395,5.96187008 L16.6677344,5.38057524 C16.9710186,5.08571554 17.455431,5.08992782 17.754503,5.3889998 L17.7629275,5.3889998 Z M17.0468397,19.9985959 L5.88148571,19.9985959 C4.84526447,19.9985959 4,19.1547355 4,18.1171102 L4,6.95316031 C4,5.91553498 4.84526447,5.0716746 5.88148571,5.0716746 L11.8418639,5.0716746 C12.3866523,5.0716746 12.8120928,5.49711503 12.8120928,6.04190342 C12.8120928,6.58528773 12.3866523,7.01213225 11.8418639,7.01213225 L5.88148571,7.01213225 L5.94186174,18.1171102 L17.0468397,18.0581383 L16.9878678,12.3912156 C16.9878678,11.8464272 17.4133082,11.4223909 17.9566925,11.4223909 C18.5014809,11.4223909 18.9283254,11.8464272 18.9283254,12.3912156 L18.9283254,18.1171102 C18.9283254,19.1547355 18.084465,19.9985959 17.0468397,19.9985959 Z" id="Shape" fill="#ADB5BD"></path>
    </g>
</svg>