<?xml version="1.0" encoding="UTF-8"?>
<svg width="24px" height="24px" viewBox="0 0 24 24" version="1.1" xmlns="http://www.w3.org/2000/svg" xmlns:xlink="http://www.w3.org/1999/xlink" style="background: #FFFFFF;">
    <!-- Generator: Sketch 60.1 (88133) - https://sketch.com -->
    <title>icon/grey/new dashboard copy</title>
    <desc>Created with Sketch.</desc>
    <g id="icon/grey/new-dashboard-copy" stroke="none" stroke-width="1" fill="none" fill-rule="evenodd">
        <path d="M12.7071068,10.2483687 L17.9763858,15.5176478 L17.9763858,20.2987564 L15.5858315,20.2987564 L15.5858315,17.3105635 C15.5858315,16.3203635 14.7831158,15.5176478 13.7929157,15.5176478 C12.9044863,15.5176478 12.1669831,16.1638401 12.02477,17.0118611 L12.0059435,17.1635165 L12,17.2977058 L12,20.2987564 L6.02361419,20.2987564 L6.02361419,15.5176478 L11.2928932,10.2483687 C11.6834175,9.85784444 12.3165825,9.85784444 12.7071068,10.2483687 Z M12.6801009,4.19579359 L20.7719482,11.7024554 C21.1768384,12.0780648 21.2005751,12.7107847 20.8249658,13.1156749 C20.8079622,13.1340039 20.7902773,13.1516889 20.7719482,13.1686924 L19.5277827,14.3228761 L12.6801009,7.97039339 C12.3284842,7.6442049 11.800866,7.61702253 11.4199158,7.88884627 L11.3198991,7.97039339 L4.4717827,14.3228761 L3.22805181,13.1686924 C2.82316164,12.7930831 2.79942486,12.1603632 3.17503422,11.755473 C3.19203778,11.7371439 3.20972274,11.719459 3.22805181,11.7024554 L6.023,9.109 L6.02361419,5.7601533 C6.02361419,5.20786856 6.47132944,4.7601533 7.02361419,4.7601533 L7.41416851,4.7601533 C7.96645326,4.7601533 8.41416851,5.20786856 8.41416851,5.7601533 L8.414,6.89 L11.3198991,4.19579359 C11.7034809,3.8399516 12.2965191,3.8399516 12.6801009,4.19579359 Z" id="Combined-Shape" fill="#ACB4BD"></path>
    </g>
</svg>