<?xml version="1.0" encoding="UTF-8"?>
<svg width="24px" height="24px" viewBox="0 0 24 24" version="1.1" xmlns="http://www.w3.org/2000/svg" xmlns:xlink="http://www.w3.org/1999/xlink">
    <!-- Generator: Sketch 51.2 (57519) - http://www.bohemiancoding.com/sketch -->
    <title>delete</title>
    <desc>Created with Sketch.</desc>
    <defs></defs>
    <g id="delete" stroke="none" stroke-width="1" fill="none" fill-rule="evenodd">
        <path d="M16.8652434,8.17032967 C17.204679,8.17032967 17.5214856,8.45020354 17.4988565,8.77313493 C17.2951952,11.7441037 17.0915338,14.7366012 16.8878725,17.70757 C16.8878725,17.7506275 16.8652434,17.793685 16.8652434,17.8367426 C16.8652434,17.8582713 16.8652434,17.8582713 16.8652434,17.8798001 C16.5031788,20.4632512 13.8329522,20.2694923 11.7737096,20.2694923 C10.9816932,20.2694923 9.91812839,20.4201937 9.14874106,20.1618486 C8.0172891,19.7743309 7.20264368,18.9131805 7.11212753,17.70757 C6.90846617,14.7150725 6.70480482,11.7441037 6.50114347,8.77313493 C6.47851443,8.45020354 6.79532098,8.17032967 7.13475657,8.17032967 C10.3707092,8.17032967 13.6292908,8.17032967 16.8652434,8.17032967 Z M9.77962963,11.5928518 C9.77962963,13.3518094 9.77962963,15.1317071 9.77962963,16.8906647 C9.77962963,17.6445037 11.1851852,17.6445037 11.1851852,16.8906647 C11.1851852,15.1317071 11.1851852,13.3518094 11.1851852,11.5928518 C11.1851852,10.8390128 9.77962963,10.8390128 9.77962963,11.5928518 Z M12.8718404,11.5928518 C12.8718404,13.3518094 12.8718404,15.1317071 12.8718404,16.8906647 C12.8718404,17.6445037 14.277396,17.6445037 14.277396,16.8906647 C14.277396,15.1317071 14.277396,13.3518094 14.277396,11.5928518 C14.277396,10.8390128 12.8718404,10.8390128 12.8718404,11.5928518 Z M16.922179,5.85187883 C17.692607,5.85187883 17.692607,7.23626374 16.922179,7.23626374 C13.6264591,7.23626374 10.3521401,7.23626374 7.07782101,7.23626374 C6.307393,7.23626374 6.307393,5.85187883 7.07782101,5.85187883 C7.99805447,5.85187883 8.89688716,5.85187883 9.81712062,5.85187883 C9.94552529,4.59109971 10.8229572,3.42920524 12,3.50336871 C13.1770428,3.57753219 14.0544747,4.51693624 14.1828794,5.85187883 C15.1031128,5.85187883 16.0019455,5.85187883 16.922179,5.85187883 Z" id="Shape" fill="#ADB5BD" fill-rule="nonzero"></path>
    </g>
</svg>