<?xml version="1.0" encoding="UTF-8"?>
<svg width="24px" height="24px" viewBox="0 0 24 24" version="1.1" xmlns="http://www.w3.org/2000/svg" xmlns:xlink="http://www.w3.org/1999/xlink">
    <!-- Generator: Sketch 52 (66869) - http://www.bohemiancoding.com/sketch -->
    <title>delete</title>
    <desc>Created with Sketch.</desc>
    <g id="delete" stroke="none" stroke-width="1" fill="none" fill-rule="evenodd">
        <path d="M17.3075383,8 C17.6778317,8 18.0234388,8.29962967 17.9987526,8.64535622 C17.7765766,11.8260404 17.5544005,15.0297731 17.3322245,18.2104573 C17.3322245,18.2565542 17.3075383,18.302651 17.3075383,18.3487479 C17.3075383,18.3717964 17.3075383,18.3717964 17.3075383,18.3948448 C16.9125587,21.1606571 13.9995842,20.9532212 11.7531378,20.9532212 C10.8891199,20.9532212 9.72886734,21.1145603 8.8895357,20.837979 C7.65522447,20.4231072 6.76652038,19.5011697 6.66777548,18.2104573 C6.44559946,15.0067246 6.22342344,11.8260404 6.00124742,8.64535622 C5.9765612,8.29962967 6.32216834,8 6.69246171,8 C10.2225918,8 13.7774082,8 17.3075383,8 Z M9.57777778,11.6641119 C9.57777778,13.5472313 9.57777778,15.4527687 9.57777778,17.3358881 C9.57777778,18.1429393 11.1111111,18.1429393 11.1111111,17.3358881 C11.1111111,15.4527687 11.1111111,13.5472313 11.1111111,11.6641119 C11.1111111,10.8570607 9.57777778,10.8570607 9.57777778,11.6641119 Z M12.9510986,11.6641119 C12.9510986,13.5472313 12.9510986,15.4527687 12.9510986,17.3358881 C12.9510986,18.1429393 14.484432,18.1429393 14.484432,17.3358881 C14.484432,15.4527687 14.484432,13.5472313 14.484432,11.6641119 C14.484432,10.8570607 12.9510986,10.8570607 12.9510986,11.6641119 Z M17.3696498,5.5178938 C18.2101167,5.5178938 18.2101167,7 17.3696498,7 C13.7743191,7 10.2023346,7 6.63035019,7 C5.78988327,7 5.78988327,5.5178938 6.63035019,5.5178938 C7.63424125,5.5178938 8.61478599,5.5178938 9.61867704,5.5178938 C9.75875486,4.16811852 10.7159533,2.92420796 12,3.00360651 C13.2840467,3.08300505 14.2412451,4.08871997 14.381323,5.5178938 C15.385214,5.5178938 16.3657588,5.5178938 17.3696498,5.5178938 Z" id="Shape" fill="#ADB5BD" fill-rule="nonzero"></path>
    </g>
</svg>