<?xml version="1.0" encoding="UTF-8"?>
<svg width="24px" height="24px" viewBox="0 0 24 24" version="1.1" xmlns="http://www.w3.org/2000/svg" xmlns:xlink="http://www.w3.org/1999/xlink">
    <!-- Generator: Sketch 58 (84663) - https://sketch.com -->
    <title>icon/grey/download</title>
    <desc>Created with Sketch.</desc>
    <g id="icon/grey/download" stroke="none" stroke-width="1" fill="none" fill-rule="evenodd">
        <path d="M17.8865325,18.782365 C18.4986311,18.782365 18.99535,19.2790839 18.99535,19.8911825 C18.99535,20.503281 18.4990222,21 17.8865325,21 L6.10881752,21 C5.49671896,21 5,20.503281 5,19.8911825 C5,19.2790839 5.49671896,18.782365 6.10881752,18.782365 L17.8865325,18.782365 Z M11.9818348,3 C12.5939333,3 13.0906523,3.49632784 13.0906523,4.1084264 L13.0906523,4.1084264 L13.0906523,14.2098127 L15.5808961,11.71996 C16.0134718,11.2873843 16.7159185,11.2869932 17.1488853,11.7203511 C17.5818522,12.153318 17.5818522,12.8553735 17.1484942,13.2883404 L17.1484942,13.2883404 L12.796141,17.6403025 C12.7288688,17.7118769 12.4116727,17.995437 11.9818348,17.995437 C11.5519969,17.995437 11.2011647,17.6758941 11.1718309,17.6449959 L11.1718309,17.6449959 L6.81517535,13.2883404 C6.38259963,12.8549824 6.38259963,12.1529269 6.81517535,11.71996 C7.24853331,11.2873843 7.95058885,11.2873843 8.38355569,11.71996 L8.38355569,11.71996 L10.8730173,14.2094216 L10.8730173,4.1084264 C10.8730173,3.49632784 11.3697362,3 11.9818348,3 Z" id="Combined-Shape" fill="#ADB5BD"></path>
    </g>
</svg>