<svg width="24" height="24" viewBox="0 0 24 24" fill="#ADB5BD" xmlns="http://www.w3.org/2000/svg">
<path d="M19 18.5V19.5C19 19.7761 18.7761 20 18.5 20H5.5C5.22386 20 5 19.7761 5 19.5V18.5C5 18.2239 5.22386 18 5.5 18H18.5C18.7761 18 19 18.2239 19 18.5ZM11.65 15.85C11.7407 15.9467 11.8674 16.0015 12 16.0015C12.1326 16.0015 12.2593 15.9467 12.35 15.85L18.14 10.06C18.2347 9.96612 18.2879 9.83832 18.2879 9.705C18.2879 9.57168 18.2347 9.44388 18.14 9.35L17.94 9.15C17.8459 9.05234 17.7156 8.99803 17.58 9H15V3.5C15 3.22386 14.7761 3 14.5 3H9.5C9.22386 3 9 3.22386 9 3.5V9H6.42C6.28441 8.99803 6.15408 9.05234 6.06 9.15L5.86 9.35C5.76534 9.44388 5.7121 9.57168 5.7121 9.705C5.7121 9.83832 5.76534 9.96612 5.86 10.06L11.65 15.85Z" fill="#1E2128"/>
</svg>
