<?xml version="1.0" encoding="UTF-8"?>
<svg width="24px" height="24px" viewBox="0 0 24 24" version="1.1" xmlns="http://www.w3.org/2000/svg" xmlns:xlink="http://www.w3.org/1999/xlink">
    <!-- Generator: Sketch 52 (66869) - http://www.bohemiancoding.com/sketch -->
    <title>edit</title>
    <desc>Created with Sketch.</desc>
    <g id="edit" stroke="none" stroke-width="1" fill="none" fill-rule="evenodd">
        <path d="M3.97771808,20.9977674 L8.76112309,20.6874322 C8.98097318,20.6785017 9.19194044,20.5891966 9.35183142,20.4396105 L20.1022788,9.61806568 C21.2992404,8.41467952 21.2992404,6.46559583 20.1022788,5.26220968 L18.7476469,3.90253961 C17.5506853,2.69915346 15.6120072,2.69915346 14.4150456,3.90253961 L3.66459825,14.7106887 C3.5113694,14.8625074 3.41809967,15.0679091 3.3981133,15.2844739 L3.00282727,19.9997829 C2.9828409,20.2565351 3.06944851,20.5110546 3.24266374,20.7030606 C3.41809967,20.8928339 3.66459825,21 3.92220038,21 L3.97771808,20.9977674 Z M17.461857,5.20862662 L18.8031646,6.57499457 C19.0341183,6.80718782 19.1629193,7.11975565 19.1629193,7.44795187 C19.1629193,7.77391547 19.0341183,8.08871593 18.8031646,8.31867655 L17.8837915,9.24298428 L14.8103317,6.11953859 L15.7297048,5.19523086 C16.2093777,4.72637911 16.9755219,4.73307699 17.4485327,5.20862662 L17.461857,5.20862662 Z" id="Shape" fill="#ADB5BD"></path>
    </g>
</svg>