<?xml version="1.0" encoding="UTF-8"?>
<svg width="16px" height="16px" viewBox="0 0 16 16" version="1.1" xmlns="http://www.w3.org/2000/svg" xmlns:xlink="http://www.w3.org/1999/xlink">
    <!-- Generator: Sketch 51.2 (57519) - http://www.bohemiancoding.com/sketch -->
    <title>edit</title>
    <desc>Created with Sketch.</desc>
    <defs></defs>
    <g id="Components" stroke="none" stroke-width="1" fill="none" fill-rule="evenodd">
        <g id="Icon-Set" transform="translate(-271.000000, -410.000000)">
            <g id="edit" transform="translate(267.000000, 406.000000)">
                <rect id="Rectangle" fill-rule="nonzero" x="0" y="0" width="24" height="24"></rect>
                <path d="M4.86908274,19.9126065 L9.1209983,19.6382257 C9.31642061,19.6303298 9.50394706,19.5513713 9.64607237,19.4191158 L19.2020256,9.85131881 C20.2659915,8.78735294 20.2659915,7.06408354 19.2020256,6.00011766 L17.9979084,4.7979744 C16.9339425,3.73400853 15.2106731,3.73400853 14.1467072,4.7979744 L4.590754,14.3539276 C4.45455058,14.4881571 4.37164415,14.6697617 4.35387848,14.861236 L4.00251313,19.0302452 C3.98474747,19.2572509 4.06173201,19.4822826 4.2157011,19.6520434 C4.37164415,19.8198302 4.590754,19.9145804 4.81973367,19.9145804 L4.86908274,19.9126065 Z M16.854984,5.95274256 L18.0472574,7.16080771 C18.2525496,7.36609982 18.3670394,7.64245459 18.3670394,7.9326271 C18.3670394,8.22082565 18.2525496,8.49915439 18.0472574,8.70247254 L17.2300369,9.51969308 L14.4980726,6.75811932 L15.3152931,5.94089878 C15.7416691,5.52636663 16.4226862,5.53228851 16.8431402,5.95274256 L16.854984,5.95274256 Z" id="Shape" fill="#ADB5BD"></path>
            </g>
        </g>
    </g>
</svg>