<svg width="24" height="24" viewBox="0 0 24 24" fill="#ADB5BD" xmlns="http://www.w3.org/2000/svg">
<path d="M16.8195 9.9859C17.0096 10.1799 17.0096 10.4905 16.8195 10.6845L8.7779 18.7582C8.58498 18.9529 8.35403 19.1058 8.09945 19.2073L3.76938 20.9638C3.58402 21.0384 3.37201 20.9952 3.23061 20.854C3.02415 20.7222 2.94383 20.4601 3.04105 20.2352L4.75711 15.904C4.85859 15.6493 5.01142 15.4183 5.20608 15.2253L13.2576 7.17158C13.3513 7.07711 13.4788 7.02398 13.6118 7.02398C13.7448 7.02398 13.8723 7.07711 13.966 7.17158L16.8195 9.9859ZM20.5609 4.09778L19.9024 3.43911C19.622 3.15829 19.2416 3.00034 18.8448 2.99999H18.0866C17.6829 2.99499 17.2943 3.15335 17.009 3.43911L15.2032 5.26542C15.013 5.45945 15.013 5.76998 15.2032 5.96401L18.0067 8.80828C18.1004 8.90274 18.2279 8.95588 18.3609 8.95588C18.4939 8.95588 18.6215 8.90274 18.7151 8.80828L20.5609 6.99194C20.8466 6.7066 21.0049 6.31791 20.9999 5.91412V5.15565C20.9995 4.75875 20.8416 4.37825 20.5609 4.09778Z" fill="#1E2128"/>
</svg>
