<?xml version="1.0" encoding="UTF-8"?>
<svg width="24px" height="24px" viewBox="0 0 24 24" version="1.1" xmlns="http://www.w3.org/2000/svg" xmlns:xlink="http://www.w3.org/1999/xlink">
    <!-- Generator: Sketch 52.6 (67491) - http://www.bohemiancoding.com/sketch -->
    <title>emoji</title>
    <desc>Created with Sketch.</desc>
    <g id="emoji" stroke="none" stroke-width="1" fill="none" fill-rule="evenodd">
        <path d="M12.5,23 C6.70101013,23 2,18.2989899 2,12.5 C2,6.70101013 6.70101013,2 12.5,2 C18.2989899,2 23,6.70101013 23,12.5 C22.9934558,18.296277 18.296277,22.9934558 12.5,23 Z M15.212507,11.826236 C15.9083858,11.826236 16.472507,11.2621148 16.472507,10.566236 C16.472507,9.87035722 15.9083858,9.306236 15.212507,9.306236 C14.5166282,9.306236 13.952507,9.87035722 13.952507,10.566236 C13.952507,11.2621148 14.5166282,11.826236 15.212507,11.826236 Z M9.787493,11.826236 C10.4833718,11.826236 11.047493,11.2621148 11.047493,10.566236 C11.047493,9.87035722 10.4833718,9.306236 9.787493,9.306236 C9.09161422,9.306236 8.527493,9.87035722 8.527493,10.566236 C8.527493,11.2621148 9.09161422,11.826236 9.787493,11.826236 Z M17.400035,12.513944 C17.400035,15.2201586 15.2062146,17.4139789 12.5,17.4139789 C9.79378542,17.4139789 7.59996504,15.2201586 7.599965,12.513944 L5.919965,12.513944 C5.919965,16.147997 8.86594702,19.093979 12.5,19.093979 C16.134053,19.093979 19.080035,16.147997 19.080035,12.513944 L17.400035,12.513944 Z" id="Combined-Shape" fill="#ADB5BD" fill-rule="nonzero"></path>
    </g>
</svg>
