<svg width="24" height="24" viewBox="0 0 24 24" fill="#ADB5BD" xmlns="http://www.w3.org/2000/svg">
<path d="M12 2C6.47715 2 2 6.47715 2 12C2 17.5228 6.47715 22 12 22C17.5228 22 22 17.5228 22 12C22 9.34784 20.9464 6.8043 19.0711 4.92893C17.1957 3.05357 14.6522 2 12 2ZM12 20C7.58172 20 4 16.4183 4 12C4 7.58172 7.58172 4 12 4C16.4183 4 20 7.58172 20 12C20 14.1217 19.1571 16.1566 17.6569 17.6569C16.1566 19.1571 14.1217 20 12 20ZM15 8C13.8954 8 13 8.89543 13 10V10.5C13 10.7761 13.2239 11 13.5 11H16.5C16.7761 11 17 10.7761 17 10.5V10C17 8.89543 16.1046 8 15 8ZM10.5 11C10.7761 11 11 10.7761 11 10.5V10C11 8.89543 10.1046 8 9 8C7.89543 8 7 8.89543 7 10V10.5C7 10.7761 7.22386 11 7.5 11H10.5ZM16.3 14L15.43 13.49C15.2109 13.3674 14.9351 13.4226 14.78 13.62C14.1225 14.4932 13.093 15.0067 12 15.0067C10.907 15.0067 9.87748 14.4932 9.22 13.62C9.06487 13.4226 8.78913 13.3674 8.57 13.49L7.7 14C7.57756 14.0718 7.49059 14.1914 7.46 14.33C7.43027 14.4655 7.45934 14.6072 7.54 14.72C8.57126 16.1567 10.2315 17.0087 12 17.0087C13.7685 17.0087 15.4287 16.1567 16.46 14.72C16.5407 14.6072 16.5697 14.4655 16.54 14.33C16.5094 14.1914 16.4224 14.0718 16.3 14Z" fill="#1E2128"/>
</svg>
