<?xml version="1.0" encoding="UTF-8"?>
<svg width="24px" height="24px" viewBox="0 0 24 24" version="1.1" xmlns="http://www.w3.org/2000/svg" xmlns:xlink="http://www.w3.org/1999/xlink">
    <!-- Generator: Sketch 53.2 (72643) - https://sketchapp.com -->
    <title>icon/grey/emoji</title>
    <desc>Created with Sketch.</desc>
    <g id="icon/grey/emoji" stroke="none" stroke-width="1" fill="none" fill-rule="evenodd">
        <path d="M12.5,2 C18.2962841,2.00652717 22.9934728,6.70371592 23,12.5 C23,18.2989899 18.2989899,23 12.5,23 C6.70101013,23 2,18.2989899 2,12.5 C2,6.70101013 6.70101013,2 12.5,2 Z M12.5,21.32 C17.3688727,21.3145029 21.3145029,17.3688727 21.32,12.5 C21.32,7.62884851 17.3711515,3.68 12.5,3.68 C7.62884851,3.68 3.68,7.62884851 3.68,12.5 C3.68,17.3711515 7.62884851,21.32 12.5,21.32 Z M15.212507,11.826236 C14.5166282,11.826236 13.952507,11.2621148 13.952507,10.566236 C13.952507,9.87035722 14.5166282,9.306236 15.212507,9.306236 C15.9083858,9.306236 16.472507,9.87035722 16.472507,10.566236 C16.472507,11.2621148 15.9083858,11.826236 15.212507,11.826236 Z M9.787493,11.826236 C9.09161422,11.826236 8.527493,11.2621148 8.527493,10.566236 C8.527493,9.87035722 9.09161422,9.306236 9.787493,9.306236 C10.4833718,9.306236 11.047493,9.87035722 11.047493,10.566236 C11.047493,11.2621148 10.4833718,11.826236 9.787493,11.826236 Z M17.400035,12.513944 L19.080035,12.513944 C19.080035,16.147997 16.134053,19.093979 12.5,19.093979 C8.86594702,19.093979 5.919965,16.147997 5.919965,12.513944 L7.599965,12.513944 C7.59996504,15.2201586 9.79378542,17.4139789 12.5,17.4139789 C15.2062146,17.4139789 17.400035,15.2201586 17.400035,12.513944 Z" id="Combined-Shape" fill="#ADB5BD" fill-rule="nonzero"></path>
    </g>
</svg>
