<?xml version="1.0" encoding="UTF-8"?>
<svg width="24px" height="24px" viewBox="0 0 24 24" version="1.1" xmlns="http://www.w3.org/2000/svg" xmlns:xlink="http://www.w3.org/1999/xlink">
    <!-- Generator: Sketch 53 (72520) - https://sketchapp.com -->
    <title>emoji</title>
    <desc>Created with Sketch.</desc>
    <g id="emoji" stroke="none" stroke-width="1" fill="none" fill-rule="evenodd">
        <path d="M12,22 C6.4771525,22 2,17.5228475 2,12 C2,6.4771525 6.4771525,2 12,2 C17.5228475,2 22,6.4771525 22,12 C21.9937674,17.5202638 17.5202638,21.9937674 12,22 Z M14.58334,11.35832 C15.2460817,11.35832 15.78334,10.8210617 15.78334,10.15832 C15.78334,9.4955783 15.2460817,8.95832 14.58334,8.95832 C13.9205983,8.95832 13.38334,9.4955783 13.38334,10.15832 C13.38334,10.8210617 13.9205983,11.35832 14.58334,11.35832 Z M9.41666,11.35832 C10.0794017,11.35832 10.61666,10.8210617 10.61666,10.15832 C10.61666,9.4955783 10.0794017,8.95832 9.41666,8.95832 C8.7539183,8.95832 8.21666,9.4955783 8.21666,10.15832 C8.21666,10.8210617 8.7539183,11.35832 9.41666,11.35832 Z M16.6667,12.01328 C16.6667,14.5906272 14.5773472,16.6799799 12,16.6799799 C9.42265279,16.6799799 7.33330004,14.5906272 7.3333,12.01328 L5.7333,12.01328 C5.7333,15.4742828 8.53899716,18.27998 12,18.27998 C15.4610028,18.27998 18.2667,15.4742828 18.2667,12.01328 L16.6667,12.01328 Z" id="Combined-Shape" fill="#ADB5BD" fill-rule="nonzero"></path>
    </g>
</svg>
