<svg width="24" height="24" viewBox="0 0 24 24" fill="#ADB5BD" xmlns="http://www.w3.org/2000/svg">
<path fill-rule="evenodd" clip-rule="evenodd" d="M23 7.64197V20.4684C23 20.7682 22.7539 21.0115 22.4507 21.0115H14.329C14.1224 21.5872 13.5677 22 12.914 22H10.9146C10.2621 22 9.70618 21.5872 9.49965 21.0115H1.54929C1.24608 21.0115 1 20.7682 1 20.4684V7.64197C1 7.38019 1.21422 7.16837 1.47898 7.16837H1.95246C1.97883 7.16837 1.9997 7.19118 1.9997 7.21725V18.6087C1.9997 18.6153 1.9997 18.6218 1.9997 18.6283V18.8488C1.9997 19.0193 2.13922 19.1573 2.31169 19.1573H10.1236C10.1555 19.1573 10.1863 19.1562 10.2181 19.1551C11.1936 19.217 11.9648 19.9839 11.9648 20.9224C11.9648 19.9741 12.7536 19.1997 13.7456 19.154C13.7874 19.1573 13.8302 19.1584 13.8731 19.1584H21.685C21.8575 19.1584 21.997 19.0204 21.997 18.8499V7.41603C21.997 7.40952 21.997 7.40191 21.997 7.39539V7.21725C21.997 7.19118 22.0179 7.16837 22.0442 7.16837H22.5177C22.7858 7.16946 23 7.38127 23 7.64197ZM21.4993 6.01695V16.8783C21.4993 17.0402 21.3664 17.1716 21.2027 17.1716H13.7808C13.7643 17.1716 13.75 17.1673 13.7335 17.1673C12.7569 17.1749 11.967 17.9233 11.967 18.8477C11.967 17.9342 11.1947 17.1944 10.2335 17.1705C10.228 17.1705 10.2236 17.1716 10.2181 17.1716H2.79726C2.63358 17.1716 2.50065 17.0402 2.50065 16.8783V6.01695C2.50065 5.69324 2.7665 5.43037 3.09388 5.43037H5.03945C5.24049 3.50554 6.85868 2 8.85039 2C9.7677 2.02824 10.6466 2.33674 11.3716 2.87334C11.5968 3.03954 11.8077 3.22855 12 3.43819C12.1923 3.22855 12.4032 3.04063 12.6284 2.87334C13.3534 2.33674 14.2323 2.02824 15.1496 2C17.1402 2 18.7595 3.50554 18.9595 5.42929H20.905C21.2346 5.42929 21.4993 5.69216 21.4993 6.01695ZM6.64776 5.82142C6.64776 6.59592 7.16079 7.65175 8.1528 8.89442C8.94267 9.8829 9.85229 10.7747 10.6158 11.5231C10.7729 11.6774 10.9245 11.8251 11.0673 11.9674L12 12.8929L12.9327 11.9674C13.0755 11.8262 13.2271 11.6774 13.3842 11.5231C14.1488 10.7747 15.0584 9.88399 15.8472 8.89442C16.8392 7.65175 17.3522 6.59592 17.3522 5.82142C17.3522 4.61351 16.3745 3.64349 15.1749 3.62937C14.4289 3.65979 13.7248 3.98458 13.2194 4.53422L12 5.86053L10.7806 4.53422C10.2752 3.98349 9.57106 3.6587 8.82513 3.62937C7.62659 3.64241 6.64776 4.61243 6.64776 5.82142ZM4.0002 12.1347C4.0002 12.4073 4.22431 12.6289 4.50005 12.6289H9.40298C9.09867 12.3302 8.76141 11.9989 8.41096 11.6405H4.50005C4.22431 11.6394 4.0002 11.861 4.0002 12.1347ZM4.50005 14.8536H9.49965C9.77539 14.8536 9.9995 14.632 9.9995 14.3593C9.9995 14.0867 9.77539 13.8651 9.49965 13.8651H4.50005C4.22431 13.8651 4.0002 14.0867 4.0002 14.3593C4.0002 14.632 4.22431 14.8536 4.50005 14.8536ZM19.9998 14.3593C19.9998 14.0867 19.7757 13.8651 19.4999 13.8651H14.5003C14.2246 13.8651 14.0005 14.0867 14.0005 14.3593C14.0005 14.632 14.2246 14.8536 14.5003 14.8536H19.4999C19.7757 14.8536 19.9998 14.632 19.9998 14.3593ZM19.9998 12.1347C19.9998 11.862 19.7757 11.6405 19.4999 11.6405H15.5879C15.2375 12 14.9013 12.3313 14.5959 12.6289H19.4999C19.7757 12.6289 19.9998 12.4073 19.9998 12.1347Z" fill="#1E2128"/>
</svg>
