<svg width="24" height="24" viewBox="0 0 24 24" fill="none" xmlns="http://www.w3.org/2000/svg">
<g id="Group 1052">
<path id="Subtract" fill-rule="evenodd" clip-rule="evenodd" d="M15.5641 15.3376L13.2491 15.3376C12.2653 15.3376 11.4678 16.0994 11.4678 17.0391C11.4678 16.0994 10.6703 15.3376 9.68659 15.3376L7.37167 15.3376C7.54398 14.4238 8.34636 13.7326 9.31019 13.7326L13.6256 13.7326C14.5894 13.7326 15.3918 14.4238 15.5641 15.3376Z" fill="white"/>
<rect id="Rectangle 201" x="9.84781" y="12.8906" width="3.30435" height="1.65217" fill="white"/>
<path id="Subtract_2" fill-rule="evenodd" clip-rule="evenodd" d="M1.5 4.75C1.5 4.61193 1.38807 4.5 1.25 4.5H1C0.723858 4.5 0.5 4.72386 0.5 5V18C0.5 18.2761 0.723858 18.5 1 18.5H22C22.2761 18.5 22.5 18.2761 22.5 18V5C22.5 4.72386 22.2761 4.5 22 4.5H21.75C21.6119 4.5 21.5 4.61193 21.5 4.75V16.12V16.3125C21.5 16.4851 21.3601 16.625 21.1875 16.625H13.375C13.3304 16.625 13.2861 16.6234 13.2423 16.6204C12.2527 16.6695 11.4662 17.4515 11.4662 18.409C11.4662 17.4627 10.6979 16.6878 9.72469 16.6224C9.69168 16.6241 9.65844 16.625 9.625 16.625H1.8125C1.63991 16.625 1.5 16.4851 1.5 16.3125V16.12V4.75Z" fill="white"/>
<path id="Subtract_3" fill-rule="evenodd" clip-rule="evenodd" d="M9 18.5C9.20592 19.0826 9.76154 19.5 10.4146 19.5H12.4146C13.0678 19.5 13.6234 19.0826 13.8293 18.5H9Z" fill="white"/>
<path id="Subtract_4" fill-rule="evenodd" clip-rule="evenodd" d="M17.4242 3.46875C17.433 3.56653 17.4375 3.66555 17.4375 3.76562C17.4375 5.19997 16.3664 6.72677 15.2317 8H19C19.2761 8 19.5 8.22386 19.5 8.5C19.5 8.77614 19.2761 9 19 9H14.288C14.0595 9.23122 13.8405 9.4471 13.6403 9.64446L13.6402 9.64453L13.6402 9.64454L13.6402 9.64455C13.512 9.7709 13.3916 9.88966 13.2813 10L11.9275 11.3538C11.8441 11.4373 11.7309 11.4843 11.6128 11.4844H11.3872C11.2691 11.4843 11.1559 11.4373 11.0725 11.3538L9.71875 10C9.60845 9.8897 9.48802 9.77097 9.3599 9.64466L9.35978 9.64454L9.35977 9.64453C9.15957 9.44715 8.94057 9.23125 8.71203 9H4C3.72386 9 3.5 8.77614 3.5 8.5C3.5 8.22386 3.72386 8 4 8H7.76829C6.63359 6.72677 5.5625 5.19997 5.5625 3.76562C5.5625 3.66555 5.567 3.56653 5.57581 3.46875H2.59375C2.26583 3.46875 2 3.73458 2 4.0625V15.0469C2 15.2108 2.13292 15.3438 2.29688 15.3438H9.71875C10.7025 15.3438 11.5 14.5463 11.5 13.5625C11.5 14.5463 12.2975 15.3438 13.2812 15.3438H20.7031C20.8671 15.3438 21 15.2108 21 15.0469V4.0625C21 3.73458 20.7342 3.46875 20.4062 3.46875H17.4242ZM3.5 10.5C3.5 10.2239 3.72386 10 4 10H9C9.27614 10 9.5 10.2239 9.5 10.5C9.5 10.7761 9.27614 11 9 11H4C3.72386 11 3.5 10.7761 3.5 10.5ZM4 12C3.72386 12 3.5 12.2239 3.5 12.5C3.5 12.7761 3.72386 13 4 13H9C9.27614 13 9.5 12.7761 9.5 12.5C9.5 12.2239 9.27614 12 9 12H4ZM13.5 10.5C13.5 10.2239 13.7239 10 14 10H19C19.2761 10 19.5 10.2239 19.5 10.5C19.5 10.7761 19.2761 11 19 11H14C13.7239 11 13.5 10.7761 13.5 10.5ZM14 12C13.7239 12 13.5 12.2239 13.5 12.5C13.5 12.7761 13.7239 13 14 13H19C19.2761 13 19.5 12.7761 19.5 12.5C19.5 12.2239 19.2761 12 19 12H14Z" fill="white"/>
<path id="Icon-color" d="M10.945 1.95906L11.5 2.56963L12.055 1.95906C12.727 1.21971 13.6669 0.784325 14.6616 0.750022C16.3657 0.756325 17.75 2.14576 17.75 3.86486C17.75 4.97201 17.0636 6.24768 16.0519 7.52946C15.2251 8.57709 14.2687 9.5239 13.5045 10.2805C13.3506 10.4329 13.2044 10.5777 13.0686 10.7139L11.5385 12.25H11.4615L9.93135 10.7139C9.79561 10.5777 9.64944 10.4329 9.49546 10.2805C8.73126 9.5239 7.77495 8.57708 6.9481 7.52946C5.93643 6.24768 5.25 4.97201 5.25 3.86486C5.25 2.14576 6.63433 0.756325 8.33836 0.750022C9.3331 0.784325 10.273 1.21971 10.945 1.95906Z" stroke="white" stroke-width="1.5"/>
</g>
</svg>
