<?xml version="1.0" encoding="UTF-8"?>
<svg width="24px" height="24px" viewBox="0 0 24 24" version="1.1" xmlns="http://www.w3.org/2000/svg" xmlns:xlink="http://www.w3.org/1999/xlink">
    <!-- Generator: Sketch 51.2 (57519) - http://www.bohemiancoding.com/sketch -->
    <title>exit</title>
    <desc>Created with Sketch.</desc>
    <defs></defs>
    <g id="exit" stroke="none" stroke-width="1" fill="none" fill-rule="evenodd">
        <path d="M13.5760931,12.0204581 L17.7480231,16.1923882 C18.1385474,16.5829124 18.1385474,17.2160774 17.7480231,17.6066017 L17.6066017,17.7480231 C17.2160774,18.1385474 16.5829124,18.1385474 16.1923882,17.7480231 L12.0204581,13.5760931 L7.84852814,17.7480231 C7.45800385,18.1385474 6.82483887,18.1385474 6.43431458,17.7480231 L6.29289322,17.6066017 C5.90236893,17.2160774 5.90236893,16.5829124 6.29289322,16.1923882 L10.4648232,12.0204581 L6.29289322,7.84852814 C5.90236893,7.45800385 5.90236893,6.82483887 6.29289322,6.43431458 L6.43431458,6.29289322 C6.82483887,5.90236893 7.45800385,5.90236893 7.84852814,6.29289322 L12.0204581,10.4648232 L16.1923882,6.29289322 C16.5829124,5.90236893 17.2160774,5.90236893 17.6066017,6.29289322 L17.7480231,6.43431458 C18.1385474,6.82483887 18.1385474,7.45800385 17.7480231,7.84852814 L13.5760931,12.0204581 Z" id="shape" fill="#ADB5BD" fill-rule="nonzero"></path>
    </g>
</svg>