<?xml version="1.0" encoding="UTF-8"?>
<svg width="24px" height="24px" viewBox="0 0 24 24" version="1.1" xmlns="http://www.w3.org/2000/svg" xmlns:xlink="http://www.w3.org/1999/xlink">
    <!-- Generator: Sketch 52 (66869) - http://www.bohemiancoding.com/sketch -->
    <title>filter</title>
    <desc>Created with Sketch.</desc>
    <g id="filter" stroke="none" stroke-width="1" fill="none" fill-rule="evenodd">
        <path d="M21.0463918,15.0415924 C21.5876289,15.0415924 22,15.4793028 21.9742268,15.9942563 C21.9742268,16.5349574 21.5360825,16.9469202 21.0206186,16.9469202 L19.0618557,16.9469202 C18.6494845,18.3887899 17.3350515,19.4444444 15.7886598,19.4444444 C14.242268,19.4444444 12.9278351,18.3887899 12.5154639,16.9469202 L2.95360825,16.9469202 C2.41237113,16.9469202 2,16.5092097 2,15.9942563 C2,15.4535552 2.43814433,15.0415924 2.95360825,15.0415924 L12.5154639,15.0415924 C12.9536082,13.6254704 14.2680412,12.5440681 15.814433,12.5440681 C17.3608247,12.5440681 18.6752577,13.5997227 19.0876289,15.0415924 L21.0463918,15.0415924 Z M15.814433,17.5391167 C16.6391753,17.5391167 17.3608247,16.8696772 17.3608247,15.9942563 C17.3608247,15.1188354 16.6907216,14.4493959 15.814433,14.4493959 C14.9381443,14.4493959 14.2680412,15.1188354 14.2680412,15.9942563 C14.2680412,16.8696772 14.9896907,17.5391167 15.814433,17.5391167 Z M2.95360825,9.40285205 C2.41237113,9.40285205 2,8.99088929 2,8.45018816 C2,7.90948703 2.43814433,7.49752426 2.95360825,7.49752426 L4.98969072,7.49752426 C5.40206186,6.05565459 6.71649485,5 8.2628866,5 C9.80927835,5 11.1237113,6.05565459 11.5360825,7.49752426 L21.0463918,7.49752426 C21.5876289,7.49752426 22,7.90948703 22,8.45018816 C22,8.99088929 21.5618557,9.40285205 21.0463918,9.40285205 L11.5360825,9.40285205 C11.1237113,10.8447217 9.80927835,11.9003763 8.2628866,11.9003763 C6.71649485,11.9003763 5.40206186,10.8447217 4.98969072,9.40285205 L2.95360825,9.40285205 Z M8.2628866,6.90532779 C7.43814433,6.90532779 6.71649485,7.62626263 6.71649485,8.45018816 C6.71649485,9.27411369 7.38659794,9.99504852 8.2628866,9.99504852 C9.13917526,9.99504852 9.80927835,9.32560903 9.80927835,8.45018816 C9.80927835,7.57476728 9.08762887,6.90532779 8.2628866,6.90532779 Z" id="Combined-Shape" fill="#ADB5BD" fill-rule="nonzero"></path>
    </g>
</svg>