<svg width="24" height="24" viewBox="0 0 24 24" fill="#ADB5BD" xmlns="http://www.w3.org/2000/svg">
<path d="M20 6H14.41C14.1477 5.9989 13.8963 5.89474 13.71 5.71L12.29 4.29C12.1037 4.10526 11.8523 4.0011 11.59 4H4C2.89543 4 2 4.89543 2 6V18C2 19.1046 2.89543 20 4 20H20C21.1046 20 22 19.1046 22 18V8C22 6.89543 21.1046 6 20 6ZM13.91 12.14L11.91 13.84L12.52 16.38C12.5682 16.5755 12.4944 16.7808 12.3328 16.9009C12.1712 17.021 11.9533 17.0325 11.78 16.93L9.54 15.56L7.3 16.93C7.12538 17.0288 6.90904 17.0161 6.74724 16.8974C6.58544 16.7787 6.50824 16.5762 6.55 16.38L7.16 13.84L5.16 12.14C5.00571 12.0096 4.94508 11.7991 5.00634 11.6066C5.0676 11.414 5.2387 11.2773 5.44 11.26L8.05 11.06L9.05 8.63C9.12854 8.44562 9.30959 8.32596 9.51 8.32596C9.71041 8.32596 9.89146 8.44562 9.97 8.63L10.97 11.06L13.57 11.26C13.7821 11.2535 13.9752 11.3816 14.0517 11.5796C14.1282 11.7775 14.0714 12.0022 13.91 12.14Z" fill="#1E2128"/>
</svg>
