<svg width="24" height="24" viewBox="0 0 24 24" fill="#ADB5BD" xmlns="http://www.w3.org/2000/svg">
<path d="M20 6H14.41C14.1477 5.9989 13.8963 5.89474 13.71 5.71L12.29 4.29C12.1037 4.10526 11.8523 4.0011 11.59 4H4C2.89543 4 2 4.89543 2 6V18C2 19.1046 2.89543 20 4 20H20C21.1046 20 22 19.1046 22 18V8C22 6.89543 21.1046 6 20 6ZM9.5 7C10.3284 7 11 7.67157 11 8.5C11 9.32843 10.3284 10 9.5 10C8.67157 10 8 9.32843 8 8.5C8 7.67157 8.67157 7 9.5 7ZM19 16.5C19 16.7761 18.7761 17 18.5 17H5.5C5.22386 17 5 16.7761 5 16.5V16.16C4.99964 16.0501 5.03866 15.9436 5.11 15.86L8 12.19C8.08683 12.0827 8.21274 12.0144 8.35 12C8.50046 11.9983 8.64371 12.0644 8.74 12.18L10.19 13.93C10.2832 14.0441 10.4227 14.1102 10.57 14.11C10.727 14.1085 10.8746 14.0347 10.97 13.91L13.85 10.19C13.9467 10.0677 14.0941 9.99639 14.25 9.99639C14.4059 9.99639 14.5533 10.0677 14.65 10.19L18.9 15.86C18.9643 15.9469 18.9993 16.0519 19 16.16V16.5Z" fill="#1E2128"/>
</svg>
