<svg width="24" height="24" viewBox="0 0 24 24" fill="#ADB5BD" xmlns="http://www.w3.org/2000/svg">
<path d="M20 6H14.41C14.1477 5.9989 13.8963 5.89474 13.71 5.71L12.29 4.29C12.1037 4.10526 11.8523 4.0011 11.59 4H4C2.89543 4 2 4.89543 2 6V18C2 19.1046 2.89543 20 4 20H20C21.1046 20 22 19.1046 22 18V8C22 6.89543 21.1046 6 20 6ZM13 13.5C13 13.7761 12.7761 14 12.5 14H10V16.5C10 16.7761 9.77614 17 9.5 17H8.5C8.22386 17 8 16.7761 8 16.5V14H5.5C5.22386 14 5 13.7761 5 13.5V12.5C5 12.2239 5.22386 12 5.5 12H8V9.5C8 9.22386 8.22386 9 8.5 9H9.5C9.77614 9 10 9.22386 10 9.5V12H12.5C12.7761 12 13 12.2239 13 12.5V13.5Z" fill="#1E2128"/>
</svg>
