<svg width="24" height="24" viewBox="0 0 24 24" fill="#ADB5BD" xmlns="http://www.w3.org/2000/svg">
<path d="M20 6H14.41C14.1477 5.9989 13.8963 5.89474 13.71 5.71L12.29 4.29C12.1037 4.10526 11.8523 4.0011 11.59 4H4C2.89543 4 2 4.89543 2 6V18C2 19.1046 2.89543 20 4 20H20C21.1046 20 22 19.1046 22 18V8C22 6.89543 21.1046 6 20 6ZM11 14.5C11.0021 14.686 10.9009 14.8578 10.7371 14.946C10.5733 15.0342 10.3741 15.0242 10.22 14.92L8.28 13.62C8.10927 13.5109 7.89073 13.5109 7.72 13.62L5.78 14.92C5.6259 15.0242 5.4267 15.0342 5.26292 14.946C5.09914 14.8578 4.99785 14.686 5 14.5V7.5C5 7.22386 5.22386 7 5.5 7H10.5C10.7761 7 11 7.22386 11 7.5V14.5Z" fill="#1E2128"/>
</svg>
