<svg width="24" height="24" viewBox="0 0 24 24" fill="#ADB5BD" xmlns="http://www.w3.org/2000/svg">
<path d="M11.89 16.55C12.046 16.8595 12.0306 17.2277 11.8493 17.5231C11.668 17.8185 11.3466 17.999 11 18H1.00003C0.653433 17.999 0.332098 17.8185 0.150789 17.5231C-0.0305188 17.2277 -0.0459428 16.8595 0.110026 16.55L1.11003 14.65C1.6118 13.6539 2.62479 13.0183 3.74003 13H8.26003C9.3933 12.9997 10.4301 13.638 10.94 14.65L11.89 16.55ZM6.00003 11C7.65688 11 9.00003 9.65687 9.00003 8.00002C9.00003 6.34316 7.65688 5.00002 6.00003 5.00002C4.34317 5.00002 3.00003 6.34316 3.00003 8.00002C3.00003 9.65687 4.34317 11 6.00003 11ZM23.5 10H21V7.50002C21 7.22388 20.7762 7.00002 20.5 7.00002H19.5C19.2239 7.00002 19 7.22388 19 7.50002V10H16.5C16.2239 10 16 10.2239 16 10.5V11.5C16 11.7762 16.2239 12 16.5 12H19V14.5C19 14.7762 19.2239 15 19.5 15H20.5C20.7762 15 21 14.7762 21 14.5V12H23.5C23.7762 12 24 11.7762 24 11.5V10.5C24 10.2239 23.7762 10 23.5 10ZM11 11C12.1829 11.0023 13.2566 10.3093 13.7418 9.23054C14.227 8.15177 14.033 6.88862 13.2464 6.00517C12.4599 5.12172 11.2277 4.7829 10.1 5.14002C11.2983 6.8584 11.2983 9.14163 10.1 10.86C10.3912 10.9522 10.6946 10.9994 11 11ZM15.94 14.65C15.4301 13.638 14.3933 12.9997 13.26 13H12.26C12.443 13.2381 12.6037 13.4925 12.74 13.76L13.69 15.65C14.0517 16.3829 14.0986 17.2317 13.82 18H16C16.3466 17.999 16.668 17.8185 16.8493 17.5231C17.0306 17.2277 17.046 16.8595 16.89 16.55L15.94 14.65Z" fill="#1E2128"/>
</svg>
