<?xml version="1.0" encoding="UTF-8"?>
<svg width="24px" height="24px" viewBox="0 0 24 24" version="1.1" xmlns="http://www.w3.org/2000/svg" xmlns:xlink="http://www.w3.org/1999/xlink">
    <!-- Generator: Sketch 52 (66869) - http://www.bohemiancoding.com/sketch -->
    <title>follow</title>
    <desc>Created with Sketch.</desc>
    <g id="follow" stroke="none" stroke-width="1" fill="none" fill-rule="evenodd">
        <path d="M20.3404286,18.9932595 L8.89735747,18.9932595 C8.86979329,18.9971112 8.83435362,19 8.79448404,19 C8.68718062,19 8.54640644,18.9773712 8.41744544,18.8796341 C8.31112649,18.7982667 8.18413439,18.6413096 8.18413439,18.357246 L8.18068887,17.482908 C8.18068887,15.6779008 9.68490539,14.2099182 11.5336741,14.2099182 L17.6465225,14.2099182 C19.4957835,14.2099182 21,15.6779008 21,17.4809822 L21,18.3495426 C21,18.7043813 20.7046695,18.9932595 20.3404286,18.9932595 Z M14.5982199,12.7385652 C12.6987528,12.7385652 11.1581122,11.2301396 11.1581122,9.36880117 C11.1581122,7.50842562 12.6987528,6 14.5982199,6 C16.4981792,6 18.0383276,7.50842562 18.0383276,9.36880117 C18.0383276,11.2301396 16.4981792,12.7385652 14.5982199,12.7385652 Z M5.94789028,14.192104 L5.94789028,11.2994704 L3,11.2994704 L3,10.3355802 L5.94789028,10.3355802 L5.94789028,7.45113144 L6.93330959,7.45113144 L6.93330959,10.3355802 L9.89153643,10.3355802 L9.89153643,11.2994704 L6.93330959,11.2994704 L6.93330959,14.192104 L5.94789028,14.192104 Z" id="Shape" fill="#ADB5BD" fill-rule="nonzero"></path>
    </g>
</svg>