<?xml version="1.0" encoding="UTF-8"?>
<svg width="22px" height="14px" viewBox="0 0 22 14" version="1.1" xmlns="http://www.w3.org/2000/svg" xmlns:xlink="http://www.w3.org/1999/xlink">
    <!-- Generator: Sketch 51.2 (57519) - http://www.bohemiancoding.com/sketch -->
    <title>follow</title>
    <desc>Created with Sketch.</desc>
    <defs></defs>
    <g id="Components" stroke="none" stroke-width="1" fill="none" fill-rule="evenodd">
        <g id="Icon-Set" transform="translate(-444.000000, -411.000000)" fill-rule="nonzero">
            <g id="follow" transform="translate(443.000000, 406.000000)">
                <rect id="Rectangle" x="0" y="0" width="24" height="24"></rect>
                <path d="M21.7136251,18.5713269 L9.80553198,18.5713269 C9.77684765,18.57535 9.73996778,18.5783673 9.69847799,18.5783673 C9.58681399,18.5783673 9.44031905,18.5547318 9.30611735,18.4526464 C9.19547782,18.367659 9.06332504,18.2037188 9.06332504,17.9070174 L9.0597395,16.9937802 C9.0597395,15.1084686 10.6250842,13.5751757 12.5489829,13.5751757 L18.9102444,13.5751757 C20.8346553,13.5751757 22.4,15.1084686 22.4,16.9917687 L22.4,17.8989712 C22.4,18.2695966 22.0926679,18.5713269 21.7136251,18.5713269 Z M15.7380653,12.0383626 C13.7614079,12.0383626 12.1581589,10.4628275 12.1581589,8.51867844 C12.1581589,6.57553516 13.7614079,5 15.7380653,5 C17.7152349,5 19.3179716,6.57553516 19.3179716,8.51867844 C19.3179716,10.4628275 17.7152349,12.0383626 15.7380653,12.0383626 Z M4.46768623,13.556569 L4.46768623,10.5352427 L1.4,10.5352427 L1.4,9.52846923 L4.46768623,9.52846923 L4.46768623,6.51569198 L5.49315087,6.51569198 L5.49315087,9.52846923 L8.57159373,9.52846923 L8.57159373,10.5352427 L5.49315087,10.5352427 L5.49315087,13.556569 L4.46768623,13.556569 Z" id="Shape" fill="#ADB5BD"></path>
            </g>
        </g>
    </g>
</svg>