<svg width="24" height="24" viewBox="0 0 24 24" fill="#ADB5BD" xmlns="http://www.w3.org/2000/svg">
<path d="M20 4H4C2.89543 4 2 4.89543 2 6V18C2 19.1046 2.89543 20 4 20H20C21.1046 20 22 19.1046 22 18V6C22 4.89543 21.1046 4 20 4ZM20 18H4V8H20V18ZM6.5 16H10.5C10.7761 16 11 15.7761 11 15.5V10.5C11 10.2239 10.7761 10 10.5 10H6.5C6.22386 10 6 10.2239 6 10.5V15.5C6 15.7761 6.22386 16 6.5 16ZM13.5 12H17.5C17.7761 12 18 11.7761 18 11.5V10.5C18 10.2239 17.7761 10 17.5 10H13.5C13.2239 10 13 10.2239 13 10.5V11.5C13 11.7761 13.2239 12 13.5 12ZM13.5 16H15.5C15.7761 16 16 15.7761 16 15.5V14.5C16 14.2239 15.7761 14 15.5 14H13.5C13.2239 14 13 14.2239 13 14.5V15.5C13 15.7761 13.2239 16 13.5 16Z" fill="#1E2128"/>
</svg>
