<?xml version="1.0" encoding="UTF-8"?>
<svg width="22px" height="19px" viewBox="0 0 22 19" version="1.1" xmlns="http://www.w3.org/2000/svg" xmlns:xlink="http://www.w3.org/1999/xlink">
    <!-- Generator: Sketch 51.2 (57519) - http://www.bohemiancoding.com/sketch -->
    <title>fundraising</title>
    <desc>Created with Sketch.</desc>
    <defs></defs>
    <g id="Components" stroke="none" stroke-width="1" fill="none" fill-rule="evenodd">
        <g id="Icon-Set" transform="translate(-400.000000, -513.000000)">
            <g id="fundraising" transform="translate(399.000000, 511.000000)">
                <rect id="Rectangle" fill-rule="nonzero" x="0" y="0" width="24" height="24"></rect>
                <path d="M12.6004444,19.3106448 C13.9716115,19.2742567 15.0749444,18.2121939 15.0749444,16.9123333 L15.0749444,12.0780725 L16.3333889,13.780256 C16.4197222,13.897058 16.5208333,13.9982367 16.6305,14.088256 L16.6305,16.9123333 C16.6305,19.055686 14.7902778,20.7995314 12.5277222,20.7995314 L5.60316667,20.7995314 C3.34061111,20.7995314 1.50038889,19.055686 1.50038889,16.9123333 L1.50038889,10.3513382 C1.50038889,8.20724155 3.34061111,6.4641401 5.60316667,6.4641401 L11.6006111,6.4641401 L10.4393889,7.9520628 L5.60316667,7.9520628 C4.19772222,7.9520628 3.05594444,9.02783092 3.05594444,10.3513382 L3.05594444,10.3842957 L9.7068,10.3842957 C9.71224444,10.3947111 9.71302222,10.4051266 9.71846667,10.4147981 C9.98263559,10.9122062 10.4785916,11.2393415 11.0448889,11.3044968 L11.0448889,11.2887295 C11.1156667,11.297657 11.1825556,11.316256 11.2548889,11.316256 C11.2618889,11.316256 11.2704444,11.316256 11.2782222,11.316256 L12.1427521,11.3060409 L14.4831333,11.2777932 L14.9225778,11.8722184 L12.6004444,11.8722184 L12.6004444,19.3106448 Z M11.0448889,19.3116087 L11.0448889,11.8722184 L3.05594444,11.8722184 L3.05594444,16.9123333 C3.05594444,18.2350966 4.19772222,19.3116087 5.60316667,19.3116087 L11.0448889,19.3116087 Z M13.0240684,3.15453857 L15.5811865,3.98389107 C15.7851745,4.04982661 16.0093268,4.01573749 16.181427,3.89283723 L18.3455751,2.34851021 C18.7793426,2.0385683 19.3959959,2.33953938 19.3889619,2.85715582 L19.3547294,5.43940695 C19.3519158,5.64483878 19.4550821,5.83860854 19.6304648,5.95747193 L21.8349417,7.44842256 C22.2766811,7.74759948 22.1688254,8.40157241 21.651587,8.555422 L19.0733667,9.32197875 C18.8684408,9.38298034 18.7075952,9.53682994 18.6433507,9.7328424 L17.8419359,12.1989214 C17.6815591,12.6936622 16.9983167,12.7972752 16.6855351,12.374301 L15.1263168,10.2657092 C15.0025172,10.0979549 14.7994671,9.99927582 14.5846936,10.0019671 L11.8850184,10.0347106 C11.3438641,10.0414387 11.0292068,9.45160713 11.3532428,9.03670661 L12.9682648,6.96668941 C13.0962848,6.80207483 13.1319241,6.58722364 13.0629902,6.3925568 L12.1959242,3.94666216 C12.0219482,3.45640673 12.5115193,2.98812982 13.0240684,3.15453857 Z M7.72222222,9.96038647 C7.29266742,9.96038647 6.94444444,9.62730363 6.94444444,9.21642512 C6.94444444,8.80554661 7.29266742,8.47246377 7.72222222,8.47246377 C8.15177703,8.47246377 8.5,8.80554661 8.5,9.21642512 C8.5,9.62730363 8.15177703,9.96038647 7.72222222,9.96038647 Z" id="shape" fill="#ADB5BD"></path>
            </g>
        </g>
    </g>
</svg>