<?xml version="1.0" encoding="UTF-8"?>
<svg width="24px" height="24px" viewBox="0 0 24 24" version="1.1" xmlns="http://www.w3.org/2000/svg" xmlns:xlink="http://www.w3.org/1999/xlink">
    <!-- Generator: Sketch 52 (66869) - http://www.bohemiancoding.com/sketch -->
    <title>fundraising</title>
    <desc>Created with Sketch.</desc>
    <g id="fundraising" stroke="none" stroke-width="1" fill="none" fill-rule="evenodd">
        <path d="M12.7711466,19.5573071 C14.1016842,19.522048 15.172324,18.4929363 15.172324,17.2334048 L15.172324,12.5491299 L16.3934791,14.1985022 C16.4772543,14.3116802 16.5753693,14.4097199 16.6817864,14.4969463 L16.6817864,17.2334048 C16.6817864,19.3102585 14.8960924,21 12.7005793,21 L5.98120719,21 C3.78569407,21 2,19.3102585 2,17.2334048 L2,10.8759687 C2,8.79839404 3.78569407,7.10937344 5.98120719,7.10937344 L11.8009396,7.10937344 L10.6741259,8.55113238 L5.98120719,8.55113238 C4.61740788,8.55113238 3.50946244,9.5935241 3.50946244,10.8759687 L3.50946244,10.9079036 L9.96324459,10.9079036 C9.96852771,10.917996 9.96928244,10.9280883 9.97456556,10.9374597 C10.2309068,11.4194354 10.712167,11.7364211 11.2616842,11.7995549 L11.2616842,11.7842768 C11.3303647,11.7929274 11.3952716,11.8109494 11.4654616,11.8109494 C11.4722542,11.8109494 11.4805562,11.8109494 11.4881035,11.8109494 L12.3270163,11.8010511 L14.598049,11.7736799 L15.0244722,12.3496626 L12.7711466,12.3496626 L12.7711466,19.5573071 Z M11.2616842,19.5582411 L11.2616842,12.3496626 L3.50946244,12.3496626 L3.50946244,17.2334048 C3.50946244,18.5151285 4.61740788,19.5582411 5.98120719,19.5582411 L11.2616842,19.5582411 Z M13.1822181,3.90245443 L15.6635655,4.70607573 C15.861509,4.76996558 16.0790194,4.7369341 16.24602,4.61784689 L18.3460417,3.12143361 C18.7669561,2.82110786 19.3653372,3.11274112 19.3585115,3.61429817 L19.3252934,6.1164333 C19.3225632,6.31549147 19.4226725,6.5032494 19.5928585,6.61842497 L21.7320138,8.0631179 C22.160664,8.35301266 22.0560042,8.98669566 21.5540922,9.13577198 L19.0522678,9.87854581 C18.8534142,9.93765478 18.6973346,10.0867311 18.6349938,10.2766621 L17.8573259,12.6662295 C17.7017014,13.1456206 17.0387043,13.246019 16.7351908,12.8361678 L15.2221741,10.7929964 C15.1020429,10.6304468 14.9050094,10.5348293 14.6965999,10.537437 L12.0769195,10.5691647 C11.5518004,10.575684 11.2464668,10.0041524 11.5609012,9.60212442 L13.128068,7.59633084 C13.2522946,7.43682352 13.2868779,7.22863823 13.2199866,7.04001106 L12.3786128,4.67000187 C12.209792,4.19495694 12.6848565,3.74120862 13.1822181,3.90245443 Z M8.03747241,10.4971465 C7.62064586,10.4971465 7.28274118,10.1743978 7.28274118,9.77626705 C7.28274118,9.37813631 7.62064586,9.05538757 8.03747241,9.05538757 C8.45429895,9.05538757 8.79220363,9.37813631 8.79220363,9.77626705 C8.79220363,10.1743978 8.45429895,10.4971465 8.03747241,10.4971465 Z" id="shape" fill="#ADB5BD"></path>
    </g>
</svg>