<?xml version="1.0" encoding="utf-8"?>
<!-- Generator: Adobe Illustrator 28.0.0, SVG Export Plug-In . SVG Version: 6.00 Build 0)  -->
<svg version="1.1" id="gender" xmlns="http://www.w3.org/2000/svg" xmlns:xlink="http://www.w3.org/1999/xlink" x="0px" y="0px"
	 width="24px" height="24px" viewBox="0 0 24 24" style="enable-background:new 0 0 24 24;" xml:space="preserve">
<path d="M21.179,3.627h-1.104h-2.482c-0.109,0-0.198,0.089-0.198,0.198v1.104c0,0.109,0.089,0.198,0.198,0.198h1.205h0.008
	l-1.366,1.366c-0.922-0.698-2.066-1.117-3.312-1.117c-0.104,0-0.205,0.01-0.308,0.016c-0.033,0.002-0.066,0.003-0.099,0.005
	c-0.29,0.021-0.573,0.065-0.849,0.129c-0.05,0.011-0.098,0.025-0.148,0.038c-0.269,0.071-0.532,0.158-0.783,0.267
	c-0.056,0.024-0.11,0.054-0.166,0.08c-0.225,0.107-0.443,0.228-0.65,0.363c-0.864-0.565-1.895-0.896-3.004-0.896
	c-3.036,0-5.498,2.461-5.498,5.498c0,2.78,2.066,5.073,4.746,5.44c0.001,0,0.002,0,0.002,0.001v0.915v0.565H6.318
	c-0.104,0.006-0.187,0.088-0.188,0.193v1.109c0.001,0.109,0.089,0.198,0.198,0.198h1.043h0.002v0.885
	c0.004,0.107,0.089,0.193,0.196,0.193h1.107c0.108,0,0.194-0.087,0.197-0.194v-0.883h0.002h1.043c0.11,0,0.199-0.089,0.199-0.199
	v-1.107c0-0.106-0.084-0.188-0.189-0.195H8.874v-0.579v-0.901c0.819-0.112,1.569-0.421,2.232-0.852
	c0.033,0.02,0.065,0.039,0.097,0.06c0.257,0.162,0.525,0.307,0.807,0.425c0.045,0.019,0.091,0.032,0.136,0.05
	c0.289,0.112,0.589,0.204,0.899,0.267c0.029,0.006,0.058,0.008,0.086,0.013c0.318,0.058,0.644,0.093,0.979,0.094
	c0.004,0,0.008,0.001,0.013,0.001c0.002,0,0.004,0,0.006,0c0.351,0,0.693-0.036,1.026-0.099c0.007-0.001,0.014-0.002,0.022-0.003
	c0.349-0.067,0.686-0.169,1.009-0.299c0.002-0.001,0.004-0.001,0.005-0.002c2.014-0.816,3.436-2.788,3.436-5.094
	c0-1.25-0.422-2.398-1.124-3.322l1.374-1.374v0.009v1.224c0,0.109,0.089,0.198,0.198,0.198h1.104c0.109,0,0.198-0.089,0.198-0.198
	V4.929V3.825C21.377,3.716,21.289,3.627,21.179,3.627z M11.12,13.499c-0.616-0.701-0.991-1.618-0.991-2.625s0.375-1.924,0.991-2.625
	c0.617,0.704,1.004,1.616,1.004,2.625C12.124,11.884,11.737,12.796,11.12,13.499z M8.124,14.874c-2.209,0-4-1.791-4-4
	c0-2.209,1.791-4,4-4c0.661,0,1.276,0.176,1.825,0.46C9.827,7.477,9.699,7.616,9.592,7.772C9.541,7.846,9.497,7.923,9.45,7.999
	c-0.142,0.23-0.271,0.468-0.378,0.719C9.035,8.804,9.006,8.892,8.974,8.979C8.888,9.213,8.814,9.453,8.76,9.701
	C8.737,9.806,8.722,9.91,8.705,10.015c-0.034,0.219-0.056,0.442-0.064,0.669c-0.004,0.127-0.004,0.253,0,0.38
	c0.008,0.227,0.03,0.45,0.064,0.669c0.017,0.105,0.032,0.209,0.055,0.313c0.054,0.248,0.128,0.489,0.214,0.723
	c0.032,0.087,0.06,0.174,0.097,0.26c0.107,0.251,0.237,0.49,0.379,0.721c0.047,0.076,0.091,0.152,0.141,0.226
	c0.107,0.156,0.235,0.295,0.358,0.438C9.4,14.698,8.785,14.874,8.124,14.874z M17.584,12.885c-0.337,0.563-0.772,1.005-1.262,1.329
	c-0.003,0.002-0.007,0.003-0.01,0.005c-0.215,0.141-0.441,0.259-0.674,0.355c-0.064,0.026-0.133,0.039-0.198,0.062
	c-0.178,0.062-0.357,0.124-0.54,0.16c-0.192,0.037-0.392,0.051-0.592,0.06c-0.061,0.003-0.121,0.017-0.182,0.017
	c-0.271,0-0.535-0.028-0.791-0.08c-0.052-0.01-0.101-0.033-0.153-0.045c-0.206-0.05-0.41-0.106-0.602-0.187
	c-0.029-0.012-0.056-0.032-0.085-0.045c-0.063-0.028-0.12-0.066-0.181-0.097c0.813-0.957,1.309-2.191,1.309-3.545
	c0-1.354-0.491-2.591-1.303-3.549c0.061-0.031,0.118-0.069,0.181-0.097c0.027-0.012,0.051-0.03,0.078-0.041
	c0.195-0.082,0.402-0.139,0.611-0.19c0.048-0.012,0.095-0.033,0.143-0.043c0.256-0.052,0.521-0.08,0.793-0.08
	c0.053,0,0.105,0.013,0.157,0.015c0.21,0.008,0.417,0.023,0.617,0.062c0.18,0.036,0.356,0.097,0.531,0.157
	c0.068,0.024,0.141,0.037,0.207,0.064c0.232,0.095,0.456,0.212,0.67,0.352c0.004,0.003,0.01,0.005,0.014,0.008
	c0.483,0.319,0.913,0.754,1.248,1.307C18.314,10.064,18.319,11.657,17.584,12.885z"/>
</svg>
