<svg width="24" height="24" viewBox="0 0 24 24" fill="none" xmlns="http://www.w3.org/2000/svg">
<path fill-rule="evenodd" clip-rule="evenodd" d="M5 3C3.89543 3 3 3.89543 3 5V19C3 20.1046 3.89543 21 5 21H14.5V21.2185C14.5 21.9483 15.2564 22.4323 15.9191 22.1265L17 21.6276L18.0809 22.1265C18.7436 22.4323 19.5 21.9483 19.5 21.2185V18.6182L20.1108 18.5694C20.3555 18.5499 20.5499 18.3555 20.5694 18.1108L20.6826 16.6921C20.691 16.5872 20.7323 16.4876 20.8005 16.4075L21.7236 15.3243C21.8829 15.1374 21.8829 14.8626 21.7236 14.6757L20.8005 13.5925C20.7323 13.5124 20.691 13.4128 20.6826 13.3079L20.5694 11.8892C20.5499 11.6445 20.3555 11.4501 20.1108 11.4306L18.6921 11.3174C18.5872 11.309 18.4876 11.2677 18.4075 11.1995L18 10.8522V5C18 3.89543 17.1046 3 16 3H5ZM13.4217 12H5.5C5.22386 12 5 12.2239 5 12.5V13.5C5 13.7761 5.22386 14 5.5 14H12.8522L13.1995 13.5925C13.2677 13.5124 13.309 13.4128 13.3174 13.3079L13.4217 12ZM12.8522 16H5.5C5.22386 16 5 16.2239 5 16.5V17.5C5 17.7761 5.22386 18 5.5 18H13.4217L13.3174 16.6921C13.309 16.5872 13.2677 16.4876 13.1995 16.4075L12.8522 16ZM15.5 18.7381V21.2185L16.5809 20.7197C16.8468 20.5969 17.1532 20.5969 17.4191 20.7197L18.5 21.2185V18.7381C18.4671 18.7553 18.4361 18.7762 18.4075 18.8005L17.3243 19.7236C17.1374 19.8829 16.8626 19.8829 16.6757 19.7236L15.5925 18.8005C15.5639 18.7762 15.5329 18.7553 15.5 18.7381ZM9.89706 10.0184C9.93124 10.0526 9.97472 10.0718 10.0194 10.076C10.0271 10.0768 10.0349 10.0771 10.0427 10.0769C10.0925 10.0759 10.142 10.0564 10.18 10.0184L13.4326 6.76568C13.5107 6.68758 13.5107 6.56095 13.4326 6.48284L13.0084 6.05858C12.9303 5.98047 12.8036 5.98047 12.7255 6.05858L10.0385 8.74561L8.76569 7.47279C8.68758 7.39468 8.56095 7.39468 8.48285 7.47279L8.05858 7.89705C7.98048 7.97516 7.98048 8.10179 8.05858 8.1799L9.89706 10.0184ZM16.2411 11.9606L17 11.3139L17.7589 11.9606C17.9992 12.1653 18.2979 12.2891 18.6125 12.3142L19.6065 12.3935L19.6858 13.3875C19.7109 13.7021 19.8347 14.0008 20.0394 14.2411L20.6861 15L20.0394 15.7589C19.8347 15.9992 19.7109 16.2979 19.6858 16.6125L19.6065 17.6065L18.6125 17.6858C18.2979 17.7109 17.9992 17.8347 17.7589 18.0394L17 18.6861L16.2411 18.0394C16.0008 17.8347 15.7021 17.7109 15.3875 17.6858L14.3935 17.6065L14.3142 16.6125C14.2891 16.2979 14.1653 15.9992 13.9606 15.7589L13.3139 15L13.9606 14.2411C14.1653 14.0008 14.2891 13.7021 14.3142 13.3875L14.3935 12.3935L15.3875 12.3142C15.7021 12.2891 16.0008 12.1653 16.2411 11.9606Z" fill="#1E2128"/>
</svg>
