<?xml version="1.0" encoding="UTF-8"?>
<svg width="24px" height="24px" viewBox="0 0 24 24" version="1.1" xmlns="http://www.w3.org/2000/svg" xmlns:xlink="http://www.w3.org/1999/xlink">
    <!-- Generator: Sketch 55.1 (78136) - https://sketchapp.com -->
    <title>grid</title>
    <desc>Created with Sketch.</desc>
    <g id="grid" stroke="none" stroke-width="1" fill="none" fill-rule="evenodd">
        <path d="M3.8372093,10.9534884 C3.37483137,10.9534884 3,10.578657 3,10.1162791 L3,3.8372093 C3,3.37483137 3.37483137,3 3.8372093,3 L10.1162791,3 C10.578657,3 10.9534884,3.37483137 10.9534884,3.8372093 L10.9534884,10.1162791 C10.9534884,10.578657 10.578657,10.9534884 10.1162791,10.9534884 L3.8372093,10.9534884 Z M20.1627907,3 C20.6251686,3 21,3.37483137 21,3.8372093 L21,10.1162791 C21,10.578657 20.6251686,10.9534884 20.1627907,10.9534884 L13.8837209,10.9534884 C13.421343,10.9534884 13.0465116,10.578657 13.0465116,10.1162791 L13.0465116,3.8372093 C13.0465116,3.37483137 13.421343,3 13.8837209,3 L20.1627907,3 Z M20.1627907,13.0465116 C20.6251686,13.0465116 21,13.421343 21,13.8837209 L21,20.1627907 C21,20.6251686 20.6251686,21 20.1627907,21 L13.8837209,21 C13.421343,21 13.0465116,20.6251686 13.0465116,20.1627907 L13.0465116,13.8837209 C13.0465116,13.421343 13.421343,13.0465116 13.8837209,13.0465116 L20.1627907,13.0465116 Z M10.9534884,20.1627907 C10.9534884,20.6251686 10.578657,21 10.1162791,21 L3.8372093,21 C3.37483137,21 3,20.6251686 3,20.1627907 L3,13.8837209 C3,13.421343 3.37483137,13.0465116 3.8372093,13.0465116 L10.1162791,13.0465116 C10.578657,13.0465116 10.9534884,13.421343 10.9534884,13.8837209 L10.9534884,20.1627907 Z" id="Grid" fill="#ADB5BD" fill-rule="nonzero"></path>
    </g>
</svg>
