<?xml version="1.0" encoding="UTF-8"?>
<svg width="24px" height="24px" viewBox="0 0 24 24" version="1.1" xmlns="http://www.w3.org/2000/svg" xmlns:xlink="http://www.w3.org/1999/xlink">
    <!-- Generator: Sketch 60.1 (88133) - https://sketch.com -->
    <title>icon/grey/hashtag</title>
    <desc>Created with Sketch.</desc>
    <g id="icon/grey/hashtag" stroke="none" stroke-width="1" fill="none" fill-rule="evenodd">
        <g id="hashtag" transform="translate(2.000000, 3.000000)" fill="#ADB5BD" fill-rule="nonzero">
            <path d="M20,3.48837209 L19.3023255,7.20930231 L15.8139535,7.20930231 L15.1162791,10.9302326 L18.6046512,10.9302326 L18.1395349,14.6511628 L14.4186046,14.6511628 L13.9534884,18.1395349 L10.2325581,18.1395349 L10.9302326,14.6511628 L7.20930232,14.6511628 L6.51162791,18.1395349 L3.02325582,18.1395349 L3.48837209,14.6511628 L0,14.6511628 L0.697674418,10.9302326 L4.18604651,10.9302326 L4.88372092,7.20930231 L1.39534884,7.20930231 L1.86046512,3.48837209 L5.58139535,3.48837209 L6.04651163,0 L9.76744186,0 L9.06976745,3.48837209 L12.7906977,3.48837209 L13.4883721,0 L16.9767442,0 L16.5116278,3.48837209 L20,3.48837209 Z M12.0930233,7.20930231 L8.37209303,7.20930231 L7.6744186,10.9302326 L11.627907,10.9302326 L12.0930233,7.20930231 Z" id="Shape"></path>
        </g>
    </g>
</svg>