<svg width="24" height="24" viewBox="0 0 24 24" fill="#ADB5BD" xmlns="http://www.w3.org/2000/svg">
<path d="M20.5 8H17.5L19 3.66C19.0263 3.58264 19.0332 3.50001 19.0201 3.41936C19.007 3.33871 18.9744 3.26249 18.9251 3.19737C18.8757 3.13225 18.8112 3.0802 18.7371 3.0458C18.663 3.01139 18.5816 2.99567 18.5 3H17.42C17.3147 3.00017 17.212 3.03295 17.126 3.09383C17.0401 3.15471 16.9751 3.2407 16.94 3.34L15.34 8H11.4L12.89 3.66C12.9153 3.58508 12.9225 3.50522 12.9109 3.42699C12.8994 3.34875 12.8695 3.27437 12.8236 3.20995C12.7777 3.14554 12.7172 3.09292 12.647 3.05642C12.5769 3.01992 12.4991 3.00059 12.42 3H11.34C11.2347 3.00017 11.132 3.03295 11.046 3.09383C10.9601 3.15471 10.8951 3.2407 10.86 3.34L9.26 8H5.5C5.36739 8 5.24021 8.05268 5.14645 8.14645C5.05268 8.24022 5 8.36739 5 8.5V9.5C5 9.63261 5.05268 9.75979 5.14645 9.85356C5.24021 9.94732 5.36739 10 5.5 10H8.58L7.2 14H3.5C3.36739 14 3.24021 14.0527 3.14645 14.1464C3.05268 14.2402 3 14.3674 3 14.5V15.5C3 15.6326 3.05268 15.7598 3.14645 15.8536C3.24021 15.9473 3.36739 16 3.5 16H6.5L5 20.34C4.97374 20.4174 4.96684 20.5 4.9799 20.5806C4.99296 20.6613 5.02559 20.7375 5.07492 20.8026C5.12426 20.8678 5.1888 20.9198 5.26291 20.9542C5.33701 20.9886 5.41841 21.0043 5.5 21H6.57C6.67532 20.9998 6.77801 20.9671 6.86396 20.9062C6.9499 20.8453 7.01489 20.7593 7.05 20.66L8.65 16H12.6L11.11 20.34C11.0847 20.4149 11.0775 20.4948 11.0891 20.573C11.1006 20.6513 11.1305 20.7256 11.1764 20.7901C11.2223 20.8545 11.2828 20.9071 11.353 20.9436C11.4231 20.9801 11.5009 20.9994 11.58 21H12.65C12.7553 20.9998 12.858 20.9671 12.944 20.9062C13.0299 20.8453 13.0949 20.7593 13.13 20.66L14.73 16H18.5C18.6326 16 18.7598 15.9473 18.8536 15.8536C18.9473 15.7598 19 15.6326 19 15.5V14.5C19 14.3674 18.9473 14.2402 18.8536 14.1464C18.7598 14.0527 18.6326 14 18.5 14H15.42L16.79 10H20.5C20.6326 10 20.7598 9.94732 20.8536 9.85356C20.9473 9.75979 21 9.63261 21 9.5V8.5C21 8.36739 20.9473 8.24022 20.8536 8.14645C20.7598 8.05268 20.6326 8 20.5 8ZM13.28 14H9.34L10.71 10H14.66L13.28 14Z" fill="#1E2128"/>
</svg>
