<?xml version="1.0" encoding="UTF-8"?>
<svg width="18px" height="15px" viewBox="0 0 18 15" version="1.1" xmlns="http://www.w3.org/2000/svg" xmlns:xlink="http://www.w3.org/1999/xlink">
    <!-- Generator: Sketch 57.1 (83088) - https://sketch.com -->
    <title>heart</title>
    <desc>Created with Sketch.</desc>
    <g id="Symbols" stroke="none" stroke-width="1" fill="none" fill-rule="evenodd">
        <g id="icon/grey/heart" fill="#ADB5BD" fill-rule="nonzero">
            <path d="M8.69636846,1.93943236 C7.78902605,0.707836771 6.35629023,-0.0123974019 4.83864712,0.000161571047 C2.16984462,0.00871708841 0.00845137224,2.19674482 -1.59872116e-14,4.89843452 C-1.59872116e-14,6.90227346 1.45379352,9.11540219 4.32399102,11.4999705 C5.66432896,12.6068503 7.09129284,13.6016526 8.59079803,14.4745581 C8.62322186,14.4922754 8.65952311,14.5014626 8.69636846,14.5012841 C8.73321381,14.5014626 8.76951506,14.4922754 8.80193897,14.4745581 C10.3053528,13.6115738 11.7361099,12.6248828 13.0797429,11.5244619 C15.9543391,9.1487996 17.4015345,6.92231185 17.4015345,4.90956696 C17.3930831,2.20787725 15.2316899,0.0198495268 12.5628875,0.0112940102 C11.0441085,-0.00672872959 9.60787457,0.709485988 8.69636846,1.93943236 Z" id="Shape"></path>
        </g>
    </g>
</svg>
