<?xml version="1.0" encoding="UTF-8"?>
<svg width="16px" height="16px" viewBox="0 0 16 16" version="1.1" xmlns="http://www.w3.org/2000/svg" xmlns:xlink="http://www.w3.org/1999/xlink">
    <!-- Generator: Sketch 51.2 (57519) - http://www.bohemiancoding.com/sketch -->
    <title>help_chat</title>
    <desc>Created with Sketch.</desc>
    <defs></defs>
    <g id="Components" stroke="none" stroke-width="1" fill="none" fill-rule="evenodd">
        <g id="Icon-Set" transform="translate(-579.000000, -516.000000)">
            <g id="help_chat" transform="translate(575.000000, 511.000000)">
                <rect id="Rectangle" fill-rule="nonzero" x="0" y="0" width="24" height="24"></rect>
                <path d="M15.3333333,16.0922177 L12,20.3584553 L8.66666667,16.0922177 L5.81058824,16.0922177 C4.81062796,16.0922177 4,15.2815898 4,14.2816295 L4,6.81058824 C4,5.81062796 4.81062796,5 5.81058824,5 L18.1894118,5 C19.189372,5 20,5.81062796 20,6.81058824 L20,14.2816295 C20,15.2815898 19.189372,16.0922177 18.1894118,16.0922177 L15.3333333,16.0922177 Z M15.4819736,12.9927903 C15.7491906,12.9927903 15.9658792,12.7761016 15.9658792,12.5088846 C15.9658792,12.2416676 15.7491906,12.024979 15.4819736,12.024979 L8.37108679,12.024979 C8.10386981,12.024979 7.88718113,12.2416676 7.88718113,12.5088846 C7.88718113,12.7761016 8.10386981,12.9927903 8.37108679,12.9927903 L15.4819736,12.9927903 Z M15.4819736,8.88299311 C15.7491906,8.88299311 15.9658792,8.66630443 15.9658792,8.39908745 C15.9658792,8.13187047 15.7491906,7.91518179 15.4819736,7.91518179 L8.37108679,7.91518179 C8.10386981,7.91518179 7.88718113,8.13187047 7.88718113,8.39908745 C7.88718113,8.66630443 8.10386981,8.88299311 8.37108679,8.88299311 L15.4819736,8.88299311 Z" id="shape" fill="#ADB5BD"></path>
            </g>
        </g>
    </g>
</svg>