<svg width="24" height="24" viewBox="0 0 24 24" fill="#ADB5BD" xmlns="http://www.w3.org/2000/svg">
<path d="M20 3H4C2.89543 3 2 3.89543 2 5V17C2 18.1046 2.89543 19 4 19H9.09C9.35234 19.0011 9.60374 19.1053 9.79 19.29L11.28 20.78C11.4205 20.9207 11.6112 20.9998 11.81 21H12.19C12.3888 20.9998 12.5795 20.9207 12.72 20.78L14.21 19.29C14.3963 19.1053 14.6477 19.0011 14.91 19H20C21.1046 19 22 18.1046 22 17V5C22 3.89543 21.1046 3 20 3ZM9.5 6C10.3284 6 11 6.67157 11 7.5C11 8.32843 10.3284 9 9.5 9C8.67157 9 8 8.32843 8 7.5C8 6.67157 8.67157 6 9.5 6ZM19 15.5C19 15.7761 18.7761 16 18.5 16H5.5C5.22386 16 5 15.7761 5 15.5V15.16C4.99964 15.0501 5.03866 14.9436 5.11 14.86L8 11.19C8.08683 11.0827 8.21274 11.0144 8.35 11C8.50046 10.9983 8.64371 11.0644 8.74 11.18L10.19 12.93C10.2832 13.0441 10.4227 13.1102 10.57 13.11C10.727 13.1085 10.8746 13.0347 10.97 12.91L13.85 9.19C13.9467 9.06771 14.0941 8.99639 14.25 8.99639C14.4059 8.99639 14.5533 9.06771 14.65 9.19L18.9 14.86C18.9643 14.9469 18.9993 15.0519 19 15.16V15.5Z" fill="#1E2128"/>
</svg>
