<?xml version="1.0" encoding="UTF-8"?>
<svg width="24px" height="24px" viewBox="0 0 24 24" version="1.1" xmlns="http://www.w3.org/2000/svg" xmlns:xlink="http://www.w3.org/1999/xlink">
    <title>icon/grey/info</title>
    <g id="icon/grey/icon" stroke="none" stroke-width="1" fill="none" fill-rule="evenodd">
        <path d="M12,2 C6.46666667,2 2,6.46666667 2,12 C2,17.5333333 6.46666667,22 12,22 C17.5333333,22 22,17.5333333 22,12 C22,6.46666667 17.5333333,2 12,2 Z M13.1333333,15.9333333 L13.1333333,16.4222222 C13.0222222,16.5111111 12.8666667,16.5777778 12.7111111,16.6666667 C12.5555556,16.7333333 12.3777778,16.8 12.2,16.8666667 C12.0222222,16.9333333 11.8444444,16.9777778 11.6666667,17 C11.4888889,17.0222222 11.3111111,17.0444444 11.1555556,17.0444444 C10.8,17.0444444 10.5777778,16.9777778 10.4444444,16.8444444 C10.2888889,16.7111111 10.2222222,16.5555556 10.2222222,16.4 C10.2222222,16.2222222 10.2444444,16.0444444 10.2666667,15.8666667 C10.2888889,15.6888889 10.3333333,15.5111111 10.3777778,15.2888889 L11.3111111,11.0444444 L10.4444444,10.8444444 L10.4444444,10.3777778 C10.5777778,10.3333333 10.7555556,10.2666667 11,10.2 C11.2222222,10.1333333 11.4666667,10.0888889 11.7333333,10.0444444 C12,10 12.2444444,9.95555556 12.4888889,9.93333333 C12.7333333,9.91111111 12.9555556,9.88888889 13.1555556,9.88888889 L13.4,10.0444444 L12.1555556,15.9333333 L13.1333333,15.9333333 Z M13.5555556,8.46666667 C13.3555556,8.64444444 13.0666667,8.73333333 12.7333333,8.73333333 C12.4222222,8.73333333 12.1555556,8.64444444 11.9333333,8.46666667 C11.7333333,8.28888889 11.6222222,8.06666667 11.6222222,7.77777778 C11.6222222,7.46666667 11.7333333,7.22222222 11.9333333,7.04444444 C12.1333333,6.86666667 12.4,6.77777778 12.7333333,6.77777778 C13.0888889,6.77777778 13.3555556,6.86666667 13.5555556,7.04444444 C13.7555556,7.22222222 13.8666667,7.46666667 13.8666667,7.77777778 C13.8444444,8.06666667 13.7555556,8.28888889 13.5555556,8.46666667 Z" id="Shape" fill="#ACB4BD" fill-rule="nonzero"></path>
    </g>
</svg>
