<?xml version="1.0" encoding="UTF-8"?>
<svg width="24px" height="24px" viewBox="0 0 24 24" version="1.1" xmlns="http://www.w3.org/2000/svg" xmlns:xlink="http://www.w3.org/1999/xlink">
    <!-- Generator: Sketch 52 (66869) - http://www.bohemiancoding.com/sketch -->
    <title>inspiration</title>
    <desc>Created with Sketch.</desc>
    <g id="inspiration" stroke="none" stroke-width="1" fill="none" fill-rule="evenodd">
        <path d="M11.7646868,3.00291995 C10.9687853,3.02358572 10.1646435,3.15109774 9.38297252,3.3895245 C9.13236197,3.63731132 8.85472451,4.02277152 8.65352735,4.47025997 C8.39892323,5.03622374 8.25920454,5.69084507 8.33713539,6.29784516 C8.39689832,6.76391874 8.64705889,7.07278626 9.01384857,7.51037764 C9.38063825,7.94796901 9.85739172,8.5039148 10.0245592,9.35553576 C10.1832614,10.1647849 10.1170019,10.867899 10.1212204,11.5082202 C10.125439,12.1485414 10.1785366,12.7315523 10.5342736,13.4324566 C10.6803202,13.7201438 10.8382349,13.9373171 10.9825096,14.0650822 C11.1267844,14.1928529 11.2366638,14.2493112 11.4395202,14.2495924 C11.7112798,14.2495924 11.8526016,14.1793569 11.9932202,14.0562957 C12.1337826,13.9332486 12.2692265,13.7234897 12.3799215,13.441243 C12.6011709,12.8767526 12.7071974,12.060255 12.8544813,11.3237044 C12.9815162,10.6891443 13.4492982,10.3366566 13.8564173,9.97937493 C14.2634802,9.62209327 14.6687431,9.26816594 14.9022544,8.88985299 C15.3071237,8.2339158 15.5635839,7.73875268 15.6580797,6.877752 C15.7653155,5.90060405 15.703387,4.61186409 15.069225,3.54768092 C14.0143321,3.16603052 12.8946139,2.97358299 11.7646868,3.00291995 Z M7.50219811,4.20666596 C3.19850815,6.6907816 1.72170299,12.1963173 4.20643449,16.498928 C6.69122225,20.8015415 12.1981016,22.2779773 16.5017916,19.7938673 C16.5203532,19.7831829 16.5361588,19.7694057 16.5545236,19.7587214 C16.1415266,19.559852 15.6710728,19.2817217 15.2626038,18.8800747 C15.2564166,18.873889 15.2510731,18.8685468 15.2448858,18.8626423 C14.3734158,18.0747282 14.0073574,17.0242603 14.427554,16.1564104 C14.8508724,15.2821218 15.9136119,14.8120669 17.3366164,14.8120669 C17.3484283,14.8117857 17.359959,14.8117857 17.371771,14.8120669 C17.914334,14.844626 18.5435743,14.9282169 19.1295041,15.058088 C19.5688811,15.1554842 19.9711067,15.2620183 20.3159599,15.4271196 C21.3420542,12.9347826 21.2489084,10.0151984 19.7974427,7.50173175 C18.9922322,6.10754574 17.8674517,5.01253262 16.5719884,4.25073888 C16.8576692,5.23393753 16.8691156,6.21545481 16.7829164,7.00090312 C16.6670466,8.05639261 16.2810484,8.78245846 15.8513178,9.47868688 C15.4875655,10.0679734 14.9860632,10.4794135 14.5945527,10.8230164 C14.202986,11.1666193 13.9803023,11.4505276 13.9617688,11.5435067 C13.8277874,12.2127909 13.7282294,13.082519 13.4256462,13.8543476 C13.2743405,14.2402576 13.0710622,14.6103015 12.7401302,14.8999315 C12.4091983,15.1895616 11.9480535,15.3755254 11.4394078,15.3744008 C10.969179,15.3744008 10.5442576,15.1822794 10.2353746,14.9087321 C9.9263511,14.6351566 9.71238577,14.2972221 9.5322814,13.9422122 C9.08036119,13.0520377 9.00093978,12.2302738 8.99615875,11.5171473 C8.99137771,10.8040207 9.03893494,10.1962446 8.9170467,9.57533802 C8.80753289,9.01681112 8.51923654,8.66857741 8.15244686,8.23100853 C7.78565718,7.79343965 7.33342761,7.25616616 7.22962292,6.44735569 C7.22962292,5.72976702 7.29965101,4.63175665 7.50219811,4.20680654 L7.50219811,4.20666596 Z M17.3367288,15.9365941 C16.1620288,15.9365941 15.6063883,16.319431 15.4471517,16.648312 C15.2879151,16.977193 15.3644961,17.4620935 16.0184009,18.0453462 C16.0243069,18.0509696 16.0302129,18.0568741 16.0361189,18.0627786 C16.5495457,18.57439 17.312908,18.8743107 17.6707825,18.9941441 C18.5598861,18.2750596 19.2810066,17.4030484 19.8240196,16.4460686 C19.6186039,16.3562639 19.2733851,16.2405637 18.8924211,16.1561292 C18.3832972,16.0432688 17.8036671,15.9665103 17.3368413,15.9364535 L17.3367288,15.9365941 Z" id="shape" fill="#ADB5BD" fill-rule="nonzero"></path>
    </g>
</svg>