<svg width="24" height="24" viewBox="0 0 24 24" fill="#ADB5BD" xmlns="http://www.w3.org/2000/svg">
<path d="M19 9C19 5.13401 15.866 2 12 2H11.88C8.18049 2.11001 5.18605 5.04351 5.00002 8.74C4.93202 11.1354 6.09404 13.399 8.08002 14.74C8.67061 15.1185 9.01972 15.7788 9.00002 16.48V17C9.00002 17.5523 9.44774 18 10 18H14C14.5523 18 15 17.5523 15 17V16.48C14.999 15.8019 15.3415 15.1695 15.91 14.8C17.8399 13.5004 18.998 11.3267 19 9ZM14.79 13.14C14.1122 13.5927 13.5888 14.2417 13.29 15H10.71C10.4042 14.2429 9.87815 13.5949 9.20002 13.14C7.76785 12.1737 6.93602 10.5365 7.00002 8.81C7.15733 6.18309 9.28043 4.10323 11.91 4H12C14.1941 4.00597 16.128 5.44169 16.7686 7.54022C17.4092 9.63874 16.6068 11.9097 14.79 13.14ZM10 20.59C10.0011 20.8523 10.1053 21.1037 10.29 21.29L10.71 21.71C10.8963 21.8947 11.1477 21.9989 11.41 22H12.59C12.8524 21.9989 13.1038 21.8947 13.29 21.71L13.71 21.29C13.8948 21.1037 13.9989 20.8523 14 20.59V20H10V20.59Z" fill="#1E2128"/>
</svg>
