<?xml version="1.0" encoding="UTF-8"?>
<svg width="24px" height="24px" viewBox="0 0 24 24" version="1.1" xmlns="http://www.w3.org/2000/svg" xmlns:xlink="http://www.w3.org/1999/xlink">
    <!-- Generator: Sketch 60.1 (88133) - https://sketch.com -->
    <title>icon/grey/lightbulb copy</title>
    <desc>Created with Sketch.</desc>
    <g id="icon/grey/lightbulb-copy" stroke="none" stroke-width="1" fill="none" fill-rule="evenodd">
        <path d="M14.8855038,18.131799 L14.8855038,19.2827055 C14.8855038,19.7955414 14.4994636,20.2182127 14.0021249,20.2759778 L13.8855038,20.2827055 L13.8097842,20.281799 L13.8100505,20.8581588 C13.8100505,21.1036187 13.6331753,21.3077672 13.3999261,21.3501031 L13.3100505,21.3581588 L10.0082374,21.3581588 C9.76277755,21.3581588 9.55862907,21.1812836 9.51629311,20.9480344 L9.50823744,20.8581588 L9.50778417,20.281799 L9.43278417,20.2827055 C8.91994833,20.2827055 8.49727701,19.8966654 8.4395119,19.3993267 L8.43278417,19.2827055 L8.43278417,18.131799 L14.8855038,18.131799 Z M11.5764168,6.30181307 C14.5918879,6.30181307 17.0364103,8.74633543 17.0364103,11.7618066 C17.0364103,13.4616865 16.2595908,14.9801305 15.041581,15.9815092 L12.4854233,15.9808131 L12.4867028,14.2481539 C12.9852231,13.9596541 13.3342002,13.4414588 13.3889011,12.8383009 L13.3964146,12.6718055 C13.3964146,11.6666484 12.5815738,10.8518077 11.5764168,10.8518077 C10.5712597,10.8518077 9.75641896,11.6666484 9.75641896,12.6718055 C9.75641896,13.2888374 10.0634767,13.834152 10.5331247,14.1632819 L10.6651331,14.2475761 L10.6654233,15.9808131 L8.11125258,15.9815092 C6.89324284,14.9801305 6.11642329,13.4616865 6.11642329,11.7618066 C6.11642329,8.74633543 8.56094565,6.30181307 11.5764168,6.30181307 Z M18.7697834,4.5113018 L18.8364753,4.57799369 C19.080553,4.82207138 19.080553,5.21779949 18.8364753,5.46187717 L17.8192081,6.47914444 C17.5751304,6.72322212 17.1794023,6.72322212 16.9353246,6.47914444 L16.8686327,6.41245254 C16.624555,6.16837486 16.624555,5.77264675 16.8686327,5.52856907 L17.8859,4.5113018 C18.1299777,4.26722412 18.5257058,4.26722412 18.7697834,4.5113018 Z M6.11410003,4.17044577 L7.1313673,5.18771304 C7.37544498,5.43179072 7.37544498,5.82751883 7.1313673,6.07159651 L7.0646754,6.13828841 C6.82059772,6.38236609 6.42486961,6.38236609 6.18079193,6.13828841 L5.16352466,5.12102114 C4.91944698,4.87694346 4.91944698,4.48121535 5.16352466,4.23713767 L5.23021655,4.17044577 C5.47429424,3.92636809 5.87002235,3.92636809 6.11410003,4.17044577 Z M12.0471583,2 C12.3923363,2 12.6721583,2.27982203 12.6721583,2.625 L12.6721583,4.06363317 C12.6721583,4.40881114 12.3923363,4.68863317 12.0471583,4.68863317 L11.9528417,4.68863317 C11.6076637,4.68863317 11.3278417,4.40881114 11.3278417,4.06363317 L11.3278417,2.625 C11.3278417,2.27982203 11.6076637,2 11.9528417,2 L12.0471583,2 Z" id="Combined-Shape" fill="#ACB4BD"></path>
    </g>
</svg>