<?xml version="1.0" encoding="UTF-8"?>
<svg width="24px" height="24px" viewBox="0 0 24 24" version="1.1" xmlns="http://www.w3.org/2000/svg" xmlns:xlink="http://www.w3.org/1999/xlink">
    <!-- Generator: Sketch 51.2 (57519) - http://www.bohemiancoding.com/sketch -->
    <title>inspiration</title>
    <desc>Created with Sketch.</desc>
    <defs></defs>
    <g id="inspiration" stroke="none" stroke-width="1" fill="none" fill-rule="evenodd">
        <path d="M11.7908327,4.00259551 C11.0833647,4.02096508 10.368572,4.1343091 9.67375335,4.346244 C9.45098842,4.56649895 9.20419957,4.90913024 9.02535765,5.30689776 C8.79904287,5.80997666 8.67484848,6.39186229 8.74412035,6.93141792 C8.79724295,7.34570555 9.0196079,7.62025446 9.34564318,8.00922457 C9.67167845,8.39819468 10.0954593,8.89236871 10.2440526,9.64936512 C10.3851212,10.3686976 10.3262239,10.993688 10.3299737,11.5628624 C10.3337235,12.1320368 10.3809214,12.6502687 10.6971321,13.2732947 C10.8269513,13.5290167 10.9673199,13.7220597 11.0955641,13.8356286 C11.2238083,13.9492026 11.3214789,13.9993877 11.5017958,13.9996377 C11.7433599,13.9996377 11.8689792,13.9372061 11.9939735,13.8278184 C12.1189179,13.7184432 12.2393125,13.5319908 12.337708,13.2811049 C12.5343741,12.7793356 12.6286199,12.05356 12.759539,11.3988484 C12.8724589,10.834795 13.2882651,10.5214725 13.6501487,10.2038888 C14.0119824,9.88630513 14.3722161,9.57170306 14.5797817,9.23542488 C14.9396655,8.6523696 15.1676302,8.21222461 15.2516264,7.44689066 C15.3469471,6.57831472 15.2918996,5.43276808 14.7282,4.48682748 C13.7905174,4.14758268 12.7952123,3.97651821 11.7908327,4.00259551 Z M8.00195388,5.07259196 C4.17645169,7.28069475 2.86373599,12.1745043 5.07238622,15.9990471 C7.28108644,19.8235924 12.1760903,21.1359798 16.0015925,18.927882 C16.0180918,18.9183848 16.0321411,18.9061384 16.0484654,18.8966412 C15.681357,18.7198685 15.2631759,18.4726415 14.9000923,18.1156219 C14.8945925,18.1101236 14.8898427,18.105375 14.884343,18.1001265 C14.109703,17.3997584 13.7843177,16.4660092 14.1578258,15.694587 C14.5341088,14.9174416 15.4787661,14.499615 16.743659,14.499615 C16.7541585,14.4993651 16.764408,14.4993651 16.7749076,14.499615 C17.2571858,14.5285564 17.8165105,14.6028595 18.337337,14.7183004 C18.7278943,14.8048748 19.0854282,14.8995719 19.3919643,15.0463285 C20.3040481,12.8309179 20.2212519,10.2357319 18.9310602,8.00153934 C18.2153175,6.76226288 17.2155127,5.78891788 16.0639897,5.11176789 C16.3179282,5.98572225 16.3281028,6.85818205 16.2514812,7.55635833 C16.1484859,8.49457121 15.8053764,9.13996308 15.4233936,9.75883278 C15.1000582,10.2826431 14.6542784,10.6483675 14.3062691,10.9537923 C13.9582098,11.2592171 13.7602688,11.5115801 13.7437945,11.5942282 C13.6246999,12.1891474 13.5362039,12.9622391 13.267241,13.6483089 C13.1327471,13.9913401 12.9520553,14.320268 12.6578935,14.5777169 C12.3637318,14.8351659 11.9538254,15.0004671 11.5016958,14.9994674 C11.0837147,14.9994674 10.7060067,14.8286928 10.4314441,14.5855396 C10.1567565,14.3423614 9.96656513,14.0419752 9.80647236,13.7264109 C9.40476551,12.9351446 9.3341687,12.2046878 9.32991889,11.5707976 C9.32566908,10.9369073 9.36794217,10.3966619 9.25959706,9.84474491 C9.16225146,9.34827655 8.90598804,9.03873548 8.57995277,8.64978536 C8.25391749,8.26083525 7.85193565,7.78325881 7.75966482,7.06431616 C7.75966482,6.42645957 7.82191201,5.45045035 8.00195388,5.07271693 L8.00195388,5.07259196 Z M16.743759,15.4991947 C15.6995811,15.4991947 15.2056785,15.8394942 15.0641349,16.1318329 C14.9225912,16.4241715 14.9906632,16.8551942 15.5719119,17.3736411 C15.5771617,17.3786396 15.5824114,17.3838881 15.5876612,17.3891365 C16.0440406,17.8439022 16.7225849,18.1104984 17.0406956,18.217017 C17.8310099,17.5778308 18.4720059,16.8027097 18.9546841,15.952061 C18.7720923,15.8722346 18.4652312,15.7693899 18.1265965,15.6943371 C17.674042,15.5940167 17.1588152,15.5257869 16.743859,15.4990698 L16.743759,15.4991947 Z" id="shape" fill="#ADB5BD" fill-rule="nonzero"></path>
    </g>
</svg>