<?xml version="1.0" encoding="UTF-8"?>
<svg width="24px" height="24px" viewBox="0 0 24 24" version="1.1" xmlns="http://www.w3.org/2000/svg" xmlns:xlink="http://www.w3.org/1999/xlink">
    <!-- Generator: Sketch 57.1 (83088) - https://sketch.com -->
    <title>instagram</title>
    <desc>Created with Sketch.</desc>
    <g id="Symbols" stroke="none" stroke-width="1" fill="none" fill-rule="evenodd">
        <g id="icon/grey/instagram" fill="#ADB5BD" fill-rule="nonzero">
            <path d="M6.62294249,-8.8817842e-15 L17.3768231,-8.8817842e-15 C20.951169,-8.8817842e-15 23.8732608,2.84604878 23.995987,6.3910847 L24,6.62325164 L24,17.376807 C24,20.9511616 21.1539582,23.8732605 17.6089858,23.995987 L17.3768231,24 L6.62294249,24 C3.04882597,24 0.126739112,21.1539512 0.00401296993,17.6089702 L-6.21724894e-14,17.376807 L-6.21724894e-14,6.62325164 C-6.21724894e-14,3.04883965 2.84604183,0.126739554 6.39079443,0.00401298255 L6.62294249,-8.8817842e-15 L17.3768231,-8.8817842e-15 Z M17.3768231,2.12925388 L6.62294249,2.12925388 C4.21608364,2.12925388 2.24488336,4.03180199 2.13420813,6.41202827 L2.12930727,6.62325164 L2.12930727,17.376807 C2.12930727,19.7838994 4.03174016,21.755111 6.41173945,21.8657867 L6.62294249,21.8706875 L17.3768231,21.8706875 C19.7839097,21.8706875 21.7551164,19.96825 21.8657919,17.58803 L21.8706927,17.376807 L21.8706927,6.62325164 C21.8706927,4.14536239 19.8547063,2.12925388 17.3768231,2.12925388 Z M11.9998887,5.81615197 C15.410003,5.81615197 18.184079,8.59023479 18.184079,12.0003574 C18.184079,15.4102457 15.410003,18.1840941 11.9998887,18.1840941 C8.59000874,18.1840941 5.81569832,15.4102457 5.81569832,12.0003574 C5.81569832,8.59023479 8.59000874,5.81615197 11.9998887,5.81615197 Z M11.9998887,7.94546444 C9.76417463,7.94546444 7.94523997,9.76440355 7.94523997,12.000123 C7.94523997,14.2358425 9.76440901,16.0546059 11.9998887,16.0546059 C14.2356027,16.0546059 16.0547718,14.2358425 16.0547718,12.000123 C16.0547718,9.76440355 14.2358371,7.94546444 11.9998887,7.94546444 Z M18.4436272,4.01049617 C18.8551331,4.01049617 19.2584358,4.17666926 19.5480076,4.46758936 C19.8388684,4.7571032 20.005041,5.16040694 20.005041,5.57214823 C20.005041,5.98230749 19.8388684,6.38537685 19.5480076,6.67653132 C19.2570882,6.96604516 18.8551331,7.13362451 18.4436272,7.13362451 C18.0332345,7.13362451 17.6301662,6.96604516 17.3404187,6.67653132 C17.0494993,6.38537685 16.8819789,5.98254186 16.8819789,5.57214823 C16.8819789,5.16040694 17.0492649,4.7571032 17.3404187,4.46758936 C17.6301662,4.17666926 18.0332345,4.01049617 18.4436272,4.01049617 Z" id="Combined-Shape"></path>
        </g>
    </g>
</svg>
