<?xml version="1.0" encoding="UTF-8"?>
<svg width="24px" height="24px" viewBox="0 0 24 24" version="1.1" xmlns="http://www.w3.org/2000/svg" xmlns:xlink="http://www.w3.org/1999/xlink" style="background: #FFFFFF;">
    <title>instagram</title>
    <g id="instagram" stroke="none" stroke-width="1" fill="none" fill-rule="evenodd">
        <g id="ig-logo-black" transform="translate(2.000000, 2.000000)" fill="#ACB4BD" fill-rule="nonzero">
            <path d="M10,0 C7.28388889,0 6.94388889,0.0111111111 5.87722222,0.06 C4.81277778,0.108888889 4.08555556,0.277777778 3.44944444,0.525 C2.78222872,0.776076055 2.1778096,1.16966894 1.67833333,1.67833333 C1.16976607,2.17788908 0.776188037,2.78228541 0.525,3.44944444 C0.277777778,4.08555556 0.108333333,4.81277778 0.06,5.87777778 C0.0116666667,6.94388889 0,7.28333333 0,10 C0,12.7166667 0.0111111111,13.0561111 0.06,14.1227778 C0.108888889,15.1872222 0.277777778,15.9144444 0.525,16.5505556 C0.776076055,17.2177713 1.16966894,17.8221904 1.67833333,18.3216667 C2.23388889,18.8772222 2.79222222,19.2194444 3.44944444,19.475 C4.08555556,19.7222222 4.81277778,19.8916667 5.87722222,19.94 C6.94388889,19.9883333 7.28388889,20 10,20 C12.7161111,20 13.0561111,19.9888889 14.1227778,19.94 C15.1872222,19.8911111 15.9144444,19.7222222 16.5505556,19.475 C17.2177632,19.2239079 17.822179,18.8303172 18.3216667,18.3216667 C18.8772222,17.7661111 19.2194444,17.2077778 19.475,16.5505556 C19.7222222,15.9144444 19.8916667,15.1872222 19.94,14.1227778 C19.9883333,13.0561111 20,12.7161111 20,10 C20,7.28388889 19.9888889,6.94388889 19.94,5.87722222 C19.8911111,4.81277778 19.7222222,4.08555556 19.475,3.44944444 C19.2239079,2.78223683 18.8303172,2.17782096 18.3216667,1.67833333 C17.8221109,1.16976607 17.2177146,0.776188037 16.5505556,0.525 C15.9144444,0.277777778 15.1872222,0.108333333 14.1222222,0.06 C13.0561111,0.0116666667 12.7166667,0 10,0 Z M10,1.80166667 C12.67,1.80166667 12.9866667,1.81222222 14.0411111,1.86 C15.0161111,1.90444444 15.5455556,2.06722222 15.8977778,2.20444444 C16.3644444,2.38555556 16.6977778,2.60277778 17.0477778,2.95222222 C17.3977778,3.30222222 17.6144444,3.63555556 17.7955556,4.10222222 C17.9327778,4.45444444 18.0955556,4.98388889 18.14,5.95888889 C18.1877778,7.01333333 18.1983333,7.33 18.1983333,10 C18.1983333,12.67 18.1877778,12.9866667 18.14,14.0411111 C18.0955556,15.0161111 17.9327778,15.5455556 17.7955556,15.8977778 C17.6353675,16.3321757 17.3798442,16.7251423 17.0477778,17.0477778 C16.6977778,17.3977778 16.3644444,17.6144444 15.8977778,17.7955556 C15.5455556,17.9327778 15.0161111,18.0955556 14.0411111,18.14 C12.9866667,18.1877778 12.6705556,18.1983333 10,18.1983333 C7.32944444,18.1983333 7.01333333,18.1877778 5.95888889,18.14 C4.98388889,18.0955556 4.45444444,17.9327778 4.10222222,17.7955556 C3.66782432,17.6353675 3.27485767,17.3798442 2.95222222,17.0477778 C2.62017042,16.7251303 2.36464948,16.3321672 2.20444444,15.8977778 C2.06722222,15.5455556 1.90444444,15.0161111 1.86,14.0411111 C1.81222222,12.9866667 1.80166667,12.67 1.80166667,10 C1.80166667,7.33 1.81222222,7.01333333 1.86,5.95888889 C1.90444444,4.98388889 2.06722222,4.45444444 2.20444444,4.10222222 C2.38555556,3.63555556 2.60277778,3.30222222 2.95222222,2.95222222 C3.30222222,2.60222222 3.63555556,2.38555556 4.10222222,2.20444444 C4.45444444,2.06722222 4.98388889,1.90444444 5.95888889,1.86 C7.01333333,1.81222222 7.33,1.80166667 10,1.80166667 L10,1.80166667 Z" id="Shape"></path>
            <path d="M10,13.3366667 C8.8079238,13.3366667 7.70639996,12.7007016 7.11036186,11.6683333 C6.51432376,10.6359651 6.51432376,9.36403492 7.11036186,8.33166665 C7.70639996,7.29929839 8.8079238,6.66333333 10,6.66333333 C11.8427901,6.66333333 13.3366666,8.1572099 13.3366666,10 C13.3366666,11.8427901 11.8427901,13.3366667 10,13.3366667 Z M10,4.86 C7.16125639,4.86 4.86,7.16125639 4.86,10 C4.86,12.8387436 7.16125639,15.14 10,15.14 C12.8387436,15.14 15.14,12.8387436 15.14,10 C15.14,7.16125639 12.8387436,4.86 10,4.86 L10,4.86 Z M16.6355556,4.76666667 C16.6355556,5.43769264 16.0915815,5.98166667 15.4205556,5.98166667 C14.7495296,5.98166667 14.2055556,5.43769264 14.2055556,4.76666667 C14.2055556,4.0956407 14.7495296,3.55166667 15.4205556,3.55166667 C16.0915815,3.55166667 16.6355556,4.0956407 16.6355556,4.76666667" id="Shape"></path>
        </g>
    </g>
</svg>
