<svg width="24" height="25" viewBox="0 0 24 25" fill="none" xmlns="http://www.w3.org/2000/svg">
<path fill-rule="evenodd" clip-rule="evenodd" d="M10 2.92481C10 2.64866 10.2239 2.4248 10.5 2.4248H11.5C11.7761 2.4248 12 2.64866 12 2.9248V3.4248H15.5C15.7761 3.4248 16 3.64866 16 3.9248V4.9248C16 5.20095 15.7761 5.4248 15.5 5.4248H13V7.4248H15.5C15.7761 7.4248 16 7.64866 16 7.9248V8.9248C16 9.20095 15.7761 9.4248 15.5 9.4248H12V14.5508C13.7252 14.9949 15 16.561 15 18.4248C15 20.6339 13.2091 22.4248 11 22.4248C8.79086 22.4248 7 20.6339 7 18.4248C7 16.561 8.27477 14.9949 10 14.5508V2.92481ZM13 18.4248C13 19.5294 12.1046 20.4248 11 20.4248C9.89543 20.4248 9 19.5294 9 18.4248C9 17.3202 9.89543 16.4248 11 16.4248C12.1046 16.4248 13 17.3202 13 18.4248Z" fill="#A7AAC6"/>
</svg>
