<svg width="24" height="24" viewBox="0 0 24 24" fill="#ADB5BD" xmlns="http://www.w3.org/2000/svg">
<g clip-path="url(#clip0_3739_6672)">
<path d="M17.4606 21.9255C17.7581 21.9255 18 22.1718 18 22.4748V22.951C18 23.2539 17.7583 23.5002 17.4606 23.5002H6.86344C6.56595 23.5002 6.32407 23.2541 6.32407 22.951V22.4748C6.32407 22.1719 6.56576 21.9255 6.86344 21.9255H17.4606ZM15.8313 19.3628C16.7853 19.3628 17.5612 20.1529 17.5612 21.1244H17.5587V21.4519H6.76218V21.1244C6.76218 20.1529 7.53809 19.3628 8.49209 19.3628H15.8313ZM8.04576 0.500244C8.67557 0.55441 9.69335 0.751844 10.4055 1.43098C10.4772 1.50138 10.5755 1.54196 10.6765 1.54196C10.9395 1.5446 11.8935 1.57707 13.0335 1.964C14.495 2.45928 15.6562 3.31695 16.4799 4.51571C17.3993 5.85498 17.8831 7.6056 17.9176 9.72166C17.9574 12.2594 17.3515 15.3472 16.1159 18.9C16.0229 18.8892 15.9272 18.8811 15.8316 18.8811L8.52129 18.8813C8.56115 18.5132 8.53205 18.0019 8.2264 17.4715C8.1441 17.3281 8.04568 17.1846 7.94206 17.0359C7.88631 16.9547 7.83033 16.8733 7.77634 16.791L7.71265 16.6918L7.65174 16.5916C7.23705 15.886 7.08889 15.0883 8.52666 13.8538C9.51515 13.0068 10.3813 12.1437 10.9713 11.4212C11.8004 10.4036 12.1112 9.65148 11.92 9.12108C11.7526 8.65828 11.2317 8.42291 10.3682 8.42291H9.34519C9.07142 8.42291 8.80841 8.55541 8.64362 8.77738L7.6631 10.0897C7.63122 10.133 7.58599 10.1654 7.53817 10.179C7.27772 10.2575 6.99878 10.2872 6.70906 10.2683C6.57895 10.2602 6.52037 10.1683 6.50184 10.1277C6.48071 10.0897 6.44345 9.98423 6.51518 9.87325L6.78895 9.44837C6.97764 9.15358 6.91128 8.75567 6.63492 8.54465C6.52074 8.45537 6.38246 8.40932 6.239 8.40932C6.08497 8.40932 5.93613 8.46349 5.81917 8.56353L5.5454 8.79361C5.48164 8.84495 5.40194 8.86382 5.32224 8.84495C5.24501 8.8263 5.18384 8.77213 5.15196 8.6989C4.94474 8.19551 4.84647 7.44051 5.55325 6.72079C6.8022 5.44902 6.82869 5.38954 7.28578 4.43165C7.32303 4.35597 7.36029 4.2748 7.40273 4.18817C7.7933 3.3709 8.7499 3.02738 9.14323 2.9164C9.27075 2.88129 9.37177 2.78389 9.41422 2.65668C9.45685 2.52965 9.43553 2.39149 9.35583 2.28333L8.04576 0.500244Z" fill="#A7AAC6"/>
</g>
<defs>
<clipPath id="clip0_3739_6672">
<rect width="24" height="24" fill="white" transform="translate(0 0.000244141)"/>
</clipPath>
</defs>
</svg>
