<svg width="24" height="24" viewBox="0 0 24 24" fill="#ADB5BD" xmlns="http://www.w3.org/2000/svg">
<path d="M10 5V19C10 19.5523 9.55228 20 9 20H3C2.44772 20 2 19.5523 2 19V5C2 4.44772 2.44772 4 3 4H9C9.55228 4 10 4.44772 10 5ZM15 13H13C12.4477 13 12 13.4477 12 14V19C12 19.5523 12.4477 20 13 20H15C15.5523 20 16 19.5523 16 19V14C16 13.4477 15.5523 13 15 13ZM21 13H19C18.4477 13 18 13.4477 18 14V19C18 19.5523 18.4477 20 19 20H21C21.5523 20 22 19.5523 22 19V14C22 13.4477 21.5523 13 21 13ZM21 4H13C12.4477 4 12 4.44772 12 5V10C12 10.5523 12.4477 11 13 11H21C21.5523 11 22 10.5523 22 10V5C22 4.44772 21.5523 4 21 4Z" fill="#1E2128"/>
</svg>
