<?xml version="1.0" encoding="UTF-8"?>
<svg width="24px" height="24px" viewBox="0 0 24 24" version="1.1" xmlns="http://www.w3.org/2000/svg" xmlns:xlink="http://www.w3.org/1999/xlink">
    <!-- Generator: Sketch 58 (84663) - https://sketch.com -->
    <title>learning</title>
    <desc>Created with Sketch.</desc>
    <g id="learning" stroke="none" stroke-width="1" fill="none" fill-rule="evenodd">
        <path d="M21.1527018,6.43256501 L21.1527018,16.8757915 L13.0238053,16.8757915 L12.9874516,16.8757915 C12.9185707,16.8804632 12.7680533,16.9148334 12.697578,17.1220562 C12.6908813,17.1414103 12.6873734,17.1477505 12.6832278,17.1567602 C12.5760799,17.4427343 12.3113988,17.6462864 12.0001594,17.6462864 C11.6940224,17.6462864 11.4322114,17.4507429 11.3212367,17.1724437 C11.3170911,17.1697742 11.3107132,17.1577613 11.2992331,17.1220562 C11.2246121,16.8924761 10.9730057,16.8757915 10.9730057,16.8757915 L2.84761707,16.8757915 L2.84761707,6.43256501 L2,6.43256501 L2,18 L22,18 L22,6.43256501 L21.1527018,6.43256501 Z M9.23599662,6 C9.7290049,6.01434876 10.1872539,6.17151771 10.5756653,6.4324649 C11.1935324,6.84798851 11.6328798,7.52793839 11.7457252,8.32061391 L11.7670488,8.52104346 L11.77534,8.52104346 L11.77534,17.0145073 C11.7702377,16.9644535 11.763541,16.918404 11.751742,16.8756914 C11.7029514,16.6944966 11.555304,16.5780381 11.3620549,16.5016226 C10.9555729,16.3408572 10.3439916,16.3620157 10.0019006,16.3588591 L9.88717573,16.3561328 L3.34190092,16.3561328 L3.34190092,6.00066738 L9.23599662,6 Z M20.6579396,6 L20.6579396,16.3561328 L14.1129837,16.3561328 C13.8122678,16.3701479 13.0950779,16.3204278 12.6377856,16.5016226 C12.4448555,16.5780381 12.2972081,16.6944966 12.2484175,16.8756914 C12.2366185,16.918404 12.2299217,16.9644535 12.2299217,17.0145073 L12.2299217,17.0145073 L12.2248194,17.0145073 L12.2248194,8.52104346 C12.2952947,7.64309967 12.7551382,6.88261548 13.4241753,6.4324649 C13.8125867,6.17151771 14.2708357,6.01434876 14.7638439,6.00166846 L14.7638439,6.00166846 L14.7638439,6 L20.6579396,6 Z M9.69839119,12.7312361 L5.41853086,12.7312361 C5.25653332,12.7312361 5.12514948,12.8670487 5.12514948,13.0342285 C5.12514948,13.1775254 5.22167638,13.2982674 5.35127144,13.3298407 L5.41853086,13.3378882 L9.69839119,13.3378882 C9.86006984,13.3378882 9.99177257,13.2014082 9.99177257,13.0342285 C9.99177257,12.8670487 9.86006984,12.7312361 9.69839119,12.7312361 Z M18.5813097,12.7312361 L14.3014494,12.7312361 C14.1394518,12.7312361 14.008068,12.8670487 14.008068,13.0342285 C14.008068,13.2014082 14.1394518,13.3378882 14.3014494,13.3378882 L14.3014494,13.3378882 L18.5813097,13.3378882 C18.7433072,13.3378882 18.8746911,13.2014082 18.8746911,13.0342285 C18.8746911,12.8670487 18.7433072,12.7312361 18.5813097,12.7312361 L18.5813097,12.7312361 Z M9.69839119,10.5852625 L5.41853086,10.5852625 C5.25653332,10.5852625 5.12514948,10.7214088 5.12514948,10.8885886 C5.12514948,11.0318855 5.22167638,11.1523823 5.35127144,11.1838856 L5.41853086,11.1919146 L9.69839119,11.1919146 C9.86006984,11.1919146 9.99177257,11.0557683 9.99177257,10.8885886 C9.99177257,10.7214088 9.86006984,10.5852625 9.69839119,10.5852625 Z M18.5813097,10.5852625 L14.3014494,10.5852625 C14.1394518,10.5852625 14.008068,10.7214088 14.008068,10.8885886 C14.008068,11.0557683 14.1394518,11.1919146 14.3014494,11.1919146 L14.3014494,11.1919146 L18.5813097,11.1919146 C18.7433072,11.1919146 18.8746911,11.0557683 18.8746911,10.8885886 C18.8746911,10.7214088 18.7433072,10.5852625 18.5813097,10.5852625 L18.5813097,10.5852625 Z M9.69839119,8.54139867 L5.41853086,8.54139867 C5.25653332,8.54139867 5.12514948,8.67754503 5.12514948,8.84472475 C5.12514948,8.98802165 5.22167638,9.10827337 5.35127144,9.13970657 L5.41853086,9.14771713 L9.69839119,9.14771713 C9.86006984,9.14771713 9.99177257,9.01190446 9.99177257,8.84472475 C9.99177257,8.67754503 9.86006984,8.54139867 9.69839119,8.54139867 Z M18.5813097,8.54139867 L14.3014494,8.54139867 C14.1394518,8.54139867 14.008068,8.67754503 14.008068,8.84472475 C14.008068,9.01190446 14.1394518,9.14771713 14.3014494,9.14771713 L14.3014494,9.14771713 L18.5813097,9.14771713 C18.7433072,9.14771713 18.8746911,9.01190446 18.8746911,8.84472475 C18.8746911,8.67754503 18.7433072,8.54139867 18.5813097,8.54139867 L18.5813097,8.54139867 Z" id="lightful-learning" fill="#ADB5BD"></path>
    </g>
</svg>
