<svg width="24" height="24" viewBox="0 0 24 24" fill="#ADB5BD" xmlns="http://www.w3.org/2000/svg">
<path d="M19 2H7C5.34315 2 4 3.34315 4 5V19C4 20.6569 5.34315 22 7 22H19.5C19.7761 22 20 21.7761 20 21.5V3C20 2.44772 19.5523 2 19 2ZM7 6.5C7 6.22386 7.22386 6 7.5 6H16.5C16.7761 6 17 6.22386 17 6.5V7.5C17 7.77614 16.7761 8 16.5 8H7.5C7.22386 8 7 7.77614 7 7.5V6.5ZM7 10.5C7 10.2239 7.22386 10 7.5 10H12.5C12.7761 10 13 10.2239 13 10.5V11.5C13 11.7761 12.7761 12 12.5 12H7.5C7.22386 12 7 11.7761 7 11.5V10.5ZM6 19C6 18.4477 6.44772 18 7 18H18V20H7C6.44772 20 6 19.5523 6 19Z" fill="#1E2128"/>
</svg>
