<svg width="24" height="24" viewBox="0 0 24 24" fill="#ADB5BD" xmlns="http://www.w3.org/2000/svg">
<path fill-rule="evenodd" clip-rule="evenodd" d="M1.5 13H3.5C3.63261 13 3.75979 12.9473 3.85355 12.8536C3.94732 12.7598 4 12.6326 4 12.5V11.5C4 11.3674 3.94732 11.2402 3.85355 11.1464C3.75979 11.0527 3.63261 11 3.5 11H1.5C1.36739 11 1.24021 11.0527 1.14645 11.1464C1.05268 11.2402 1 11.3674 1 11.5V12.5C1 12.6326 1.05268 12.7598 1.14645 12.8536C1.24021 12.9473 1.36739 13 1.5 13ZM5.64 6.84875C5.50505 6.84875 5.37559 6.79526 5.28 6.7L3.87 5.28C3.82217 5.23511 3.78405 5.18089 3.75799 5.12069C3.73193 5.0605 3.71848 4.9956 3.71848 4.93C3.71848 4.8644 3.73193 4.7995 3.75799 4.73931C3.78405 4.67911 3.82217 4.62489 3.87 4.58L4.58 3.87C4.62489 3.82217 4.67911 3.78405 4.73931 3.75799C4.7995 3.73193 4.8644 3.71848 4.93 3.71848C4.9956 3.71848 5.0605 3.73193 5.12069 3.75799C5.18089 3.78405 5.23511 3.82217 5.28 3.87L6.7 5.29C6.79225 5.38515 6.84384 5.51247 6.84384 5.645C6.84384 5.77753 6.79225 5.90485 6.7 6L6 6.7C5.90441 6.79526 5.77495 6.84875 5.64 6.84875ZM18.355 6.84384C18.2225 6.84384 18.0951 6.79225 18 6.7L17.3 5.99C17.2078 5.89485 17.1562 5.76753 17.1562 5.635C17.1562 5.50247 17.2078 5.37515 17.3 5.28L18.71 3.87C18.7549 3.82217 18.8091 3.78405 18.8693 3.75799C18.9295 3.73193 18.9944 3.71848 19.06 3.71848C19.1256 3.71848 19.1905 3.73193 19.2507 3.75799C19.3109 3.78405 19.3651 3.82217 19.41 3.87L20.12 4.58C20.1678 4.62489 20.206 4.67911 20.232 4.73931C20.2581 4.7995 20.2715 4.8644 20.2715 4.93C20.2715 4.9956 20.2581 5.0605 20.232 5.12069C20.206 5.18089 20.1678 5.23511 20.12 5.28L18.71 6.7C18.6148 6.79225 18.4875 6.84384 18.355 6.84384ZM5.645 17.1562C5.77753 17.1562 5.90485 17.2078 6 17.3L6.7 18.01C6.79225 18.1052 6.84384 18.2325 6.84384 18.365C6.84384 18.4975 6.79225 18.6248 6.7 18.72L5.28 20.13C5.23511 20.1778 5.18089 20.216 5.12069 20.242C5.0605 20.2681 4.9956 20.2815 4.93 20.2815C4.8644 20.2815 4.7995 20.2681 4.73931 20.242C4.67911 20.216 4.62489 20.1778 4.58 20.13L3.87 19.42C3.82217 19.3751 3.78405 19.3209 3.75799 19.2607C3.73193 19.2005 3.71848 19.1356 3.71848 19.07C3.71848 19.0044 3.73193 18.9395 3.75799 18.8793C3.78405 18.8191 3.82217 18.7649 3.87 18.72L5.29 17.3C5.38515 17.2078 5.51247 17.1562 5.645 17.1562ZM13.71 1.71C13.8947 1.89626 13.9989 2.14766 14 2.41V3H10V2.41C10.0011 2.14766 10.1053 1.89626 10.29 1.71L10.71 1.29C10.8963 1.10526 11.1477 1.0011 11.41 1H12.59C12.8523 1.0011 13.1037 1.10526 13.29 1.29L13.71 1.71ZM17.213 14.976C17.7297 14.0693 18.0009 13.0435 18 12C17.9991 10.9873 17.7418 9.99128 17.2523 9.10478C16.7627 8.21827 16.0567 7.47011 15.2 6.93C14.9855 6.79475 14.8087 6.60731 14.6863 6.38521C14.5639 6.16311 14.4998 5.9136 14.5 5.66V5.5C14.5 5.36739 14.4473 5.24021 14.3536 5.14645C14.2598 5.05268 14.1326 5 14 5H10C9.86739 5 9.74021 5.05268 9.64645 5.14645C9.55268 5.24021 9.5 5.36739 9.5 5.5V5.66C9.50209 5.91396 9.4388 6.16419 9.3162 6.38661C9.19361 6.60903 9.01584 6.79616 8.8 6.93C7.91726 7.48656 7.19494 8.26373 6.70435 9.18477C6.21377 10.1058 5.97189 11.1389 6.0026 12.182C6.03331 13.2251 6.33554 14.2421 6.87945 15.1327C7.42336 16.0233 8.19015 16.7566 9.10411 17.2603C10.0181 17.764 11.0476 18.0206 12.091 18.0047C13.1344 17.9889 14.1557 17.7012 15.0539 17.1701C15.9522 16.6389 16.6964 15.8827 17.213 14.976ZM20.5 11H22.5C22.6326 11 22.7598 11.0527 22.8536 11.1464C22.9473 11.2402 23 11.3674 23 11.5V12.5C23 12.6326 22.9473 12.7598 22.8536 12.8536C22.7598 12.9473 22.6326 13 22.5 13H20.5C20.3674 13 20.2402 12.9473 20.1464 12.8536C20.0527 12.7598 20 12.6326 20 12.5V11.5C20 11.3674 20.0527 11.2402 20.1464 11.1464C20.2402 11.0527 20.3674 11 20.5 11ZM11.5 20H12.5C12.6326 20 12.7598 20.0527 12.8536 20.1464C12.9473 20.2402 13 20.3674 13 20.5V22.5C13 22.6326 12.9473 22.7598 12.8536 22.8536C12.7598 22.9473 12.6326 23 12.5 23H11.5C11.3674 23 11.2402 22.9473 11.1464 22.8536C11.0527 22.7598 11 22.6326 11 22.5V20.5C11 20.3674 11.0527 20.2402 11.1464 20.1464C11.2402 20.0527 11.3674 20 11.5 20ZM18.365 17.1562C18.4975 17.1562 18.6248 17.2078 18.72 17.3L20.13 18.71C20.1778 18.7549 20.216 18.8091 20.242 18.8693C20.2681 18.9295 20.2815 18.9944 20.2815 19.06C20.2815 19.1256 20.2681 19.1905 20.242 19.2507C20.216 19.3109 20.1778 19.3651 20.13 19.41L19.42 20.12C19.3751 20.1678 19.3209 20.206 19.2607 20.232C19.2005 20.2581 19.1356 20.2715 19.07 20.2715C19.0044 20.2715 18.9395 20.2581 18.8793 20.232C18.8191 20.206 18.7649 20.1678 18.72 20.12L17.3 18.71C17.2078 18.6148 17.1562 18.4875 17.1562 18.355C17.1562 18.2225 17.2078 18.0951 17.3 18L18.01 17.3C18.1052 17.2078 18.2325 17.1562 18.365 17.1562Z" fill="#1E2128"/>
</svg>
