<?xml version="1.0" encoding="UTF-8"?>
<svg width="24px" height="24px" viewBox="0 0 24 24" version="1.1" xmlns="http://www.w3.org/2000/svg" xmlns:xlink="http://www.w3.org/1999/xlink">
    <!-- Generator: Sketch 60.1 (88133) - https://sketch.com -->
    <title>icon/grey/tips</title>
    <desc>Created with Sketch.</desc>
    <g id="icon/grey/tips" stroke="none" stroke-width="1" fill="none" fill-rule="evenodd">
        <path d="M14.0706,19 L14.0706,20.429 C14.0706,21.5726 13.1432,22.5 11.9998,22.5 C10.8554,22.5 9.9286,21.5726 9.92879997,20.429 L9.92879997,20.429 L9.92879997,19 L14.0706,19 Z M12.0004,6.5 C14.7614,6.5 17,8.7388 17,11.4998 C17,12.8808 16.4406,14.1306 15.5352,15.0356 C14.8334,15.7382 14.3882,16.5972 14.1922,17.5 L14.1922,17.5 L9.8084,17.5 C9.612,16.5974 9.1668,15.7384 8.4648,15.0356 C7.5594,14.1306 7,12.8808 7,11.4998 C7,8.7388 9.2388,6.5 11.9996,6.5 L11.9996,6.5 Z M9.5254,9.025 C8.1586,10.3922 8.1586,12.6084 9.5254,13.9754 L9.5254,13.9754 L10.5862,12.9142 C9.805,12.1332 9.8048,10.867 10.5862,10.0858 L10.5862,10.0858 Z M5.5,9 L5.5,10 L2.5,10 L2.5,9 L5.5,9 Z M21.5,9 L21.5,10 L18.5,10 L18.5,9 L21.5,9 Z M18.4142136,3.79289322 L19.1213203,4.5 L17,6.62132034 L16.2928932,5.91421356 L18.4142136,3.79289322 Z M6,3.79289322 L8.12132034,5.91421356 L7.41421356,6.62132034 L5.29289322,4.5 L6,3.79289322 Z M12.5,2 L12.5,5 L11.5,5 L11.5,2 L12.5,2 Z" id="Combined-Shape" fill="#ACB4BD" fill-rule="nonzero"></path>
    </g>
</svg>