<?xml version="1.0" encoding="UTF-8"?>
<svg width="24px" height="24px" viewBox="0 0 24 24" version="1.1" xmlns="http://www.w3.org/2000/svg" xmlns:xlink="http://www.w3.org/1999/xlink">
    <!-- Generator: Sketch 60 (88103) - https://sketch.com -->
    <title>icon/grey/lightning</title>
    <desc>Created with Sketch.</desc>
    <g id="icon/grey/lightning" stroke="none" stroke-width="1" fill="none" fill-rule="evenodd">
        <path d="M12.0050945,1 C11.7797706,1 11.5782547,1.13013654 11.4999194,1.32617189 L5.16628683,12.4687498 C5.05812267,12.6278006 5.00048812,12.8119304 5,13 C5,13.5522846 5.48250579,14 6.07770685,14 L11.4662411,14 L11.4662411,22.5 C11.4662411,22.776142 11.707494,23 12.0050945,23 C12.2072895,23 12.3926008,22.8953909 12.4850103,22.7285157 L18.8649508,11.5019528 L18.862846,11.5 C18.9584687,11.348247 19.0092905,11.1757863 19.010189,11 C19.010189,10.4477151 18.5276832,10 17.9324822,10 L12.5439479,10 L12.5439479,1.5 C12.5439479,1.22385762 12.302695,1 12.0050945,1 Z" id="material_bolt" fill="#ADB5BD"></path>
    </g>
</svg>