<svg width="24" height="24" viewBox="0 0 24 24" fill="#ADB5BD" xmlns="http://www.w3.org/2000/svg">
<path fill-rule="evenodd" clip-rule="evenodd" d="M3.50387 20.2962C4.44307 20.3064 5.2288 21.1285 5.22494 22.0968C5.22122 23.0476 4.41936 23.86 3.48587 23.859C2.54835 23.858 1.75396 23.0351 1.75849 22.0695C1.76298 21.1073 2.5714 20.2859 3.50387 20.2962ZM11.8094 2.66606C16.445 2.66478 20.1747 6.50662 20.1686 11.2766C20.1626 15.9823 16.397 19.8365 11.809 19.8331C7.21172 19.8295 3.4612 15.9597 3.46649 11.2252C3.47178 6.49923 7.20676 2.66742 11.8094 2.66606ZM22.2113 15.3063C23.0782 15.307 23.7911 16.0576 23.784 16.9622C23.7772 17.8301 23.056 18.5517 22.2018 18.5453C21.3435 18.5389 20.6237 17.7897 20.6328 16.912C20.6416 16.0536 21.377 15.3056 22.2113 15.3063ZM9.27161 6.55293C8.32812 6.55293 7.56324 7.36716 7.56324 8.37153C7.56324 9.59925 8.90307 9.9538 8.90307 11.2496C8.90307 12.5453 7.56324 12.8998 7.56324 14.1275C7.56324 15.1318 8.32812 15.9462 9.27161 15.9462C9.77302 15.9462 10.1194 15.6766 10.4508 15.3718L10.649 15.1865C11.0131 14.8461 11.393 14.5199 11.9751 14.5199C12.5573 14.5199 12.9372 14.8461 13.3013 15.1865L13.4995 15.3718C13.8309 15.6766 14.1773 15.9462 14.6787 15.9462C15.6222 15.9462 16.387 15.1318 16.387 14.1275C16.387 13.1232 15.6222 12.3088 14.6787 12.3088C13.5254 12.3088 13.1924 13.7351 11.9751 13.7351C11.2977 13.7351 10.8725 13.2791 10.4706 12.8511C10.0687 12.4232 9.64023 11.9708 9.64023 11.2496C9.64023 9.9538 10.98 9.59925 10.98 8.37153C10.98 7.36716 10.2151 6.55293 9.27161 6.55293ZM0.952533 10.5921C1.48515 10.5967 1.90096 11.0395 1.89062 11.5912C1.88063 12.1272 1.45124 12.5454 0.921037 12.5354C0.401398 12.5256 -0.00955178 12.0811 0.000168952 11.5393C0.00958352 11.0154 0.439554 10.5878 0.952533 10.5921ZM20.5663 1.54561e-06C21.1914 0.00101499 21.6693 0.497828 21.6663 1.14351C21.6633 1.78411 21.1778 2.2722 20.5484 2.2673C19.9389 2.26257 19.4618 1.76773 19.4604 1.13889C19.459 0.496477 19.942 -0.0010119 20.5663 1.54561e-06Z" fill="#1E2128"/>
</svg>
