<?xml version="1.0" encoding="UTF-8"?>
<svg width="24px" height="24px" viewBox="0 0 24 24" version="1.1" xmlns="http://www.w3.org/2000/svg" xmlns:xlink="http://www.w3.org/1999/xlink">
    <!-- Generator: Sketch 53.2 (72643) - https://sketchapp.com -->
    <title>icon/grey/lightful</title>
    <desc>Created with Sketch.</desc>
    <g id="icon/grey/lightful" stroke="none" stroke-width="1" fill="none" fill-rule="evenodd">
        <path d="M1.78563233,21.9454708 C1.78995636,21.0621604 2.56861867,20.3081109 3.46676595,20.317493 C4.37139928,20.3269414 5.12820499,21.0815877 5.12448903,21.9705008 C5.1209082,22.8433018 4.34856302,23.5891627 3.44943607,23.5882344 C2.54642426,23.587273 1.78127453,22.8318643 1.78563233,21.9454708 Z M20.9512845,17.6501236 C20.959833,16.8586026 21.671258,16.1688611 22.4784661,16.1694975 C23.3171687,16.1701829 24.0068475,16.8623232 23.9999487,17.6963871 C23.9933498,18.4966713 23.2956725,19.1620327 22.4692177,19.156109 C21.6388637,19.1501853 20.9424861,18.4593668 20.9512845,17.6501236 Z M0.848579005,13.3724502 C0.369820291,13.3638466 -0.00880034979,12.9735187 0.000155660908,12.4977743 C0.00882959253,12.0377229 0.404974396,11.6622276 0.87759789,11.666082 C1.3683097,11.6701085 1.75140835,12.0589222 1.74188818,12.5433734 C1.73268535,13.0140588 1.33706945,13.3812258 0.848579005,13.3724502 Z M20.834931,3.13334094 C20.2332248,3.12889096 19.762148,2.66328578 19.7607957,2.07159795 C19.7594434,1.46714294 20.236308,0.999047888 20.8526187,1.00000145 C21.4696867,1.00095502 21.9415208,1.46841436 21.9385458,2.07594198 C21.9355708,2.67870176 21.4562722,3.13794984 20.834931,3.13334094 Z M11.9704795,4.08323469 C16.5989905,4.08200792 20.3230426,7.73803623 20.3169693,12.2772733 C20.310962,16.7554301 16.5511303,20.4232096 11.9701495,20.4199167 C7.37986066,20.4165592 3.63508014,16.7339294 3.64036127,12.2283962 C3.64564239,7.73099845 7.3749096,4.08452603 11.9704795,4.08323469 Z M9.21393017,16.7747367 C10.3909624,16.7747367 10.7308992,15.4003567 11.9732368,15.4003567 C13.2155743,15.4003567 13.5555112,16.7747367 14.7325434,16.7747367 C15.6954999,16.7747367 16.4761603,15.9900291 16.4761603,15.0223237 C16.4761603,14.0545481 15.6954999,13.2698405 14.7325434,13.2698405 C13.5555112,13.2698405 13.2155743,14.6442206 11.9732368,14.6442206 C11.2818386,14.6442206 10.8478202,14.2048352 10.437619,13.7924408 C10.0274178,13.3801166 9.5901505,12.9441367 9.5901505,12.2492083 C9.5901505,11.0006535 10.9576169,10.6590154 10.9576169,9.4760226 C10.9576169,8.508247 10.1768867,7.7236798 9.21393017,7.7236798 C8.25097364,7.7236798 7.47031323,8.508247 7.47031323,9.4760226 C7.47031323,10.6590154 8.83777968,11.0006535 8.83777968,12.2492083 C8.83777968,13.4976928 7.47031323,13.8393309 7.47031323,15.0223237 C7.47031323,15.9900291 8.25097364,16.7747367 9.21393017,16.7747367 Z" id="Combined-Shape" fill="#ADB5BD"></path>
    </g>
</svg>