<?xml version="1.0" encoding="UTF-8"?>
<svg width="17px" height="15px" viewBox="0 0 17 15" version="1.1" xmlns="http://www.w3.org/2000/svg" xmlns:xlink="http://www.w3.org/1999/xlink">
    <!-- Generator: Sketch 51.2 (57519) - http://www.bohemiancoding.com/sketch -->
    <title>like</title>
    <desc>Created with Sketch.</desc>
    <defs></defs>
    <g id="Components" stroke="none" stroke-width="1" fill="none" fill-rule="evenodd">
        <g id="Icon-Set" transform="translate(-403.000000, -411.000000)" fill-rule="nonzero">
            <g id="like" transform="translate(399.000000, 406.000000)">
                <rect id="Rectangle" x="0" y="0" width="24" height="24"></rect>
                <path d="M12.3511951,6.88074914 C11.4798666,5.68641909 10.1039985,4.98797772 8.64659314,5.00015668 C6.08371986,5.00845333 4.00811592,7.13027585 4,9.750218 C4,11.6934249 5.39609003,13.839589 8.1523646,16.1520052 C9.43950229,17.225393 10.8098276,18.1900946 12.2498149,19.0365879 C12.2809518,19.0537691 12.3158122,19.0626783 12.3511951,19.0624973 C12.386578,19.0626783 12.4214384,19.0537691 12.4525753,19.0365879 C13.8963162,18.1997157 15.2702842,17.2428799 16.5605861,16.1757555 C19.3210848,13.8719757 20.7108386,11.712857 20.7108386,9.76101359 C20.7027227,7.14107144 18.6271187,5.01924892 16.0642455,5.01095228 C14.6057495,4.99347487 13.226522,5.68801841 12.3511951,6.88074914 Z" id="Shape" fill="#ADB5BD"></path>
            </g>
        </g>
    </g>
</svg>