<?xml version="1.0" encoding="UTF-8"?>
<svg width="24px" height="24px" viewBox="0 0 24 24" version="1.1" xmlns="http://www.w3.org/2000/svg" xmlns:xlink="http://www.w3.org/1999/xlink">
    <!-- Generator: Sketch 52 (66869) - http://www.bohemiancoding.com/sketch -->
    <title>like</title>
    <desc>Created with Sketch.</desc>
    <g id="like" stroke="none" stroke-width="1" fill="none" fill-rule="evenodd">
        <path d="M11.9954499,7.00613242 C11.0569026,5.73218037 9.5748928,4.98717623 8.00505561,5.00016713 C5.2444689,5.00901688 3.00874203,7.27229424 3,10.0668992 C3,12.1396532 4.50379171,14.4288949 7.4726997,16.8954722 C8.85913392,18.0404192 10.3351733,19.0694342 11.8862487,19.9723604 C11.9197877,19.990687 11.9573374,20.0001902 11.9954499,19.9999971 C12.0335625,20.0001902 12.0711122,19.990687 12.1046512,19.9723604 C13.6597697,19.0796968 15.1397328,18.0590718 16.5295753,16.9208059 C19.5030334,14.4634408 21,12.1603808 21,10.0784145 C20.991258,7.28380954 18.7555311,5.02053218 15.9949444,5.01168243 C14.4239324,4.99303986 12.9383041,5.7338863 11.9954499,7.00613242 Z" id="Shape" fill="#ADB5BD" fill-rule="nonzero"></path>
    </g>
</svg>