<?xml version="1.0" encoding="UTF-8"?>
<svg width="24px" height="24px" viewBox="0 0 24 24" version="1.1" xmlns="http://www.w3.org/2000/svg" xmlns:xlink="http://www.w3.org/1999/xlink">
    <!-- Generator: Sketch 55.2 (78181) - https://sketchapp.com -->
    <title>link</title>
    <desc>Created with Sketch.</desc>
    <g id="link" stroke="none" stroke-width="1" fill="none" fill-rule="evenodd">
        <path d="M7.66666667,9.92307692 L5.02564103,12.6153846 C3.74597807,13.9188314 3.37244159,15.8624098 4.07776598,17.5473514 C4.78309037,19.232293 6.42980116,20.3301865 8.25641026,20.3333333 L8.30769231,20.3333333 C9.50279107,20.3300308 10.6471971,19.8501186 11.4871795,19 L14.1282051,16.3076923 L15.2307692,17.3846154 L12.5897436,20.0769231 C11.4594565,21.2231882 9.91749585,21.869519 8.30769231,21.8717984 L8.25641026,21.8717984 C6.66341425,21.8735031 5.1339969,21.2469948 4,20.1282051 C1.60831294,17.7767978 1.57388482,13.9323245 3.92307692,11.5384615 L6.56410256,8.84615385 L7.66666667,9.92307692 Z M20,3.87179487 C22.3916871,6.22320215 22.4261152,10.0676755 20.0769231,12.4615385 L17.4358974,15.1538462 L16.3333333,14.0769231 L18.974359,11.3846154 C19.8181065,10.5215305 20.287917,9.36082211 20.2820513,8.15384615 C20.2442883,6.33085082 19.1251167,4.70525775 17.4356279,4.01942567 C15.7461391,3.33359358 13.810564,3.71914092 12.5128205,5 L9.87179487,7.69230769 L8.76923077,6.61538462 L11.4102564,3.92307692 C12.5405435,2.77681183 14.0825041,2.13048103 15.6923077,2.12820164 L15.7435897,2.12820164 C17.3365858,2.12649692 18.8660031,2.75300524 20,3.87179487 Z M8.10585385,14.8573271 L14.8213177,8.04743696 L15.9167424,9.12767242 L9.20127854,15.9375626 L8.10585385,14.8573271 Z" id="url" fill="#495056" fill-rule="nonzero"></path>
    </g>
</svg>
