<svg width="24" height="24" viewBox="0 0 24 24" fill="#ADB5BD" xmlns="http://www.w3.org/2000/svg">
<path d="M8.65 13.94L13.94 8.65002C14.0339 8.55536 14.1617 8.50212 14.295 8.50212C14.4283 8.50212 14.5561 8.55536 14.65 8.65002L15.35 9.35002C15.4447 9.4439 15.4979 9.5717 15.4979 9.70502C15.4979 9.83833 15.4447 9.96613 15.35 10.06L10.06 15.35C9.96612 15.4447 9.83832 15.4979 9.705 15.4979C9.57168 15.4979 9.44389 15.4447 9.35 15.35L8.65 14.65C8.55534 14.5561 8.5021 14.4283 8.5021 14.295C8.5021 14.1617 8.55534 14.0339 8.65 13.94ZM21 7.66002V8.00002C21.0008 9.0661 20.5761 10.0884 19.82 10.84L17 13.67C16.4739 14.1911 15.6261 14.1911 15.1 13.67L15 13.56C14.8094 13.3656 14.8094 13.0544 15 12.86L18.44 9.42002C18.8071 9.03933 19.0084 8.52877 19 8.00002V7.66002C19.0004 7.12697 18.788 6.61581 18.41 6.24002L17.76 5.59002C17.3842 5.21198 16.873 4.99959 16.34 5.00002H16C15.467 4.99959 14.9558 5.21198 14.58 5.59002L11.14 9.00002C10.9456 9.19059 10.6344 9.19059 10.44 9.00002L10.33 8.89002C9.80889 8.36388 9.80889 7.51616 10.33 6.99002L13.16 4.15002C13.9165 3.40493 14.9382 2.99121 16 3.00002H16.34C17.4012 2.99918 18.4192 3.42006 19.17 4.17002L19.83 4.83002C20.58 5.5808 21.0008 6.59883 21 7.66002ZM12.86 15C13.0544 14.8094 13.3656 14.8094 13.56 15L13.67 15.11C14.1911 15.6362 14.1911 16.4839 13.67 17.01L10.82 19.86C10.0668 20.5965 9.05344 21.0062 8 21H7.66C6.59882 21.0009 5.58079 20.58 4.83 19.83L4.17 19.17C3.42249 18.4217 3.00182 17.4077 3 16.35V16C2.99916 14.9339 3.42392 13.9116 4.18 13.16L7 10.33C7.52614 9.8089 8.37386 9.8089 8.9 10.33L9.01 10.44C9.20057 10.6344 9.20057 10.9456 9.01 11.14L5.59 14.58C5.21196 14.9558 4.99958 15.467 5 16V16.34C4.99958 16.8731 5.21196 17.3842 5.59 17.76L6.24 18.41C6.6158 18.7881 7.12696 19.0004 7.66 19H8C8.53651 19.0031 9.05177 18.7905 9.43 18.41L12.86 15Z" fill="#1E2128"/>
</svg>
