<?xml version="1.0" encoding="UTF-8"?>
<svg width="16px" height="16px" viewBox="0 0 16 16" version="1.1" xmlns="http://www.w3.org/2000/svg" xmlns:xlink="http://www.w3.org/1999/xlink">
    <!-- Generator: Sketch 51.2 (57519) - http://www.bohemiancoding.com/sketch -->
    <title>linkedin</title>
    <desc>Created with Sketch.</desc>
    <defs></defs>
    <g id="Components" stroke="none" stroke-width="1" fill="none" fill-rule="evenodd">
        <g id="Icon-Set" transform="translate(-183.000000, -305.000000)" fill-rule="nonzero">
            <g id="linkedin" transform="translate(179.000000, 301.000000)">
                <rect id="Rectangle" x="0" y="0" width="24" height="24"></rect>
                <path d="M7.57416481,20 L4.2636971,20 L4.2636971,9.31785714 L7.57416481,9.31785714 L7.57416481,20 Z M5.91714922,7.86071429 C4.85879733,7.86071429 4,6.98214286 4,5.92142857 C4,4.86071429 4.85879733,4 5.91714922,4 C6.97550111,4 7.83429844,4.86071429 7.83429844,5.92142857 C7.83429844,6.98214286 6.97550111,7.86071429 5.91714922,7.86071429 Z M16.6610245,20 L16.6610245,14.8 C16.6610245,13.5607143 16.6360802,11.9714286 14.9398664,11.9714286 C13.2187082,11.9714286 12.9550111,13.3178571 12.9550111,14.7107143 L12.9550111,20 L9.6481069,20 L9.6481069,9.31785714 L12.8231626,9.31785714 L12.8231626,10.775 L12.8694878,10.775 C13.3113586,9.93571429 14.3910913,9.05 16.0017817,9.05 C19.3514477,9.05 19.9679287,11.2607143 19.9679287,14.1321429 L19.9679287,20 L16.6610245,20 Z" id="Shape" fill="#ADB5BD"></path>
            </g>
        </g>
    </g>
</svg>