<?xml version="1.0" encoding="UTF-8"?>
<svg width="24px" height="24px" viewBox="0 0 24 24" version="1.1" xmlns="http://www.w3.org/2000/svg" xmlns:xlink="http://www.w3.org/1999/xlink">
    <!-- Generator: Sketch 52 (66869) - http://www.bohemiancoding.com/sketch -->
    <title>linkedin</title>
    <desc>Created with Sketch.</desc>
    <g id="linkedin" stroke="none" stroke-width="1" fill="none" fill-rule="evenodd">
        <path d="M7.02901138,21 L3.29725508,21 L3.29725508,8.98258929 L7.02901138,8.98258929 L7.02901138,21 Z M5.16112475,7.34330357 C3.96808748,7.34330357 3,6.35491071 3,5.16160714 C3,3.96830357 3.96808748,3 5.16112475,3 C6.35416202,3 7.3222495,3.96830357 7.3222495,5.16160714 C7.3222495,6.35491071 6.35416202,7.34330357 5.16112475,7.34330357 Z M17.2722607,21 L17.2722607,15.15 C17.2722607,13.7558036 17.2441419,11.9678571 15.3320687,11.9678571 C13.3918768,11.9678571 13.0946217,13.4825893 13.0946217,15.0495536 L13.0946217,21 L9.36688239,21 L9.36688239,8.98258929 L12.9459942,8.98258929 L12.9459942,10.621875 L12.9982147,10.621875 C13.4963178,9.67767857 14.7134568,8.68125 16.529123,8.68125 C20.3050658,8.68125 21,11.1683036 21,14.3986607 L21,21 L17.2722607,21 Z" id="Shape" fill="#ADB5BD" fill-rule="nonzero"></path>
    </g>
</svg>