<?xml version="1.0" encoding="UTF-8"?>
<svg width="24px" height="24px" viewBox="0 0 24 24" version="1.1" xmlns="http://www.w3.org/2000/svg" xmlns:xlink="http://www.w3.org/1999/xlink">
    <!-- Generator: Sketch 55.1 (78136) - https://sketchapp.com -->
    <title>list</title>
    <desc>Created with Sketch.</desc>
    <g id="list" stroke="none" stroke-width="1" fill="none" fill-rule="evenodd">
        <path d="M3.32271892,17.173913 C4.02082058,17.173913 4.60869565,17.7617881 4.60869565,18.4598898 C4.60869565,19.1579914 4.02082058,19.7826087 3.32271892,19.7826087 C2.62461727,19.7826087 2,19.1579914 2,18.4598898 C2,17.7617881 2.62461727,17.173913 3.32271892,17.173913 Z M3.32271892,11.0869565 C4.02082058,11.0869565 4.60869565,11.6832298 4.60869565,12.3913043 C4.60869565,13.0993789 4.02082058,13.6956522 3.32271892,13.6956522 C2.62461727,13.6956522 2,13.0993789 2,12.3913043 C2,11.6832298 2.62461727,11.0869565 3.32271892,11.0869565 Z M8.53941322,7.60869565 C7.81831036,7.60869565 7.2173913,7.04682274 7.2173913,6.32441472 C7.2173913,5.60200669 7.81831036,5 8.53941322,5 L20.6779781,5 C21.3990809,5 22,5.60200669 22,6.32441472 C22,7.04682274 21.3990809,7.60869565 20.6779781,7.60869565 L8.53941322,7.60869565 Z M3.32271892,5 C4.02082058,5 4.60869565,5.62461727 4.60869565,6.32271892 C4.60869565,7.02082058 4.02082058,7.60869565 3.32271892,7.60869565 C2.62461727,7.60869565 2,7.02082058 2,6.32271892 C2,5.62461727 2.62461727,5 3.32271892,5 Z M20.6779781,11.0869565 C21.3990809,11.0869565 22,11.6798419 22,12.3913043 C22,13.1027668 21.3990809,13.6956522 20.6779781,13.6956522 L8.53941322,13.6956522 C7.81831036,13.6956522 7.2173913,13.1027668 7.2173913,12.3913043 C7.2173913,11.6798419 7.81831036,11.0869565 8.53941322,11.0869565 L20.6779781,11.0869565 Z M20.6779781,17.173913 C21.3990809,17.173913 22,17.7667984 22,18.4782609 C22,19.1897233 21.3990809,19.7826087 20.6779781,19.7826087 L8.53941322,19.7826087 C7.81831036,19.7826087 7.2173913,19.1897233 7.2173913,18.4782609 C7.2173913,17.7667984 7.81831036,17.173913 8.53941322,17.173913 L20.6779781,17.173913 Z" id="List" fill="#ADB5BD" fill-rule="nonzero"></path>
    </g>
</svg>
