<svg width="24" height="25" viewBox="0 0 24 25" fill="none" xmlns="http://www.w3.org/2000/svg">
<g id="icons" clip-path="url(#clip0_1987_72318)">
<path id="Vector" d="M12 2.42969C8.13 2.42969 5 5.55969 5 9.42969C5 11.1697 5.5 12.7997 6.41 14.2697C7.36 15.8097 8.61 17.1297 9.57 18.6697C10.04 19.4197 10.38 20.1197 10.74 20.9297C11 21.4797 11.21 22.4297 12 22.4297C12.79 22.4297 13 21.4797 13.25 20.9297C13.62 20.1197 13.95 19.4197 14.42 18.6697C15.38 17.1397 16.63 15.8197 17.58 14.2697C18.5 12.7997 19 11.1697 19 9.42969C19 5.55969 15.87 2.42969 12 2.42969ZM12 12.1797C10.62 12.1797 9.5 11.0597 9.5 9.67969C9.5 8.29969 10.62 7.17969 12 7.17969C13.38 7.17969 14.5 8.29969 14.5 9.67969C14.5 11.0597 13.38 12.1797 12 12.1797Z" fill="white"/>
</g>
<defs>
<clipPath id="clip0_1987_72318">
<rect width="24" height="24" fill="white" transform="translate(0 0.429688)"/>
</clipPath>
</defs>
</svg>
