<svg width="24" height="24" viewBox="0 0 24 24" fill="#ADB5BD" xmlns="http://www.w3.org/2000/svg">
<path d="M18 10H8V8C8 5.79086 9.79086 4 12 4C14.2091 4 16 5.79086 16 8H18C18 4.68629 15.3137 2 12 2C8.68629 2 6 4.68629 6 8V10C4.89543 10 4 10.8954 4 12V20C4 21.1046 4.89543 22 6 22H18C19.1046 22 20 21.1046 20 20V12C20 10.8954 19.1046 10 18 10ZM14 17C14 17.5523 13.5523 18 13 18H11C10.4477 18 10 17.5523 10 17V15C10 14.4477 10.4477 14 11 14H13C13.5523 14 14 14.4477 14 15V17Z" fill="#1E2128"/>
</svg>
