<?xml version="1.0" encoding="UTF-8"?>
<svg width="24px" height="24px" viewBox="0 0 24 24" version="1.1" xmlns="http://www.w3.org/2000/svg" xmlns:xlink="http://www.w3.org/1999/xlink">
    <!-- Generator: Sketch 53.2 (72643) - https://sketchapp.com -->
    <title>lockClosed</title>
    <desc>Created with Sketch.</desc>
    <g id="lockClosed" stroke="none" stroke-width="1" fill="none" fill-rule="evenodd">
        <path d="M6.59090855,7.84015028 L6.59090855,10.1776245 C5.54765209,10.2900744 5,11.1728037 5,12.245117 L5,19.9325234 C5,21.0763412 5.92336787,22 7.06676066,22 L17.4786889,22 C18.6220817,22 19.5454496,21.0763412 19.5454496,19.9325234 L19.5454496,12.245117 C19.5454496,11.1728037 18.9977975,10.2829676 17.954541,10.1776131 L17.954541,7.84013437 C17.954541,4.60919911 15.4212214,2 12.2727248,2 C9.12422814,2.00001136 6.59090855,4.60921047 6.59090855,7.84015028 Z M12.2727248,4.26644014 C14.2876491,4.26644014 15.9090872,5.86517823 15.9090872,7.85435937 C15.9090872,7.85435937 15.9090872,7.8018754 15.9090872,7.69690747 C15.9090872,8.28752176 15.9090872,9.06401023 15.9090872,10.0263729 C15.9090872,10.059651 15.9090872,10.1100682 15.9090872,10.1776245 L8.6363624,10.1776245 L8.6363624,7.85435937 C8.6363624,5.86517823 10.2578005,4.26644014 12.2727248,4.26644014 Z M12.2727248,13.1332303 C13.1513586,13.1332303 13.8636333,13.8457528 13.8636333,14.724707 C13.8636333,15.2834341 13.5746107,15.7764567 13.1392018,16.0603884 C13.1629518,16.1417975 13.1818154,16.2268883 13.1818154,16.316161 L13.1818154,18.1350013 C13.1818154,18.6388193 12.776361,19.0444101 12.2727248,19.0444101 C11.7690886,19.0444101 11.3636342,18.6388193 11.3636342,18.1350013 L11.3636342,16.316161 C11.3636342,16.2268883 11.3824978,16.1417975 11.4062478,16.0603884 C10.9708389,15.7764567 10.6818162,15.2834341 10.6818162,14.724707 C10.6818162,13.8457528 11.394091,13.1332303 12.2727248,13.1332303 L12.2727248,13.1332303 Z" id="Shape" fill="#ADB5BD" fill-rule="nonzero"></path>
    </g>
</svg>
