<?xml version="1.0" encoding="UTF-8"?>
<svg width="24px" height="24px" viewBox="0 0 24 24" version="1.1" xmlns="http://www.w3.org/2000/svg" xmlns:xlink="http://www.w3.org/1999/xlink">
    <!-- Generator: Sketch 52 (66869) - http://www.bohemiancoding.com/sketch -->
    <title>media</title>
    <desc>Created with Sketch.</desc>
    <g id="media" stroke="none" stroke-width="1" fill="none" fill-rule="evenodd">
        <path d="M15.8772331,3 C18.7010351,3 21,5.29748353 21,8.12524907 L21,15.8747509 C21,18.702648 18.7010991,21 15.8772331,21 L8.12276685,21 C5.29876942,21 3,18.7027118 3,15.8747509 L3,8.12524907 C3,5.29741966 5.29883346,3 8.12276685,3 L15.8772331,3 Z M19.5299796,9.96453394 L19.5299796,8.16398304 C19.5299796,6.12991291 17.8995824,4.4747382 15.8959618,4.4747382 L8.10403821,4.4747382 C6.10022113,4.4747382 4.47002036,6.12991291 4.47002036,8.16398304 L4.47002036,12.9406577 L5.34002388,12.0574326 C6.59110819,10.7871358 8.61967588,10.7871358 9.87095662,12.0574326 L10.6500115,12.8483269 L14.2449391,9.1991652 C15.4960234,7.92886846 17.5245911,7.92886846 18.7758718,9.1991652 L19.5299796,9.96453394 Z M9.41846864,9.54704166 C8.42885548,9.54704166 7.62661551,8.74529508 7.62661551,7.75629054 C7.62661551,6.76728601 8.42885548,5.96553942 9.41846864,5.96553942 C10.4080818,5.96553942 11.2103218,6.76728601 11.2103218,7.75629054 C11.2103218,8.74529508 10.4080818,9.54704166 9.41846864,9.54704166 Z" id="Combined-Shape" fill="#ADB5BD" fill-rule="nonzero"></path>
    </g>
</svg>