<svg width="24" height="24" viewBox="0 0 24 24" fill="#ADB5BD" xmlns="http://www.w3.org/2000/svg">
<path d="M17 18C18.1046 18 19 17.1046 19 16V7C19 5.89543 18.1046 5 17 5H12.41C12.1477 4.9989 11.8963 4.89474 11.71 4.71L10.29 3.29C10.1037 3.10526 9.85234 3.0011 9.59 3H3C1.89543 3 1 3.89543 1 5V16C1 17.1046 1.89543 18 3 18H17ZM7.5 6C8.32843 6 9 6.67157 9 7.5C9 8.32843 8.32843 9 7.5 9C6.67157 9 6 8.32843 6 7.5C6 6.67157 6.67157 6 7.5 6ZM17 15.5C17 15.7761 16.7761 16 16.5 16H3.5C3.22386 16 3 15.7761 3 15.5V15.16C2.99964 15.0501 3.03866 14.9436 3.11 14.86L6 11.19C6.08683 11.0827 6.21274 11.0144 6.35 11C6.50046 10.9983 6.64371 11.0644 6.74 11.18L8.19 12.93C8.28318 13.0441 8.42272 13.1102 8.57 13.11C8.72701 13.1085 8.87456 13.0347 8.97 12.91L11.85 9.19C11.9467 9.06771 12.0941 8.99639 12.25 8.99639C12.4059 8.99639 12.5533 9.06771 12.65 9.19L16.9 14.86C16.9643 14.9469 16.9993 15.0519 17 15.16V15.5ZM21 9V18C21 19.1046 20.1046 20 19 20H5C5 21.1046 5.89543 22 7 22H19C21.2091 22 23 20.2091 23 18V11C23 9.89543 22.1046 9 21 9Z" fill="#1E2128"/>
</svg>
