<?xml version="1.0" encoding="UTF-8"?>
<svg width="24px" height="24px" viewBox="0 0 24 24" version="1.1" xmlns="http://www.w3.org/2000/svg" xmlns:xlink="http://www.w3.org/1999/xlink">
    <!-- Generator: Sketch 51.2 (57519) - http://www.bohemiancoding.com/sketch -->
    <title>media_library</title>
    <desc>Created with Sketch.</desc>
    <defs></defs>
    <g id="media_library" stroke="none" stroke-width="1" fill="none" fill-rule="evenodd">
        <path d="M10.7949169,12.0705525 L10.382641,11.65778 C9.74694862,11.0228079 8.91194937,10.7049164 8.07775378,10.7049164 C7.24275453,10.7049164 6.40775529,11.0228079 5.77206289,11.65778 L5.68044603,11.7494171 L5.68044603,8.52427775 C5.68044603,6.95995945 6.95504546,5.68677141 8.5221759,5.68677141 L15.4778241,5.68677141 C17.0449545,5.68677141 18.319554,6.95995945 18.319554,8.52427775 L18.319554,9.13411049 C17.0473655,7.87551951 14.9883972,7.87957425 13.7210307,9.14546376 L10.7949169,12.0705525 Z M15.4778241,4 L8.5221759,4 C6.02842935,4 4,6.02980233 4,8.52427775 L4,15.4757223 C4,17.9701977 6.02842935,20 8.5221759,20 L15.4778241,20 C17.9715706,20 20,17.9701977 20,15.4757223 L20,8.52427775 C20,6.02980233 17.9715706,4 15.4778241,4 Z" id="shape" fill="#ADB5BD"></path>
    </g>
</svg>