<?xml version="1.0" encoding="UTF-8"?>
<svg width="24px" height="24px" viewBox="0 0 24 24" version="1.1" xmlns="http://www.w3.org/2000/svg" xmlns:xlink="http://www.w3.org/1999/xlink">
    <!-- Generator: Sketch 52 (66869) - http://www.bohemiancoding.com/sketch -->
    <title>media_library</title>
    <desc>Created with Sketch.</desc>
    <g id="media_library" stroke="none" stroke-width="1" fill="none" fill-rule="evenodd">
        <path d="M10.6442815,12.0793715 L10.1804711,11.6150025 C9.46531719,10.9006589 8.52594304,10.5430309 7.587473,10.5430309 C6.64809885,10.5430309 5.7087247,10.9006589 4.99357075,11.6150025 L4.89050178,11.7180943 L4.89050178,8.08981247 C4.89050178,6.32995438 6.32442614,4.89761784 8.08744789,4.89761784 L15.9125521,4.89761784 C17.6755739,4.89761784 19.1094982,6.32995438 19.1094982,8.08981247 L19.1094982,8.7758743 C17.6782862,7.35995945 15.3619469,7.36452103 13.9361595,8.78864673 L10.6442815,12.0793715 Z M15.9125521,3 L8.08744789,3 C5.28198302,3 3,5.28352762 3,8.08981247 L3,15.9101875 C3,18.7164724 5.28198302,21 8.08744789,21 L15.9125521,21 C18.718017,21 21,18.7164724 21,15.9101875 L21,8.08981247 C21,5.28352762 18.718017,3 15.9125521,3 Z" id="shape" fill="#ADB5BD"></path>
    </g>
</svg>