<?xml version="1.0" encoding="UTF-8"?>
<svg width="24px" height="24px" viewBox="0 0 24 24" version="1.1" xmlns="http://www.w3.org/2000/svg" xmlns:xlink="http://www.w3.org/1999/xlink">
    <!-- Generator: Sketch 52 (66869) - http://www.bohemiancoding.com/sketch -->
    <title>menu</title>
    <desc>Created with Sketch.</desc>
    <g id="menu" stroke="none" stroke-width="1" fill="#ADB5BD" fill-rule="evenodd">
        <path d="M4.67981911,14.5555556 C3.19979588,14.5555556 2,13.3119021 2,11.7777778 C2,10.2436535 3.19979588,9 4.67981911,9 C6.15984233,9 7.35963822,10.2436535 7.35963822,11.7777778 C7.35963822,13.3119021 6.15984233,14.5555556 4.67981911,14.5555556 Z M12,14.5555556 C10.5199768,14.5555556 9.32018089,13.3119021 9.32018089,11.7777778 C9.32018089,10.2436535 10.5199768,9 12,9 C13.4800232,9 14.6798191,10.2436535 14.6798191,11.7777778 C14.6798191,13.3119021 13.4800232,14.5555556 12,14.5555556 Z M19.3201809,14.5555556 C17.8401577,14.5555556 16.6403618,13.3119021 16.6403618,11.7777778 C16.6403618,10.2436535 17.8401577,9 19.3201809,9 C20.8002041,9 22,10.2436535 22,11.7777778 C22,13.3119021 20.8002041,14.5555556 19.3201809,14.5555556 Z" id="shape" fill="#ADB5BD" fill-rule="nonzero"></path>
    </g>
</svg>