<?xml version="1.0" encoding="UTF-8"?>
<svg width="16px" height="4px" viewBox="0 0 16 4" version="1.1" xmlns="http://www.w3.org/2000/svg" xmlns:xlink="http://www.w3.org/1999/xlink">
    <!-- Generator: Sketch 51.2 (57519) - http://www.bohemiancoding.com/sketch -->
    <title>menu</title>
    <desc>Created with Sketch.</desc>
    <defs></defs>
    <g id="Components" stroke="none" stroke-width="1" fill="none" fill-rule="evenodd">
        <g id="Icon-Set" transform="translate(-535.000000, -416.000000)" fill-rule="nonzero">
            <g id="menu" transform="translate(531.000000, 406.000000)">
                <rect id="Rectangle" x="0" y="0" width="24" height="24"></rect>
                <path d="M5.92978854,13.8595771 C4.86399576,13.8595771 4,12.9955813 4,11.9297885 C4,10.8639958 4.86399576,10 5.92978854,10 C6.99558133,10 7.85957709,10.8639958 7.85957709,11.9297885 C7.85957709,12.9955813 6.99558133,13.8595771 5.92978854,13.8595771 Z M12,13.8595771 C10.9342072,13.8595771 10.0702115,12.9955813 10.0702115,11.9297885 C10.0702115,10.8639958 10.9342072,10 12,10 C13.0657928,10 13.9297885,10.8639958 13.9297885,11.9297885 C13.9297885,12.9955813 13.0657928,13.8595771 12,13.8595771 Z M18.0702115,13.8595771 C17.0044187,13.8595771 16.1404229,12.9955813 16.1404229,11.9297885 C16.1404229,10.8639958 17.0044187,10 18.0702115,10 C19.1360042,10 20,10.8639958 20,11.9297885 C20,12.9955813 19.1360042,13.8595771 18.0702115,13.8595771 Z" id="shape" fill="#ADB5BD"></path>
            </g>
        </g>
    </g>
</svg>