<?xml version="1.0" encoding="UTF-8"?>
<svg width="24px" height="24px" viewBox="0 0 24 24" version="1.1" xmlns="http://www.w3.org/2000/svg" xmlns:xlink="http://www.w3.org/1999/xlink">
    <!-- Generator: Sketch 51.2 (57519) - http://www.bohemiancoding.com/sketch -->
    <title>multiple_social_provider</title>
    <desc>Created with Sketch.</desc>
    <defs></defs>
    <g id="multiple_social_provider" stroke="none" stroke-width="1" fill="none" fill-rule="evenodd">
        <path d="M8.39930451,12.6221953 C7.73668321,12.6221953 7.19952251,12.0971598 7.19952251,11.4494957 C7.19952251,10.8018317 7.73668321,10.2767962 8.39930451,10.2767962 C9.06192581,10.2767962 9.5990865,10.8018317 9.5990865,11.4494957 C9.5990865,12.0971598 9.06192581,12.6221953 8.39930451,12.6221953 Z M11.9986505,12.6221953 C11.3360292,12.6221953 10.7988685,12.0971598 10.7988685,11.4494957 C10.7988685,10.8018317 11.3360292,10.2767962 11.9986505,10.2767962 C12.6612718,10.2767962 13.1984325,10.8018317 13.1984325,11.4494957 C13.1984325,12.0971598 12.6612718,12.6221953 11.9986505,12.6221953 Z M15.5979965,12.6221953 C14.9353752,12.6221953 14.3982145,12.0971598 14.3982145,11.4494957 C14.3982145,10.8018317 14.9353752,10.2767962 15.5979965,10.2767962 C16.2606178,10.2767962 16.7977785,10.8018317 16.7977785,11.4494957 C16.7977785,12.0971598 16.2606178,12.6221953 15.5979965,12.6221953 Z M11.6839477,16.1852083 C11.9922916,16.1957626 12.2826389,16.2930967 12.5285942,16.4678289 C12.9473181,16.7879759 13.3456457,17.1046048 13.7439734,17.4188883 C14.1363021,17.7308264 14.5286308,18.0427644 14.9257586,18.3476663 C15.1909104,18.5470253 15.4440644,18.6959581 15.6756224,18.786256 C15.7608069,18.8179188 15.8843844,18.8472363 15.980367,18.8038465 C16.0667513,18.7639747 16.1423376,18.6619498 16.1927284,18.5153624 C16.2503179,18.3453209 16.2863114,18.1658979 16.2971094,17.9853022 C16.3187055,17.5631303 16.3223049,17.135095 16.3055079,16.7070597 C16.2863114,16.2426706 16.4938737,15.8967243 16.9221959,15.6832929 C18.9102346,14.6864983 19.954045,12.8535689 19.7812764,10.6535846 C19.6001093,8.35626612 17.6792583,6.39316707 15.4092708,6.18559925 L15.2257041,6.17152685 C14.2598796,6.17621765 13.261661,6.17621765 12.2622426,6.17621765 L9.02643056,6.17269955 C8.68689225,6.18911735 8.41574152,6.20788054 8.31975896,6.22429833 C5.66224184,6.68165116 3.80977844,9.30498006 4.27529386,11.9505903 C4.71561385,14.4636854 6.7516439,16.159409 9.33957366,16.1746541 L10.1122333,16.1746541 C10.2670051,16.1746541 10.421777,16.1734814 10.5765489,16.1734814 C10.9460817,16.1734814 11.3156146,16.1758268 11.6839477,16.1852083 Z M15.2377019,19.8768665 C14.8969639,19.7466969 14.5454277,19.5426472 14.1878927,19.2717536 C13.7835662,18.9621609 13.3852385,18.645532 12.9869109,18.3312485 C12.5945822,18.0193105 12.2022535,17.7085451 11.8051257,17.4036432 C11.770332,17.3790165 11.7115427,17.3590806 11.6503538,17.3579079 C11.1416462,17.3450082 10.6317389,17.349699 10.1158326,17.3473536 L9.33357475,17.3473536 C6.14215464,17.3285904 3.63461027,15.2411852 3.09230881,12.1499492 C2.50801498,8.82300055 4.758806,5.64615745 8.10979711,5.06918927 C8.2237764,5.04925338 8.55011711,5.02110859 8.99883557,5.0011727 L12.2634424,5.0035181 C13.2592614,5.0023454 14.2562803,5.0023454 15.2520993,5 C15.3648788,5.0046908 15.4440644,5.0105543 15.5232501,5.01759049 C18.4039266,5.28262059 20.7495004,7.66554609 20.977459,10.5644594 C21.1874209,13.2440779 19.9228506,15.4804159 17.5076895,16.7082324 C17.5220869,17.1761395 17.5172877,17.6147291 17.4944919,18.0486279 C17.4776949,18.337112 17.422505,18.6173872 17.3301217,18.8871081 C17.1741501,19.3421155 16.8754044,19.6892346 16.4890746,19.8651396 C16.2947099,19.9554374 16.0859478,20 15.8711868,20 C15.6648243,20 15.4512631,19.9589555 15.2377019,19.8768665 Z" id="shape" fill="#ADB5BD"></path>
    </g>
</svg>