<?xml version="1.0" encoding="UTF-8"?>
<svg width="24px" height="24px" viewBox="0 0 24 24" version="1.1" xmlns="http://www.w3.org/2000/svg" xmlns:xlink="http://www.w3.org/1999/xlink">
    <!-- Generator: Sketch 52 (66869) - http://www.bohemiancoding.com/sketch -->
    <title>notifications</title>
    <desc>Created with Sketch.</desc>
    <g id="notifications" stroke="none" stroke-width="1" fill="none" fill-rule="evenodd">
        <path d="M4.51041229,16.9558442 C3.80790935,16.2311688 3.83057074,15.038961 4.57839644,14.3376623 L5.14493106,13.8233766 C5.50751322,13.4961039 5.71146569,13.0051948 5.71146569,12.4909091 C5.71146569,12.4909091 5.71146569,11.1818182 5.71146569,9.63896104 C5.71146569,6.57662338 7.97760418,3 11.8300396,3 L12.1699604,3 C16.0223958,3 18.2885343,6.6 18.2885343,9.63896104 C18.2885343,11.1818182 18.2885343,12.4909091 18.2885343,12.4909091 C18.2885343,13.0051948 18.4924868,13.4727273 18.8550689,13.8233766 L19.4216036,14.3376623 C20.1694293,15.038961 20.1920906,16.2311688 19.4895877,16.9558442 C19.1496669,17.3064935 18.7191006,17.4935065 18.2432115,17.4935065 L13.1897227,17.4935065 L10.8102773,17.4935065 L5.75678846,17.4935065 C5.28089937,17.4935065 4.85033306,17.3064935 4.51041229,16.9558442 Z M11.9886693,21 C10.674309,21 9.60922389,19.9012987 9.60922389,18.5454545 L14.3681147,18.5454545 C14.3681147,19.9012987 13.3030296,21 11.9886693,21 Z" id="Shape" fill="#ADB5BD" fill-rule="nonzero"></path>
    </g>
</svg>