<?xml version="1.0" encoding="UTF-8"?>
<svg width="15px" height="16px" viewBox="0 0 15 16" version="1.1" xmlns="http://www.w3.org/2000/svg" xmlns:xlink="http://www.w3.org/1999/xlink">
    <!-- Generator: Sketch 51.2 (57519) - http://www.bohemiancoding.com/sketch -->
    <title>notifications</title>
    <desc>Created with Sketch.</desc>
    <defs></defs>
    <g id="Components" stroke="none" stroke-width="1" fill="none" fill-rule="evenodd">
        <g id="Icon-Set" transform="translate(-535.000000, -515.000000)" fill-rule="nonzero">
            <g id="notifications" transform="translate(530.000000, 511.000000)">
                <rect id="Rectangle" x="0" y="0" width="24" height="24"></rect>
                <path d="M5.47763736,16.3352407 C4.82024401,15.6947173 4.84145024,14.640953 5.54125607,14.0210917 L6.071412,13.5665267 C6.41071179,13.2772581 6.60156792,12.8433551 6.60156792,12.3887902 C6.60156792,12.3887902 6.60156792,11.2317157 6.60156792,9.8680207 C6.60156792,7.16129284 8.72219164,4 12.3272519,4 L12.6453455,4 C16.2504058,4 18.3710295,7.18195489 18.3710295,9.8680207 C18.3710295,11.2317157 18.3710295,12.3887902 18.3710295,12.3887902 C18.3710295,12.8433551 18.5618857,13.256596 18.9011855,13.5665267 L19.4313414,14.0210917 C20.1311472,14.640953 20.1523534,15.6947173 19.4949601,16.3352407 C19.1768665,16.6451714 18.773948,16.8104677 18.3286171,16.8104677 L13.5996262,16.8104677 L11.3729713,16.8104677 L6.6439804,16.8104677 C6.19864942,16.8104677 5.79573091,16.6451714 5.47763736,16.3352407 Z M12.4756956,19.9097744 C11.2457339,19.9097744 10.2490407,18.9386583 10.2490407,17.7402597 L14.7023505,17.7402597 C14.7023505,18.9386583 13.7056574,19.9097744 12.4756956,19.9097744 Z" id="Shape" fill="#ADB5BD"></path>
            </g>
        </g>
    </g>
</svg>