<?xml version="1.0" encoding="UTF-8"?>
<svg width="24px" height="24px" viewBox="0 0 24 24" version="1.1" xmlns="http://www.w3.org/2000/svg" xmlns:xlink="http://www.w3.org/1999/xlink">
    <!-- Generator: Sketch 52 (66869) - http://www.bohemiancoding.com/sketch -->
    <title>organisation_account</title>
    <desc>Created with Sketch.</desc>
    <g id="organisation_account" stroke="none" stroke-width="1" fill="#ADB5BD" fill-rule="evenodd">
        <path d="M5.84703434,14.4006179 C5.7346514,13.9371782 5.65972945,13.4366632 5.65972945,12.9361483 C5.65972945,10.3223481 7.27055151,8.07929969 9.57440166,7.1338826 C10.0613944,7.96807415 10.9604579,8.56127703 12.0093652,8.56127703 C13.5639958,8.56127703 14.8189386,7.3192585 14.8189386,5.78063852 C14.8189386,4.24201854 13.5639958,3 12.0093652,3 C10.5858481,3 9.42455775,4.03810505 9.23725286,5.39134912 C6.10926119,6.52214212 3.88033299,9.46961895 3.88033299,12.9361483 C3.88033299,13.6220391 3.97398543,14.30793 4.14255983,14.938208 C3.44953174,15.4572606 3,16.2543769 3,17.1812564 C3,18.7198764 4.25494277,19.961895 5.80957336,19.961895 C7.36420395,19.961895 8.61914672,18.7198764 8.61914672,17.1812564 C8.61914672,15.661174 7.38293444,14.4191555 5.84703434,14.4006179 Z M18.2091571,14.4006179 C16.6545265,14.4006179 15.3995838,15.6426365 15.3995838,17.1812564 C15.3995838,17.5149331 15.4745057,17.8300721 15.5681582,18.1266735 C14.5567118,18.8125644 13.3204995,19.2389289 11.9906348,19.2389289 C11.0166493,19.2389289 10.0801249,19.0164779 9.25598335,18.6271885 C9.01248699,19.1833162 8.6566077,19.6652935 8.18834547,20.0545829 C9.33090531,20.6477858 10.6233091,21 11.9906348,21 C13.7325702,21 15.3433923,20.4438723 16.6545265,19.5169928 C17.1040583,19.7950566 17.628512,19.9804325 18.1904266,19.9804325 C19.7450572,19.9804325 21,18.738414 21,17.199794 C21,15.661174 19.7637877,14.4006179 18.2091571,14.4006179 Z M18.359001,12.9361483 C18.359001,13.1215242 18.359001,13.2883625 18.3402706,13.4552008 C18.9771072,13.4737384 19.5577523,13.6405767 20.0634755,13.9371782 C20.1009365,13.6035015 20.1383975,13.2698249 20.1383975,12.9361483 C20.1383975,9.84037075 18.359001,7.15242019 15.7741935,5.8177137 C15.7741935,6.44799176 15.6056191,7.04119464 15.3059313,7.57878476 C17.1415193,8.67250257 18.359001,10.6745623 18.359001,12.9361483 Z" id="Shape" fill="#ADB5BD" fill-rule="nonzero"></path>
    </g>
</svg>