<?xml version="1.0" encoding="UTF-8"?>
<svg width="24px" height="24px" viewBox="0 0 24 24" version="1.1" xmlns="http://www.w3.org/2000/svg" xmlns:xlink="http://www.w3.org/1999/xlink">
    <!-- Generator: Sketch 51.2 (57519) - http://www.bohemiancoding.com/sketch -->
    <title>organisation_account</title>
    <desc>Created with Sketch.</desc>
    <defs></defs>
    <g id="organisation_account" stroke="none" stroke-width="1" fill="none" fill-rule="evenodd">
        <path d="M6.51766585,14.1866086 C6.41828431,13.7725188 6.35202994,13.3253018 6.35202994,12.8780849 C6.35202994,10.5426185 7.77649878,8.53842397 9.81382049,7.69368082 C10.2444739,8.43904243 11.0395262,8.96907734 11.9670873,8.96907734 C13.3418654,8.96907734 14.451626,7.85931674 14.451626,6.48453867 C14.451626,5.10976061 13.3418654,4 11.9670873,4 C10.7082544,4 9.68131176,4.9275611 9.51567585,6.13670326 C6.74955613,7.14708232 4.77848878,9.78069331 4.77848878,12.8780849 C4.77848878,13.4909377 4.86130674,14.1037906 5.01037906,14.6669527 C4.39752619,15.1307332 4,15.8429677 4,16.6711472 C4,18.0459253 5.10976061,19.1556859 6.48453867,19.1556859 C7.85931674,19.1556859 8.96907734,18.0459253 8.96907734,16.6711472 C8.96907734,15.3129328 7.87588033,14.2031721 6.51766585,14.1866086 Z M17.449636,14.1866086 C16.0748579,14.1866086 14.9650973,15.2963692 14.9650973,16.6711472 C14.9650973,16.9692919 15.0313517,17.2508729 15.1141697,17.5158904 C14.2197357,18.1287432 13.1265387,18.5097058 11.9505237,18.5097058 C11.089217,18.5097058 10.2610375,18.3109427 9.53223944,17.9631073 C9.31691276,18.4600151 9.00220453,18.8906684 8.58811475,19.2385039 C9.59849381,19.7685388 10.7413816,20.083247 11.9505237,20.083247 C13.4909377,20.083247 14.9154066,19.5863393 16.0748579,18.7581597 C16.4723841,19.0066136 16.9361647,19.1722495 17.4330724,19.1722495 C18.8078505,19.1722495 19.9176111,18.0624889 19.9176111,16.6877108 C19.9176111,15.3129328 18.8244141,14.1866086 17.449636,14.1866086 Z M17.5821447,12.8780849 C17.5821447,13.0437208 17.5821447,13.1927931 17.5655811,13.3418654 C18.1287432,13.358429 18.6422146,13.5075013 19.0894315,13.7725188 C19.1225587,13.4743741 19.1556859,13.1762295 19.1556859,12.8780849 C19.1556859,10.1119651 17.5821447,7.71024442 15.2963692,6.51766585 C15.2963692,7.08082795 15.1472968,7.61086287 14.8822794,8.09120701 C16.5055113,9.06845889 17.5821447,10.8573267 17.5821447,12.8780849 Z" id="Shape" fill="#ADB5BD" fill-rule="nonzero"></path>
    </g>
</svg>