<?xml version="1.0" encoding="UTF-8"?>
<svg width="16px" height="16px" viewBox="0 0 16 16" version="1.1" xmlns="http://www.w3.org/2000/svg" xmlns:xlink="http://www.w3.org/1999/xlink">
    <!-- Generator: Sketch 51.2 (57519) - http://www.bohemiancoding.com/sketch -->
    <title>organisation</title>
    <desc>Created with Sketch.</desc>
    <defs></defs>
    <g id="Components" stroke="none" stroke-width="1" fill="none" fill-rule="evenodd">
        <g id="Icon-Set" transform="translate(-447.000000, -515.000000)" fill-rule="nonzero">
            <g id="organisation" transform="translate(443.000000, 511.000000)">
                <rect id="Rectangle" x="0" y="0" width="24" height="24"></rect>
                <path d="M7.30640131,9.25052157 C5.84846144,9.25052157 4.66656765,8.07515228 4.66656765,6.62526079 C4.66656765,5.17536929 5.84846144,4 7.30640131,4 C8.76434118,4 9.94623496,5.17536929 9.94623496,6.62526079 C9.94623496,8.07515228 8.76434118,9.25052157 7.30640131,9.25052157 Z M7.30640131,20 C5.48032629,20 4,17.7476607 4,14.9692595 C4,12.1908582 5.48032629,9.93851892 7.30640131,9.93851892 C9.13247633,9.93851892 10.6128026,12.1908582 10.6128026,14.9692595 C10.6128026,17.7476607 9.13247633,20 7.30640131,20 Z M16.0386158,9.25052157 C14.5806759,9.25052157 13.3987821,8.07515228 13.3987821,6.62526079 C13.3987821,5.17536929 14.5806759,4 16.0386158,4 C17.4965556,4 18.6784494,5.17536929 18.6784494,6.62526079 C18.6784494,8.07515228 17.4965556,9.25052157 16.0386158,9.25052157 Z M16.0386158,9.76925207 C18.2263478,9.76925207 20,13.8405184 20,15.1538873 C20,15.7810313 19.5933462,16.3493898 18.9330165,16.7741816 C18.4850735,18.6591585 17.3595723,19.9991138 16.0386158,19.9991138 C14.7176593,19.9991138 13.592158,18.6591585 13.143621,16.7741816 C12.4841824,16.3493898 12.0769345,15.7810313 12.0769345,15.1538873 C12.0769345,13.8405184 13.8502896,9.76925207 16.0386158,9.76925207 Z" id="shape" fill="#ADB5BD"></path>
            </g>
        </g>
    </g>
</svg>