<svg width="24" height="24" viewBox="0 0 24 24" fill="#ADB5BD" xmlns="http://www.w3.org/2000/svg">
<path d="M10 6.75V17.25C9.99461 17.662 9.66196 17.9946 9.25 18H7.75C7.33804 17.9946 7.00539 17.662 7 17.25V6.75C7.00539 6.33804 7.33804 6.00539 7.75 6H9.25C9.66196 6.00539 9.99461 6.33804 10 6.75ZM16.25 6H14.75C14.338 6.00539 14.0054 6.33804 14 6.75V17.25C14.0054 17.662 14.338 17.9946 14.75 18H16.25C16.662 17.9946 16.9946 17.662 17 17.25V6.75C16.9946 6.33804 16.662 6.00539 16.25 6Z" fill="#1E2128"/>
</svg>
