<?xml version="1.0" encoding="UTF-8"?>
<svg width="24px" height="24px" viewBox="0 0 24 24" version="1.1" xmlns="http://www.w3.org/2000/svg" xmlns:xlink="http://www.w3.org/1999/xlink">
    <!-- Generator: Sketch 52 (66869) - http://www.bohemiancoding.com/sketch -->
    <title>pause</title>
    <desc>Created with Sketch.</desc>
    <g id="pause" stroke="none" stroke-width="1" fill="none" fill-rule="evenodd">
        <path d="M5,20 L5,4 C5,3.44771525 5.44771525,3 6,3 L9.30099239,3 C9.85327714,3 10.3009924,3.44771525 10.3009924,4 L10.3009924,20 C10.3009924,20.5522847 9.85327714,21 9.30099239,21 L6,21 C5.44771525,21 5,20.5522847 5,20 Z M13.6990076,20 L13.6990076,4 C13.6990076,3.44771525 14.1467229,3 14.6990076,3 L18,3 C18.5522847,3 19,3.44771525 19,4 L19,20 C19,20.5522847 18.5522847,21 18,21 L14.6990076,21 C14.1467229,21 13.6990076,20.5522847 13.6990076,20 Z" id="Combined-Shape" fill="#ADB5BD"></path>
    </g>
</svg>