<svg width="115" height="116" viewBox="0 0 115 116" fill="none" xmlns="http://www.w3.org/2000/svg">
<g clip-path="url(#clip0_1558_26551)">
<path d="M57.499 0.789062C25.9023 0.789062 0.288086 26.4033 0.288086 58C0.288086 89.5967 25.9023 115.211 57.499 115.211C89.0957 115.211 114.71 89.5967 114.71 58C114.71 42.8267 108.682 28.2749 97.9532 17.5457C87.2241 6.81662 72.6722 0.789062 57.499 0.789062ZM57.499 17.9523C66.978 17.9523 74.6622 25.6366 74.6622 35.1156C74.6622 44.5946 66.978 52.2789 57.499 52.2789C48.02 52.2789 40.3357 44.5946 40.3357 35.1156C40.3357 25.6366 48.02 17.9523 57.499 17.9523ZM89.6515 81.7997C82.0964 91.974 70.1716 97.9721 57.499 97.9721C44.8263 97.9721 32.9015 91.974 25.3465 81.7997C24.1977 80.1021 24.045 77.9197 24.946 76.0786L26.1474 73.5613C28.9787 67.5599 35.0158 63.7282 41.6516 63.721H73.3464C79.8889 63.7298 85.8574 67.4573 88.7361 73.3325L90.052 76.0214C90.9754 77.8778 90.8222 80.0884 89.6515 81.7997Z" fill="#CBCEE8"/>
</g>
<defs>
<clipPath id="clip0_1558_26551">
<rect width="114.816" height="116" fill="white" transform="translate(0.0917969)"/>
</clipPath>
</defs>
</svg>
