<svg width="17" height="20" viewBox="0 0 17 20" fill="none" xmlns="http://www.w3.org/2000/svg">
<g id="Vector">
<path fill-rule="evenodd" clip-rule="evenodd" d="M1.80172 0.5C0.80666 0.5 0 1.30666 0 2.30172V15.0776C0 16.0727 0.806659 16.8793 1.80172 16.8793H11.9569C12.952 16.8793 13.7586 16.0727 13.7586 15.0776V2.30172C13.7586 1.30666 12.952 0.5 11.9569 0.5H1.80172ZM6.87878 3.12069C5.94367 3.12069 5.18561 3.87846 5.18561 4.81322C5.18561 5.2621 5.36399 5.69261 5.68153 6.01002C5.99906 6.32743 6.42972 6.50575 6.87878 6.50575C7.81389 6.50575 8.57195 5.74798 8.57195 4.81322C8.57195 3.87846 7.81389 3.12069 6.87878 3.12069ZM9.60901 8.05441L10.2186 9.27726C10.2846 9.40823 10.278 9.56403 10.2013 9.68902C10.1246 9.81401 9.98853 9.89036 9.84182 9.89081H3.91573C3.76902 9.89036 3.633 9.81401 3.55626 9.68902C3.47951 9.56403 3.47298 9.40823 3.539 9.27726L4.14854 8.05441C4.36391 7.62317 4.80503 7.35106 5.2872 7.35201H8.47036C8.95253 7.35106 9.39364 7.62317 9.60901 8.05441ZM1.88362 11.7198C1.88362 11.4937 2.06695 11.3103 2.2931 11.3103H11.4655C11.6917 11.3103 11.875 11.4937 11.875 11.7198C11.875 11.946 11.6917 12.1293 11.4655 12.1293H2.2931C2.06695 12.1293 1.88362 11.946 1.88362 11.7198ZM2.2931 13.4397C2.06695 13.4397 1.88362 13.623 1.88362 13.8491C1.88362 14.0753 2.06695 14.2586 2.2931 14.2586H9.66379C9.88994 14.2586 10.0733 14.0753 10.0733 13.8491C10.0733 13.623 9.88994 13.4397 9.66379 13.4397H2.2931Z" fill="white"/>
<path d="M2.67427 18.1361C2.86986 18.9196 3.57837 19.5 4.42243 19.5H14.5776C15.5727 19.5 16.3793 18.6933 16.3793 17.6983V4.92241C16.3793 4.07835 15.7989 3.36984 15.0154 3.17425C15.0504 3.31441 15.069 3.46107 15.069 3.61207V16.3879C15.069 17.383 14.2623 18.1897 13.2673 18.1897H3.11209C2.96109 18.1897 2.81443 18.1711 2.67427 18.1361Z" fill="white"/>
</g>
</svg>
