<svg width="24" height="24" viewBox="0 0 24 24" fill="none" xmlns="http://www.w3.org/2000/svg">
<path fill-rule="evenodd" clip-rule="evenodd" d="M4.98 2C3.88648 2 3 2.84912 3 3.89655V17.3448C3 18.3923 3.88647 19.2414 4.98 19.2414H16.14C17.2335 19.2414 18.12 18.3923 18.12 17.3448V3.89655C18.12 2.84912 17.2335 2 16.14 2H4.98ZM10.5594 4.75862C9.53177 4.75862 8.6987 5.55627 8.6987 6.54023C8.6987 7.01274 8.89474 7.4659 9.24369 7.80002C9.59264 8.13413 10.0659 8.32184 10.5594 8.32184C11.587 8.32184 12.4201 7.52419 12.4201 6.54023C12.4201 5.55627 11.587 4.75862 10.5594 4.75862ZM13.5598 9.95201L14.2296 11.2392C14.3022 11.3771 14.295 11.5411 14.2107 11.6727C14.1263 11.8042 13.9769 11.8846 13.8156 11.8851H7.30318C7.14195 11.8846 6.99247 11.8042 6.90813 11.6727C6.82379 11.5411 6.81662 11.3771 6.88917 11.2392L7.55902 9.95201C7.7957 9.49808 8.28046 9.21165 8.81035 9.21264H12.3085C12.8383 9.21165 13.3231 9.49808 13.5598 9.95201ZM5.07 13.8103C5.07 13.5723 5.27147 13.3793 5.52 13.3793H15.6C15.8485 13.3793 16.05 13.5723 16.05 13.8103C16.05 14.0484 15.8485 14.2414 15.6 14.2414H5.52C5.27147 14.2414 5.07 14.0484 5.07 13.8103ZM5.52 15.6207C5.27147 15.6207 5.07 15.8137 5.07 16.0517C5.07 16.2898 5.27147 16.4828 5.52 16.4828H13.62C13.8685 16.4828 14.07 16.2898 14.07 16.0517C14.07 15.8137 13.8685 15.6207 13.62 15.6207H5.52Z" fill="#1E2128"/>
<path d="M5.93888 20.5643C6.15382 21.389 6.93243 22 7.86002 22H19.02C20.1135 22 21 21.1509 21 20.1034V6.65517C21 5.76668 20.3622 5.02089 19.5011 4.815C19.5396 4.96254 19.56 5.11692 19.56 5.27586V18.7241C19.56 19.7716 18.6735 20.6207 17.58 20.6207H6.42002C6.25408 20.6207 6.09291 20.6011 5.93888 20.5643Z" fill="#1E2128"/>
</svg>
