<svg width="24" height="24" viewBox="0 0 24 24" fill="#ADB5BD" xmlns="http://www.w3.org/2000/svg">
<path d="M19 4H18V2.5C18 2.22386 17.7761 2 17.5 2H16.5C16.2239 2 16 2.22386 16 2.5V4H8V2.5C8 2.22386 7.77614 2 7.5 2H6.5C6.22386 2 6 2.22386 6 2.5V4H5C3.89543 4 3 4.89543 3 6V19C3 20.1046 3.89543 21 5 21H19C20.1046 21 21 20.1046 21 19V6C21 4.89543 20.1046 4 19 4ZM19 19H5V8H19V19ZM10.59 15.85C10.6807 15.9467 10.8074 16.0015 10.94 16.0015C11.0726 16.0015 11.1993 15.9467 11.29 15.85L15.54 11.61C15.7318 11.4122 15.7318 11.0978 15.54 10.9L15 10.37C14.8022 10.1782 14.4878 10.1782 14.29 10.37L10.93 13.73L9.7 12.49C9.50219 12.2982 9.18781 12.2982 8.99 12.49L8.46 13C8.26943 13.1944 8.26943 13.5056 8.46 13.7L10.59 15.85Z" fill="#1E2128"/>
</svg>
