<?xml version="1.0" encoding="UTF-8"?>
<svg width="24px" height="24px" viewBox="0 0 24 24" version="1.1" xmlns="http://www.w3.org/2000/svg" xmlns:xlink="http://www.w3.org/1999/xlink">
    <!-- Generator: Sketch 54.1 (76490) - https://sketchapp.com -->
    <title>icon/grey/manageplan</title>
    <desc>Created with Sketch.</desc>
    <g id="icon/grey/manageplan" stroke="none" stroke-width="1" fill="none" fill-rule="evenodd">
        <path d="M17.8740133,4.54892805 C19.6004481,4.54892805 21,5.9258714 21,7.624417 L21,17.9245111 C21,19.6230567 19.6004481,21 17.8740133,21 L6.12598673,21 C4.39955193,21 3,19.6230567 3,17.9245111 L3,7.624417 C3,5.9258714 4.39955193,4.54892805 6.12598673,4.54892805 L7.14619513,4.54892805 L7.14619513,3.83876971 C7.14619513,3.37552931 7.52789111,3 7.99873697,3 C8.46958282,3 8.8512788,3.37552931 8.8512788,3.83876971 L8.8512788,4.54892805 L15.1487211,4.54892805 L15.1487211,3.83876971 C15.1487211,3.37552931 15.5304172,3 16.001263,3 C16.4721088,3 16.8538048,3.37552931 16.8538048,3.83876971 L16.8538048,4.54892805 L17.8740133,4.54892805 Z M6.12882854,6.22646748 L6.12598673,6.22646748 C5.74913981,6.22646748 5.38772756,6.37375112 5.12125655,6.63591806 C4.85478553,6.89808405 4.70508367,7.25365773 4.70508367,7.624417 L4.70508367,10.1686858 L19.2949163,10.1686858 L19.2949163,7.624417 C19.2949163,6.85235125 18.6587563,6.22646748 17.8740133,6.22646748 L16.8538048,6.22646748 L16.8538048,7.49580563 C16.8538048,7.95904602 16.4721088,8.33457534 16.001263,8.33457534 C15.5304172,8.33457534 15.1487211,7.95904602 15.1487211,7.49580563 L15.1487211,6.22646748 L8.85412061,6.22646748 L8.85412061,7.49580563 C8.85412061,7.95904602 8.47242462,8.33457534 8.00157877,8.33457534 C7.53073292,8.33457534 7.14903694,7.95904602 7.14903694,7.49580563 L7.14903694,6.22646748 L6.12882854,6.22646748 Z M11.9212598,17.8392857 L15.8346457,13.9464286 C16.0551181,13.7321429 16.0551181,13.375 15.8346457,13.1607143 C15.6141732,12.9464286 15.2650919,12.9464286 15.0446194,13.1607143 L11.5170604,16.6607143 L9.95538058,15.0892857 C9.73490814,14.875 9.38582677,14.875 9.16535433,15.0892857 C8.94488189,15.3035714 8.94488189,15.6607143 9.16535433,15.875 L11.1312336,17.8392857 C11.351706,18.0535714 11.7007874,18.0535714 11.9212598,17.8392857 Z" id="icon/white/plan" fill="#ADB5BD" fill-rule="nonzero"></path>
    </g>
</svg>