<?xml version="1.0" encoding="UTF-8"?>
<svg width="24px" height="24px" viewBox="0 0 24 24" version="1.1" xmlns="http://www.w3.org/2000/svg" xmlns:xlink="http://www.w3.org/1999/xlink">
    <!-- Generator: Sketch 52 (66869) - http://www.bohemiancoding.com/sketch -->
    <title>point_right</title>
    <desc>Created with Sketch.</desc>
    <g id="point_right" stroke="none" stroke-width="1" fill="#ADB5BD" fill-rule="evenodd">
        <path d="M17.995582,11.4446251 C17.995582,11.4446251 17.8318774,14.7672172 17.8504029,15.0940164 C18.001064,17.7192102 16.105796,18.8660075 16.105796,19.7684053 C16.105796,20.6708032 16.1090096,22 16.1090096,22 L9.55836876,22 C9.55836876,22 9.51489064,21.2156019 9.45836908,20.1990043 C9.40184752,19.1824067 7.30865946,19.065007 6.67047624,17.4844108 C6.29146043,16.3052136 6.01471273,13.61682 6.01471273,13.61682 C5.88768099,12.5564225 6.59731957,11.5878248 7.59958482,11.4538251 L8.14684206,15.1740163 L8.14684206,3.34964442 C8.14192714,2.71664592 8.70033746,2.00704761 9.51715906,2.00004763 C10.3336026,1.99324765 10.9636573,2.71584592 10.9685722,3.34884442 L10.9685722,10.6954269 L11.0623337,9.76902913 C11.1182882,9.21563045 11.6878516,8.82643137 12.3341633,8.8994312 C12.9806641,8.97263102 13.4591125,9.48062981 13.402969,10.0340285 L13.3744247,10.3184278 C13.4303791,9.76502914 13.9999425,9.37583006 14.6462543,9.44902989 C15.2927551,9.52222972 15.7712035,10.0302285 15.715249,10.5834272 C15.715249,10.5834272 15.656081,11.1682258 15.65627,11.1684258 C15.7184626,10.6208271 16.2844343,10.237028 16.9267763,10.3098278 C17.57271,10.3832277 18.0513474,10.8912265 17.995582,11.4446251 Z" id="Shape" fill="#ADB5BD" fill-rule="nonzero" transform="translate(12.000000, 12.000000) rotate(-270.000000) translate(-12.000000, -12.000000) "></path>
    </g>
</svg>