<svg width="24" height="24" viewBox="0 0 24 24" fill="#ADB5BD" xmlns="http://www.w3.org/2000/svg">
<path d="M0.5 11.99C0.5007 11.1946 0.81723 10.4321 1.38 9.87L5 6.25C5.95001 5.13931 7.33844 4.4999 8.8 4.5L10.5 4.5C11.6046 4.5 12.5 5.39543 12.5 6.5L10.85 6.5C10.2705 6.50036 9.71959 6.75209 9.34 7.19L9.03 7.5L22 7.5C22.8284 7.5 23.5 8.17157 23.5 9C23.5 9.82843 22.8284 10.5 22 10.5L14 10.5C13.7239 10.5 13.5 10.7239 13.5 11C13.5 11.2761 13.7239 11.5 14 11.5L16.5 11.5L16.5 14.76C16.4993 15.5554 16.1828 16.3179 15.62 16.88L12.88 19.62C12.3179 20.1828 11.5554 20.4993 10.76 20.5L9.09 20.5C8.03804 20.5042 7.00345 20.2318 6.09 19.71L1.5 17.08C0.87873 16.7213 0.497152 16.0574 0.5 15.34L0.5 11.99Z" fill="#1E2128"/>
</svg>
