<svg width="24" height="24" viewBox="0 0 24 24" fill="#ADB5BD" xmlns="http://www.w3.org/2000/svg">
<path d="M15 1H8.83C8.29696 0.999578 7.7858 1.21196 7.41 1.59L2.59 6.41C2.21196 6.7858 1.99958 7.29696 2 7.83V17C2 18.1046 2.89543 19 4 19H15C16.1046 19 17 18.1046 17 17V3C17 1.89543 16.1046 1 15 1ZM3.82 8L9 2.82V7C9 7.55229 8.55229 8 8 8H3.82ZM14 13.5C14 13.7761 13.7761 14 13.5 14H5.5C5.22386 14 5 13.7761 5 13.5V12.5C5 12.2239 5.22386 12 5.5 12H13.5C13.7761 12 14 12.2239 14 12.5V13.5ZM19 5V19C19 20.1046 18.1046 21 17 21H6C6 22.1046 6.89543 23 8 23H17C19.2091 23 21 21.2091 21 19V7C21 5.89543 20.1046 5 19 5Z" fill="#1E2128"/>
</svg>
