<?xml version="1.0" encoding="UTF-8"?>
<svg width="24px" height="24px" viewBox="0 0 24 24" version="1.1" xmlns="http://www.w3.org/2000/svg" xmlns:xlink="http://www.w3.org/1999/xlink">
    <!-- Generator: Sketch 60.1 (88133) - https://sketch.com -->
    <title>icon/grey/posts copy</title>
    <desc>Created with Sketch.</desc>
    <g id="icon/grey/posts-copy" stroke="none" stroke-width="1" fill="none" fill-rule="evenodd">
        <path d="M14.9707602,7.21052632 C16.0753297,7.21052632 16.9707602,8.10595682 16.9707602,9.21052632 L16.9707602,19.245614 C16.9707602,20.3501835 16.0753297,21.245614 14.9707602,21.245614 L4,21.245614 C2.8954305,21.245614 2,20.3501835 2,19.245614 L2,9.21052632 C2,8.10595682 2.8954305,7.21052632 4,7.21052632 L14.9707602,7.21052632 Z M9.48538012,18.5555556 L4.22222222,18.5555556 L4.22222222,19.4912281 L9.48538012,19.4912281 L9.48538012,18.5555556 Z M19.0643275,3 C20.168897,3 21.0643275,3.8954305 21.0643275,5 L21.0643275,15.7368421 C21.0643275,16.837368 20.1754409,17.7302834 19.0764498,17.7368061 L19.0760234,6.98830409 C19.0760234,5.9339423 18.2601456,5.07013897 17.2252857,4.99378983 L17.0760234,4.98830409 L6.32659064,4.988 L6.33297112,4.85073766 C6.40932026,3.81587779 7.27312358,3 8.32748538,3 L19.0643275,3 Z M14.748538,15.6315789 L4.22222222,15.6315789 L4.22222222,16.5672515 L14.748538,16.5672515 L14.748538,15.6315789 Z M14.748538,12.4736842 L4.22222222,12.4736842 L4.22222222,13.4093567 L14.748538,13.4093567 L14.748538,12.4736842 Z M14.748538,9.31578947 L4.22222222,9.31578947 L4.22222222,10.251462 L14.748538,10.251462 L14.748538,9.31578947 Z" id="Combined-Shape" fill="#ACB4BD"></path>
    </g>
</svg>