<?xml version="1.0" encoding="UTF-8"?>
<svg width="24px" height="24px" viewBox="0 0 24 24" version="1.1" xmlns="http://www.w3.org/2000/svg" xmlns:xlink="http://www.w3.org/1999/xlink">
    <!-- Generator: Sketch 52 (66869) - http://www.bohemiancoding.com/sketch -->
    <title>posts</title>
    <desc>Created with Sketch.</desc>
    <g id="posts" stroke="none" stroke-width="1" fill="none" fill-rule="evenodd">
        <path d="M21.7067053,16.7052215 C21.8867276,16.7920161 22,16.9656054 22,17.1550866 C22,17.3445679 21.8867276,17.5175459 21.7060311,17.6037293 L13.0063041,21.7735393 C12.3758892,22.0754869 11.6268078,22.0754869 10.9957186,21.7735393 L2.29396892,17.6037293 C2.11327243,17.5181571 2,17.3451791 2,17.1550866 C2,16.9649941 2.11327243,16.7920161 2.29464316,16.7052215 L5.03947679,15.3898548 L10.3983414,17.9576314 C10.8918855,18.1941774 11.4461113,18.3194795 12.0010114,18.3194795 C12.5565856,18.3194795 13.1121599,18.1941774 13.6063783,17.9564089 L18.9625459,15.3898548 L21.7067053,16.7052215 Z M2.29396892,12.6955537 C2.11327243,12.608759 2,12.4351697 2,12.2456885 C2,12.0562072 2.11327243,11.8820067 2.29396892,11.7964346 L10.9950443,7.62662454 C11.3112632,7.47442831 11.6551259,7.39924704 12.0010114,7.39924704 C12.3462226,7.39924704 12.6907595,7.47442831 13.0069784,7.62662454 L21.7060311,11.7970458 C21.8874018,11.882618 22,12.0562072 22,12.2462997 C22,12.4351697 21.8867276,12.608759 21.7060311,12.6955537 L13.0063041,16.8641412 C12.6907595,17.0157262 12.3462226,17.0921299 12.0003371,17.0921299 C11.6558002,17.0921299 11.3112632,17.0169487 10.9957186,16.8653637 L2.29396892,12.6955537 Z M20.3203823,4.2271894 C20.7683933,4.2271894 21.1315781,4.55957162 21.1315781,4.96958587 C21.1315781,5.37960012 20.7683933,5.71198234 20.3203823,5.71198234 L18.6979908,5.71198234 L18.6979908,7.19677527 C18.6979908,7.60678952 18.334806,7.93917174 17.886795,7.93917174 C17.4387839,7.93917174 17.0755992,7.60678952 17.0755992,7.19677527 L17.0755992,5.71198234 L15.4532077,5.71198234 C15.0051966,5.71198234 14.6420119,5.37960012 14.6420119,4.96958587 C14.6420119,4.55957162 15.0051966,4.2271894 15.4532077,4.2271894 L17.0755992,4.2271894 L17.0755992,2.74239647 C17.0755992,2.33238222 17.4387839,2 17.886795,2 C18.334806,2 18.6979908,2.33238222 18.6979908,2.74239647 L18.6979908,4.2271894 L20.3203823,4.2271894 Z" id="shape" fill="#ADB5BD" fill-rule="nonzero"></path>
    </g>
</svg>