<?xml version="1.0" encoding="UTF-8"?>
<svg width="20px" height="22px" viewBox="0 0 20 22" version="1.1" xmlns="http://www.w3.org/2000/svg" xmlns:xlink="http://www.w3.org/1999/xlink">
    <!-- Generator: Sketch 51.2 (57519) - http://www.bohemiancoding.com/sketch -->
    <title>posts</title>
    <desc>Created with Sketch.</desc>
    <defs></defs>
    <g id="Components" stroke="none" stroke-width="1" fill="none" fill-rule="evenodd">
        <g id="Icon-Set" transform="translate(-181.000000, -512.000000)" fill-rule="nonzero">
            <g id="posts" transform="translate(179.000000, 511.000000)">
                <rect id="Rectangle" x="0" y="0" width="24" height="24"></rect>
                <path d="M21.4853333,16.8986397 C21.6633333,16.9895271 21.7753333,17.1713019 21.7753333,17.3697181 C21.7753333,17.5681342 21.6633333,17.749269 21.4846667,17.8395163 L12.8826667,22.2059519 C12.2593333,22.5221376 11.5186667,22.5221376 10.8946667,22.2059519 L2.29066667,17.8395163 C2.112,17.749909 2,17.5687743 2,17.3697181 C2,17.1706618 2.112,16.9895271 2.29133333,16.8986397 L5.00533333,15.5212475 L10.304,18.2101065 C10.792,18.4578067 11.34,18.5890173 11.8886667,18.5890173 C12.438,18.5890173 12.9873333,18.4578067 13.476,18.2088264 L18.772,15.5212475 L21.4853333,16.8986397 Z M2.29066667,12.6998978 C2.112,12.6090104 2,12.4272356 2,12.2288194 C2,12.0304033 2.112,11.8479884 2.29066667,11.7583811 L10.894,7.39194554 C11.2066667,7.23257256 11.5466667,7.15384615 11.8886667,7.15384615 C12.23,7.15384615 12.5706667,7.23257256 12.8833333,7.39194554 L21.4846667,11.7590212 C21.664,11.8486285 21.7753333,12.0304033 21.7753333,12.2294595 C21.7753333,12.4272356 21.6633333,12.6090104 21.4846667,12.6998978 L12.8826667,17.0650532 C12.5706667,17.2237862 12.23,17.3037927 11.888,17.3037927 C11.5473333,17.3037927 11.2066667,17.2250663 10.8946667,17.0663333 L2.29066667,12.6998978 Z M20.1145833,3.83221154 C20.5575617,3.83221154 20.9166667,4.1802671 20.9166667,4.60961538 C20.9166667,5.03896367 20.5575617,5.38701923 20.1145833,5.38701923 L18.5104167,5.38701923 L18.5104167,6.94182692 C18.5104167,7.37117521 18.1513117,7.71923077 17.7083333,7.71923077 C17.2653549,7.71923077 16.90625,7.37117521 16.90625,6.94182692 L16.90625,5.38701923 L15.3020833,5.38701923 C14.8591049,5.38701923 14.5,5.03896367 14.5,4.60961538 C14.5,4.1802671 14.8591049,3.83221154 15.3020833,3.83221154 L16.90625,3.83221154 L16.90625,2.27740385 C16.90625,1.84805556 17.2653549,1.5 17.7083333,1.5 C18.1513117,1.5 18.5104167,1.84805556 18.5104167,2.27740385 L18.5104167,3.83221154 L20.1145833,3.83221154 Z" id="shape" fill="#ADB5BD"></path>
            </g>
        </g>
    </g>
</svg>