<?xml version="1.0" encoding="UTF-8"?>
<svg width="24px" height="24px" viewBox="0 0 24 24" version="1.1" xmlns="http://www.w3.org/2000/svg" xmlns:xlink="http://www.w3.org/1999/xlink">
    <!-- Generator: Sketch 53 (72520) - https://sketchapp.com -->
    <title>preview2</title>
    <desc>Created with Sketch.</desc>
    <g id="preview2" stroke="none" stroke-width="1" fill="none" fill-rule="evenodd">
        <path d="M11.9998,6 C8.0742,6 4.6718,8.43786703 3,12 C4.6718,15.5619305 8.0742,18 11.9998,18 C15.9254,18 19.3276,15.5619305 21,12 C19.3276,8.43786703 15.9254,6 11.9998,6 Z M12.333443,9.33333333 C13.0695666,9.33333333 13.6666667,9.93031225 13.6666667,10.666557 C13.6666667,11.4030211 13.0695666,12 12.333443,12 C11.5971,12 11,11.4030211 11,10.666557 C11,9.93031225 11.5968807,9.33333333 12.333443,9.33333333 Z M16.3971094,14.6444396 C15.0804043,15.5314627 13.5601687,16 11.9999009,16 C10.4400294,16 8.91959571,15.5314627 7.60269241,14.6444396 C6.55491698,13.9387538 5.66687428,12.9935359 5,11.8804868 C5.66687428,10.7674377 6.55511516,9.8220212 7.60289059,9.11633534 C7.84684965,8.95188054 8.09814136,8.8021234 8.35537845,8.66666667 C8.00182608,9.28337215 7.79869201,9.99759854 7.79869201,10.7598902 C7.79869201,13.0852969 9.6796144,14.97037 11.9999009,14.97037 C14.3203856,14.97037 16.201308,13.0852969 16.201308,10.7598902 C16.201308,9.99759854 15.9983721,9.28337215 15.6448197,8.66666667 C15.9018586,8.8021234 16.152754,8.95188054 16.3969112,9.11633534 C17.4448848,9.8220212 18.3331257,10.7674377 19,11.8804868 C18.3331257,12.9935359 17.445083,13.9387538 16.3971094,14.6444396 Z" id="Shape" fill="#ADB5BD" fill-rule="nonzero"></path>
    </g>
</svg>
