<?xml version="1.0" encoding="UTF-8"?>
<svg width="24px" height="24px" viewBox="0 0 24 24" version="1.1" xmlns="http://www.w3.org/2000/svg" xmlns:xlink="http://www.w3.org/1999/xlink">
    <!-- Generator: Sketch 51.2 (57519) - http://www.bohemiancoding.com/sketch -->
    <title>preview_post</title>
    <desc>Created with Sketch.</desc>
    <defs></defs>
    <g id="preview_post" stroke="none" stroke-width="1" fill="none" fill-rule="evenodd">
        <path d="M11.7327324,8.72924289 C13.454842,8.72924289 14.8478372,10.0824711 14.8478372,11.755418 C14.8478372,13.4246472 13.454842,14.781593 11.7327324,14.781593 C10.0144498,14.781593 8.61762757,13.4246472 8.61762757,11.755418 C8.61762757,10.0824711 10.0144498,8.72924289 11.7327324,8.72924289 Z M19.0731311,10.8772806 C17.7997171,9.65864223 16.7446631,8.80195409 15.9079692,8.30721621 C14.5686367,7.51534485 13.1362388,7 11.7281188,7 C10.3199988,7 8.88760093,7.51534485 7.54826841,8.30721621 C6.71374147,8.80197476 5.65993757,9.65871379 4.38685673,10.8774333 L4.38684578,10.8774219 C3.8865573,11.3563477 3.86923948,12.1501578 4.34816534,12.6504463 C4.35191296,12.6543611 4.35568592,12.6582515 4.35948398,12.6621174 C5.39312357,13.7142114 6.25373562,14.4705999 6.94132014,14.931283 C8.34539381,15.873987 9.93964459,16.5108359 11.7281188,16.5108359 C13.5206394,16.5108359 15.1148902,15.873987 16.5149175,14.931283 C17.2045897,14.4706273 18.0664291,13.7143014 19.1004355,12.6623052 L19.1004446,12.6623141 C19.5859256,12.1683866 19.5790784,11.3744192 19.0851509,10.8889382 C19.0811703,10.8850256 19.0771636,10.8811397 19.0731311,10.8772806 Z M11.7771687,13.6575957 C12.8831561,13.6575957 13.7797361,12.7866112 13.7797361,11.7121974 C13.7797361,10.6377837 12.8831561,9.76679918 11.7771687,9.76679918 C10.6711813,9.76679918 9.77460132,10.6377837 9.77460132,11.7121974 C9.77460132,12.7866112 10.6711813,13.6575957 11.7771687,13.6575957 Z" id="Shape" fill="#ADB5BD"></path>
    </g>
</svg>