<svg width="24" height="24" viewBox="0 0 24 24" fill="#ADB5BD" xmlns="http://www.w3.org/2000/svg">
<path d="M21.9878 11.7C20.3582 7.61645 16.3881 4.95483 11.9939 4.99999C7.629 4.97474 3.69114 7.61875 2.05997 11.67C2.02156 11.7758 2.00129 11.8874 2.00001 12C1.99948 12.1063 2.01986 12.2116 2.05997 12.31C3.68479 16.3691 7.62406 19.022 11.9939 19C16.3588 19.0252 20.2967 16.3812 21.9279 12.33C21.9706 12.2254 21.9911 12.113 21.9878 12C22.0041 11.9006 22.0041 11.7993 21.9878 11.7ZM11.9939 15C10.3381 15 8.99575 13.6568 8.99575 12C8.99575 10.3431 10.3381 8.99999 11.9939 8.99999C13.6498 8.99999 14.9921 10.3431 14.9921 12C14.9921 12.7956 14.6762 13.5587 14.1139 14.1213C13.5517 14.6839 12.7891 15 11.9939 15Z" fill="#1E2128"/>
</svg>
