<svg width="24" height="24" viewBox="0 0 24 24" fill="#ADB5BD" xmlns="http://www.w3.org/2000/svg">
<path d="M4.37856 3.14999C4.28788 3.05332 4.16128 2.99847 4.02877 2.99847C3.89627 2.99847 3.76967 3.05332 3.67899 3.14999L3.14931 3.67999C3.05269 3.77073 2.99788 3.89741 2.99788 4.02999C2.99788 4.16258 3.05269 4.28926 3.14931 4.37999L5.74773 6.99999C4.05625 8.1321 2.76555 9.77008 2.05997 11.68C2.02265 11.7827 2.00239 11.8908 2.00001 12C1.99948 12.1063 2.01986 12.2116 2.05997 12.31C3.68479 16.3691 7.62406 19.022 11.9939 19C13.6108 18.9845 15.2044 18.6124 16.6611 17.91L19.6093 20.85C19.7 20.9467 19.8266 21.0015 19.9591 21.0015C20.0916 21.0015 20.2182 20.9467 20.3089 20.85L20.8385 20.32C20.9352 20.2293 20.99 20.1026 20.99 19.97C20.99 19.8374 20.9352 19.7107 20.8385 19.62L4.37856 3.14999ZM11.9939 15C10.3381 15 8.99575 13.6568 8.99575 12C8.99827 11.5095 9.12552 11.0277 9.36552 10.6L13.3631 14.6C12.9473 14.8458 12.4766 14.9833 11.9939 15ZM21.9878 11.7C19.9529 6.60237 14.3846 3.88142 9.11567 5.40999L19.5993 15.9C20.6382 14.9039 21.4348 13.6826 21.9279 12.33C21.9706 12.2254 21.9911 12.113 21.9878 12C22.0041 11.9007 22.0041 11.7993 21.9878 11.7Z" fill="#1E2128"/>
</svg>
