<?xml version="1.0" encoding="UTF-8"?>
<svg width="24px" height="24px" viewBox="0 0 24 24" version="1.1" xmlns="http://www.w3.org/2000/svg" xmlns:xlink="http://www.w3.org/1999/xlink">
    <!-- Generator: Sketch 52 (66869) - http://www.bohemiancoding.com/sketch -->
    <title>preview</title>
    <desc>Created with Sketch.</desc>
    <g id="preview" stroke="none" stroke-width="1" fill="none" fill-rule="evenodd">
        <path d="M12.0034553,8.18181818 C14.2312637,8.18181818 16.0333131,9.88921153 16.0333131,12 C16.0333131,14.1060978 14.2312637,15.8181818 12.0034553,15.8181818 C9.78059763,15.8181818 7.97359751,14.1060978 7.97359751,12 C7.97359751,9.88921153 9.78059763,8.18181818 12.0034553,8.18181818 Z M21.7385372,11.1166038 C19.9836922,9.45927644 18.5390977,8.30352159 17.4047537,7.64933921 C15.6721251,6.65022026 13.8191025,6 11.9974869,6 C10.1758714,6 8.32284875,6.65022026 6.5902202,7.64933921 C5.45883733,8.30353544 4.01591404,9.45932539 2.26145033,11.1167091 L2.26143084,11.1166884 C1.75797139,11.5922899 1.73538801,12.3859755 2.21098945,12.889435 C2.21838328,12.8972619 2.2258776,12.9049933 2.23347056,12.9126271 C3.67416146,14.3610858 4.86468497,15.3925596 5.8050411,16.0070485 C7.62142209,17.1964758 9.68382586,18 11.9974869,18 C14.3163826,18 16.3787863,17.1964758 18.1899328,16.0070485 C19.1331706,15.3925789 20.3253457,14.3611507 21.7664581,12.9127638 L21.76646,12.9127656 C22.254944,12.4218158 22.2529451,11.6278277 21.7619953,11.1393437 C21.754275,11.1316622 21.746455,11.1240816 21.7385372,11.1166038 Z M12.0609404,14.4000133 C13.4917019,14.4000133 14.6515632,13.3010759 14.6515632,11.9454679 C14.6515632,10.5898598 13.4917019,9.49092241 12.0609404,9.49092241 C10.6301789,9.49092241 9.4703175,10.5898598 9.4703175,11.9454679 C9.4703175,13.3010759 10.6301789,14.4000133 12.0609404,14.4000133 Z" id="Shape" fill="#ADB5BD"></path>
    </g>
</svg>