<?xml version="1.0" encoding="UTF-8"?>
<svg width="24px" height="24px" viewBox="0 0 24 24" version="1.1" xmlns="http://www.w3.org/2000/svg" xmlns:xlink="http://www.w3.org/1999/xlink">
    <!-- Generator: Sketch 52.6 (67491) - http://www.bohemiancoding.com/sketch -->
    <title>preview_hide</title>
    <desc>Created with Sketch.</desc>
    <g id="preview_hide" stroke="none" stroke-width="1" fill="none" fill-rule="evenodd">
        <g id="Group" transform="translate(3.000000, 4.000000)" fill="#ADB5BD" fill-rule="nonzero">
            <path d="M4.56134918,12.8841212 C2.59856984,11.8370215 0.993623001,10.1170092 0,8 C1.6718,4.43786703 5.0742,2 8.9998,2 C9.59682138,2 10.1817367,2.05638683 10.7503024,2.16453972 L8.87386473,5.41462513 C8.36380917,5.60184594 8,6.091759 8,6.66655701 C8,6.74429392 8.00665271,6.82047672 8.01941966,6.89456739 L6.25619377,9.94856423 C5.36362008,9.17646285 4.79869201,8.03430283 4.79869201,6.75989022 C4.79869201,5.99759854 5.00182608,5.28337215 5.35537845,4.66666667 C5.09814136,4.8021234 4.84684965,4.95188054 4.60289059,5.11633534 C3.55511516,5.8220212 2.66687428,6.76743766 2,7.88048679 C2.66687428,8.99353592 3.55491698,9.93875377 4.60269241,10.6444396 C4.90511743,10.8481433 5.21827634,11.0297766 5.54018176,11.1887334 L4.56134918,12.8841212 Z M5.47022196,13.3099073 L6.4708132,11.5768325 C7.28311165,11.8561046 8.1354503,12 8.99990091,12 C10.5601687,12 12.0804043,11.5314627 13.3971094,10.6444396 C14.445083,9.93875377 15.3331257,8.99353592 16,7.88048679 C15.3331257,6.76743766 14.4448848,5.8220212 13.3969112,5.11633534 C13.152754,4.95188054 12.9018586,4.8021234 12.6448197,4.66666667 C12.9983721,5.28337215 13.201308,5.99759854 13.201308,6.75989022 C13.201308,9.08529693 11.3203856,10.97037 8.99990091,10.97037 C8.31094531,10.97037 7.66072651,10.8041713 7.08698271,10.5095956 L8.6459776,7.8093372 C8.84673352,7.93037127 9.08196794,8 9.33344297,8 C10.0695666,8 10.6666667,7.40302108 10.6666667,6.66655701 C10.6666667,6.16463487 10.3891588,5.72743784 9.97928066,5.49998857 L11.7600351,2.41563141 C14.4814208,3.25546002 16.73531,5.30627002 18,8 C16.3276,11.5619305 12.9254,14 8.9998,14 C7.75820225,14 6.56894254,13.756109 5.47022196,13.3099073 Z" id="Shape"></path>
            <polygon id="Rectangle" points="12.8660254 0.5 14.5980762 1.5 6.59807621 15.3564065 4.8660254 14.3564065"></polygon>
        </g>
    </g>
</svg>
