<?xml version="1.0" encoding="UTF-8"?>
<svg width="24px" height="24px" viewBox="0 0 24 24" version="1.1" xmlns="http://www.w3.org/2000/svg" xmlns:xlink="http://www.w3.org/1999/xlink">
    <!-- Generator: Sketch 52.2 (67145) - http://www.bohemiancoding.com/sketch -->
    <title>published_post </title>
    <desc>Created with Sketch.</desc>
    <g id="published_post-" stroke="none" stroke-width="1" fill="none" fill-rule="evenodd">
        <path d="M20.2882353,12.7035503 C19.494915,12.1913775 18.549819,11.8941176 17.5352941,11.8941176 C14.7283881,11.8941176 12.4529412,14.1695646 12.4529412,16.9764706 C12.4529412,18.4944329 13.118418,19.8569647 14.1735408,20.7882353 L5.58921042,20.7882353 C3.88308662,20.7882353 2.5,19.4274912 2.5,17.7489282 L2.5,7.57001261 C2.5,5.89144967 3.88308662,4.53070555 5.58921042,4.53070555 L6.59741637,4.53070555 L6.59741637,3.82890192 C6.59741637,3.37111203 6.97462181,3 7.4399283,3 C7.9052348,3 8.28244024,3.37111203 8.28244024,3.82890192 L8.28244024,4.53070555 L14.5057951,4.53070555 L14.5057951,3.82890192 C14.5057951,3.37111203 14.8830005,3 15.348307,3 C15.8136135,3 16.1908189,3.37111203 16.1908189,3.82890192 L16.1908189,4.53070555 L17.1990249,4.53070555 C18.9051487,4.53070555 20.2882353,5.89144967 20.2882353,7.57001261 L20.2882353,12.7035503 Z M17.5235294,21.0470588 C15.3013955,21.0470588 13.5,19.2456633 13.5,17.0235294 C13.5,14.8013955 15.3013955,13 17.5235294,13 C19.7456633,13 21.5470588,14.8013955 21.5470588,17.0235294 C21.5470588,19.2456633 19.7456633,21.0470588 17.5235294,21.0470588 Z M5.5920188,6.1885094 L5.58921042,6.1885094 C5.21679699,6.1885094 4.85963665,6.33406021 4.59630059,6.59314232 C4.33296453,6.85222443 4.18502387,7.20361518 4.18502387,7.57001261 L4.18502387,10.0843484 L18.6032114,10.0843484 L18.6032114,7.57001261 C18.6032114,6.80702946 17.9745357,6.1885094 17.1990249,6.1885094 L16.1908189,6.1885094 L16.1908189,7.44291431 C16.1908189,7.90070421 15.8136135,8.27181624 15.348307,8.27181624 C14.8830005,8.27181624 14.5057951,7.90070421 14.5057951,7.44291431 L14.5057951,6.1885094 L8.28524861,6.1885094 L8.28524861,7.44291431 C8.28524861,7.90070421 7.90804317,8.27181624 7.44273668,8.27181624 C6.97743019,8.27181624 6.60022474,7.90070421 6.60022474,7.44291431 L6.60022474,6.1885094 L5.5920188,6.1885094 Z M17.1692913,18.4035714 L19.4055118,16.0678571 C19.5314961,15.9392857 19.5314961,15.725 19.4055118,15.5964286 C19.2795276,15.4678571 19.0800525,15.4678571 18.9540682,15.5964286 L16.9383202,17.6964286 L16.0459318,16.7535714 C15.9199475,16.625 15.7204724,16.625 15.5944882,16.7535714 C15.4685039,16.8821429 15.4685039,17.0964286 15.5944882,17.225 L16.7178478,18.4035714 C16.843832,18.5321429 17.0433071,18.5321429 17.1692913,18.4035714 Z" id="Combined-Shape" fill="#ADB5BD" fill-rule="nonzero"></path>
    </g>
</svg>
