<?xml version="1.0" encoding="UTF-8"?>
<svg width="24px" height="24px" viewBox="0 0 24 24" version="1.1" xmlns="http://www.w3.org/2000/svg" xmlns:xlink="http://www.w3.org/1999/xlink">
    <!-- Generator: Sketch 60.1 (88133) - https://sketch.com -->
    <title>icon/grey/question mark circle</title>
    <desc>Created with Sketch.</desc>
    <g id="icon/grey/question-mark-circle" stroke="none" stroke-width="1" fill="none" fill-rule="evenodd">
        <path d="M12.5,4 C17.1944204,4 21,7.80557963 21,12.5 C21,17.1944204 17.1944204,21 12.5,21 C7.80557963,21 4,17.1944204 4,12.5 C4,7.80557963 7.80557963,4 12.5,4 Z M13.388,14.976 L11.892,14.976 C11.617,15.196 11.452,15.526 11.452,15.9 C11.452,16.56 11.98,17.088 12.64,17.088 C13.3,17.088 13.828,16.56 13.828,15.9 C13.828,15.526 13.652,15.196 13.388,14.976 Z M12.86,9.102 C11.397,9.102 10.308,10.235 10.308,11.654 L11.98,11.654 C11.98,10.972 12.42,10.653 12.86,10.653 C13.3,10.653 13.773,10.972 13.773,11.654 C13.773,12.336 13.3,12.644 12.684,12.644 L11.947,12.644 L11.947,14.195 L12.684,14.195 C14.323,14.195 15.445,13.073 15.445,11.654 C15.445,10.235 14.323,9.102 12.86,9.102 Z" id="Combined-Shape" fill="#ACB4BD"></path>
    </g>
</svg>