<svg width="24" height="24" viewBox="0 0 24 24" fill="#ADB5BD" xmlns="http://www.w3.org/2000/svg">
<path d="M12 2C6.47715 2 2 6.47715 2 12C2 17.5228 6.47715 22 12 22C17.5228 22 22 17.5228 22 12C22 9.34784 20.9464 6.8043 19.0711 4.92893C17.1957 3.05357 14.6522 2 12 2ZM13 17.5C13 17.7761 12.7761 18 12.5 18H11.5C11.2239 18 11 17.7761 11 17.5V16.5C11 16.2239 11.2239 16 11.5 16H12.5C12.7761 16 13 16.2239 13 16.5V17.5ZM15.88 9.56C15.8716 10.806 15.0655 11.9063 13.88 12.29L13 12.6C12.9516 12.6202 12.92 12.6675 12.92 12.72V13.5C12.92 13.7761 12.6961 14 12.42 14H11.66C11.3839 14 11.16 13.7761 11.16 13.5V12.72C11.1622 11.9109 11.6818 11.1939 12.45 10.94L13.4 10.63C13.8557 10.4721 14.161 10.0423 14.16 9.56V9C14.1602 8.6959 14.0367 8.40479 13.8179 8.19356C13.5992 7.98233 13.3039 7.86914 13 7.88H11C10.3814 7.88 9.88 8.38144 9.88 9V9.5C9.88 9.77614 9.65614 10 9.38 10H8.62C8.34386 10 8.12 9.77614 8.12 9.5V9C8.12 7.40942 9.40942 6.12 11 6.12H13C13.7638 6.12 14.4964 6.42343 15.0365 6.96353C15.5766 7.50364 15.88 8.23618 15.88 9V9.56Z" fill="#1E2128"/>
</svg>
