<?xml version="1.0" encoding="UTF-8"?>
<svg width="24px" height="24px" viewBox="0 0 24 24" version="1.1" xmlns="http://www.w3.org/2000/svg" xmlns:xlink="http://www.w3.org/1999/xlink">
    <!-- Generator: Sketch 52 (66869) - http://www.bohemiancoding.com/sketch -->
    <title>question</title>
    <desc>Created with Sketch.</desc>
    <g id="question" stroke="none" stroke-width="1" fill="none" fill-rule="evenodd">
        <path d="M7,8.40120563 C7,7.52511283 7.14869242,6.75151039 7.44608171,6.08037508 C7.74347101,5.40923978 8.13931434,4.84661982 8.63362358,4.39249833 C9.12793281,3.93837683 9.70461827,3.59276743 10.3636973,3.35565975 C11.0227762,3.11855206 11.713995,3 12.4373744,3 C13.1768289,3 13.8760851,3.11453335 14.5351641,3.34360348 C15.1942431,3.57267362 15.7709285,3.89818945 16.2652378,4.32016075 C16.759547,4.74213205 17.1493623,5.25250873 17.4346952,5.8513061 C17.7200282,6.45010346 17.8626926,7.11921934 17.8626926,7.85867381 C17.8626926,8.43737731 17.7722715,8.95378206 17.5914267,9.40790355 C17.4105818,9.86202504 17.1855338,10.2659058 16.916276,10.6195579 C16.6470181,10.9732101 16.35968,11.2806417 16.0542532,11.541862 C15.7488263,11.8030824 15.4795725,12.0341584 15.2464836,12.2350971 C14.8365686,12.5646366 14.5130621,12.8479559 14.2759545,13.0850636 C14.0388468,13.3221713 13.8580046,13.5693222 13.7334226,13.8265238 C13.6088406,14.0837253 13.526457,14.3770915 13.4862693,14.7066309 C13.4460815,15.0361704 13.4259879,15.4460793 13.4259879,15.9363697 L10.7012726,15.9363697 C10.7012726,15.3898164 10.7273942,14.8955146 10.7796383,14.4534494 C10.8318824,14.0113843 10.9263222,13.6014754 11.0629605,13.2237106 C11.1995988,12.8459459 11.3924971,12.4882803 11.6416611,12.1507033 C11.8908251,11.8131262 12.2203596,11.4956478 12.6302746,11.1982585 C12.8794386,11.0133949 13.1426644,10.8104499 13.4199598,10.5894173 C13.6972552,10.3683847 13.9564623,10.1212338 14.1975887,9.84795713 C14.4387152,9.57468048 14.6376415,9.27327693 14.7943737,8.94373744 C14.9511059,8.61419795 15.0294709,8.25251369 15.0294709,7.85867381 C15.0294709,7.07099405 14.7863387,6.48828052 14.300067,6.11051574 C13.8137953,5.73275096 13.192904,5.5438714 12.4373744,5.5438714 C12.0917598,5.5438714 11.7622253,5.59611468 11.4487609,5.70060281 C11.1352965,5.80509094 10.8580052,5.97789565 10.6168788,6.2190221 C10.3757523,6.46014856 10.1868728,6.76155211 10.0502344,7.1232418 C9.9135961,7.48493148 9.84527796,7.91091516 9.84527796,8.40120563 L7,8.40120563 Z M9.98995311,18.9022103 C9.98995311,18.6208961 10.0442058,18.3516423 10.1527127,18.0944407 C10.2612196,17.8372392 10.409912,17.6142005 10.5987944,17.4253182 C10.7876768,17.2364358 11.0046873,17.0897527 11.2498326,16.9852646 C11.4949778,16.8807764 11.766241,16.8285332 12.0636303,16.8285332 C12.3610196,16.8285332 12.6363015,16.8807764 12.8894843,16.9852646 C13.142667,17.0897527 13.3636963,17.2364358 13.5525787,17.4253182 C13.7414611,17.6142005 13.8901535,17.8372392 13.9986604,18.0944407 C14.1071673,18.3516423 14.16142,18.6208961 14.16142,18.9022103 C14.16142,19.1835245 14.1071673,19.450769 13.9986604,19.7039518 C13.8901535,19.9571346 13.7414611,20.1781638 13.5525787,20.3670462 C13.3636963,20.5559286 13.142667,20.7086397 12.8894843,20.8251842 C12.6363015,20.9417286 12.3610196,21 12.0636303,21 C11.766241,21 11.4949778,20.9417286 11.2498326,20.8251842 C11.0046873,20.7086397 10.7876768,20.5559286 10.5987944,20.3670462 C10.409912,20.1781638 10.2612196,19.9571346 10.1527127,19.7039518 C10.0442058,19.450769 9.98995311,19.1835245 9.98995311,18.9022103 Z" id="?" fill="#ADB5BD"></path>
    </g>
</svg>