<?xml version="1.0" encoding="UTF-8"?>
<svg width="24px" height="24px" viewBox="0 0 24 24" version="1.1" xmlns="http://www.w3.org/2000/svg" xmlns:xlink="http://www.w3.org/1999/xlink">
    <!-- Generator: Sketch 52.2 (67145) - http://www.bohemiancoding.com/sketch -->
    <title>queued_post</title>
    <desc>Created with Sketch.</desc>
    <g id="queued_post" stroke="none" stroke-width="1" fill="none" fill-rule="evenodd">
        <path d="M11.6428571,6.03571429 C11.1497458,6.03571429 10.75,5.63596853 10.75,5.14285714 C10.75,4.64974576 11.1497458,4.25 11.6428571,4.25 L20.5714286,4.25 C21.06454,4.25 21.4642857,4.64974576 21.4642857,5.14285714 C21.4642857,5.63596853 21.06454,6.03571429 20.5714286,6.03571429 L11.6428571,6.03571429 Z M11.6428571,9.78571429 C11.1497458,9.78571429 10.75,9.38596853 10.75,8.89285714 C10.75,8.39974576 11.1497458,8 11.6428571,8 L18.3392857,8 C18.8323971,8 19.2321429,8.39974576 19.2321429,8.89285714 C19.2321429,9.38596853 18.8323971,9.78571429 18.3392857,9.78571429 L11.6428571,9.78571429 Z M7.80357143,3 C8.7897942,3 9.58928571,3.79949152 9.58928571,4.78571429 L9.58928571,8.80357143 C9.58928571,9.7897942 8.7897942,10.5892857 7.80357143,10.5892857 L3.78571429,10.5892857 C2.79949152,10.5892857 2,9.7897942 2,8.80357143 L2,4.78571429 C2,3.79949152 2.79949152,3 3.78571429,3 L7.80357143,3 Z M11.6428571,17.2857143 C11.1497458,17.2857143 10.75,16.8859685 10.75,16.3928571 C10.75,15.8997458 11.1497458,15.5 11.6428571,15.5 L20.5714286,15.5 C21.06454,15.5 21.4642857,15.8997458 21.4642857,16.3928571 C21.4642857,16.8859685 21.06454,17.2857143 20.5714286,17.2857143 L11.6428571,17.2857143 Z M11.6428571,21.0357143 C11.1497458,21.0357143 10.75,20.6359685 10.75,20.1428571 C10.75,19.6497458 11.1497458,19.25 11.6428571,19.25 L18.3392857,19.25 C18.8323971,19.25 19.2321429,19.6497458 19.2321429,20.1428571 C19.2321429,20.6359685 18.8323971,21.0357143 18.3392857,21.0357143 L11.6428571,21.0357143 Z M2,20.0535714 L2,16.0357143 C2,15.0494915 2.79949152,14.25 3.78571429,14.25 L7.80357143,14.25 C8.7897942,14.25 9.58928571,15.0494915 9.58928571,16.0357143 L9.58928571,20.0535714 C9.58928571,21.0397942 8.7897942,21.8392857 7.80357143,21.8392857 L3.78571429,21.8392857 C2.79949152,21.8392857 2,21.0397942 2,20.0535714 Z" id="Combined-Shape" fill="#ADB5BD" fill-rule="nonzero"></path>
    </g>
</svg>
