<?xml version="1.0" encoding="UTF-8"?>
<svg width="24px" height="24px" viewBox="0 0 24 24" version="1.1" xmlns="http://www.w3.org/2000/svg" xmlns:xlink="http://www.w3.org/1999/xlink">
    <!-- Generator: Sketch 51.2 (57519) - http://www.bohemiancoding.com/sketch -->
    <title>reply</title>
    <desc>Created with Sketch.</desc>
    <defs></defs>
    <g id="reply" stroke="none" stroke-width="1" fill="none" fill-rule="evenodd">
        <path d="M12.018163,18.0876236 C11.870163,18.0876236 11.722163,18.0536236 11.587163,17.9856236 C11.264163,17.8206236 11.064163,17.4926236 11.064163,17.1306236 L11.064163,14.5396236 C9.00716302,14.5976236 7.32616302,15.0586236 5.66816302,16.0116236 L4.92916302,16.4376236 C4.57616302,16.6436236 4.12916302,16.5986236 3.82116302,16.3236236 C3.51716302,16.0536236 3.41716302,15.6186236 3.57216302,15.2406236 L4.15416302,13.8326236 C5.35916302,10.9216236 7.98216302,8.95062362 11.064163,8.60862362 L11.064163,5.95862362 C11.064163,5.59562362 11.264163,5.26862362 11.586163,5.10462362 C11.911163,4.93962362 12.293163,4.97162362 12.585163,5.18762362 L20.149163,10.7736236 C20.392163,10.9516236 20.537163,11.2406236 20.537163,11.5446236 C20.537163,11.8476236 20.392163,12.1356236 20.149163,12.3166236 L12.584163,17.9026236 C12.420163,18.0246236 12.220163,18.0876236 12.018163,18.0876236" id="Path" fill="#ADB5BD" fill-rule="nonzero"></path>
    </g>
</svg>