<?xml version="1.0" encoding="UTF-8"?>
<svg width="24px" height="24px" viewBox="0 0 24 24" version="1.1" xmlns="http://www.w3.org/2000/svg" xmlns:xlink="http://www.w3.org/1999/xlink">
    <!-- Generator: Sketch 52 (66869) - http://www.bohemiancoding.com/sketch -->
    <title>reply</title>
    <desc>Created with Sketch.</desc>
    <g id="reply" stroke="none" stroke-width="1" fill="none" fill-rule="evenodd">
        <path d="M11.9995579,19 C11.8431938,19 11.6868297,18.9636298 11.5442004,18.8908893 C11.2029464,18.7143867 10.9916436,18.3635208 10.9916436,17.9762847 L10.9916436,15.2046586 C8.81839442,15.2667019 7.04239451,15.7598396 5.29069442,16.779276 L4.50993063,17.2349737 C4.13698121,17.4553346 3.66471949,17.4071975 3.3393132,17.1130264 C3.01813296,16.8242039 2.91248157,16.3588788 3.07624123,15.9545273 L3.69113234,14.4483716 C4.96423162,11.3344373 7.73546765,9.2260331 10.9916436,8.86019129 L10.9916436,6.02545206 C10.9916436,5.63714628 11.2029464,5.28735015 11.5431438,5.11191724 C11.8865109,4.93541461 12.2900992,4.96964542 12.5986013,5.20070341 L20.5900726,11.1761197 C20.8468055,11.3665286 21,11.6756757 21,12.0008684 C21,12.3249914 20.8468055,12.6330687 20.5900726,12.8266868 L12.5975447,18.8021031 C12.4242765,18.9326081 12.2129737,19 11.9995579,19" id="Path" fill="#ADB5BD" fill-rule="nonzero"></path>
    </g>
</svg>