<?xml version="1.0" encoding="UTF-8"?>
<svg width="18px" height="14px" viewBox="0 0 18 14" version="1.1" xmlns="http://www.w3.org/2000/svg" xmlns:xlink="http://www.w3.org/1999/xlink">
    <!-- Generator: Sketch 51.2 (57519) - http://www.bohemiancoding.com/sketch -->
    <title>reply</title>
    <desc>Created with Sketch.</desc>
    <defs></defs>
    <g id="Components" stroke="none" stroke-width="1" fill="none" fill-rule="evenodd">
        <g id="Icon-Set" transform="translate(-358.000000, -411.000000)" fill-rule="nonzero">
            <g id="reply" transform="translate(355.000000, 406.000000)">
                <rect id="Rectangle" x="0" y="0" width="24" height="24"></rect>
                <path d="M20.1378956,12.0936501 C20.1378956,12.25513 20.0622481,12.4074695 19.9321346,12.5034434 L12.3673925,18.0892261 C12.2140804,18.2034807 12.0093281,18.2182069 11.8408865,18.1328967 C11.6714363,18.046571 11.5645212,17.8708727 11.5645212,17.6794327 L11.5645212,14.6326422 C9.43630713,14.6326422 7.49267274,15.0216158 5.49406788,16.1707636 L4.75474043,16.5968065 C4.56814346,16.7054754 4.33262782,16.681101 4.17074234,16.5368863 C4.00885686,16.3931793 3.95590367,16.1616233 4.03861151,15.9605351 L4.62059233,14.5539335 C5.81229137,11.673193 8.50332228,9.75980856 11.5650255,9.57039975 L11.5650255,6.50786747 C11.5650255,6.31642747 11.6719406,6.14123701 11.8413908,6.05491128 C12.0113453,5.96858555 12.2145847,5.9848351 12.3673925,6.09807415 L19.9321346,11.6838568 C20.0622481,11.7798307 20.1378956,11.9321702 20.1378956,12.0936501 Z" id="Shape" stroke="#ADB5BD" stroke-width="0.9" fill="#ADB5BD"></path>
            </g>
        </g>
    </g>
</svg>