<svg width="24" height="24" viewBox="0 0 24 24" fill="#ADB5BD" xmlns="http://www.w3.org/2000/svg">
<path d="M14 14C9.28001 14 4.50001 16 4.00001 18.59C3.95668 18.8268 3.75074 18.9991 3.51001 19H3.41001C3.2905 18.9999 3.17574 18.9533 3.09001 18.87C3.02214 18.774 2.99028 18.6572 3.00001 18.54C3.35402 12.6943 8.14452 8.10412 14 8V5.42C13.998 5.28441 14.0523 5.15407 14.15 5.06L14.35 4.86C14.4439 4.76534 14.5717 4.7121 14.705 4.7121C14.8383 4.7121 14.9661 4.76534 15.06 4.86L20.85 10.65C20.9467 10.7407 21.0015 10.8674 21.0015 11C21.0015 11.1326 20.9467 11.2593 20.85 11.35L15.06 17.14C14.9661 17.2347 14.8383 17.2879 14.705 17.2879C14.5717 17.2879 14.4439 17.2347 14.35 17.14L14.15 16.94C14.0523 16.8459 13.998 16.7156 14 16.58V14Z" fill="#1E2128"/>
</svg>
