<?xml version="1.0" encoding="UTF-8"?>
<svg width="24px" height="24px" viewBox="0 0 24 24" version="1.1" xmlns="http://www.w3.org/2000/svg" xmlns:xlink="http://www.w3.org/1999/xlink">
    <!-- Generator: Sketch 51.2 (57519) - http://www.bohemiancoding.com/sketch -->
    <title>repost</title>
    <desc>Created with Sketch.</desc>
    <defs></defs>
    <g id="repost" stroke="none" stroke-width="1" fill="none" fill-rule="evenodd">
        <path d="M7.14157895,15.2575188 C6.94473684,15.4492481 6.74789474,15.5451128 6.45263158,15.5451128 C6.15736842,15.5451128 5.96052632,15.4492481 5.76368421,15.2575188 L3.79526316,13.3402256 C3.40157895,12.9567669 3.40157895,12.3815789 3.79526316,11.9981203 C4.18894737,11.6146617 4.77947368,11.6146617 5.17315789,11.9981203 L5.46842105,12.2857143 L5.46842105,5.95864662 C5.46842105,5.38345865 5.86210526,5 6.45263158,5 L14.7736842,5 C15.3642105,5 15.7578947,5.38345865 15.7578947,5.95864662 C15.7578947,6.53383459 15.3642105,6.91729323 14.7736842,6.91729323 L7.43684211,6.91729323 L7.43684211,12.2857143 L7.73210526,11.9981203 C8.12578947,11.6146617 8.71631579,11.6146617 9.11,11.9981203 C9.50368421,12.3815789 9.50368421,12.9567669 9.11,13.3402256 L7.14157895,15.2575188 Z M20.2047368,10.0808271 C20.5984211,10.4642857 20.5984211,11.0394737 20.2047368,11.4229323 C20.0078947,11.6146617 19.4173684,11.9022556 18.8268421,11.4229323 L18.5315789,11.1353383 L18.5315789,17.462406 C18.5315789,18.037594 18.1378947,18.4210526 17.5473684,18.4210526 L9.22631579,18.4210526 C8.63578947,18.4210526 8.24210526,18.037594 8.24210526,17.462406 C8.24210526,16.887218 8.63578947,16.5037594 9.22631579,16.5037594 L16.5631579,16.5037594 L16.5631579,11.1353383 L16.2678947,11.4229323 C15.8742105,11.806391 15.2836842,11.806391 14.89,11.4229323 C14.4963158,11.0394737 14.4963158,10.4642857 14.89,10.0808271 L16.8584211,8.16353383 C17.2521053,7.78007519 17.8426316,7.78007519 18.2363158,8.16353383 L20.2047368,10.0808271 Z" id="Shape" fill="#ADB5BD" fill-rule="nonzero"></path>
    </g>
</svg>