<svg width="24" height="24" viewBox="0 0 24 24" fill="none" xmlns="http://www.w3.org/2000/svg">
<g>
<path d="M12.3806 9.87443C8.78514 9.87443 5.14394 11.3979 4.76306 13.3709C4.73006 13.5513 4.57319 13.6825 4.3898 13.6832H4.31363C4.22259 13.6831 4.13517 13.6476 4.06986 13.5842C4.01817 13.5111 3.9939 13.4221 4.00131 13.3328C4.27098 8.8798 7.92017 5.38321 12.3806 5.30389V3.33856C12.3791 3.23528 12.4205 3.13599 12.4949 3.06433L12.6472 2.91198C12.7188 2.83987 12.8161 2.79932 12.9177 2.79932C13.0192 2.79932 13.1166 2.83987 13.1881 2.91198L17.5987 7.32255C17.6723 7.39166 17.7141 7.48816 17.7141 7.58916C17.7141 7.69016 17.6723 7.78666 17.5987 7.85578L13.1881 12.2663C13.1166 12.3385 13.0192 12.379 12.9177 12.379C12.8161 12.379 12.7188 12.3385 12.6472 12.2663L12.4949 12.114C12.4205 12.0423 12.3791 11.943 12.3806 11.8398V9.87443Z" fill="#1E2128"/>
<path d="M11.6211 14.937C15.2166 14.937 18.8578 13.4135 19.2386 11.4406C19.2717 11.2602 19.4285 11.1289 19.6119 11.1282L19.6881 11.1282C19.7791 11.1283 19.8665 11.1639 19.9318 11.2273C19.9835 11.3004 20.0078 11.3894 20.0004 11.4787C19.7307 15.9317 16.0815 19.4283 11.6211 19.5076L11.6211 21.4729C11.6226 21.5762 11.5812 21.6755 11.5068 21.7471L11.3545 21.8995C11.283 21.9716 11.1856 22.0121 11.084 22.0121C10.9825 22.0121 10.8851 21.9716 10.8136 21.8995L6.40305 17.4889C6.32941 17.4198 6.28763 17.3233 6.28763 17.2223C6.28763 17.1213 6.32941 17.0248 6.40305 16.9557L10.8136 12.5451C10.8851 12.473 10.9825 12.4325 11.084 12.4325C11.1856 12.4325 11.283 12.473 11.3545 12.5451L11.5068 12.6975C11.5812 12.7691 11.6226 12.8684 11.6211 12.9717L11.6211 14.937Z" fill="#1E2128"/>
</g>
</svg>
