<?xml version="1.0" encoding="UTF-8"?>
<svg width="24px" height="24px" viewBox="0 0 24 24" version="1.1" xmlns="http://www.w3.org/2000/svg" xmlns:xlink="http://www.w3.org/1999/xlink">
    <!-- Generator: Sketch 52 (66869) - http://www.bohemiancoding.com/sketch -->
    <title>repost</title>
    <desc>Created with Sketch.</desc>
    <g id="repost" stroke="none" stroke-width="1" fill="none" fill-rule="evenodd">
        <path d="M6.85578947,15.7 C6.64736842,15.9 6.43894737,16 6.12631579,16 C5.81368421,16 5.60526316,15.9 5.39684211,15.7 L3.31263158,13.7 C2.89578947,13.3 2.89578947,12.7 3.31263158,12.3 C3.72947368,11.9 4.35473684,11.9 4.77157895,12.3 L5.08421053,12.6 L5.08421053,6 C5.08421053,5.4 5.50105263,5 6.12631579,5 L14.9368421,5 C15.5621053,5 15.9789474,5.4 15.9789474,6 C15.9789474,6.6 15.5621053,7 14.9368421,7 L7.16842105,7 L7.16842105,12.6 L7.48105263,12.3 C7.89789474,11.9 8.52315789,11.9 8.94,12.3 C9.35684211,12.7 9.35684211,13.3 8.94,13.7 L6.85578947,15.7 Z M20.6873684,10.3 C21.1042105,10.7 21.1042105,11.3 20.6873684,11.7 C20.4789474,11.9 19.8536842,12.2 19.2284211,11.7 L18.9157895,11.4 L18.9157895,18 C18.9157895,18.6 18.4989474,19 17.8736842,19 L9.06315789,19 C8.43789474,19 8.02105263,18.6 8.02105263,18 C8.02105263,17.4 8.43789474,17 9.06315789,17 L16.8315789,17 L16.8315789,11.4 L16.5189474,11.7 C16.1021053,12.1 15.4768421,12.1 15.06,11.7 C14.6431579,11.3 14.6431579,10.7 15.06,10.3 L17.1442105,8.3 C17.5610526,7.9 18.1863158,7.9 18.6031579,8.3 L20.6873684,10.3 Z" id="Shape" fill="#ADB5BD" fill-rule="nonzero"></path>
    </g>
</svg>