<?xml version="1.0" encoding="UTF-8"?>
<svg width="19px" height="22px" viewBox="0 0 19 22" version="1.1" xmlns="http://www.w3.org/2000/svg" xmlns:xlink="http://www.w3.org/1999/xlink">
    <title>robot</title>
    <g id="Page-1" stroke="none" stroke-width="1" fill="none" fill-rule="evenodd">
        <g id="robot" transform="translate(0.000000, 0.000001)" fill="#ADB5BD" fill-rule="nonzero">
            <path d="M11.6338,0.842939272 C12.8827,1.96660927 12.8836,3.74734927 11.6346,4.87152927 C11.2995372,5.17313949 10.9117866,5.39379292 10.4996306,5.53348954 L10.4999,7.28215927 L15.1667,7.28215927 C16.0951,7.28215927 16.9851,7.58215927 17.6415,8.11634927 C18.2432917,8.60590427 18.6032514,9.25538934 18.6590656,9.94193346 L18.6667,10.1299993 L18.6667,18.1989993 C18.6667,18.9541993 18.298,19.6785993 17.6415,20.2126993 C17.0398,20.7021993 16.2417271,20.9952423 15.397866,21.0406835 L15.1667,21.0468993 L3.5,21.0468993 C2.57161,21.0468993 1.68156,20.7466993 1.02521,20.2126993 C0.423363333,19.7231076 0.0634410417,19.0736111 0.0076334838,18.3870653 L0,18.1989993 L0,10.1299993 C0,9.37479927 0.3687,8.65040927 1.02521,8.11634927 C1.62686417,7.62664761 2.42494167,7.33378101 3.26882691,7.28837061 L3.5,7.28215927 L8.1668,7.28215927 L8.16626285,5.48754951 C7.80151683,5.34728698 7.45873462,5.1419469 7.1583,4.87152927 C5.9094,3.74734927 5.90949,1.96623927 7.1584,0.842579272 C8.4068,-0.281100728 10.3854,-0.280738728 11.6338,0.842939272 Z M6.83362,14.4765993 L6.22266,15.6521993 C7.0284,16.3582993 8.1839,16.7622993 9.3973,16.7622993 C10.6107,16.7622993 11.7662,16.3581993 12.5719,15.6519993 L11.3392,14.5419993 C10.9157,14.9104993 10.0388,15.1939993 9.4036,15.1987993 C8.7641,15.1966993 7.2601,14.8474993 6.83362,14.4765993 Z M7.4181,11.6852993 C7.0124,11.3201993 6.35456,11.3201993 5.94891,11.6852993 C5.54307,12.0503993 5.54307,12.6424993 5.94891,13.0076993 C6.35456,13.3727993 7.0124,13.3727993 7.4181,13.0076993 C7.8239,12.6424993 7.8239,12.0503993 7.4181,11.6852993 Z M12.6135,11.6852993 C12.2077,11.3201993 11.5498,11.3201993 11.1441,11.6852993 C10.7384,12.0504993 10.7384,12.6424993 11.1441,13.0076993 C11.5498,13.3727993 12.2077,13.3727993 12.6135,13.0076993 C13.0192,12.6424993 13.0192,12.0504993 12.6135,11.6852993 Z" id="Combined-Shape"></path>
        </g>
    </g>
</svg>