<svg width="24" height="24" viewBox="0 0 24 24" fill="none" xmlns="http://www.w3.org/2000/svg">
<g clip-path="url(#clip0_2501_7801)">
<path d="M18.1667 8.28216H13.4999V6.04688H11.1668V8.28216H6.5C5.57167 8.28216 4.68156 8.58213 4.02521 9.11635C3.3687 9.65041 3 10.3748 3 11.13V19.199C3 19.9542 3.36865 20.6786 4.02521 21.2127C4.68156 21.7467 5.57161 22.0469 6.5 22.0469H18.1667C19.095 22.0469 19.9851 21.7467 20.6415 21.2127C21.298 20.6786 21.6667 19.9542 21.6667 19.199V11.13C21.6667 10.3748 21.298 9.65041 20.6415 9.11635C19.9851 8.58216 19.0951 8.28216 18.1667 8.28216ZM19.3333 19.199C19.3333 19.4506 19.2104 19.6922 18.9917 19.8701C18.7728 20.0482 18.4761 20.1482 18.1667 20.1482H6.50002C6.19057 20.1482 5.89393 20.0482 5.67502 19.8701C5.45631 19.6922 5.33343 19.4506 5.33343 19.199V11.13C5.33343 10.8782 5.45631 10.6369 5.67502 10.4587C5.89393 10.2808 6.19056 10.1808 6.50002 10.1808H18.1667C18.4761 10.1808 18.7728 10.2808 18.9917 10.4587C19.2104 10.6369 19.3333 10.8782 19.3333 11.13V19.199Z" fill="#ADB5BD"/>
<path d="M19.3333 19.199C19.3333 19.4506 19.2104 19.6922 18.9917 19.8701C18.7728 20.0482 18.4761 20.1482 18.1667 20.1482H6.50002C6.19057 20.1482 5.89393 20.0482 5.67502 19.8701C5.45631 19.6922 5.33343 19.4506 5.33343 19.199V11.13C5.33343 10.8782 5.45631 10.6369 5.67502 10.4587C5.89393 10.2808 6.19056 10.1808 6.50002 10.1808H18.1667C18.4761 10.1808 18.7728 10.2808 18.9917 10.4587C19.2104 10.6369 19.3333 10.8782 19.3333 11.13V19.199Z" fill="#ADB5BD"/>
<path d="M10.4181 12.6853C10.8239 13.0504 10.8239 13.6425 10.4181 14.0077C10.0124 14.3728 9.35456 14.3728 8.94891 14.0077C8.54307 13.6425 8.54307 13.0504 8.94891 12.6853C9.35456 12.3202 10.0124 12.3202 10.4181 12.6853Z" fill="white"/>
<path d="M15.6135 12.6853C16.0192 13.0505 16.0192 13.6425 15.6135 14.0077C15.2077 14.3728 14.5498 14.3728 14.1441 14.0077C13.7384 13.6425 13.7384 13.0505 14.1441 12.6853C14.5498 12.3202 15.2077 12.3202 15.6135 12.6853Z" fill="white"/>
<path d="M12.4036 16.1988C11.7641 16.1967 10.2601 15.8475 9.83362 15.4766L9.22266 16.6522C10.0284 17.3583 11.1839 17.7623 12.3973 17.7623C13.6107 17.7623 14.7662 17.3582 15.5719 16.652L14.3392 15.542C13.9157 15.9105 13.0388 16.194 12.4036 16.1988Z" fill="white"/>
<path d="M14.6338 1.84294C15.8827 2.96661 15.8836 4.74735 14.6346 5.87153C13.3863 6.9952 11.4067 6.9952 10.1583 5.87153C8.9094 4.74735 8.90949 2.96624 10.1584 1.84258C11.4068 0.7189 13.3854 0.719262 14.6338 1.84294Z" fill="#ADB5BD"/>
</g>
<defs>
<clipPath id="clip0_2501_7801">
<rect width="24" height="24" fill="white"/>
</clipPath>
</defs>
</svg>