<?xml version="1.0" encoding="UTF-8"?>
<svg width="24px" height="24px" viewBox="0 0 24 24" version="1.1" xmlns="http://www.w3.org/2000/svg" xmlns:xlink="http://www.w3.org/1999/xlink">
    <!-- Generator: Sketch 52 (66869) - http://www.bohemiancoding.com/sketch -->
    <title>schedule</title>
    <desc>Created with Sketch.</desc>
    <g id="schedule" stroke="none" stroke-width="1" fill="none" fill-rule="evenodd">
        <path d="M12,3 C16.9634568,3 21,7.03654 21,12 C21,16.96346 16.9634568,21 12,21 C7.0365432,21 3,16.96346 3,12 C3,7.03654 7.0365432,3 12,3 Z M11.99375,5.9875 C11.8335222,5.98915037 11.68061,6.05481609 11.5690805,6.16986757 C11.457551,6.28491904 11.3966696,6.43979832 11.4,6.6 L11.4,12 C11.4012623,12.157111 11.4640947,12.3074599 11.575,12.41875 L15.39375,16.2375 C15.5407797,16.4058826 15.7692191,16.4785779 15.9865212,16.4261352 C16.2038232,16.3736924 16.3739604,16.2048062 16.4280054,15.9878972 C16.4820504,15.7709881 16.4110429,15.5420183 16.24375,15.39375 L12.6,11.75 L12.6,6.6 C12.6033759,6.43763047 12.5407935,6.28082651 12.4265465,6.16540171 C12.3122995,6.04997691 12.1561456,5.9857896 11.99375,5.9875 Z" id="Shape" fill="#ADB5BD" fill-rule="nonzero"></path>
    </g>
</svg>