<svg width="24" height="24" viewBox="0 0 24 24" fill="#ADB5BD" xmlns="http://www.w3.org/2000/svg">
<path d="M12 2C6.47715 2 2 6.47715 2 12C2 17.5228 6.47715 22 12 22C17.5228 22 22 17.5228 22 12C22 9.34784 20.9464 6.8043 19.0711 4.92893C17.1957 3.05357 14.6522 2 12 2ZM16.51 16L15.98 16.53C15.7822 16.7218 15.4678 16.7218 15.27 16.53L11.27 12.53C11.1723 12.4359 11.118 12.3056 11.12 12.17V6.5C11.12 6.22386 11.3439 6 11.62 6H12.38C12.6561 6 12.88 6.22386 12.88 6.5V11.64L16.51 15.27C16.6084 15.366 16.6638 15.4976 16.6638 15.635C16.6638 15.7724 16.6084 15.904 16.51 16Z" fill="#1E2128"/>
</svg>
