<?xml version="1.0" encoding="UTF-8"?>
<svg width="24px" height="24px" viewBox="0 0 24 24" version="1.1" xmlns="http://www.w3.org/2000/svg" xmlns:xlink="http://www.w3.org/1999/xlink">
    <!-- Generator: Sketch 52.2 (67145) - http://www.bohemiancoding.com/sketch -->
    <title>scheduled_post</title>
    <desc>Created with Sketch.</desc>
    <g id="scheduled_post" stroke="none" stroke-width="1" fill="#ADB5BD" fill-rule="evenodd">
        <path d="M20.2882353,12.7035503 C19.494915,12.1913775 18.549819,11.8941176 17.5352941,11.8941176 C14.7283881,11.8941176 12.4529412,14.1695646 12.4529412,16.9764706 C12.4529412,18.4944329 13.118418,19.8569647 14.1735408,20.7882353 L5.58921042,20.7882353 C3.88308662,20.7882353 2.5,19.4274912 2.5,17.7489282 L2.5,7.57001261 C2.5,5.89144967 3.88308662,4.53070555 5.58921042,4.53070555 L6.59741637,4.53070555 L6.59741637,3.82890192 C6.59741637,3.37111203 6.97462181,3 7.4399283,3 C7.9052348,3 8.28244024,3.37111203 8.28244024,3.82890192 L8.28244024,4.53070555 L14.5057951,4.53070555 L14.5057951,3.82890192 C14.5057951,3.37111203 14.8830005,3 15.348307,3 C15.8136135,3 16.1908189,3.37111203 16.1908189,3.82890192 L16.1908189,4.53070555 L17.1990249,4.53070555 C18.9051487,4.53070555 20.2882353,5.89144967 20.2882353,7.57001261 L20.2882353,12.7035503 Z M17.5352941,21 C15.3131602,21 13.5117647,19.1986045 13.5117647,16.9764706 C13.5117647,14.7543367 15.3131602,12.9529412 17.5352941,12.9529412 C19.7574281,12.9529412 21.5588235,14.7543367 21.5588235,16.9764706 C21.5588235,19.1986045 19.7574281,21 17.5352941,21 Z M17.3476535,14.6663254 C17.2736232,14.6670795 17.2029728,14.6970858 17.1514426,14.7496591 C17.0999124,14.8022325 17.0717832,14.8730053 17.073322,14.9462102 L17.073322,17.4137662 C17.0739052,17.4855588 17.1029358,17.5542615 17.1541776,17.605116 L18.9185626,19.3501122 C18.9864951,19.4270554 19.0920414,19.4602739 19.1924419,19.4363099 C19.2928425,19.412346 19.3714513,19.3351726 19.3964218,19.236055 C19.4213924,19.1369373 19.3885846,19.0323085 19.3112899,18.9645566 L17.6277605,17.2995275 L17.6277605,14.9462102 C17.6293203,14.8720147 17.6004052,14.8003623 17.5476194,14.7476184 C17.4948336,14.6948745 17.4226855,14.6655438 17.3476535,14.6663254 Z M5.5920188,6.1885094 L5.58921042,6.1885094 C5.21679699,6.1885094 4.85963665,6.33406021 4.59630059,6.59314232 C4.33296453,6.85222443 4.18502387,7.20361518 4.18502387,7.57001261 L4.18502387,10.0843484 L18.6032114,10.0843484 L18.6032114,7.57001261 C18.6032114,6.80702946 17.9745357,6.1885094 17.1990249,6.1885094 L16.1908189,6.1885094 L16.1908189,7.44291431 C16.1908189,7.90070421 15.8136135,8.27181624 15.348307,8.27181624 C14.8830005,8.27181624 14.5057951,7.90070421 14.5057951,7.44291431 L14.5057951,6.1885094 L8.28524861,6.1885094 L8.28524861,7.44291431 C8.28524861,7.90070421 7.90804317,8.27181624 7.44273668,8.27181624 C6.97743019,8.27181624 6.60022474,7.90070421 6.60022474,7.44291431 L6.60022474,6.1885094 L5.5920188,6.1885094 Z" id="Combined-Shape" fill="#ADB5BD" fill-rule="nonzero"></path>
    </g>
</svg>
