<svg width="24" height="24" viewBox="0 0 24 24" fill="#ADB5BD" xmlns="http://www.w3.org/2000/svg">
<path d="M20.875 19.4602L16.875 15.4554C16.7454 15.3226 16.6012 15.2051 16.445 15.105L15.445 14.4142C17.5019 11.866 17.521 8.23099 15.491 5.66125C13.461 3.09151 9.92359 2.27284 6.9731 3.68991C4.0226 5.10699 2.44643 8.38161 3.17773 11.5751C3.90902 14.7686 6.75261 17.0287 10.025 17.0173C11.613 17.0178 13.1541 16.4776 14.395 15.4855L15.145 16.4867C15.234 16.6156 15.3344 16.7362 15.445 16.8471L19.445 20.8519C19.5389 20.9467 19.6667 21 19.8 21C19.9333 21 20.0611 20.9467 20.155 20.8519L20.855 20.1511C21.0448 19.9631 21.0536 19.6589 20.875 19.4602ZM10.025 15.0149C7.26357 15.0149 5.025 12.7736 5.025 10.0089C5.025 7.24411 7.26357 5.00284 10.025 5.00284C12.7864 5.00284 15.025 7.24411 15.025 10.0089C15.025 11.3365 14.4982 12.6099 13.5605 13.5487C12.6228 14.4875 11.3511 15.0149 10.025 15.0149Z" fill="#1E2128"/>
</svg>
