<?xml version="1.0" encoding="UTF-8"?>
<svg width="24px" height="24px" viewBox="0 0 24 24" version="1.1" xmlns="http://www.w3.org/2000/svg" xmlns:xlink="http://www.w3.org/1999/xlink">
    <!-- Generator: Sketch 52 (66869) - http://www.bohemiancoding.com/sketch -->
    <title>search</title>
    <desc>Created with Sketch.</desc>
    <g id="search" stroke="none" stroke-width="1" fill="none" fill-rule="evenodd">
        <path d="M20.7090069,19.3410138 L17.4110855,16.0506912 C18.5473441,14.6129032 19.1570439,12.8709677 19.1570439,11.0737327 C19.1570439,6.62211982 15.5265589,3 11.0646651,3 C6.60277136,3 3,6.64976959 3,11.1013825 C3,15.5529954 6.63048499,19.1751152 11.0923788,19.1751152 C12.8937644,19.1751152 14.6674365,18.5668203 16.0808314,17.4331797 L19.3787529,20.7235023 C19.5727483,20.9170507 19.7944573,21 20.0438799,21 C20.2933025,21 20.5150115,20.9170507 20.7090069,20.7235023 C21.0969977,20.3087558 21.0969977,19.7281106 20.7090069,19.3410138 Z M17.2170901,11.1290323 C17.2170901,14.5023041 14.4734411,17.2672811 11.0923788,17.2672811 C7.7113164,17.2672811 4.93995381,14.5023041 4.93995381,11.1290323 C4.93995381,7.75576037 7.68360277,4.99078341 11.0923788,4.99078341 C14.5011547,4.99078341 17.2170901,7.7281106 17.2170901,11.1290323 Z" id="Shape" fill="#ADB5BD" fill-rule="nonzero"></path>
    </g>
</svg>