<?xml version="1.0" encoding="UTF-8"?>
<svg width="24px" height="24px" viewBox="0 0 24 24" version="1.1" xmlns="http://www.w3.org/2000/svg" xmlns:xlink="http://www.w3.org/1999/xlink">
    <!-- Generator: Sketch 51.2 (57519) - http://www.bohemiancoding.com/sketch -->
    <title>settings</title>
    <desc>Created with Sketch.</desc>
    <defs></defs>
    <g id="settings" stroke="none" stroke-width="1" fill="none" fill-rule="evenodd">
        <path d="M19.7743038,8.62840425 C19.5091623,8.05073645 18.7783234,7.61228499 18.1477625,7.65388987 C17.5172015,7.69549475 16.7880623,7.46346752 16.4651335,7.17383352 C16.1422047,6.88419953 15.8804624,6.19931914 15.9042571,5.60244908 C15.9280519,5.00557902 15.4402594,4.33670051 14.816497,4.10307309 C14.1927345,3.86944566 13.3497204,4.04706651 12.9350118,4.49351892 C12.5203032,4.93997132 11.8251565,5.26800982 11.3832539,5.28081133 C10.9413514,5.29361283 10.2377065,4.9815762 9.80940094,4.54632511 C9.38109537,4.11107403 8.52958312,3.95585581 7.9160184,4.20548511 C7.30245368,4.45511441 6.83335711,5.14319517 6.87754736,5.73686486 C6.92173762,6.33053454 6.67529196,7.01701511 6.36765979,7.3210508 C6.06002761,7.62508649 5.332588,7.86831504 4.70202703,7.84911278 C4.07146606,7.82991053 3.35762345,8.28756425 3.10947816,8.87483318 C2.86133287,9.46210211 3.04999128,10.2557953 3.52418673,10.6462411 C3.99838217,11.0366869 4.34680535,11.6911637 4.36040235,12.1056124 C4.37399936,12.520061 4.04427205,13.184139 3.58027436,13.5873863 C3.11627666,13.9906337 2.94971339,14.7907276 3.21825418,15.3715957 C3.48679497,15.9524639 4.21423458,16.3909154 4.84479555,16.3493105 C5.47535652,16.3077056 6.20449576,16.5397329 6.52742456,16.8293669 C6.85035336,17.1190009 7.11209565,17.8006809 7.0883009,18.3975509 C7.06450614,18.994421 7.55229859,19.6632995 8.17776069,19.8969269 C8.80322278,20.1305543 9.64453729,19.9529335 10.0592459,19.5064811 C10.4739544,19.0600287 11.1674015,18.7319902 11.6093041,18.7255894 C12.0512067,18.7191887 12.7548515,19.0280249 13.1865563,19.463276 C13.6182611,19.8985271 14.4680738,20.0473446 15.0816385,19.7977153 C15.6952032,19.548086 16.1642998,18.8632056 16.1201095,18.2695359 C16.0759193,17.6758662 16.3223649,16.9893856 16.6299971,16.6853499 C16.9376293,16.3813143 17.6633693,16.1380857 18.2973295,16.1620885 C18.9312897,16.1860913 19.6417331,15.7252373 19.8898784,15.1363681 C20.1380236,14.547499 19.9527645,13.755406 19.4751698,13.3617598 C18.9975751,12.9681136 18.6491519,12.3216378 18.6372545,11.9007884 C18.6253572,11.479939 18.9550845,10.8222618 19.4207818,10.4190144 C19.8943686,9.93572563 20.0317983,9.23963608 19.7743038,8.62840425 Z M12.8058403,14.8595356 C11.5775618,15.359515 10.1503135,15.1134111 9.18996871,14.236042 C8.22962392,13.3586729 7.92542943,12.0229341 8.41930518,10.8520058 C8.91318093,9.68107755 10.1078031,8.9057044 11.4458286,8.88763166 C12.7838541,8.86955892 14.0016099,9.61234802 14.5309599,10.7694556 C15.2534615,12.3461136 14.4839894,14.1758603 12.8109391,14.8595356 L12.8058403,14.8595356 Z" id="Shape" fill="#ADB5BD" fill-rule="nonzero"></path>
    </g>
</svg>