<svg width="24" height="24" viewBox="0 0 24 24" fill="#ADB5BD" xmlns="http://www.w3.org/2000/svg">
<path d="M21 14.7354L20.2 14.0741C19.7149 13.6707 19.4481 13.0617 19.48 12.4309C19.48 12.2906 19.48 12.1403 19.48 12C19.48 11.8597 19.48 11.7094 19.48 11.5691C19.4481 10.9383 19.7149 10.3293 20.2 9.92587L21 9.26455C21.3795 8.95612 21.481 8.41797 21.24 7.99202L20.08 5.98803C19.8341 5.56962 19.3242 5.38806 18.87 5.55717L17.87 5.91789C17.2798 6.13888 16.6202 6.06834 16.09 5.72751C15.8549 5.56478 15.6075 5.42072 15.35 5.29665C14.7873 5.0075 14.3942 4.46873 14.29 3.84376L14.12 2.84176C14.0407 2.35173 13.6153 1.9937 13.12 2.00008H10.82C10.3246 1.9937 9.89919 2.35173 9.81996 2.84176L9.64996 3.84376C9.55444 4.46084 9.1773 4.99804 8.62996 5.29665C8.37246 5.42072 8.12504 5.56478 7.88996 5.72751C7.35967 6.06834 6.7001 6.13888 6.10996 5.91789L5.10996 5.55717C4.66151 5.39911 4.16399 5.57925 3.91996 5.98803L2.75996 7.99202C2.51888 8.41797 2.62038 8.95612 2.99996 9.26455L3.79996 9.92587C4.28501 10.3293 4.55183 10.9383 4.51996 11.5691C4.51996 11.7094 4.51996 11.8597 4.51996 12C4.51996 12.1403 4.51996 12.2906 4.51996 12.4309C4.55183 13.0617 4.28501 13.6707 3.79996 14.0741L2.99996 14.7354C2.62038 15.0439 2.51888 15.582 2.75996 16.008L3.91996 18.012C4.16583 18.4304 4.67571 18.6119 5.12996 18.4428L6.12996 18.0821C6.7201 17.8611 7.37967 17.9317 7.90996 18.2725C8.14504 18.4352 8.39246 18.5793 8.64996 18.7034C9.21266 18.9925 9.60573 19.5313 9.70996 20.1562L9.87996 21.1582C9.95919 21.6483 10.3846 22.0063 10.88 21.9999H13.18C13.6754 22.0063 14.1007 21.6483 14.18 21.1582L14.35 20.1562C14.4542 19.5313 14.8473 18.9925 15.41 18.7034C15.6675 18.5793 15.9149 18.4352 16.15 18.2725C16.6802 17.9317 17.3398 17.8611 17.93 18.0821L18.93 18.4428C19.3665 18.5797 19.8401 18.4022 20.08 18.012L21.24 16.008C21.481 15.582 21.3795 15.0439 21 14.7354ZM12 15.006C10.3431 15.006 8.99996 13.6602 8.99996 12C8.99996 10.3398 10.3431 8.99401 12 8.99401C13.6568 8.99401 15 10.3398 15 12C15 12.7972 14.6839 13.5618 14.1213 14.1256C13.5587 14.6893 12.7956 15.006 12 15.006Z" fill="#1E2128"/>
</svg>
