<?xml version="1.0" encoding="UTF-8"?>
<svg width="24px" height="24px" viewBox="0 0 24 24" version="1.1" xmlns="http://www.w3.org/2000/svg" xmlns:xlink="http://www.w3.org/1999/xlink">
    <!-- Generator: Sketch 52 (66869) - http://www.bohemiancoding.com/sketch -->
    <title>settings</title>
    <desc>Created with Sketch.</desc>
    <g id="settings" stroke="none" stroke-width="1" fill="none" fill-rule="evenodd">
        <path d="M20.7610276,8.20695479 C20.4802895,7.55707851 19.7064601,7.06382061 19.0388073,7.1106261 C18.3711545,7.1574316 17.5991247,6.89640096 17.2572001,6.57056271 C16.9152755,6.24472447 16.6381366,5.47423403 16.6633311,4.80275521 C16.6885255,4.1312764 16.1720394,3.37878807 15.511585,3.11595722 C14.8511306,2.85312637 13.9585274,3.05294983 13.5194242,3.55520878 C13.0803211,4.05746773 12.3442833,4.42651105 11.8763865,4.44091274 C11.4084897,4.45531443 10.6634539,4.10427323 10.2099539,3.61461575 C9.75645392,3.12495828 8.85485271,2.95033778 8.20519595,3.23117075 C7.55553919,3.51200371 7.0588487,4.28609457 7.10563838,4.95397296 C7.15242807,5.62185136 6.8914856,6.394142 6.56575742,6.73618215 C6.24002924,7.0782223 5.46979906,7.35185442 4.80214627,7.33025188 C4.13449347,7.30864935 3.37866012,7.82350978 3.11591805,8.48418733 C2.85317598,9.14486487 3.05293194,10.0377697 3.55502124,10.4770212 C4.05711054,10.9162728 4.4260292,11.6525592 4.44042602,12.1188139 C4.45482285,12.5850687 4.10569982,13.3321564 3.61440814,13.7858096 C3.12311647,14.2394629 2.94675535,15.1395685 3.23109266,15.7930452 C3.51542997,16.4465219 4.28566014,16.9397798 4.95331294,16.8929743 C5.62096573,16.8461688 6.39299551,17.1071995 6.73492012,17.4330377 C7.07684473,17.758876 7.35398363,18.525766 7.32878918,19.1972448 C7.30359474,19.8687236 7.82008086,20.6212119 8.48233485,20.8840428 C9.14458883,21.1468736 10.0353924,20.9470502 10.4744956,20.4447912 C10.9135988,19.9425323 11.6478369,19.5734889 12.1157337,19.5662881 C12.5836306,19.5590873 13.3286663,19.906528 13.7857655,20.3961855 C14.2428647,20.885843 15.1426664,21.0532626 15.7923231,20.7724297 C16.4419799,20.4915967 16.9386704,19.7211063 16.8918807,19.0532279 C16.845091,18.3853495 17.1060335,17.6130588 17.4317616,17.2710187 C17.7574898,16.9289785 18.5259204,16.6553464 19.1971724,16.6823496 C19.8684244,16.7093528 20.6206585,16.1908919 20.8834006,15.5284142 C21.1461427,14.8659364 20.9499859,13.9748318 20.4442974,13.5319798 C19.9386089,13.0891278 19.5696903,12.3618425 19.557093,11.8883869 C19.5444958,11.4149313 19.8936188,10.6750445 20.3867101,10.2213912 C20.8881549,9.67769134 21.0336687,8.89459059 20.7610276,8.20695479 Z M13.3826544,15.2169776 C12.0821243,15.7794544 10.5709202,15.5025875 9.55408451,14.5155472 C8.53724886,13.528507 8.21516057,12.0258009 8.73808783,10.7085066 C9.2610151,9.39121224 10.5259092,8.51891746 11.9426421,8.49858562 C13.3593749,8.47825379 14.6487634,9.31389152 15.2092517,10.6156375 C15.9742534,12.3893778 15.1595182,14.4478429 13.3880532,15.2169776 L13.3826544,15.2169776 Z" id="Shape" fill="#ADB5BD" fill-rule="nonzero"></path>
    </g>
</svg>