<?xml version="1.0" encoding="UTF-8"?>
<svg width="24px" height="24px" viewBox="0 0 24 24" version="1.1" xmlns="http://www.w3.org/2000/svg" xmlns:xlink="http://www.w3.org/1999/xlink">
    <!-- Generator: Sketch 51.2 (57519) - http://www.bohemiancoding.com/sketch -->
    <title>share</title>
    <desc>Created with Sketch.</desc>
    <defs></defs>
    <g id="share" stroke="none" stroke-width="1" fill="none" fill-rule="evenodd">
        <path d="M17.7507745,9.63205 C13.3609657,6.58355 9.96688388,9.44095 9.41555389,9.95315 L10.2105397,10.7009546 C10.3109945,10.7954476 10.3679587,10.9272366 10.3679587,11.06515 C10.3679587,11.3412924 10.1441011,11.56515 9.86795872,11.56515 L6,11.56515 C5.72385763,11.56515 5.5,11.3412924 5.5,11.06515 L5.5,7.4266979 C5.5,7.29941378 5.54854362,7.17692123 5.63573501,7.08419094 C5.82489638,6.88301294 6.14132896,6.87327154 6.34250696,7.06243291 L6.90332229,7.58975 C7.37966029,7.15815 9.37250294,5.5 11.8652922,5.5 C15.8919453,5.5 17.7889649,8.5446 17.7507745,9.63205 Z M6.24922551,14.36795 C10.6390343,17.4171 14.0331161,14.5597 14.5844461,14.04685 L13.7894603,13.2990454 C13.6890055,13.2045524 13.6320413,13.0727634 13.6320413,12.93485 C13.6320413,12.6587076 13.8558989,12.43485 14.1320413,12.43485 L18,12.43485 C18.2761424,12.43485 18.5,12.6587076 18.5,12.93485 L18.5,16.5729118 C18.5,16.7002384 18.4514241,16.8227685 18.3641808,16.9155083 C18.17497,17.1166398 17.858535,17.1263035 17.6574035,16.9370926 L17.0966777,16.4096 C16.6203397,16.8412 14.6274971,18.5 12.1347078,18.5 C8.1080547,18.5 6.21103515,15.45475 6.24922551,14.36795 Z" id="Shape" fill="#ADB5BD" fill-rule="nonzero"></path>
    </g>
</svg>