<?xml version="1.0" encoding="UTF-8"?>
<svg width="24px" height="24px" viewBox="0 0 24 24" version="1.1" xmlns="http://www.w3.org/2000/svg" xmlns:xlink="http://www.w3.org/1999/xlink">
    <!-- Generator: Sketch 52 (66869) - http://www.bohemiancoding.com/sketch -->
    <title>share</title>
    <desc>Created with Sketch.</desc>
    <g id="share" stroke="none" stroke-width="1" fill="#ADB5BD" fill-rule="evenodd">
        <path d="M19.9626108,8.7213 C13.8844141,4.5003 9.18491614,8.4567 8.42153616,9.1659 L9.87563956,10.5337046 C9.9760944,10.6281976 10.0330586,10.7599866 10.0330586,10.8979 C10.0330586,11.1740424 9.80920098,11.3979 9.5330586,11.3979 L3.5,11.3979 C3.22385763,11.3979 3,11.1740424 3,10.8979 L3,5.2229479 C3,5.09566378 3.04854362,4.97317123 3.13573501,4.88044094 C3.32489638,4.67926294 3.64132896,4.66952154 3.84250696,4.85868291 L4.94306164,5.8935 C5.60260656,5.2959 8.36192714,3 11.8134815,3 C17.3888473,3 20.0154898,7.2156 19.9626108,8.7213 Z M4.03738917,15.2787 C10.1155859,19.5006 14.8150839,15.5442 15.5784638,14.8341 L14.1243604,13.4662954 C14.0239056,13.3718024 13.9669414,13.2400134 13.9669414,13.1021 C13.9669414,12.8259576 14.190799,12.6021 14.4669414,12.6021 L20.5,12.6021 C20.7761424,12.6021 21,12.8259576 21,13.1021 L21,18.7766618 C21,18.9039884 20.9514241,19.0265185 20.8641808,19.1192583 C20.67497,19.3203898 20.358535,19.3300535 20.1574035,19.1408426 L19.0569384,18.1056 C18.3973934,18.7032 15.6380729,21 12.1865185,21 C6.61115265,21 3.9845102,16.7835 4.03738917,15.2787 Z" id="Shape" fill="#ADB5BD" fill-rule="nonzero"></path>
    </g>
</svg>