<?xml version="1.0" encoding="UTF-8"?>
<svg width="24px" height="24px" viewBox="0 0 24 24" version="1.1" xmlns="http://www.w3.org/2000/svg" xmlns:xlink="http://www.w3.org/1999/xlink">
    <!-- Generator: Sketch 52 (66869) - http://www.bohemiancoding.com/sketch -->
    <title>sign_out</title>
    <desc>Created with Sketch.</desc>
    <g id="sign_out" stroke="none" stroke-width="1" fill="none" fill-rule="evenodd">
        <path d="M6.74157303,3.29003581 C6.5482005,3.09738181 6.31224544,3.00070321 6.03370787,3 L4.01123595,3 C3.73269839,3.00070321 3.49337254,3.09738181 3.29325843,3.29003581 C3.09846383,3.48795087 3.00071103,3.72464675 3,4.00012347 L3,20.002099 C3.00071103,20.2775758 3.09846383,20.5109379 3.29325843,20.7021855 C3.49337254,20.9015069 3.73269839,21.0015193 4.01123595,21.0022225 L6.03370787,21.0022225 C6.31224544,21.0015193 6.5482005,20.9015069 6.74157303,20.7021855 C6.9431092,20.5109379 7.0442328,20.2775758 7.04494381,20.002099 C7.0442328,19.7266223 6.9431092,19.4899264 6.74157303,19.2920114 C6.5482005,19.0993574 6.31224544,19.0026788 6.03370787,19.0019756 L5.02247191,19.0019756 L5.02247191,5.00024694 L6.03370787,5.00024694 C6.31224544,4.99954373 6.5482005,4.89953139 6.74157303,4.7002099 C6.9431092,4.50896233 7.0442328,4.27560019 7.04494381,4.00012347 C7.0442328,3.72464675 6.9431092,3.48795087 6.74157303,3.29003581 Z M20.6966292,12.7011977 C20.8981654,12.5099501 20.999289,12.276588 21,12.0011113 C20.999289,11.7256345 20.8981654,11.4889387 20.6966292,11.2910236 L16.6516854,7.2905297 C16.4583129,7.09787571 16.2223578,7.0011971 15.9438202,7.00049388 C15.6652827,7.0011971 15.4259568,7.09787571 15.2258427,7.2905297 C15.0310481,7.48844475 14.9332953,7.72514064 14.9325843,8.00061735 C14.9332953,8.27609409 15.0310481,8.50945623 15.2258427,8.7007038 L17.5516854,11.0009878 L7.85393259,11.0009878 C7.57539502,11.001691 7.33606917,11.0983696 7.13595505,11.2910236 C6.94116047,11.4889387 6.84340767,11.7256345 6.84269663,12.0011113 C6.84340767,12.276588 6.94116047,12.5099501 7.13595505,12.7011977 C7.33606917,12.9005192 7.57539502,13.0005315 7.85393259,13.0012347 L17.5516854,13.0012347 L15.2258427,15.2915175 C15.0310481,15.4894325 14.9332953,15.7261284 14.9325843,16.0016051 C14.9332953,16.2770819 15.0310481,16.510444 15.2258427,16.7016916 C15.4259568,16.901013 15.6652827,17.0010254 15.9438202,17.0017286 C16.2223578,17.0010254 16.4583129,16.901013 16.6516854,16.7016916 L20.6966292,12.7011977 Z" id="Shape" fill="#ADB5BD" fill-rule="nonzero"></path>
    </g>
</svg>