<svg width="24" height="24" viewBox="0 0 24 24" fill="#ADB5BD" xmlns="http://www.w3.org/2000/svg">
<path d="M17 12.19V11.81C16.9977 11.6116 16.9189 11.4217 16.78 11.28L11.64 6.15C11.5461 6.05534 11.4183 6.0021 11.285 6.0021C11.1517 6.0021 11.0239 6.05534 10.93 6.15L10.22 6.86C10.1259 6.95216 10.0729 7.07831 10.0729 7.21C10.0729 7.34169 10.1259 7.46784 10.22 7.56L13.67 11H3.5C3.22386 11 3 11.2239 3 11.5V12.5C3 12.7761 3.22386 13 3.5 13H13.67L10.22 16.44C10.1253 16.5339 10.0721 16.6617 10.0721 16.795C10.0721 16.9283 10.1253 17.0561 10.22 17.15L10.93 17.85C11.0239 17.9447 11.1517 17.9979 11.285 17.9979C11.4183 17.9979 11.5461 17.9447 11.64 17.85L16.78 12.72C16.9207 12.5795 16.9998 12.3888 17 12.19ZM19 3H13.5C13.2239 3 13 3.22386 13 3.5V4.5C13 4.77614 13.2239 5 13.5 5H19V19H13.5C13.2239 19 13 19.2239 13 19.5V20.5C13 20.7761 13.2239 21 13.5 21H19C20.1046 21 21 20.1046 21 19V5C21 3.89543 20.1046 3 19 3Z" fill="#1E2128"/>
</svg>
