<?xml version="1.0" encoding="UTF-8"?>
<svg width="24px" height="24px" viewBox="0 0 24 24" version="1.1" xmlns="http://www.w3.org/2000/svg" xmlns:xlink="http://www.w3.org/1999/xlink">
    <!-- Generator: Sketch 51.2 (57519) - http://www.bohemiancoding.com/sketch -->
    <title>sign_out</title>
    <desc>Created with Sketch.</desc>
    <defs></defs>
    <g id="sign_out" stroke="none" stroke-width="1" fill="none" fill-rule="evenodd">
        <path d="M7.32543209,4.25777778 C7.15356662,4.08655093 6.94385469,4.000625 6.6962963,4 L4.89876543,4 C4.65120705,4.000625 4.43849923,4.08655093 4.26064198,4.25777778 C4.0875126,4.43368056 4.00063194,4.64405093 4,4.88888889 L4,19.1111111 C4.00063194,19.3559491 4.0875126,19.5633565 4.26064198,19.7333333 C4.43849923,19.9104861 4.65120705,19.999375 4.89876543,20 L6.6962963,20 C6.94385469,19.999375 7.15356662,19.9104861 7.32543209,19.7333333 C7.50455324,19.5633565 7.59442979,19.3559491 7.59506172,19.1111111 C7.59442979,18.8662732 7.50455324,18.6559028 7.32543209,18.48 C7.15356662,18.3087731 6.94385469,18.2228472 6.6962963,18.2222222 L5.79753086,18.2222222 L5.79753086,5.77777778 L6.6962963,5.77777778 C6.94385469,5.77715278 7.15356662,5.68826389 7.32543209,5.51111111 C7.50455324,5.34113426 7.59442979,5.13372685 7.59506172,4.88888889 C7.59442979,4.64405093 7.50455324,4.43368056 7.32543209,4.25777778 Z M19.7283951,12.6222222 C19.9075162,12.4522454 19.9973928,12.244838 19.9980247,12 C19.9973928,11.755162 19.9075162,11.5447917 19.7283951,11.3688889 L16.1333333,7.81333334 C15.9614679,7.64210649 15.7517559,7.55618055 15.5041975,7.55555555 C15.2566392,7.55618055 15.0439313,7.64210649 14.8660741,7.81333334 C14.6929447,7.98923611 14.6060641,8.19960648 14.6054321,8.44444444 C14.6060641,8.68928241 14.6929447,8.89668983 14.8660741,9.06666667 L16.9332346,11.1111111 L8.31407408,11.1111111 C8.0665157,11.1117361 7.85380787,11.197662 7.67595061,11.3688889 C7.50282125,11.5447917 7.4159406,11.755162 7.41530864,12 C7.4159406,12.244838 7.50282125,12.4522454 7.67595061,12.6222222 C7.85380787,12.799375 8.0665157,12.8882639 8.31407408,12.8888889 L16.9332346,12.8888889 L14.8660741,14.9244445 C14.6929447,15.1003472 14.6060641,15.3107176 14.6054321,15.5555556 C14.6060641,15.8003935 14.6929447,16.0078009 14.8660741,16.1777778 C15.0439313,16.3549306 15.2566392,16.4438195 15.5041975,16.4444445 C15.7517559,16.4438195 15.9614679,16.3549306 16.1333333,16.1777778 L19.7283951,12.6222222 Z" id="Shape" fill="#ADB5BD" fill-rule="nonzero"></path>
    </g>
</svg>