<svg width="24" height="24" viewBox="0 0 24 24" fill="#ADB5BD" xmlns="http://www.w3.org/2000/svg">
<path d="M20.78 11.28L15.64 6.15C15.5461 6.05534 15.4183 6.0021 15.285 6.0021C15.1517 6.0021 15.0239 6.05534 14.93 6.15L14.22 6.86C14.1259 6.95216 14.0729 7.07831 14.0729 7.21C14.0729 7.34169 14.1259 7.46784 14.22 7.56L17.67 11H7.5C7.22386 11 7 11.2239 7 11.5V12.5C7 12.7761 7.22386 13 7.5 13H17.67L14.22 16.44C14.1253 16.5339 14.0721 16.6617 14.0721 16.795C14.0721 16.9283 14.1253 17.0561 14.22 17.15L14.93 17.85C15.0239 17.9447 15.1517 17.9979 15.285 17.9979C15.4183 17.9979 15.5461 17.9447 15.64 17.85L20.78 12.72C20.9207 12.5795 20.9998 12.3888 21 12.19V11.81C20.9977 11.6116 20.9189 11.4217 20.78 11.28ZM10.5 19H5V5H10.5C10.7761 5 11 4.77614 11 4.5V3.5C11 3.22386 10.7761 3 10.5 3H5C3.89543 3 3 3.89543 3 5V19C3 20.1046 3.89543 21 5 21H10.5C10.7761 21 11 20.7761 11 20.5V19.5C11 19.2239 10.7761 19 10.5 19Z" fill="#1E2128"/>
</svg>
