<?xml version="1.0" encoding="UTF-8"?>
<svg width="22px" height="18px" viewBox="0 0 22 18" version="1.1" xmlns="http://www.w3.org/2000/svg" xmlns:xlink="http://www.w3.org/1999/xlink">
    <title>Group</title>
    <g id="Icons" stroke="none" stroke-width="1" fill="none" fill-rule="evenodd">
        <g id="icon/grey/SMART" transform="translate(-1.000000, -3.000000)" fill="#ACB4BD" fill-rule="nonzero">
            <g id="Group" transform="translate(1.000000, 3.000000)">
                <path d="M11.11,10.296 L15.092,16.654 C15.312,16.984 15.07,17.424 14.674,17.424 L14.674,17.424 L0.616,17.424 C0.22,17.424 -0.022,16.984 0.198,16.654 L0.198,16.654 L4.18,10.296 L5.588,11.682 C5.698,11.77 5.83,11.836 5.962,11.836 C6.094,11.836 6.248,11.77 6.336,11.682 L6.336,11.682 L7.656,10.362 L8.976,11.682 C9.196,11.88 9.526,11.88 9.724,11.682 L9.724,11.682 L11.11,10.296 Z M17.71,11.638 L20.944,16.786 C21.12,17.072 20.922,17.424 20.592,17.424 L20.592,17.424 L16.148,17.424 C16.302,16.984 16.236,16.5 15.994,16.104 L15.994,16.104 L13.86,12.694 L14.806,11.726 L15.84,12.76 C16.038,12.98 16.368,12.98 16.588,12.76 L16.588,12.76 L17.71,11.638 Z M14.454,7.59 C14.63,7.326 15.004,7.326 15.158,7.59 L15.158,7.59 L17.138,10.714 L16.214,11.638 L15.18,10.626 C14.96,10.428 14.652,10.428 14.432,10.626 L14.432,10.626 L13.266,11.77 L12.54,10.626 Z M11.286,0.154 C11.484,0.154 11.638,0.264 11.726,0.418 C11.814,0.572 11.814,0.77 11.704,0.924 L11.704,0.924 L10.89,2.112 L11.704,3.3 C11.792,3.454 11.814,3.652 11.726,3.806 C11.638,3.96 11.462,4.07 11.286,4.07 L11.286,4.07 L8.14,4.07 L8.14,5.566 L10.516,9.372 L9.328,10.56 L8.008,9.24 C7.81,9.042 7.458,9.042 7.26,9.24 L7.26,9.24 L5.94,10.56 L4.774,9.372 L7.172,5.544 L7.172,0.638 C7.172,0.374 7.392,0.154 7.656,0.154 L7.656,0.154 Z" id="Combined-Shape"></path>
            </g>
        </g>
    </g>
</svg>