<?xml version="1.0" encoding="UTF-8"?>
<svg width="24px" height="24px" viewBox="0 0 24 24" version="1.1" xmlns="http://www.w3.org/2000/svg" xmlns:xlink="http://www.w3.org/1999/xlink">
    <!-- Generator: Sketch 60.1 (88133) - https://sketch.com -->
    <title>icon/grey/social profiles copy</title>
    <desc>Created with Sketch.</desc>
    <g id="icon/grey/social-profiles-copy" stroke="none" stroke-width="1" fill="#ADB5BD" fill-rule="evenodd">
        <path d="M20,9 C20.5522847,9 21,9.44771525 21,10 L21,20 C21,20.5522847 20.5522847,21 20,21 L4,21 C3.44771525,21 3,20.5522847 3,20 L3,10 C3,9.44771525 3.44771525,9 4,9 L20,9 Z M11.7384615,15.2856922 C10.2303233,15.2856922 9,17.3121538 9,18.1473845 C9,18.9826153 10.2303233,19.2153845 11.7384615,19.2153845 C13.2465997,19.2153845 14.476923,18.9826153 14.476923,18.1473845 C14.476923,17.3121538 13.2465997,15.2856922 11.7384615,15.2856922 Z M11.7393545,11 C10.7598981,11 9.95250834,11.7941538 9.95250834,12.7868461 C9.95250834,13.7663025 10.7598981,14.5604563 11.7393545,14.5736922 C12.7320467,14.5736922 13.5262006,13.7663025 13.5262006,12.7868461 C13.5262006,11.7941538 12.7188108,11 11.7393545,11 Z M20,3 C20.5522847,3 21,3.44771525 21,4 L21,6 C21,6.55228475 20.5522847,7 20,7 L4,7 C3.44771525,7 3,6.55228475 3,6 L3,4 C3,3.44771525 3.44771525,3 4,3 L20,3 Z M6,4 C5.44771525,4 5,4.44771525 5,5 C5,5.55228475 5.44771525,6 6,6 C6.55228475,6 7,5.55228475 7,5 C7,4.44771525 6.55228475,4 6,4 Z M9,4 C8.44771525,4 8,4.44771525 8,5 C8,5.55228475 8.44771525,6 9,6 C9.55228475,6 10,5.55228475 10,5 C10,4.44771525 9.55228475,4 9,4 Z M18.5,4.5 L11.5,4.5 L11.5,5.5 L18.5,5.5 L18.5,4.5 Z" id="Combined-Shape" fill="#ACB4BD"></path>
    </g>
</svg>