<svg width="24" height="24" viewBox="0 0 24 24" fill="#ADB5BD" xmlns="http://www.w3.org/2000/svg">
<path fill-rule="evenodd" clip-rule="evenodd" d="M1.5 2H22.5C23.3284 2 24 2.67157 24 3.5V16.5C24 17.3284 23.3284 18 22.5 18H14L14.45 18.89C14.7877 19.5697 15.4811 19.9996 16.24 20H16.5C16.7761 20 17 20.2239 17 20.5V21.5C17 21.7761 16.7761 22 16.5 22H7.5C7.22386 22 7 21.7761 7 21.5V20.5C7 20.2239 7.22386 20 7.5 20H7.76C8.51894 19.9996 9.21227 19.5697 9.55 18.89L10 18H1.5C0.671573 18 0 17.3284 0 16.5V3.5C0 2.67157 0.671573 2 1.5 2ZM16.7657 14H22V4H2V14H7.23432C7.18038 13.8475 7.18979 13.6776 7.26421 13.53L8.12854 11.796C8.43393 11.1845 9.05943 10.7987 9.74315 10.8H14.2569C14.9406 10.7987 15.5661 11.1845 15.8715 11.796L16.7358 13.53C16.8102 13.6776 16.8196 13.8475 16.7657 14ZM12 4.8C10.674 4.8 9.59909 5.87451 9.59909 7.2C9.59909 7.83652 9.85204 8.44697 10.3023 8.89705C10.7526 9.34714 11.3632 9.6 12 9.6C13.326 9.6 14.4009 8.52548 14.4009 7.2C14.4009 5.87451 13.326 4.8 12 4.8Z" fill="#1E2128"/>
</svg>
