<svg width="24" height="24" viewBox="0 0 24 24" fill="#ADB5BD" xmlns="http://www.w3.org/2000/svg">
<path d="M21.6164 13.1667C21.3261 12.4206 21.3261 11.5928 21.6164 10.8467L21.7865 10.3867C22.4059 8.76879 21.6557 6.94868 20.0759 6.2367L19.6258 6.0067C18.9099 5.67675 18.3353 5.10232 18.0052 4.3867L17.8052 3.9367C17.093 2.3574 15.2723 1.60742 13.6538 2.2267L13.1937 2.3967C12.4473 2.6869 11.6193 2.6869 10.8729 2.3967L10.4128 2.2267C8.78584 1.58848 6.94443 2.34154 6.23143 3.9367L6.00135 4.3867C5.6713 5.10232 5.09668 5.67675 4.38083 6.0067L3.93068 6.2067C2.35087 6.91868 1.60065 8.73879 2.22013 10.3567L2.39018 10.8167C2.68048 11.5628 2.68048 12.3906 2.39018 13.1367L2.22013 13.5967C1.60065 15.2146 2.35087 17.0347 3.93068 17.7467L4.38083 17.9467C5.10713 18.2914 5.68313 18.8886 6.00135 19.6267L6.20142 20.0767C6.91363 21.656 8.73434 22.406 10.3528 21.7867L10.8129 21.6167C11.5593 21.3265 12.3873 21.3265 13.1337 21.6167L13.5938 21.7867C15.2122 22.406 17.0329 21.656 17.7452 20.0767L17.9452 19.6267C18.2901 18.9006 18.8874 18.3248 19.6258 18.0067L20.0759 17.8067C21.6557 17.0947 22.4059 15.2746 21.7865 13.6567L21.6164 13.1667ZM16.3547 9.7367L10.7329 15.3567C10.6421 15.4534 10.5154 15.5082 10.3828 15.5082C10.2501 15.5082 10.1234 15.4534 10.0327 15.3567L7.65189 13.0067C7.5572 12.9128 7.50394 12.785 7.50394 12.6517C7.50394 12.5184 7.5572 12.3906 7.65189 12.2967L8.18206 11.7667C8.27282 11.67 8.39954 11.6152 8.53217 11.6152C8.6648 11.6152 8.79152 11.67 8.88229 11.7667L10.3828 13.2567L15.1243 8.5167C15.3188 8.32612 15.63 8.32612 15.8245 8.5167L16.3547 9.0467C16.5389 9.23984 16.5389 9.54355 16.3547 9.7367Z" fill="#1E2128"/>
</svg>
