<?xml version="1.0" encoding="UTF-8"?>
<svg width="24px" height="24px" viewBox="0 0 24 24" version="1.1" xmlns="http://www.w3.org/2000/svg" xmlns:xlink="http://www.w3.org/1999/xlink">
    <!-- Generator: Sketch 59.1 (86144) - https://sketch.com -->
    <title>icon/grey/preview2 copy</title>
    <desc>Created with Sketch.</desc>
    <g id="icon/grey/preview2-copy" stroke="none" stroke-width="1" fill="#ADB5BD" fill-rule="evenodd">
        <path d="M21.7224395,11.8161087 L20.8774515,10.9479168 C20.262828,10.3162454 19.9751115,9.43760483 20.0993744,8.56751317 L20.269519,7.37161209 C20.3440768,6.84727738 19.9865819,6.35903817 19.46181,6.26689965 L18.2650623,6.05792567 C17.3942659,5.90594459 16.6419972,5.36356213 16.2271502,4.58655888 L15.6574524,3.51984171 C15.4079707,3.05439967 14.8296701,2.86727297 14.3517357,3.09999399 L13.2601336,3.63002799 C12.4658067,4.01567997 11.5357465,4.01567997 10.7414195,3.63002799 L9.64886158,3.09999399 C9.17092721,2.86727297 8.59262663,3.05439967 8.34314489,3.52174148 L7.77344713,4.58845865 C7.3586001,5.36546189 6.60728728,5.90784436 5.735535,6.05982543 L4.53878735,6.26879941 C4.01401541,6.35998806 3.65652051,6.84822726 3.73107827,7.37256197 L3.9012229,8.56846305 C4.02548584,9.43855471 3.73776935,10.3171953 3.12314576,10.9488667 L2.2781578,11.8170585 C1.90728073,12.1979611 1.90728073,12.801136 2.2781578,13.1820386 L3.12314576,14.0502305 C3.73776935,14.6819018 4.02548584,15.5605424 3.9012229,16.4306341 L3.73107827,17.6265351 C3.65652051,18.1508698 4.01401541,18.6391091 4.53878735,18.7312476 L5.735535,18.9402216 C6.60633141,19.0922026 7.3586001,19.6345851 7.77344713,20.4115883 L8.34314489,21.4783055 C8.59262663,21.9456473 9.17092721,22.132774 9.64981744,21.900053 L10.7414195,21.370019 C11.5357465,20.984367 12.4658067,20.984367 13.2601336,21.370019 L14.3517357,21.900053 C14.830626,22.132774 15.4079707,21.9456473 15.6584083,21.4783055 L16.228106,20.4115883 C16.6429531,19.635535 17.3942659,19.0922026 18.2660182,18.9402216 L19.4627658,18.7312476 C19.9875378,18.6400589 20.3450327,18.1508698 20.2704749,17.6265351 L20.1003303,16.4306341 C19.9760673,15.5605424 20.2637838,14.6819018 20.8784074,14.0502305 L21.7233954,13.1820386 C22.0923607,12.801136 22.0923607,12.1970112 21.7224395,11.8161087 Z M10.3686307,16.0202851 L8.17682373,13.8422064 C7.80403493,13.4717525 7.80403493,12.8695275 8.17682373,12.4990736 L8.17682373,12.4990736 C8.54961254,12.1286197 9.15563331,12.1286197 9.52842212,12.4990736 L11.0444299,14.005586 L15.4280439,9.64942845 C15.8008327,9.27897458 16.4068535,9.27897458 16.7796423,9.64942845 L16.7796423,9.64942845 C17.1524311,10.0198823 17.1524311,10.6221073 16.7796423,10.9925612 L11.7202291,16.0202851 C11.3474403,16.390739 10.7414195,16.390739 10.3686307,16.0202851 Z" id="material_approval" fill="#ADB5BD" fill-rule="nonzero"></path>
    </g>
</svg>