<?xml version="1.0" encoding="UTF-8"?>
<svg width="20px" height="19px" viewBox="0 0 20 19" version="1.1" xmlns="http://www.w3.org/2000/svg" xmlns:xlink="http://www.w3.org/1999/xlink">
    <!-- Generator: Sketch 57.1 (83088) - https://sketch.com -->
    <title>Spikey tick</title>
    <desc>Created with Sketch.</desc>
    <g id="Spikey-tick" stroke="none" stroke-width="1" fill="none" fill-rule="evenodd">
        <path d="M19.7224395,8.81610866 L18.8774515,7.94791676 C18.262828,7.31624542 17.9751115,6.43760483 18.0993744,5.56751317 L18.269519,4.37161209 C18.3440768,3.84727738 17.9865819,3.35903817 17.46181,3.26689965 L16.2650623,3.05792567 C15.3942659,2.90594459 14.6419972,2.36356213 14.2271502,1.58655888 L13.6574524,0.519841712 C13.4079707,0.054399669 12.8296701,-0.13272703 12.3517357,0.0999939916 L11.2601336,0.630027991 C10.4658067,1.01567997 9.53574645,1.01567997 8.74141953,0.630027991 L7.64886158,0.0999939916 C7.17092721,-0.13272703 6.59262663,0.054399669 6.34314489,0.521741475 L5.77344713,1.58845865 C5.3586001,2.36546189 4.60728728,2.90784436 3.735535,3.05982543 L2.53878735,3.26879941 C2.01401541,3.35998806 1.65652051,3.84822726 1.73107827,4.37256197 L1.9012229,5.56846305 C2.02548584,6.43855471 1.73776935,7.3171953 1.12314576,7.94886665 L0.2781578,8.81705854 C-0.0927192668,9.19796111 -0.0927192668,9.801136 0.2781578,10.1820386 L1.12314576,11.0502305 C1.73776935,11.6819018 2.02548584,12.5605424 1.9012229,13.4306341 L1.73107827,14.6265351 C1.65652051,15.1508698 2.01401541,15.6391091 2.53878735,15.7312476 L3.735535,15.9402216 C4.60633141,16.0922026 5.3586001,16.6345851 5.77344713,17.4115883 L6.34314489,18.4783055 C6.59262663,18.9456473 7.17092721,19.132774 7.64981744,18.900053 L8.74141953,18.370019 C9.53574645,17.984367 10.4658067,17.984367 11.2601336,18.370019 L12.3517357,18.900053 C12.830626,19.132774 13.4079707,18.9456473 13.6584083,18.4783055 L14.228106,17.4115883 C14.6429531,16.635535 15.3942659,16.0922026 16.2660182,15.9402216 L17.4627658,15.7312476 C17.9875378,15.6400589 18.3450327,15.1508698 18.2704749,14.6265351 L18.1003303,13.4306341 C17.9760673,12.5605424 18.2637838,11.6819018 18.8784074,11.0502305 L19.7233954,10.1820386 C20.0923607,9.801136 20.0923607,9.19701123 19.7224395,8.81610866 Z M8.36863073,13.0202851 L6.17682373,10.8422064 C5.80403493,10.4717525 5.80403493,9.86952748 6.17682373,9.49907361 L6.17682373,9.49907361 C6.54961254,9.12861974 7.15563331,9.12861974 7.52842212,9.49907361 L9.04442992,11.005586 L13.4280439,6.64942845 C13.8008327,6.27897458 14.4068535,6.27897458 14.7796423,6.64942845 L14.7796423,6.64942845 C15.1524311,7.01988232 15.1524311,7.62210733 14.7796423,7.9925612 L9.72022911,13.0202851 C9.34744031,13.390739 8.74141953,13.390739 8.36863073,13.0202851 Z" id="material_approval" fill="#ADB5BD"></path>
    </g>
</svg>