<?xml version="1.0" encoding="UTF-8"?>
<svg width="24px" height="24px" viewBox="0 0 24 24" version="1.1" xmlns="http://www.w3.org/2000/svg" xmlns:xlink="http://www.w3.org/1999/xlink">
    <!-- Generator: Sketch 54.1 (76490) - https://sketchapp.com -->
    <title>star</title>
    <desc>Created with Sketch.</desc>
    <g id="star" stroke="none" stroke-width="1" fill="none" fill-rule="evenodd">
        <path d="M13.1850771,3.69233747 L15.2515132,7.62783222 C15.4439211,7.9944093 15.8159212,8.24850647 16.2464576,8.3072695 L20.8670171,8.93836157 C21.9509782,9.08648997 22.383766,10.3382563 21.5995871,11.0569232 L18.2559161,14.1204137 C17.9445305,14.4056016 17.8023461,14.81678 17.8759495,15.2196567 L18.665324,19.5451686 C18.8504581,20.5599295 17.7173126,21.3336155 16.7478264,20.8545585 L12.6149541,18.81234 C12.2299652,18.6222147 11.7699874,18.6222147 11.3849985,18.81234 L7.25229942,20.8545585 C6.2828132,21.3336155 5.14966773,20.5599295 5.33480184,19.5451686 L6.12417629,15.2196567 C6.19760648,14.81678 6.05559528,14.4056016 5.74403656,14.1204137 L2.40053871,11.0569232 C1.6161866,10.3382563 2.04897439,9.08648997 3.1329355,8.93836157 L7.75349504,8.3072695 C8.18403144,8.24850647 8.55603151,7.9944093 8.74861255,7.62783222 L10.8148755,3.69233747 C11.2996186,2.76922084 12.700334,2.76922084 13.1850771,3.69233747" id="star" fill="#ADB5BD"></path>
    </g>
</svg>
