<?xml version="1.0" encoding="UTF-8"?>
<svg width="24px" height="24px" viewBox="0 0 24 24" version="1.1" xmlns="http://www.w3.org/2000/svg" xmlns:xlink="http://www.w3.org/1999/xlink">
    <!-- Generator: Sketch 52 (66869) - http://www.bohemiancoding.com/sketch -->
    <title>story_builder</title>
    <desc>Created with Sketch.</desc>
    <g id="story_builder" stroke="none" stroke-width="1" fill="none" fill-rule="evenodd">
        <path d="M11.7196018,3.24933991 C11.3091896,2.83867701 10.6145479,2.95141297 10.3553,3.46898503 L7.40568549,9.37229596 L4.49124921,12.2872172 C2.50291693,14.2764369 2.50291693,17.5138591 4.49124921,19.5025721 C6.52827014,21.5419529 9.76848702,21.4542976 11.7155232,19.5073855 L12.5804477,18.6551523 L13.4989043,19.5740137 C14.6615688,20.7378542 16.5530336,20.7383609 17.7156982,19.5742671 C18.874794,18.4154934 18.874794,16.5296361 17.716208,15.3713691 L17.5104921,15.165911 L20.5360711,13.6347286 C21.0560964,13.3717625 21.1537287,12.6874932 20.753768,12.2872172 L11.7196018,3.24933991 Z M16.510208,18.383826 C16.0274002,18.8666906 15.1877121,18.8671973 14.7046494,18.383826 L13.7869575,17.4657246 L14.6544312,16.610958 L15.9195714,15.9707698 L16.510208,16.5615569 C17.0128992,17.0639286 17.0128992,17.8812009 16.510208,18.383826 Z M14.3169246,14.8864778 L9.13706406,9.7044237 L11.3499759,5.27630716 L18.7266887,12.6553191 L14.3169246,14.8864778 Z" id="shape" fill="#ADB5BD" fill-rule="nonzero"></path>
    </g>
</svg>