<?xml version="1.0" encoding="UTF-8"?>
<svg width="24px" height="24px" viewBox="0 0 24 24" version="1.1" xmlns="http://www.w3.org/2000/svg" xmlns:xlink="http://www.w3.org/1999/xlink">
    <!-- Generator: Sketch 60.1 (88133) - https://sketch.com -->
    <title>icon/grey/story builder copy</title>
    <desc>Created with Sketch.</desc>
    <g id="icon/grey/story-builder-copy" stroke="none" stroke-width="1" fill="#ADB5BD" fill-rule="evenodd">
        <path d="M9.95906433,17.7134503 C11.0072603,17.7134503 11.8660121,18.5245569 11.9419148,19.5533649 L11.9473684,19.7017544 L11.9473684,19.9664915 L11.951,19.9660819 L11.955377,20.0060928 C11.9922043,20.2089923 12.1521949,20.3689829 12.3550944,20.4058102 L12.4444444,20.4138188 C12.6732364,20.4138188 12.8659258,20.2592455 12.9255768,20.0481221 L12.9415205,19.9664915 L12.9415205,19.7017544 C12.9415205,18.6036444 13.8317145,17.7134503 14.9298246,17.7134503 L22,17.7130819 L22,19.5190819 L16,19.5190819 C14.9456382,19.5190819 14.0818349,20.3349597 14.0054857,21.3698196 L14,21.5190819 L11,21.5190819 C11,20.4145124 10.1045695,19.5190819 9,19.5190819 L3,19.5190819 L3,17.7134503 L9.95906433,17.7134503 Z M21.9473684,5.85241525 L21.9473684,16.7880878 L14.9883041,16.7880878 C13.9401082,16.7880878 13.0813563,17.5991943 13.0054537,18.6280024 L13,18.7763919 L13,5.85241525 L21.9473684,5.85241525 Z M5.601,5.78308192 L5.60108663,13.9518305 C9.83194116,14.2832145 11.9473684,15.657292 11.9473684,18.0740632 L11.9473684,18.7076023 C11.9473684,17.6094923 11.0571744,16.7192982 9.95906433,16.7192982 L3,16.7192982 L3,5.78362573 L5.601,5.78308192 Z M6.38011696,3 C7.00239482,3 7.57958637,3.04059512 8.1116916,3.12178536 L8.11111111,8.30629583 L9.44444444,7.45683698 L10.7777778,8.74130414 L10.778725,4.10680416 C11.1886161,4.39308906 11.5368251,4.7349116 11.8233522,5.13227177 L11.9473684,5.31366295 L11.9473684,16.2845895 C11.9473684,14.5880719 10.2023836,13.4548262 6.71241388,12.8848524 L6.38011696,12.8330675 L6.38011696,3 Z M19.6666667,12.5190819 L15.2222222,12.5190819 L15.2222222,13.630193 L19.6666667,13.630193 L19.6666667,12.5190819 Z M19.6666667,10.2968597 L15.2222222,10.2968597 L15.2222222,11.4079708 L19.6666667,11.4079708 L19.6666667,10.2968597 Z M19.6666667,8.07463748 L15.2222222,8.07463748 L15.2222222,9.18574859 L19.6666667,9.18574859 L19.6666667,8.07463748 Z" id="Combined-Shape" fill="#ACB4BD"></path>
    </g>
</svg>