<svg width="24" height="24" viewBox="0 0 24 24" fill="#ADB5BD" xmlns="http://www.w3.org/2000/svg">
<path d="M21 8.92V9.08C21.0004 9.24499 20.9177 9.39909 20.78 9.49L13.11 14.74C12.8625 14.9092 12.5698 14.9998 12.27 15H11.73C11.4302 14.9998 11.1375 14.9092 10.89 14.74L3.22 9.49C3.08232 9.39909 2.99963 9.24499 3 9.08V8.92C2.99963 8.75501 3.08232 8.60091 3.22 8.51L10.89 3.26C11.1375 3.0908 11.4302 3.00019 11.73 3H12.27C12.5698 3.00019 12.8625 3.0908 13.11 3.26L20.78 8.51C20.9177 8.60091 21.0004 8.75501 21 8.92ZM18.67 13.06L16.9 14.27L18 15L12.15 19H11.93L6 15L7.06 14.27L5.33 13.06L3.22 14.51C3.08232 14.6009 2.99963 14.755 3 14.92V15.08C2.99963 15.245 3.08232 15.3991 3.22 15.49L10.89 20.74C11.1375 20.9092 11.4302 20.9998 11.73 21H12.27C12.5698 20.9998 12.8625 20.9092 13.11 20.74L20.78 15.49C20.9177 15.3991 21.0004 15.245 21 15.08V14.92C21.0004 14.755 20.9177 14.6009 20.78 14.51L18.67 13.06Z" fill="#1E2128"/>
</svg>
