<?xml version="1.0" encoding="UTF-8"?>
<svg width="24px" height="24px" viewBox="0 0 24 24" version="1.1" xmlns="http://www.w3.org/2000/svg" xmlns:xlink="http://www.w3.org/1999/xlink">
    <!-- Generator: Sketch 51.2 (57519) - http://www.bohemiancoding.com/sketch -->
    <title>story_builder</title>
    <desc>Created with Sketch.</desc>
    <defs></defs>
    <g id="story_builder" stroke="none" stroke-width="1" fill="none" fill-rule="evenodd">
        <path d="M11.7351795,3.7354877 C11.347568,3.3476394 10.6915175,3.45411225 10.4466722,3.94293031 L7.66092519,9.51827952 L4.90840203,12.2712607 C3.03053266,14.1499682 3.03053266,17.2075336 4.90840203,19.0857625 C6.83225514,21.0118444 9.89245996,20.9290588 11.7313274,19.0903085 L12.5482006,18.2854216 L13.4156318,19.1532352 C14.5137039,20.2524179 16.3000873,20.2528964 17.3981594,19.1534745 C18.492861,18.0590771 18.492861,16.2779897 17.3986409,15.1840708 L17.2043537,14.9900271 L20.0618449,13.5439104 C20.55298,13.2955535 20.6451882,12.6492992 20.2674475,12.2712607 L11.7351795,3.7354877 Z M16.2596409,18.029169 C15.8036557,18.4852078 15.010617,18.4856863 14.5543911,18.029169 L13.6876821,17.1620732 L14.5069628,16.3547937 L15.7018174,15.7501714 L16.2596409,16.308137 C16.7344048,16.7825992 16.7344048,17.5544676 16.2596409,18.029169 Z M14.1882065,14.7261179 L9.29611606,9.83195572 L11.3860884,5.64984565 L18.3529838,12.6189125 L14.1882065,14.7261179 Z" id="shape" fill="#ADB5BD" fill-rule="nonzero"></path>
    </g>
</svg>