<svg width="24" height="24" viewBox="0 0 24 24" fill="#ADB5BD" xmlns="http://www.w3.org/2000/svg">
<path d="M21 13V17C21 18.1046 20.1046 19 19 19V20C19 21.6569 17.6569 23 16 23H13C12.4477 23 12 22.5523 12 22V21.5C12 21.2239 12.2239 21 12.5 21H16C16.5523 21 17 20.5523 17 20V19C16.4477 19 16 18.5523 16 18V12C16 11.4477 16.4477 11 17 11V8C17 5.23858 14.7614 3 12 3C9.23858 3 7 5.23858 7 8V11C7.55228 11 8 11.4477 8 12V18C8 18.5523 7.55228 19 7 19H5C3.89543 19 3 18.1046 3 17V13C3 11.8954 3.89543 11 5 11V8C5 4.13401 8.13401 1 12 1C15.866 1 19 4.13401 19 8V11C19.5304 11 20.0391 11.2107 20.4142 11.5858C20.7893 11.9609 21 12.4696 21 13Z" fill="#1E2128"/>
</svg>
