<?xml version="1.0" encoding="UTF-8"?>
<svg width="24px" height="24px" viewBox="0 0 24 24" version="1.1" xmlns="http://www.w3.org/2000/svg" xmlns:xlink="http://www.w3.org/1999/xlink">
    <!-- Generator: Sketch 52 (66869) - http://www.bohemiancoding.com/sketch -->
    <title>tag</title>
    <desc>Created with Sketch.</desc>
    <g id="tag" stroke="none" stroke-width="1" fill="none" fill-rule="evenodd">
        <path d="M19.2121212,5 C20.7517273,5 22,6.31968421 22,7.94736842 L22,16.0526316 C22,17.6803158 20.7517273,19 19.2121212,19 L9.66666667,19 C8.97178788,19 8.33591919,18.730807 7.8480404,18.2867368 C7.25445455,17.7456491 3.18438384,13.6772982 2.83450505,13.3987719 C2.3280404,12.9952281 2,12.3539298 2,11.6315789 C2,10.9372281 2.30434343,10.2794737 2.77851515,9.86364912 C3.13791919,9.54778947 8.05411111,5.53175439 8.24206061,5.41312281 C8.65861616,5.15105263 9.1460303,5 9.66666667,5 L19.2121212,5 Z M9.60750009,14.2837372 C10.8752581,14.2837372 11.9025002,13.2564952 11.9025002,11.9887371 C11.9025002,10.7209791 10.8752581,9.69373703 9.60750009,9.69373703 C8.33974204,9.69373703 7.3125,10.7209791 7.3125,11.9887371 C7.3125,13.2564952 8.33974204,14.2837372 9.60750009,14.2837372 Z" id="Combined-Shape" fill="#ADB5BD"></path>
    </g>
</svg>