<svg width="24" height="24" viewBox="0 0 24 24" fill="#ADB5BD" xmlns="http://www.w3.org/2000/svg">
<path d="M20.7108 4.41L20.5908 4.29C20.3992 4.10727 20.1456 4.00368 19.8808 4H11.9308C11.3977 3.99958 10.8866 4.21196 10.5108 4.59L3.29079 11.81C2.90307 12.2 2.90307 12.83 3.29079 13.22L11.7808 21.71C12.1708 22.0977 12.8008 22.0977 13.1908 21.71L20.4108 14.49C20.7888 14.1142 21.0012 13.603 21.0008 13.07V5.12C20.9971 4.85523 20.8935 4.60163 20.7108 4.41ZM16.0008 11C14.8962 11 14.0008 10.1046 14.0008 9C14.0008 7.89543 14.8962 7 16.0008 7C17.1054 7 18.0008 7.89543 18.0008 9C18.0008 9.53043 17.7901 10.0391 17.415 10.4142C17.0399 10.7893 16.5312 11 16.0008 11Z" fill="#1E2128"/>
</svg>
