<svg width="24" height="25" viewBox="0 0 24 25" fill="none" xmlns="http://www.w3.org/2000/svg">
<g id="icons">
<path id="Vector" d="M17.603 15.4557L20.7256 15.4557C21.0172 15.4557 21.2461 15.2268 21.2461 14.9352L21.2461 6.60792C21.2461 6.31635 21.0172 6.08746 20.7256 6.08746L17.603 6.08746C17.3114 6.08746 17.0828 6.31634 17.0828 6.60792L17.0826 14.9349C17.0824 15.2266 17.3113 15.4555 17.603 15.4555L17.603 15.4557Z" fill="black"/>
<path id="Vector_2" d="M2.65235 14.7831C2.65235 15.6311 3.23466 16.4895 4.34682 16.4895H9.38888C8.66861 17.778 8.45672 19.5903 8.9575 20.9161C9.32528 21.8914 10.0282 22.4606 10.9378 22.5184L10.9525 22.5197C11.5445 22.5559 12.0567 22.1125 12.106 21.5216C12.2357 20.2065 12.812 17.8801 13.6378 17.0542C14.3331 16.3589 14.9283 16.0676 15.9151 15.5851C16.0579 15.5152 16.2139 15.439 16.3789 15.3568C16.376 15.321 16.3741 15.2854 16.3741 15.2488L16.3741 7.00654C16.255 6.9657 16.1374 6.92525 16.0219 6.88561C14.3934 6.32432 12.9861 5.83976 10.8351 5.83976H6.7589C5.6465 5.83976 5.06443 6.69837 5.06443 7.54616C5.06443 7.79781 5.11545 8.05012 5.21657 8.28117C4.84611 8.34774 4.52174 8.52599 4.2815 8.79868C4.00882 9.10859 3.85855 9.52043 3.85855 9.9585C3.85855 10.2093 3.90957 10.4615 4.01029 10.692C3.11725 10.8462 2.65226 11.6128 2.65226 12.3706C2.65226 12.8101 2.80883 13.2526 3.11433 13.5766C2.80938 13.9008 2.65254 14.3433 2.65254 14.7829L2.65235 14.7831Z" fill="black"/>
</g>
</svg>
