<svg width="24" height="24" viewBox="0 0 24 24" fill="none" xmlns="http://www.w3.org/2000/svg">
<g id="icons">
<path id="Vector" d="M6.29157 10.0116H3.16889C2.87733 10.0116 2.64844 10.2405 2.64844 10.5321V18.8594C2.64844 19.1509 2.87732 19.3798 3.16889 19.3798H6.29157C6.58313 19.3798 6.81175 19.1509 6.81175 18.8594L6.81189 10.5324C6.81215 10.2407 6.58327 10.0118 6.29157 10.0118L6.29157 10.0116Z" fill="black"/>
<path id="Vector_2" d="M21.3516 10.9979C21.3516 10.1499 20.7692 9.2915 19.6571 9.2915H14.615C15.3353 8.00297 15.5472 6.19066 15.0464 4.86487C14.6786 3.88961 13.9757 3.3204 13.0661 3.26256L13.0514 3.26136C12.4594 3.22506 11.9472 3.6685 11.8979 4.25938C11.7682 5.57454 11.1919 7.90086 10.3661 8.72681C9.67076 9.42216 9.07556 9.71345 8.08878 10.1959C7.94601 10.2658 7.78999 10.342 7.625 10.4242C7.62795 10.46 7.62982 10.4956 7.62982 10.5322V18.7745C7.74889 18.8153 7.86647 18.8558 7.98204 18.8954C9.61047 19.4567 11.0178 19.9412 13.1688 19.9412H17.245C18.3574 19.9412 18.9395 19.0826 18.9395 18.2348C18.9395 17.9832 18.8885 17.7309 18.7873 17.4998C19.1578 17.4333 19.4822 17.255 19.7224 16.9823C19.9951 16.6724 20.1454 16.2606 20.1454 15.8225C20.1454 15.5717 20.0943 15.3195 19.9936 15.089C20.8867 14.9348 21.3516 14.1682 21.3516 13.4104C21.3516 12.9709 21.1951 12.5284 20.8896 12.2044C21.1945 11.8802 21.3514 11.4377 21.3514 10.9981L21.3516 10.9979Z" fill="black"/>
</g>
</svg>
