<svg width="24" height="24" viewBox="0 0 24 24" fill="#ADB5BD" xmlns="http://www.w3.org/2000/svg">
<path d="M22 9.92V20.5C22 20.7761 21.7761 21 21.5 21H20.75C20.4739 21 20.25 20.7761 20.25 20.5V11.6L13.11 16.74C12.8625 16.9092 12.5698 16.9998 12.27 17H11.73C11.4302 16.9998 11.1375 16.9092 10.89 16.74L2.22 10.49C2.08232 10.3991 1.99963 10.245 2 10.08V9.92C1.99963 9.75501 2.08232 9.60091 2.22 9.51L10.89 3.26C11.1375 3.0908 11.4302 3.00019 11.73 3H12.27C12.5698 3.00019 12.8625 3.0908 13.11 3.26L21.78 9.51C21.9177 9.60091 22.0004 9.75501 22 9.92ZM12.27 18.75H11.73C11.0616 18.7455 10.41 18.5399 9.86 18.16L6 15.37V17C6 19.21 8.69 21 12 21C15.31 21 18 19.21 18 17V15.37L14.1 18.18C13.5612 18.5496 12.9234 18.7483 12.27 18.75Z" fill="#1E2128"/>
</svg>
