<?xml version="1.0" encoding="UTF-8"?>
<svg width="24px" height="24px" viewBox="0 0 24 24" version="1.1" xmlns="http://www.w3.org/2000/svg" xmlns:xlink="http://www.w3.org/1999/xlink">
    <!-- Generator: Sketch 57.1 (83088) - https://sketch.com -->
    <title>icon/grey/tutorial</title>
    <desc>Created with Sketch.</desc>
    <g id="icon/grey/tutorial" stroke="none" stroke-width="1" fill="none" fill-rule="evenodd">
        <path d="M6.451,12.526 L7.724,13.121 L7.72443936,15.2889505 C7.72443936,17.1710738 9.43078777,18.7132958 11.5693329,18.8078467 L11.7775954,18.8124403 L12.2169271,18.8124403 C14.3818255,18.8124403 16.1558312,17.3290366 16.2645924,15.4699934 L16.2698764,15.2889505 L16.269,13.136 L17.543,12.675 L17.5430872,15.2889505 C17.5430872,17.8389432 15.2778578,19.9260042 12.4476193,20.0340836 L12.2169359,20.0384802 L11.7776043,20.0384802 C8.91786111,20.0384802 6.57737954,18.0185344 6.45617673,15.4946631 L6.45124632,15.2889505 L6.451,12.526 Z M12.5973856,13.4009959 C12.2949563,13.5459408 11.946219,13.5646806 11.631736,13.4570542 L11.4992897,13.4031915 L8.714,12.074 L8.71455294,12.0685249 L5.80792424,10.6868502 L2.68468702,9.19632583 C2.26415851,8.99562004 1.99864616,8.58219986 2.00000519,8.13023932 C2.00123774,7.72347483 2.21844397,7.34913765 2.56931631,7.133742 L2.69111144,7.06800372 L11.4568143,3.12105365 C11.7548917,2.97985532 12.0977357,2.96217708 12.4070264,3.06802623 L12.537297,3.12095308 L21.3085976,7.07049885 C21.3993186,7.11385097 21.4841891,7.16773137 21.5613167,7.23093858 C21.8382889,7.45367749 21.9988366,7.78293173 21.9999537,8.13041968 C22.0034841,8.52188557 21.8049082,8.8893894 21.4700259,9.11116812 L21.3963513,9.15647004 L21.319582,9.19672599 L20.0279357,9.81932845 L20.0279357,11.6950685 C20.3005075,11.8008417 20.489825,12.0385374 20.5293672,12.3136464 L20.5370449,12.4183815 L20.5370449,15.0309052 C20.5358384,15.4285995 20.2269783,15.7565187 19.8275715,15.8056 L19.7259591,15.8119402 L19.6933259,15.8119402 C19.2803349,15.8107848 18.9397979,15.5133683 18.8888233,15.1287543 L18.8822378,15.0309052 L18.8822378,12.4183793 C18.8833001,12.1353946 19.0424488,11.8780102 19.2931658,11.7407314 L19.391347,11.6950663 L19.391347,10.1261765 L17.91,10.84 L17.9103797,10.8385018 L16.2698764,11.6307941 L12.5973856,13.4009959 Z M11.9970612,4.23135223 L3.32584908,8.13401045 L12.0459655,12.2957689 L20.6742822,8.13670459 L11.9970612,4.23135223 Z" id="Combined-Shape" fill="#ADB5BD" fill-rule="nonzero"></path>
    </g>
</svg>