<?xml version="1.0" encoding="UTF-8"?>
<svg width="18px" height="16px" viewBox="0 0 18 16" version="1.1" xmlns="http://www.w3.org/2000/svg" xmlns:xlink="http://www.w3.org/1999/xlink">
    <!-- Generator: Sketch 57.1 (83088) - https://sketch.com -->
    <title>icon/grey/tutorial</title>
    <desc>Created with Sketch.</desc>
    <g id="Page-1" stroke="none" stroke-width="1" fill="none" fill-rule="evenodd">
        <g id="Inspirations-Copy" transform="translate(-1306.000000, -52.000000)">
            <g id="Group-8" transform="translate(1277.000000, 33.000000)">
                <g id="Group-2">
                    <g id="Group" transform="translate(29.000000, 19.000000)">
                        <path d="M17.9999537,4.79496916 C17.9989482,4.47020158 17.8544553,4.1624755 17.6051803,3.95430029 C17.5357655,3.89522586 17.459382,3.84486841 17.3777332,3.80435085 L9.48356261,0.113044606 C9.17693959,-0.0377145567 8.8177221,-0.0376798333 8.51112823,0.113138605 L0.621995627,3.80201886 C0.242435857,3.98739816 0.00123254309,4.37239131 -7.81597009e-14,4.79480059 C-0.00122312479,5.21720987 0.237737982,5.60359873 0.616213648,5.79118145 L4.00611702,7.47130719 L4.00611702,11.4854422 C4.00611702,13.9331271 6.156509,15.9244257 8.79983915,15.9244257 L9.19523768,15.9244257 C11.8383778,15.9244257 13.9887738,13.9331171 13.9887738,11.4854422 L13.9887738,7.49288311 L15.6522076,6.66023421 L15.6522076,8.12654275 C15.3762308,8.23775993 15.1950849,8.50502015 15.1940093,8.80256223 L15.1940093,11.2442691 C15.1951857,11.6469353 15.5213224,11.9730666 15.9239886,11.9742364 L15.9533585,11.9742364 C16.3560239,11.9730655 16.6821594,11.6469345 16.6833358,11.2442691 L16.6833358,8.80256423 C16.6822635,8.50502113 16.5011164,8.23775926 16.2251375,8.12654475 L16.2251375,6.37344928 L17.3876192,5.79155545 C17.4345544,5.76807724 17.479797,5.741358 17.5230187,5.71159174 C17.8244127,5.50431394 18.003131,5.16083921 17.9999537,4.79506316 L17.9999537,4.79496916 L17.9999537,4.79496916 Z" id="Path" fill="#ADB5BD" fill-rule="nonzero"></path>
                        <path d="M12.8428841,11.4854422 C12.8428841,13.3012495 11.2064902,14.77855 9.19522968,14.77855 L8.79983115,14.77855 C6.78838065,14.77855 5.15199075,13.3012475 5.15199075,11.4854422 L5.15199075,8.03918907 L8.54935609,9.7229828 C8.86106653,9.87650996 9.22657219,9.87575106 9.53764241,9.72093081 L12.8428841,8.06647297 L12.8428841,11.4854422 L12.8428841,11.4854422 Z" id="Path" fill="#FFFFFF" fill-rule="nonzero"></path>
                        <polygon id="Path" fill="#FFFFFF" fill-rule="nonzero" points="8.99735042 1.15084074 16.8068493 4.80084314 9.04136425 8.68796865 1.1932595 4.79832515"></polygon>
                        <polygon id="Path-4" fill="#FFFFFF" points="3.42712714 7.18424843 6.04309297 8.47558284 6.04309297 9.89120018 3.42712714 8.62262406"></polygon>
                        <polygon id="Path-6" fill="#FFFFFF" points="12.6103873 8.18333938 14.319337 7.32598438 14.319337 8.91821637 12.8148098 9.48409941"></polygon>
                    </g>
                </g>
            </g>
        </g>
    </g>
</svg>
