<?xml version="1.0" encoding="UTF-8"?>
<svg width="24px" height="24px" viewBox="0 0 24 24" version="1.1" xmlns="http://www.w3.org/2000/svg" xmlns:xlink="http://www.w3.org/1999/xlink">
    <!-- Generator: Sketch 57.1 (83088) - https://sketch.com -->
    <title>icon/grey/tutorial</title>
    <desc>Created with Sketch.</desc>
    <g id="icon/grey/tutorial" stroke="none" stroke-width="1" fill="none" fill-rule="evenodd">
        <path d="M6.43955556,12.2664444 L7.77177778,12.902 L11.3517778,14.6108889 C11.5773333,14.7175556 11.8217778,14.772 12.0662222,14.7708889 C12.2626667,14.7708889 12.4584,14.7360444 12.64432,14.6663556 L12.7817778,14.6075556 L17.5606667,12.3042222 L17.5606667,16.3731111 C17.5606667,18.8354503 15.3169224,20.850094 12.5146262,20.9544227 L12.2862222,20.9586667 L11.714,20.9586667 C8.88274269,20.9586667 6.56449169,19.0088213 6.44443918,16.5717503 L6.43955556,16.3731111 L6.43955556,12.2664444 Z M19.8745556,11.1706667 L19.8745556,13.0462222 C20.1812222,13.1651111 20.3823333,13.4506667 20.3834444,13.7695556 L20.3834444,13.7695556 L20.3834444,16.3817778 C20.3823333,16.8128889 20.0201111,17.1617778 19.5723333,17.1628889 L19.5723333,17.1628889 L19.539,17.1628889 C19.0923333,17.1617778 18.7301111,16.8128889 18.729,16.3817778 L18.729,16.3817778 L18.729,13.7695556 C18.7301111,13.4506667 18.9312222,13.1651111 19.2378889,13.0462222 L19.2378889,13.0462222 L19.8745556,11.1706667 Z M12.406523,3.17857986 L12.5365556,3.23144444 L21.3087778,7.18144444 C21.3998889,7.22477778 21.4843333,7.27922222 21.561,7.34255556 C21.8387778,7.56477778 21.9987778,7.89477778 21.9999301,8.24144444 C22.0032222,8.63366667 21.8043333,9.00033333 21.4698889,9.22255556 L21.3965556,9.26741667 L21.3965556,9.26741667 L21.3198889,9.30811111 L20.7387778,9.58811111 L20.2776667,9.81033333 L20.0276667,9.93033333 L16.2698889,11.7425556 L12.5976667,13.5114444 C12.2953056,13.6572778 11.9461562,13.6763576 11.6313537,13.5679397 L11.4987778,13.5136667 L8.74766667,12.2014444 L5.85655556,10.8203333 L5.85655556,10.8214444 L2.68433333,9.307 C2.26433333,9.107 1.99877778,8.69255556 1.99988542,8.24144444 C2.00188854,7.83444444 2.21898885,7.46074444 2.56937889,7.24508444 L2.691,7.17922222 L11.4565556,3.23144444 C11.7550278,3.09047222 12.0977361,3.07285069 12.406523,3.17857986 Z" id="Combined-Shape" fill="#ACB4BD"></path>
    </g>
</svg>