<?xml version="1.0" encoding="UTF-8"?>
<svg width="17px" height="14px" viewBox="0 0 17 14" version="1.1" xmlns="http://www.w3.org/2000/svg" xmlns:xlink="http://www.w3.org/1999/xlink">
    <!-- Generator: Sketch 51.2 (57519) - http://www.bohemiancoding.com/sketch -->
    <title>twitter</title>
    <desc>Created with Sketch.</desc>
    <defs></defs>
    <g id="Components" stroke="none" stroke-width="1" fill="none" fill-rule="evenodd">
        <g id="Icon-Set" transform="translate(-139.000000, -306.000000)" fill-rule="nonzero">
            <g id="twitter" transform="translate(135.000000, 301.000000)">
                <rect id="Rectangle" x="0" y="0" width="24" height="24"></rect>
                <path d="M18.8553686,8.68998838 C18.8655249,8.8299817 18.8655249,8.9700058 18.8655249,9.10999911 C18.8655249,13.3799799 15.5660432,18.3 9.53555092,18.3 C7.67766866,18.3 5.95178692,17.7699769 4.5,16.8500165 C4.76396978,16.8799975 5.01775202,16.8900014 5.29187809,16.8900014 C6.82485283,16.8900014 8.23604584,16.3800169 9.3629565,15.5100145 C7.92132586,15.4800027 6.71319615,14.5500076 6.29694452,13.2699983 C6.50000781,13.2999793 6.70303986,13.3199872 6.91625944,13.3199872 C7.21066684,13.3199872 7.50510549,13.2799715 7.77920031,13.2100056 C6.27666319,12.9099804 5.14972129,11.6099941 5.14972129,10.0399943 L5.14972129,10.0000094 C5.58625424,10.2400111 6.09391248,10.3900083 6.63194583,10.4099854 C5.74869238,9.82997352 5.17003387,8.83998562 5.17003387,7.71997754 C5.17003387,7.1199886 5.33244075,6.56998848 5.61672311,6.08998502 C7.23094817,8.04998377 9.6573639,9.32996222 12.3781558,9.46998632 C12.3274056,9.22998459 12.2969367,8.98000972 12.2969367,8.73000406 C12.2969367,6.94998353 13.7588799,5.5 15.576137,5.5 C16.520297,5.5 17.3730815,5.88999897 17.9720839,6.51999966 C18.7131805,6.38000635 19.4238395,6.10999286 20.0533108,5.74000173 C19.8096223,6.49001869 19.2918703,7.12001938 18.6116801,7.51999149 C19.271589,7.45002561 19.9111852,7.26998584 20.5,7.02001097 C20.0533733,7.6599848 19.4949648,8.22996198 18.8553686,8.68998838 Z" id="Shape" fill="#ADB5BD"></path>
            </g>
        </g>
    </g>
</svg>