<?xml version="1.0" encoding="UTF-8"?>
<svg width="24px" height="24px" viewBox="0 0 24 24" version="1.1" xmlns="http://www.w3.org/2000/svg" xmlns:xlink="http://www.w3.org/1999/xlink">
    <!-- Generator: Sketch 52 (66869) - http://www.bohemiancoding.com/sketch -->
    <title>twitter</title>
    <desc>Created with Sketch.</desc>
    <g id="twitter" stroke="none" stroke-width="1" fill="none" fill-rule="evenodd">
        <path d="M19.1497896,8.4890498 C19.1612155,8.64216748 19.1612155,8.79531884 19.1612155,8.94843653 C19.1612155,13.618728 15.4492986,19 8.66499479,19 C6.57487725,19 4.63326029,18.4202873 3,17.4140805 C3.296966,17.4468722 3.58247103,17.457814 3.89086285,17.457814 C5.61545944,17.457814 7.20305157,16.9000185 8.47082606,15.9484534 C6.8489916,15.915628 5.48984566,14.8984458 5.02156258,13.4984357 C5.25000879,13.5312274 5.47841984,13.553111 5.71829187,13.553111 C6.04950019,13.553111 6.38074367,13.5093438 6.68910035,13.4328186 C4.99874609,13.104666 3.73093645,11.682806 3.73093645,9.96561874 L3.73093645,9.92188526 C4.22203602,10.1843872 4.79315154,10.3484466 5.39843906,10.3702965 C4.40477892,9.73590854 3.7537881,8.65310927 3.7537881,7.42810043 C3.7537881,6.77186253 3.93649585,6.1702999 4.2563135,5.64529611 C6.07231669,7.78904475 8.80203438,9.18902118 11.8629252,9.34217253 C11.8058313,9.07967064 11.7715538,8.80626063 11.7715538,8.53281695 C11.7715538,6.58591948 13.4162399,5 15.4606541,5 C16.5228341,5 17.4822167,5.42656137 18.1560944,6.11562463 C18.9898281,5.96250694 19.7893195,5.66717969 20.4974746,5.26250189 C20.2233251,6.08283294 19.6408541,6.7718962 18.8756401,7.20936569 C19.6180376,7.13284051 20.3375833,6.93592201 21,6.66251199 C20.4975449,7.36248338 19.8693354,7.98589592 19.1497896,8.4890498 Z" id="Shape" fill="#ADB5BD" fill-rule="nonzero"></path>
    </g>
</svg>