<svg width="24" height="24" viewBox="0 0 24 24" fill="#ADB5BD" xmlns="http://www.w3.org/2000/svg">
<path d="M21.9699 6.46378C21.4538 7.15213 20.8301 7.75258 20.1227 8.24195C20.1227 8.42177 20.1227 8.60158 20.1227 8.79139C20.1283 12.0568 18.824 15.1879 16.5021 17.4828C14.1801 19.7777 11.0348 21.0443 7.77126 20.9988C5.88453 21.0051 4.02196 20.5743 2.32945 19.7401C2.23819 19.7003 2.17933 19.61 2.17967 19.5103V19.4005C2.17967 19.257 2.2959 19.1407 2.43928 19.1407C4.29389 19.0796 6.08234 18.4366 7.55159 17.3026C5.87291 17.2688 4.36252 16.2744 3.66743 14.7453C3.63232 14.6617 3.64326 14.5659 3.69628 14.4925C3.7493 14.419 3.83676 14.3785 3.92704 14.3856C4.43723 14.4369 4.95252 14.3894 5.44476 14.2458C3.59163 13.8611 2.19922 12.3227 1.99994 10.4397C1.99286 10.3494 2.03334 10.2619 2.10676 10.2088C2.18018 10.1558 2.27592 10.1448 2.3594 10.18C2.8567 10.3994 3.39353 10.515 3.93703 10.5196C2.31325 9.45384 1.61189 7.42672 2.2296 5.58469C2.29336 5.4057 2.44655 5.27347 2.63287 5.2366C2.81919 5.19972 3.01116 5.26365 3.13823 5.40487C5.32941 7.73695 8.34014 9.12662 11.5356 9.28088C11.4537 8.95427 11.4135 8.61862 11.4158 8.28191C11.4457 6.51636 12.5381 4.94357 14.1816 4.29986C15.8251 3.65615 17.6945 4.06893 18.9145 5.34494C19.7461 5.18651 20.5501 4.90716 21.3009 4.51579C21.3559 4.48145 21.4256 4.48145 21.4806 4.51579C21.5149 4.57081 21.5149 4.64058 21.4806 4.6956C21.117 5.52835 20.5026 6.2268 19.7233 6.69355C20.4057 6.6144 21.0762 6.45341 21.7203 6.21404C21.7745 6.17713 21.8458 6.17713 21.9 6.21404C21.9454 6.23482 21.9794 6.27457 21.9929 6.32269C22.0063 6.37081 21.9979 6.42242 21.9699 6.46378Z" fill="#1E2128"/>
</svg>
