<?xml version="1.0" encoding="UTF-8"?>
<svg width="24px" height="24px" viewBox="0 0 24 24" version="1.1" xmlns="http://www.w3.org/2000/svg" xmlns:xlink="http://www.w3.org/1999/xlink">
    <!-- Generator: Sketch 51.2 (57519) - http://www.bohemiancoding.com/sketch -->
    <title>unscheduled</title>
    <desc>Created with Sketch.</desc>
    <defs></defs>
    <g id="unscheduled" stroke="none" stroke-width="1" fill="none" fill-rule="evenodd">
        <path d="M12,4.04776 C16.4119616,4.04776 20,7.59636659 20,11.9598479 C20,16.3233292 16.4119616,19.8719358 12,19.8719358 C7.5880384,19.8719358 4,16.3233292 4,11.9598479 C4,7.59636659 7.5880384,4.04776 12,4.04776 Z M11.9944444,6.67413363 C11.8520197,6.6755845 11.7160978,6.73331261 11.6169604,6.83445676 C11.5178231,6.93560092 11.4637063,7.07175852 11.4666667,7.21259516 L11.4666667,11.9598479 C11.4677887,12.0979675 11.5236397,12.2301424 11.6222222,12.3279798 L15.0166667,15.6851226 C15.1473597,15.8331513 15.350417,15.8970593 15.5435744,15.8509558 C15.7367317,15.8048522 15.8879648,15.6563809 15.9360048,15.4656916 C15.9840448,15.2750023 15.920927,15.0737102 15.7722222,14.9433644 L12.5333333,11.7400677 L12.5333333,7.21259516 C12.5363341,7.06985272 12.4807053,6.93200308 12.3791524,6.83053073 C12.2775995,6.72905838 12.1387961,6.67262998 11.9944444,6.67413363 Z" id="Shape" fill="#ADB5BD" fill-rule="nonzero"></path>
    </g>
</svg>