<svg width="24" height="24" viewBox="0 0 24 24" fill="#ADB5BD" xmlns="http://www.w3.org/2000/svg">
<path d="M8.00154 8C8.00154 5.79086 9.79308 4 12.0031 4C14.213 4 16.0046 5.79086 16.0046 8C16.0046 10.2091 14.213 12 12.0031 12C10.9418 12 9.92398 11.5786 9.17355 10.8284C8.42312 10.0783 8.00154 9.06087 8.00154 8ZM19.896 18.55L18.4555 15.66C17.9465 14.6408 16.904 13.9978 15.7645 14H8.24163C7.1021 13.9978 6.0596 14.6408 5.55061 15.66L4.11007 18.55C3.95404 18.8595 3.96947 19.2277 4.15085 19.5231C4.33222 19.8185 4.65368 19.999 5.0004 20H19.0057C19.3524 19.999 19.6739 19.8185 19.8553 19.5231C20.0366 19.2277 20.0521 18.8595 19.896 18.55Z" fill="#1E2128"/>
</svg>
