<svg width="24" height="24" viewBox="0 0 24 24" fill="#ADB5BD" xmlns="http://www.w3.org/2000/svg">
<path d="M14.0037 9.5C14.0037 8.11929 15.1233 7 16.5044 7C17.8855 7 19.0052 8.11929 19.0052 9.5C19.0052 10.8807 17.8855 12 16.5044 12C15.1233 12 14.0037 10.8807 14.0037 9.5ZM9.00214 11C10.6595 11 12.0031 9.65685 12.0031 8C12.0031 6.34315 10.6595 5 9.00214 5C7.34479 5 6.00124 6.34315 6.00124 8C6.00124 9.65685 7.34479 11 9.00214 11ZM14.4538 14.66C13.9448 13.6408 12.9024 12.9978 11.763 13H6.24131C5.10186 12.9978 4.05945 13.6408 3.55049 14.66L2.11006 17.55C1.95404 17.8595 1.96947 18.2277 2.15083 18.5231C2.3322 18.8185 2.65363 18.999 3.00033 19H15.004C15.3507 18.999 15.6721 18.8185 15.8535 18.5231C16.0348 18.2277 16.0502 17.8595 15.8942 17.55L14.4538 14.66ZM21.896 17.55L20.9458 15.65C20.4356 14.638 19.3986 13.9997 18.2649 14H16.3544L17.6848 16.66C18.0503 17.3874 18.1044 18.2319 17.8348 19H21.0058C21.3525 18.999 21.6739 18.8185 21.8553 18.5231C22.0366 18.2277 22.0521 17.8595 21.896 17.55Z" fill="#1E2128"/>
</svg>
