<?xml version="1.0" encoding="UTF-8"?>
<svg width="24px" height="24px" viewBox="0 0 24 24" version="1.1" xmlns="http://www.w3.org/2000/svg" xmlns:xlink="http://www.w3.org/1999/xlink">
    <!-- Generator: Sketch 52 (66869) - http://www.bohemiancoding.com/sketch -->
    <title>users</title>
    <desc>Created with Sketch.</desc>
    <g id="users" stroke="none" stroke-width="1" fill="none" fill-rule="evenodd">
        <path d="M6.71970147,8.90683677 C5.07951912,8.90683677 3.74988861,7.58454632 3.74988861,5.95341839 C3.74988861,4.32229045 5.07951912,3 6.71970147,3 C8.35988382,3 9.68951433,4.32229045 9.68951433,5.95341839 C9.68951433,7.58454632 8.35988382,8.90683677 6.71970147,8.90683677 Z M6.71970147,21 C4.66536707,21 3,18.4661183 3,15.3404169 C3,12.2147154 4.66536707,9.68083378 6.71970147,9.68083378 C8.77403587,9.68083378 10.4394029,12.2147154 10.4394029,15.3404169 C10.4394029,18.4661183 8.77403587,21 6.71970147,21 Z M16.5434427,8.90683677 C14.9032604,8.90683677 13.5736299,7.58454632 13.5736299,5.95341839 C13.5736299,4.32229045 14.9032604,3 16.5434427,3 C18.1836251,3 19.5132556,4.32229045 19.5132556,5.95341839 C19.5132556,7.58454632 18.1836251,8.90683677 16.5434427,8.90683677 Z M16.5434427,9.49040858 C19.0046413,9.49040858 21,14.0705832 21,15.5481233 C21,16.2536602 20.5425145,16.8930635 19.7996435,17.3709543 C19.2957077,19.4915533 18.0295188,20.999003 16.5434427,20.999003 C15.0573667,20.999003 13.7911778,19.4915533 13.2865736,17.3709543 C12.5447052,16.8930635 12.0865513,16.2536602 12.0865513,15.5481233 C12.0865513,14.0705832 14.0815758,9.49040858 16.5434427,9.49040858 Z" id="shape" fill="#ADB5BD" fill-rule="nonzero"></path>
    </g>
</svg>