<svg width="24" height="24" viewBox="0 0 24 24" fill="#ADB5BD" xmlns="http://www.w3.org/2000/svg">
<path d="M22.9051 19.63L12.8128 2.37C12.6759 2.14121 12.4292 2.00081 12.1626 2H11.8625C11.5959 2.00081 11.3492 2.14121 11.2124 2.37L1.09998 19.63C0.97009 19.8667 0.97009 20.1533 1.09998 20.39L1.24002 20.62C1.36964 20.8573 1.61979 21.0035 1.89017 21H22.115C22.3853 21.0035 22.6355 20.8573 22.7651 20.62L22.9051 20.39C23.035 20.1533 23.035 19.8667 22.9051 19.63ZM13.0028 16.5C13.0028 16.7761 12.7789 17 12.5027 17H11.5024C11.2262 17 11.0023 16.7761 11.0023 16.5V15.5C11.0023 15.2239 11.2262 15 11.5024 15H12.5027C12.7789 15 13.0028 15.2239 13.0028 15.5V16.5ZM12.7827 12.78C12.7675 12.9062 12.6599 13.0009 12.5327 13H11.4724C11.3453 13.0009 11.2376 12.9062 11.2224 12.78L10.8223 9.56C10.805 9.41735 10.85 9.27417 10.9457 9.16698C11.0415 9.05979 11.1787 8.99896 11.3224 9H12.6827C12.8264 8.99896 12.9637 9.05979 13.0594 9.16698C13.1551 9.27417 13.2001 9.41735 13.1828 9.56L12.7827 12.78Z" fill="#1E2128"/>
</svg>
