<svg width="24" height="24" viewBox="0 0 24 24" fill="#ADB5BD" xmlns="http://www.w3.org/2000/svg">
<path d="M20 4.48998L18.54 4.33999C14.1716 3.89001 9.76847 3.89001 5.40003 4.33999L4.00003 4.48998C2.27155 4.68535 0.973586 6.1607 1.00003 7.89999V16.1C0.973586 17.8393 2.27155 19.3146 4.00003 19.51L5.46003 19.66C9.82847 20.11 14.2316 20.11 18.6 19.66L20 19.51C21.7285 19.3146 23.0265 17.8393 23 16.1V7.89999C23.0265 6.1607 21.7285 4.68535 20 4.48998ZM15 12.62L11.11 15.22C10.8835 15.3443 10.609 15.3433 10.3834 15.2173C10.1578 15.0913 10.0129 14.8581 10 14.6V9.39999C10.0005 9.12278 10.1539 8.86845 10.3989 8.73865C10.6438 8.60885 10.9404 8.62475 11.17 8.77999L15.06 11.38C15.2696 11.5166 15.396 11.7498 15.396 12C15.396 12.2502 15.2696 12.4834 15.06 12.62H15Z" fill="#1E2128"/>
</svg>
